<svg xmlns="http://www.w3.org/2000/svg" xml:space="preserve" fill-rule="evenodd" stroke-linejoin="round" stroke-miterlimit="2" clip-rule="evenodd" viewBox="0 0 64 64">
  <g id="brown">
    <path fill="#b97a48" d="M12.008 7.936v48.128H10.91a4.017 4.017 0 0 0-2.974-2.974V10.91a4.017 4.017 0 0 0 2.974-2.974h1.098Zm3.653 48.128V7.936h3.468v48.128h-3.468Zm7.121 0V7.936h3.752v48.128h-3.752ZM33.937 7.936v48.128h-3.751V7.936h3.751Zm3.653 48.128V7.936h3.752v48.128H37.59Zm14.809 0V7.936h.691a4.017 4.017 0 0 0 2.974 2.974v42.18a4.017 4.017 0 0 0-2.974 2.974h-.691ZM48.746 7.936v48.128h-3.752V7.936h3.752Z"/>
    <path fill="#7a523f" d="M12.008 56.064V7.936h3.653v48.128h-3.653Zm7.121 0V7.936h3.653v48.128h-3.653Zm7.404 0V7.936h3.653v48.128h-3.653Zm7.404 0V7.936h3.653v48.128h-3.653Zm7.405 0V7.936h3.652v48.128h-3.652Zm7.404 0V7.936h3.653v48.128h-3.653Z"/>
  </g>
  <g id="blue">
    <path fill="#d1f8fd" d="M4.851 10.391A4.021 4.021 0 0 1 3 7.01C3.004 4.812 4.812 3.004 7.01 3a4.02 4.02 0 0 1 3.381 1.851h43.218A4.021 4.021 0 0 1 56.99 3c2.198.004 4.006 1.812 4.01 4.01a4.021 4.021 0 0 1-1.851 3.381v43.218A4.021 4.021 0 0 1 61 56.99c-.004 2.198-1.812 4.006-4.01 4.01a4.021 4.021 0 0 1-3.381-1.851H10.391A4.021 4.021 0 0 1 7.01 61c-2.198-.004-4.006-1.812-4.01-4.01a4.02 4.02 0 0 1 1.851-3.381V10.391ZM53.09 7.936H10.91a4.017 4.017 0 0 1-2.974 2.974v42.18a4.017 4.017 0 0 1 2.974 2.974h42.18a4.017 4.017 0 0 1 2.974-2.974V10.91a4.017 4.017 0 0 1-2.974-2.974Z"/>
  </g>
</svg>
