<svg xmlns="http://www.w3.org/2000/svg" xml:space="preserve" fill-rule="evenodd" stroke-linejoin="round" stroke-miterlimit="2" clip-rule="evenodd" viewBox="0 0 64 64">
  <g id="brown">
    <path fill="#b97a48" d="M15.455 12.085v39.83h-.909a3.32 3.32 0 0 0-2.461-2.461V14.546a3.32 3.32 0 0 0 2.461-2.461h.909Zm3.023 39.83v-39.83h2.87v39.83h-2.87Zm5.893 0v-39.83h3.105v39.83h-3.105Zm9.232-39.83v39.83h-3.104v-39.83h3.104Zm3.023 39.83v-39.83h3.105v39.83h-3.105Zm12.256 0v-39.83h.572a3.32 3.32 0 0 0 2.461 2.461v34.908a3.32 3.32 0 0 0-2.461 2.461h-.572Zm-3.023-39.83v39.83h-3.105v-39.83h3.105Z"/>
    <path fill="#7a523f" d="M15.455 51.915v-39.83h3.023v39.83h-3.023Zm5.893 0v-39.83h3.023v39.83h-3.023Zm6.128 0v-39.83h3.023v39.83h-3.023Zm6.127 0v-39.83h3.023v39.83h-3.023Zm6.128 0v-39.83h3.023v39.83h-3.023Zm6.128 0v-39.83h3.023v39.83h-3.023Z"/>
  </g>
  <g id="blue">
    <path fill="#d1f8fd" d="M9.532 14.117A3.326 3.326 0 0 1 8 11.319 3.325 3.325 0 0 1 11.319 8c1.175 0 2.206.613 2.798 1.532h35.766A3.326 3.326 0 0 1 52.681 8 3.325 3.325 0 0 1 56 11.319a3.326 3.326 0 0 1-1.532 2.798v35.766A3.326 3.326 0 0 1 56 52.681 3.325 3.325 0 0 1 52.681 56a3.326 3.326 0 0 1-2.798-1.532H14.117A3.326 3.326 0 0 1 11.319 56 3.325 3.325 0 0 1 8 52.681c0-1.175.613-2.206 1.532-2.798V14.117Zm39.922-2.032H14.546a3.32 3.32 0 0 1-2.461 2.461v34.908a3.32 3.32 0 0 1 2.461 2.461h34.908a3.32 3.32 0 0 1 2.461-2.461V14.546a3.32 3.32 0 0 1-2.461-2.461Z"/>
  </g>
</svg>
