<svg xmlns="http://www.w3.org/2000/svg" xml:space="preserve" fill-rule="evenodd" stroke-linejoin="round" stroke-miterlimit="2" clip-rule="evenodd" viewBox="0 0 64 64">
  <g id="blue">
    <path fill="#d1f8fd" d="M4.851 10.389A4.005 4.005 0 0 1 3 7.01 4.012 4.012 0 0 1 7.01 3c1.42 0 2.667.738 3.379 1.851h43.222A4.005 4.005 0 0 1 56.99 3 4.012 4.012 0 0 1 61 7.01c0 1.42-.738 2.667-1.851 3.379v43.222A4.005 4.005 0 0 1 61 56.99 4.012 4.012 0 0 1 56.99 61a4.005 4.005 0 0 1-3.379-1.851H10.389A4.005 4.005 0 0 1 7.01 61 4.012 4.012 0 0 1 3 56.99c0-1.42.738-2.667 1.851-3.379V10.389Zm48.236-2.453H10.913a4.018 4.018 0 0 1-2.977 2.977v42.174a4.018 4.018 0 0 1 2.977 2.977h42.174a4.018 4.018 0 0 1 2.977-2.977V10.913a4.018 4.018 0 0 1-2.977-2.977Z"/>
    <path fill="#a3b7c8" d="M53.087 7.936a4.018 4.018 0 0 0 2.977 2.977v42.174a4.018 4.018 0 0 0-2.977 2.977H10.913a4.018 4.018 0 0 0-2.977-2.977V10.913a4.018 4.018 0 0 0 2.977-2.977h42.174Z"/>
  </g>
</svg>
