<?xml version="1.0" encoding="UTF-8" standalone="no"?><!DOCTYPE svg PUBLIC "-//W3C//DTD SVG 1.1//EN" "http://www.w3.org/Graphics/SVG/1.1/DTD/svg11.dtd"><svg width="100%" height="100%" viewBox="0 0 64 64" version="1.1" xmlns="http://www.w3.org/2000/svg" xmlns:xlink="http://www.w3.org/1999/xlink" xml:space="preserve" xmlns:serif="http://www.serif.com/" style="fill-rule:evenodd;clip-rule:evenodd;stroke-linejoin:round;stroke-miterlimit:2;"><g id="blue"><path d="M9.532,14.115C8.611,13.526 8,12.494 8,11.319C8,9.487 9.487,8 11.319,8C12.494,8 13.526,8.611 14.115,9.532L49.885,9.532C50.474,8.611 51.506,8 52.681,8C54.513,8 56,9.487 56,11.319C56,12.494 55.389,13.526 54.468,14.115L54.468,49.885C55.389,50.474 56,51.506 56,52.681C56,54.513 54.513,56 52.681,56C51.506,56 50.474,55.389 49.885,54.468L14.115,54.468C13.526,55.389 12.494,56 11.319,56C9.487,56 8,54.513 8,52.681C8,51.506 8.611,50.474 9.532,49.885L9.532,14.115ZM49.451,12.085L14.549,12.085C14.261,13.302 13.302,14.261 12.085,14.549L12.085,49.451C13.302,49.739 14.261,50.698 14.549,51.915L49.451,51.915C49.739,50.698 50.698,49.739 51.915,49.451L51.915,14.549C50.698,14.261 49.739,13.302 49.451,12.085Z" style="fill:#d1f8fd;"/><path d="M49.451,12.085C49.739,13.302 50.698,14.261 51.915,14.549L51.915,49.451C50.698,49.739 49.739,50.698 49.451,51.915L14.549,51.915C14.261,50.698 13.302,49.739 12.085,49.451L12.085,14.549C13.302,14.261 14.261,13.302 14.549,12.085L49.451,12.085Z" style="fill:#a3b7c8;"/></g></svg>