<svg xmlns="http://www.w3.org/2000/svg" xml:space="preserve" fill-rule="evenodd" stroke-linejoin="round" stroke-miterlimit="2" clip-rule="evenodd" viewBox="0 0 64 64">
  <g id="grey">
    <path fill="#8391a5" d="M49.454 12.085a3.32 3.32 0 0 0 2.461 2.461v34.908a3.32 3.32 0 0 0-2.461 2.461H14.546a3.32 3.32 0 0 0-2.461-2.461V14.546a3.32 3.32 0 0 0 2.461-2.461h34.908Z"/>
    <path fill="#778496" d="M17.212 12.085v2.012h-4.08a3.318 3.318 0 0 0 1.414-2.012h2.666Zm-4.839 2.38h1.959v2.706h-2.247v-2.625c.098-.023.194-.05.288-.081Zm-.288 3.053h4.8v2.707h-4.8v-2.707Zm0 3.074h6.781v2.707h-6.781v-2.707Zm0 2.982h2.962v2.707h-2.962v-2.707Zm0 3.075h.072v2.706h-.072v-2.706Zm0 3.053h2.635v2.707h-2.635v-2.707Zm0 3.074h4.616v2.707h-4.616v-2.707Zm0 3.217h5.607V38.7h-5.607v-2.707Zm0 3.064h2.717v2.706h-2.717v-2.706Zm0 3.054h5.27v2.706h-5.27v-2.706Zm0 3.074h7.251v2.706h-7.251v-2.706Zm0 2.992h3.442v2.706h-1.42a3.316 3.316 0 0 0-2.022-1.429v-1.277Zm2.218 3.054h6.371v.684h-6.128a3.27 3.27 0 0 0-.243-.684Zm6.698.684v-.674h7.7v.674h-7.7Zm8.252 0v-.664h7.7v.664h-7.7Zm8.027 0v-.674h7.7v.674h-7.7Zm8.037 0v-.664h4.371c-.101.21-.18.432-.234.664h-4.137Zm4.576-1.032h-1.696v-2.706h3.718v1.277a3.316 3.316 0 0 0-2.022 1.429Zm2.022-6.046h-1.889v-2.706h1.889v2.706Zm0-3.063h-4.443v-2.707h4.443v2.707Zm0-3.074h-1.563v-2.707h1.563V38.7Zm0-3.217h-2.543v-2.707h2.543v2.707Zm0-3.054H47.38v-2.706h4.535v2.706Zm0-3.074h-7.078v-2.706h7.078v2.706Zm0-3.064h-4.208v-2.706h4.208v2.706Zm0-2.992h-.398v-2.707h.398v2.707Zm0-3.054h-2.369v-2.706h2.369v2.706Zm0-3.064h-4.923v-2.706l4.889.063.034.008v2.635Zm-1.024-3.069-1.019.005v-1.033c.26.413.609.764 1.019 1.028Zm-1.345-1.709v1.704h-7.701v-2.022h7.609c.025.108.056.214.092.318Zm-8.028-.318v2.022h-7.7v-2.022h7.7Zm-8.241 0v2.012h-7.701v-2.012h7.701Zm-8.038 0v2.012h-7.7v-2.012h7.7Zm-.184 23.398v-2.707h7.701v2.707h-7.701Zm6.056-11.909v2.707h-7.7v-2.707h7.7Zm16.28.011v2.706H39.69v-2.706h7.701Zm3.809-2.993v2.707h-7.7v-2.707h7.7Zm-28.126 2.982v2.707h-7.7v-2.707h7.7Zm1.655 9.202v2.707h-7.701v-2.707h7.701Zm14.624-9.191v2.706h-7.7v-2.706h7.7Zm-26.859 5.76v-2.707h7.7v2.707h-7.7Zm14.4-8.753v2.707h-7.701v-2.707h7.701Zm.326 2.697v-2.707h7.701v2.707H27.22Zm11.418-8.824v2.706h-7.7v-2.706h7.7Zm.327 2.706v-2.706h7.701v2.706h-7.701Zm-5.474 3.064v-2.706h7.7v2.706h-7.7Zm8.027 0v-2.706h7.701v2.706h-7.701Zm1.655.357v2.707h-7.701v-2.707h7.701Zm-12.399 9.12v2.707h-7.7v-2.707h7.7Zm2.166-12.183v2.706h-7.701v-2.706h7.701Zm-17.893 14.88v-2.707h7.7v2.707h-7.7Zm-.388-15.248v-2.707h7.7v2.707h-7.7Zm13.572 9.488v2.706h-7.7v-2.706h7.7Zm2.155-12.184v2.706h-7.7v-2.706h7.7Zm-13.174 5.76v-2.707h7.7v2.707h-7.7Zm13.654 18.832v2.706h-7.7v-2.706h7.7Zm5.607-12.408v2.706h-7.7v-2.706h7.7Zm-2.512 18.178v-2.706h7.7v2.706h-7.7Zm8.037 0v-2.706h7.701v2.706h-7.701Zm-2.553-3.064v-2.706h7.701v2.706h-7.701Zm4.208 3.432v2.706h-7.701v-2.706h7.701Zm-1.655-9.202V38.7h-7.7v-2.707h7.7Zm-2.88 3.074v2.707h-7.7v-2.707h7.7Zm12.562 6.128v2.706h-7.7v-2.706h7.7Zm-17.934-9.202V38.7h-7.7v-2.707h7.7Zm-2.42-3.574v-2.707h7.7v2.707h-7.7Zm5.474-3.064v-2.706h7.7v2.706h-7.7Zm-11.081 6.638V38.7h-7.7v-2.707h7.7Zm1.655 9.192v2.706h-7.701v-2.706h7.701Zm.326 2.706v-2.706h7.701v2.706H27.7Zm21.345-15.115v2.707h-7.7v-2.707h7.7Zm-9.692-.357v-2.707h7.701v2.707h-7.701Zm1.655.357v2.707h-7.701v-2.707h7.701Zm-25.869 8.977v-2.706h7.7v2.706h-7.7Zm18.281.368v2.706h-7.701v-2.706h7.701Zm16.606-6.128V38.7h-7.701v-2.707h7.701Zm-32.344 8.824v-2.706h7.7v2.706h-7.7Zm30.178 3.36v2.706h-7.7v-2.706h7.7Zm-24.306 0v2.706h-7.7v-2.706h7.7Zm16.279 0v2.706h-7.7v-2.706h7.7Zm-8.242 0v2.706h-7.7v-2.706h7.7Z"/>
  </g>
  <g id="blue">
    <path fill="#d1f8fd" d="M9.532 14.117A3.326 3.326 0 0 1 8 11.319 3.325 3.325 0 0 1 11.319 8c1.175 0 2.206.613 2.798 1.532h35.766A3.326 3.326 0 0 1 52.681 8 3.325 3.325 0 0 1 56 11.319a3.326 3.326 0 0 1-1.532 2.798v35.766A3.326 3.326 0 0 1 56 52.681 3.325 3.325 0 0 1 52.681 56a3.326 3.326 0 0 1-2.798-1.532H14.117A3.326 3.326 0 0 1 11.319 56 3.325 3.325 0 0 1 8 52.681c0-1.175.613-2.206 1.532-2.798V14.117Zm39.922-2.032H14.546a3.32 3.32 0 0 1-2.461 2.461v34.908a3.32 3.32 0 0 1 2.461 2.461h34.908a3.32 3.32 0 0 1 2.461-2.461V14.546a3.32 3.32 0 0 1-2.461-2.461Z"/>
  </g>
</svg>
