<svg xmlns="http://www.w3.org/2000/svg" xml:space="preserve" fill-rule="evenodd" stroke-linejoin="round" stroke-miterlimit="2" clip-rule="evenodd" viewBox="0 0 64 64">
  <g id="grey">
    <path fill="#4b5561" d="M49.464 51.915H14.536a3.322 3.322 0 0 0-2.451-2.451V14.536a3.322 3.322 0 0 0 2.451-2.451h34.928a3.322 3.322 0 0 0 2.451 2.451v34.928a3.322 3.322 0 0 0-2.451 2.451Z"/>
    <path fill="#ebebeb" d="M21.563 51.915a3.77 3.77 0 0 1 .227-.407c-.063.128-.123.271-.192.407h-.035ZM44.766 25.84a.735.735 0 0 1-.102.134v-.102c0-.071.049-.241.114-.303-.056.058-.082.201-.012.201v.07ZM17.089 44.051c.102-.204.205-.306.307-.408a.853.853 0 0 0-.047.109c-.087.027-.173.126-.26.299Zm4.085-18.996v.102c-.102-.204-.204.103-.408 0 .204.103.306-.204.408-.102Zm-7.6-10.314c.023-.032.043-.057.043-.103v.102l-.043.001ZM49.872 30.06c0 .306 0 .306-.102.51.102-.204.102-.306.102-.51Zm-17.157 6.434c-.038.024-.074.028-.102 0v-.103l.306-.306c-.102.102-.204.204-.204.306-.102 0 0 .103 0 .103ZM12.494 30.06s-.103.102-.103 0v-.103c0-.102.103-.102.103-.102.102 0 .204-.102.408-.102-.204 0-.306.204-.306.204s-.102 0-.102.103Zm7.548-12.961.111-.112s.102 0 .102.102c0 .205-.102.205-.102.307-.195.195-.297.391-.485.407.086-.078.168-.192.281-.305.102-.102.102-.204.102-.307a.391.391 0 0 0-.009-.092Zm-.817.706a.186.186 0 0 0 .019-.011l-.01.01-.009.001Zm-1.727 18.587.102-.103v.102a3.215 3.215 0 0 1-.137.195.51.51 0 0 0 .035-.194Zm13.273 2.93a.276.276 0 0 0 .106-.071v.204c0 .102-.103.205-.103.307 0 .102-.102.102-.102.102 0-.102.102-.204.102-.307v-.204a.142.142 0 0 0-.003-.031Zm-15.214-16.82c.14-.14.28-.232.42-.276-.111.122-.265.199-.42.276Zm0 0c0-.306.103-.306 0-.408.307-.307.511-.409.715-.613.102 0 .102-.102.102 0a.14.14 0 0 1 .042.069.247.247 0 0 0-.042.033c-.306.204-.51.408-.714.613 0 .102-.103.102-.103.306Zm35.745 19.404c0-.204.102-.102.102 0 0-.102-.102-.102-.102 0Zm0 0c0 .307-.102.613-.102 1.022 0-.307 0-.715.102-1.022Zm-10.743-9.484c-.026.032-.054.06-.082.089 0-.062.113-.275.201-.433l-.001.015a1.154 1.154 0 0 0-.118.329Zm-26.636-9.716c-.102 0-.204.103-.204-.204 0-.204 0-.204.102-.204s.102-.102.205-.204c.102 0 .102-.103.102-.103.102 0 .204-.204.204 0l.003.007a.804.804 0 0 0-.105.096c-.102 0-.102.102-.102.102-.102.102-.102.204-.205.204 0 0-.102 0-.102.204 0 .102 0 .102.102.102Zm9.063 24.38a1.876 1.876 0 0 0-.075.233c-.102.102-.102.102-.102 0v-.102h.102c.021-.043.047-.085.075-.131Zm26.858-.439a2.194 2.194 0 0 1-.074.264v-.102c0-.133 0-.265.028-.398a.451.451 0 0 0 .046.236Zm-12.227.468c0 .306-.204.817-.306.919.102-.102.306-.715.306-.919Zm-7.353-26.247c-.102.306-.204.409-.307.511v-.102c.103 0 .205-.103.307-.409Zm4.187 11.438c0 .103 0 .205.102.103a.605.605 0 0 0-.102.136v-.239Zm0 0c0-.102 0-.204-.102-.102-.046-.138-.071-.213-.094-.227.094-.283.097-.275.196.023v.306Zm-1.624 2.856a.57.57 0 0 0-.01.106.457.457 0 0 1-.113.311.503.503 0 0 0 .011-.107c0-.141.049-.233.112-.31Zm4.182 16.335c.014-.164.058-.297.112-.421-.031.147-.055.3-.112.421Zm.404-1.216s0-.102-.102-.102c.102-.307.204-.409.204-.715 0-.102.102-.102.102 0 .027.054.04.109.044.163-.06.138-.146.251-.146.45 0 .102-.102.102-.102.204Zm-5.004-.102c.204-.307.408-.613.612-1.328v.102c-.102.613-.306.919-.612 1.226Zm0 0c0-.287 0-.395.083-.408-.029.11-.083.259-.083.408Zm13.276-28.085c0-.103 0-.205-.102-.205 0 0 .102-.102.102 0v.205Zm0 0c0 .102 0 .408-.102.51 0 0-.102.102-.102.205h-.102c0-.103 0-.205.102-.205.204-.102.204-.306.204-.51Zm-8.17 28.493c0-.081 0-.097.051-.152l-.013.063a.123.123 0 0 0-.038.089Zm0 0c0 .202-.099.304-.102.502-.031.04-.067.076-.102.111 0 .204-.102.409-.205.613 0 0-.102.102-.102 0v-.102c0 .102.102.102.102 0 .103-.205.103-.409.205-.613 0-.194.092-.296.188-.567a.122.122 0 0 1 .016.056Zm-20.426-9.089c-.102 0-.204.204-.306.204.204-.102.204-.204.306-.204Zm0 0c.102-.102.307-.307.409-.511-.102.204-.204.409-.409.511Zm20.528-1.43c.04 0 .048.015.039.046a.398.398 0 0 0-.039-.046Zm3.166-8.17s-.023.038-.054.095l-.002.001.056-.096Zm0 0c.065 0 .047.041 0 .071v-.071Zm-5.24 19.828a.235.235 0 0 0-.071-.117c.102-.307.205-.613.307-.818l.102-.102v.102c-.102.307-.204.511-.307.818a.31.31 0 0 1-.031.117Zm1.768-3.794c0-.306.102-.511.204-.817 0 .306-.102.511-.204.817Zm-4.837-12.308c-.033-.082.037-.152.037-.152a.67.67 0 0 0 .198-.224 1.125 1.125 0 0 1-.235.376Zm1.148-2.492c.134-.275.277-.541.435-.792-.014.041-.014.069-.014.069a7.308 7.308 0 0 0-.421.723Zm.698-.218c-.02.075-.042.147-.073.209l-.02.021.093-.23Zm-.17.404c-.005.037-.005.074-.005.112 0 .239-.063.354-.139.393a.464.464 0 0 0 .037-.189c0-.102.102-.204.102-.306l.005-.01Zm16.233 9.916c0-.204 0-.306.102-.408-.102.204-.102.306-.102.408Zm.102-.408c0 .306 0 .408-.102.408.102-.102.102-.204.102-.408Zm-4.698-14.4a.78.78 0 0 0-.204.51c-.05.05-.051.076-.039.089a.169.169 0 0 1-.063.013v-.102c.102-.204.102-.408.306-.51Zm0 0c0 .153-.057.421-.172.545.057-.124.172-.392.172-.545ZM19.498 17.9a.234.234 0 0 1-.14.117c.012-.018.008-.052-.022-.111h.102a.29.29 0 0 0 .06-.006Z"/>
    <path fill="#545f6c" d="M21.598 51.915c.135-.265.232-.554.393-.715-.059.356-.153.575-.261.715h-.132Zm13.883 0c.025-.139.093-.223.093-.306.103-.307.205-.511.307-.818 0 0 0-.102.102-.102v.205c0 .204-.102.51-.204.612-.102.103-.102.205-.102.307a.495.495 0 0 0-.078.102h-.118Zm15.004-9.089c0 .204 0 .306-.102.408 0-.102 0-.204.102-.408Zm-30.434-7.149c.102-.307.204-.511.409-.511-.103.408-.205.408-.409.511Zm-2.962 8.374c.102-.204.205-.306.307-.306 0 .204-.102.306-.307.306Zm17.668-2.247c0 .205-.102.307-.204.409.102-.204.102-.307.204-.409Zm1.43 8.783c.102.307.102.613-.102.715-.102-.204.102-.408.102-.715Zm-15.421-25.43c.102-.102.204-.408.306-.408.102 0 .102.102.102.306-.102-.102-.204.205-.408.102Zm-7.251-10.212c0-.205 0-.205.102-.205 0 0 .102 0 0 .103 0 .102 0 .102-.102.102Zm24 35.642s0-.029-.016-.056c-.096.271-.188.373-.188.567-.102.204-.102.408-.205.613 0 .102-.102.102-.102 0v-.205c.102-.204.102-.51.205-.715l.017-.019a.135.135 0 0 1 .049-.07.233.233 0 0 0 .036-.115v-.102l.004-.004a.32.32 0 0 1 .098-.2c0-.102.102-.102.102-.204 0-.307.204-.409.204-.715 0-.102.102 0 .102 0 .102.204 0 .408 0 .612-.204.307-.204.511-.204.715 0 .205-.102.307-.204.409 0-.204.102-.307.102-.511 0-.102.102-.102.102-.204s.102-.204 0-.306v.306c-.102.102-.102.102-.102.204Zm0-10.213v-.204c0-.102.102-.204.102-.102.102.102.102.204-.102.306Zm0 0c.102 0 .102.103 0 0Zm-3.064-8.068v.307c-.102.204-.204.51-.306.715 0 .102-.102.204-.102.306 0 .204-.103.306-.205.409-.306.102-.51.408-.715.817 0 .102-.102.102-.204.204s-.204.204-.204.408c0 .205-.102.307-.204.409 0 .102-.102.102-.102 0v-.204c.306-.205.408-.817.612-1.226.307-.715.613-1.43 1.022-2.042 0 0 0-.103.102-.205.102-.306.102-.306.204 0 .102-.102.102 0 .102.102Zm-4.187-11.438c-.102.306-.204.409-.307.409v-.205c.103 0 .103-.204.307-.204Zm15.523 7.558c0 .204-.204.612-.204.612s-.102 0 0-.102a.78.78 0 0 1 .204-.51Zm-.102-6.332c0 .204 0 .408-.204.51-.102 0-.102.102-.102.205h-.102v-.103c.102-.306.102-.612.204-.817 0-.102.102-.102.102 0 .102 0 .102.102.102.205Zm-7.251 7.863c0 .205 0 .307-.102.409 0 0-.102.102-.102 0v-.204c.102-.102.102-.205.204-.205Zm-2.043-11.131c0 .204-.102.204-.204.306 0-.204 0-.306.204-.306Zm-3.982 31.353c0-.205.102-.409.102-.511.102-.306.204-.613.408-.817 0 0 0-.102.102-.102v.102c-.204.715-.408 1.021-.612 1.328Zm-15.32-13.277c.102-.306.307-.408.409-.613v.102c0 .307-.204.409-.409.511Zm-1.532-14.4c0-.204.103-.204.103-.306.204-.205.408-.409.714-.613 0 0 .103-.102.103 0v.204c-.103.102-.205.307-.307.409-.204 0-.408.102-.613.306Zm.307 2.86c-.102.408-.307.51-.511.51.102-.306.307-.408.511-.51Zm5.719 12.97c.102-.204.204-.409.306-.511-.102.409-.204.511-.306.511Zm21.345-2.451c0-.204 0-.409.102-.613 0 0 .102-.102.102 0v.204c0 .205-.102.409-.204.409Zm6.842-5.311c0-.204 0-.306.102-.51 0 .204 0 .306-.102.51Zm-19.098 8.681s.102 0 .102.102v.204c0 .103-.102.205-.102.307 0 .102 0 .102-.102.102l-.102-.102c.102-.204.102-.409.204-.613Zm-7.353 7.047c-.102.511-.306.715-.408.919h-.102v-.204c.204-.307.306-.613.51-.715Zm21.549-20.732c0 .102-.102.408-.102.306v-.102c-.102 0 0-.306.102-.204ZM32.919 36.085c0 .204-.204.511-.204.409 0 0-.102-.103 0-.103 0-.102.102-.204.204-.306Zm16.953 10.621c-.102-.204-.102-.306 0-.51v.51Zm1.532-4.493c0 .306-.102.51-.102.817 0 0 0 .102-.102 0v-.102c0-.409.102-.715.102-1.022 0-.102.102-.102.102 0v.307ZM13.923 22.706c-.102 0-.102 0-.102-.102 0-.204.102-.204.102-.204.103 0 .103-.102.205-.204 0 0 0-.102.102-.102.102-.103.204-.205.204 0 0 .204-.102.408-.102.51-.204.102-.306.102-.409.102Zm-1.021 7.047c0 .102-.102.307-.102.307-.102 0-.102 0-.204.102 0 .102-.102.102-.102 0v-.102c0-.103.102-.103.102-.103s.102-.204.306-.204Zm6.23-11.744c0-.205.102-.205.102-.205l.204-.204c.205-.102.409-.306.511-.511 0-.102.102-.102.102.102 0 .103 0 .205-.102.307-.204.204-.306.408-.511.408h-.102c.102.205-.102.103-.204.103Zm18.485 29.106c0 .204-.204.817-.306.919v-.102c.102-.306.204-.511.204-.817 0-.102 0-.102.102-.102v.102Zm-17.26-18.077c-.102.511-.306.409-.51.613.102-.306.306-.511.51-.613Zm-1.123-1.429.306-.307c-.102.204-.204.307-.306.307Zm-2.451 14.093c.102-.204.204-.511.306-.715.205-.306.307-.306.409-.51h.102v.204c0 .102 0 .204-.102.306-.102.204-.307.409-.409.511-.102 0-.102.102-.306.204Zm20.936-15.319c.102-.306.204-.409.307-.613v.102c0 .307-.103.511-.307.511Zm-18.383 5.106c.102-.204.307-.51.511-.51-.204.408-.307.51-.511.51Zm30.128 16.137c0-.205 0-.409.102-.613 0 .306 0 .51-.102.613Zm-8.681-15.728V32c0 .306-.102.409-.204.511-.102-.102.204-.613.204-.613Z"/>
  </g>
  <g id="blue">
    <path fill="#d1f8fd" d="M9.532 14.128A3.396 3.396 0 0 1 8 11.268C8 9.532 9.532 8 11.268 8c1.226 0 2.247.613 2.86 1.532h35.744A3.396 3.396 0 0 1 52.732 8C54.468 8 56 9.532 56 11.268c0 1.226-.613 2.247-1.532 2.758V49.77c.919.613 1.532 1.634 1.532 2.758 0 1.838-1.532 3.268-3.268 3.268-1.226 0-2.247-.613-2.758-1.532H14.128C13.515 55.387 12.494 56 11.268 56 9.532 56 8 54.468 8 52.732c0-1.226.613-2.247 1.532-2.758V14.128Zm39.932-2.043H14.536a3.322 3.322 0 0 1-2.451 2.451v34.928a3.322 3.322 0 0 1 2.451 2.451h34.928a3.322 3.322 0 0 1 2.451-2.451V14.536a3.322 3.322 0 0 1-2.451-2.451Z"/>
  </g>
</svg>
