<svg xmlns="http://www.w3.org/2000/svg" xml:space="preserve" fill-rule="evenodd" stroke-linejoin="round" stroke-miterlimit="2" clip-rule="evenodd" viewBox="0 0 64 64">
  <g id="grey">
    <path fill="#4b5561" d="M53.102 56.064H10.898a4.02 4.02 0 0 0-2.962-2.962V10.898a4.02 4.02 0 0 0 2.962-2.962h42.204a4.02 4.02 0 0 0 2.962 2.962v42.204a4.02 4.02 0 0 0-2.962 2.962Z"/>
    <path fill="#ebebeb" d="M19.389 56.064c.081-.169.172-.334.274-.492-.076.155-.149.328-.232.492h-.042Zm28.037-31.507a.881.881 0 0 1-.124.162v-.124c0-.085.06-.291.138-.366-.068.07-.099.243-.014.243v.085ZM13.983 46.562c.123-.247.247-.37.371-.493a1.017 1.017 0 0 0-.057.131c-.105.033-.209.153-.314.362Zm4.936-22.954v.123c-.124-.246-.247.125-.493 0 .246.125.369-.246.493-.123ZM9.735 11.145c.028-.038.052-.068.052-.124v.123l-.052.001Zm43.86 18.511c0 .37 0 .37-.123.616.123-.246.123-.37.123-.616ZM32.864 37.43c-.046.029-.089.034-.123 0v-.124l.369-.37c-.123.123-.246.247-.246.37-.123 0 0 .124 0 .124ZM8.43 29.656s-.124.123-.124 0v-.125c0-.123.124-.123.124-.123.124 0 .247-.123.493-.123-.246 0-.369.246-.369.246s-.124 0-.124.125Zm9.121-15.661.134-.136s.123 0 .123.124c0 .247-.123.247-.123.371-.236.235-.359.472-.586.491.104-.094.203-.232.339-.368.124-.123.124-.247.124-.371a.516.516 0 0 0-.011-.111Zm-.987.853.023-.014-.013.013-.01.001Zm-2.087 22.459.123-.124v.123c-.052.08-.107.159-.165.235a.622.622 0 0 0 .042-.234Zm16.038 3.54a.327.327 0 0 0 .128-.085v.246c0 .123-.124.248-.124.371s-.124.123-.124.123c0-.123.124-.246.124-.371v-.246a.164.164 0 0 0-.004-.038ZM12.131 20.523c.17-.169.339-.28.508-.333-.134.147-.32.24-.508.333Zm0 0c0-.369.125-.369 0-.493.371-.371.618-.494.864-.74.124 0 .124-.124.124 0a.17.17 0 0 1 .05.083.274.274 0 0 0-.05.04c-.37.246-.617.493-.863.741 0 .123-.125.123-.125.369ZM55.323 43.97c0-.247.124-.123.124 0 0-.123-.124-.123-.124 0Zm0 0c0 .371-.123.74-.123 1.235 0-.371 0-.864.123-1.235ZM42.342 32.51c-.031.039-.065.072-.099.107 0-.074.137-.332.243-.523l-.001.018a1.384 1.384 0 0 0-.143.398ZM10.157 20.77c-.123 0-.246.124-.246-.247 0-.246 0-.246.123-.246s.123-.123.247-.247c.124 0 .124-.124.124-.124.123 0 .246-.247.246 0l.004.008a.999.999 0 0 0-.127.116c-.123 0-.123.124-.123.124-.124.123-.124.246-.248.246 0 0-.123 0-.123.247 0 .123 0 .123.123.123Zm10.951 29.459a2.353 2.353 0 0 0-.09.281c-.124.124-.124.124-.124 0v-.123h.124c.025-.052.056-.102.09-.158Zm32.454-.531a2.643 2.643 0 0 1-.09.319v-.123c0-.16 0-.32.034-.481a.54.54 0 0 0 .056.285Zm-14.775.566c0 .37-.246.987-.37 1.11.124-.123.37-.864.37-1.11Zm-8.885-31.715c-.123.37-.246.494-.371.617v-.123c.125 0 .248-.124.371-.494Zm5.06 13.821c0 .124 0 .247.123.124a.71.71 0 0 0-.123.165v-.289Zm0 0c0-.123 0-.247-.124-.123-.055-.167-.085-.258-.113-.275.113-.342.117-.332.237.028v.37Zm-1.963 3.451a.685.685 0 0 0-.012.128.552.552 0 0 1-.136.376.63.63 0 0 0 .013-.13c0-.17.059-.281.135-.374Zm5.054 19.738c.016-.198.07-.359.135-.509-.038.178-.067.363-.135.509Zm.488-1.469s0-.124-.124-.124c.124-.371.247-.494.247-.864 0-.123.123-.123.123 0a.505.505 0 0 1 .053.197c-.072.167-.176.304-.176.544 0 .123-.123.123-.123.247Zm-6.047-.124c.247-.371.493-.74.74-1.604v.123c-.124.741-.37 1.11-.74 1.481Zm0 0c0-.346 0-.477.101-.493-.036.133-.101.313-.101.493ZM48.536 20.03c0-.124 0-.247-.123-.247 0 0 .123-.124.123 0v.247Zm0 0c0 .124 0 .493-.123.617 0 0-.123.123-.123.247h-.124c0-.124 0-.247.124-.247.246-.124.246-.37.246-.617Zm-9.872 34.429c0-.098 0-.117.062-.183l-.016.076a.15.15 0 0 0-.046.107Zm0 0c0 .244-.12.368-.123.607a1.436 1.436 0 0 1-.124.134c0 .247-.123.494-.247.741 0 0-.123.123-.123 0v-.124c0 .124.123.124.123 0 .124-.247.124-.494.247-.74 0-.235.112-.358.228-.685.011.02.018.044.019.067ZM13.983 43.477c-.124 0-.247.246-.37.246.246-.123.246-.246.37-.246Zm0 0c.123-.123.371-.371.494-.618-.123.247-.247.495-.494.618Zm24.804-1.728c.049 0 .058.018.047.055a.488.488 0 0 0-.047-.055Zm3.826-9.872s-.028.046-.065.115l-.003.001.068-.116Zm0 0c.078 0 .057.049 0 .086v-.086Zm-6.332 23.959a.287.287 0 0 0-.086-.142c.124-.371.248-.74.371-.988l.124-.123v.123c-.124.371-.247.617-.371.988a.375.375 0 0 1-.038.142Zm2.136-4.585c0-.37.124-.617.247-.987 0 .37-.123.617-.247.987Zm-5.844-14.872c-.04-.099.044-.184.044-.184a.808.808 0 0 0 .24-.27 1.37 1.37 0 0 1-.284.454Zm1.387-3.011a10.1 10.1 0 0 1 .526-.957c-.017.049-.017.083-.017.083a8.962 8.962 0 0 0-.509.874Zm.843-.264c-.024.091-.05.178-.088.253l-.024.025.112-.278Zm-.205.489c-.006.044-.006.089-.006.135 0 .289-.076.428-.168.475a.56.56 0 0 0 .045-.229c0-.123.123-.246.123-.369l.006-.012Zm19.615 11.981c0-.246 0-.369.123-.493-.123.247-.123.37-.123.493Zm.123-.493c0 .37 0 .493-.123.493.123-.123.123-.246.123-.493Zm-5.677-17.4a.946.946 0 0 0-.246.617c-.061.06-.062.092-.047.107a.2.2 0 0 1-.076.016v-.123c.123-.247.123-.493.369-.617Zm0 0c0 .185-.069.509-.208.659.069-.15.208-.474.208-.659ZM16.893 14.963a.28.28 0 0 1-.169.141c.015-.022.01-.063-.026-.134h.123a.428.428 0 0 0 .072-.007Z"/>
    <path fill="#545f6c" d="M19.431 56.064c.163-.32.28-.669.475-.864-.071.43-.185.695-.316.864h-.159Zm16.775 0c.03-.168.113-.269.113-.37.124-.371.247-.617.371-.988 0 0 0-.123.123-.123v.247c0 .247-.123.617-.247.74-.123.124-.123.247-.123.371a.59.59 0 0 0-.094.123h-.143Zm18.13-10.983c0 .247 0 .37-.123.493 0-.123 0-.246.123-.493Zm-36.774-8.638c.123-.371.246-.617.494-.617-.125.493-.248.493-.494.617Zm-3.579 10.119c.123-.247.247-.37.371-.37 0 .246-.124.37-.371.37Zm21.348-2.715c0 .247-.123.37-.246.494.123-.247.123-.371.246-.494Zm1.728 10.612c.124.371.124.741-.123.864-.123-.246.123-.493.123-.864ZM18.426 23.731c.123-.123.246-.493.369-.493.124 0 .124.124.124.37-.124-.123-.247.248-.493.123ZM9.664 11.392c0-.248 0-.248.123-.248 0 0 .124 0 0 .125 0 .123 0 .123-.123.123Zm29 43.067s0-.035-.019-.067c-.116.327-.228.45-.228.685-.123.246-.123.493-.247.74 0 .124-.123.124-.123 0v-.247c.123-.247.123-.616.247-.864l.021-.023a.165.165 0 0 1 .059-.085.28.28 0 0 0 .043-.139v-.123l.005-.005a.389.389 0 0 1 .119-.241c0-.124.123-.124.123-.247 0-.371.246-.494.246-.864 0-.123.124 0 .124 0 .123.247 0 .493 0 .74-.247.371-.247.617-.247.864s-.123.371-.246.494c0-.247.123-.371.123-.618 0-.123.123-.123.123-.246s.123-.247 0-.37v.37c-.123.123-.123.123-.123.246Zm0-12.34v-.247c0-.123.123-.246.123-.123.123.123.123.246-.123.37Zm0 0c.123 0 .123.124 0 0Zm-3.702-9.749v.371c-.124.246-.247.616-.37.864 0 .123-.123.246-.123.369 0 .247-.125.37-.248.495-.37.123-.616.493-.864.987 0 .123-.123.123-.247.246-.123.124-.246.247-.246.493 0 .248-.123.371-.247.495 0 .123-.123.123-.123 0v-.247c.37-.248.493-.987.74-1.481.371-.864.74-1.728 1.235-2.468 0 0 0-.124.123-.247.123-.37.123-.37.246 0 .124-.124.124 0 .124.123Zm-5.06-13.821c-.123.37-.246.494-.371.494v-.248c.125 0 .125-.246.371-.246Zm18.757 9.132c0 .247-.246.74-.246.74s-.123 0 0-.123a.946.946 0 0 1 .246-.617Zm-.123-7.651c0 .247 0 .493-.246.617-.124 0-.124.123-.124.247h-.123v-.124c.123-.37.123-.74.247-.987 0-.124.123-.124.123 0 .123 0 .123.123.123.247Zm-8.762 9.501c0 .248 0 .371-.123.495 0 0-.123.123-.123 0v-.247c.123-.123.123-.248.246-.248Zm-2.468-13.45c0 .247-.123.247-.247.37 0-.246 0-.37.247-.37Zm-4.812 37.885c0-.247.123-.494.123-.617.124-.37.247-.741.493-.987 0 0 0-.124.124-.124v.124c-.247.864-.493 1.233-.74 1.604ZM13.983 37.923c.123-.369.371-.493.494-.74v.123c0 .371-.247.494-.494.617Zm-1.852-17.4c0-.246.125-.246.125-.369.246-.248.493-.495.863-.741 0 0 .124-.123.124 0v.246c-.124.124-.248.371-.371.495-.246 0-.493.123-.741.369Zm.371 3.456c-.123.493-.371.616-.617.616.123-.369.371-.493.617-.616Zm6.911 15.672c.123-.246.246-.494.37-.617-.124.494-.247.617-.37.617Zm25.792-2.961c0-.247 0-.495.123-.741 0 0 .123-.123.123 0v.246c0 .248-.123.495-.246.495Zm8.267-6.418c0-.246 0-.37.123-.616 0 .246 0 .37-.123.616Zm-23.077 10.49s.124 0 .124.123v.246c0 .125-.124.248-.124.371 0 .124 0 .124-.123.124l-.123-.124c.123-.246.123-.494.246-.74Zm-8.884 8.515c-.124.617-.37.864-.493 1.11h-.124v-.246c.247-.371.37-.741.617-.864Zm26.038-25.051c0 .123-.123.493-.123.369v-.123c-.124 0 0-.37.123-.246ZM33.11 36.936c0 .247-.246.618-.246.494 0 0-.123-.124 0-.124 0-.123.123-.247.246-.37ZM53.595 49.77c-.123-.247-.123-.37 0-.616v.616Zm1.852-5.429c0 .369-.124.616-.124.987 0 0 0 .123-.123 0v-.123c0-.495.123-.864.123-1.235 0-.123.124-.123.124 0v.371ZM10.157 20.77c-.123 0-.123 0-.123-.123 0-.247.123-.247.123-.247.124 0 .124-.123.248-.246 0 0 0-.124.123-.124.123-.124.246-.247.246 0s-.123.493-.123.617c-.246.123-.37.123-.494.123Zm-1.234 8.515c0 .123-.123.371-.123.371-.123 0-.123 0-.246.123 0 .123-.124.123-.124 0v-.123c0-.125.124-.125.124-.125s.123-.246.369-.246Zm7.528-14.191c0-.247.123-.247.123-.247l.247-.247c.248-.123.494-.37.617-.617 0-.124.124-.124.124.123 0 .124 0 .248-.124.371-.246.246-.369.493-.617.493h-.123c.123.248-.124.124-.247.124Zm22.336 35.17c0 .246-.246.987-.37 1.11v-.123c.124-.37.247-.617.247-.987 0-.123 0-.123.123-.123v.123ZM17.931 28.421c-.123.617-.369.494-.616.741.123-.37.37-.618.616-.741Zm-1.357-1.727.37-.371c-.123.247-.246.371-.37.371Zm-2.961 17.029c.123-.246.246-.617.37-.864.247-.369.371-.369.494-.616h.123v.247c0 .123 0 .246-.123.369-.123.247-.371.495-.494.618-.124 0-.124.123-.37.246Zm25.297-18.51c.124-.37.247-.494.371-.741v.123c0 .371-.124.618-.371.618Zm-22.212 6.17c.123-.247.371-.617.617-.617-.246.493-.371.617-.617.617Zm36.404 19.498c0-.247 0-.494.124-.74 0 .369 0 .616-.124.74ZM42.613 31.877V32c0 .37-.123.494-.247.617-.123-.123.247-.74.247-.74Z"/>
  </g>
  <g id="blue">
    <path fill="#d1f8fd" d="M4.851 10.405A4.106 4.106 0 0 1 3 6.949C3 4.851 4.851 3 6.949 3c1.481 0 2.715.741 3.456 1.851h43.19A4.106 4.106 0 0 1 57.051 3C59.149 3 61 4.851 61 6.949c0 1.481-.741 2.715-1.851 3.332v43.191c1.11.741 1.851 1.975 1.851 3.333 0 2.221-1.851 3.949-3.949 3.949-1.481 0-2.715-.741-3.332-1.852H10.405C9.664 60.259 8.43 61 6.949 61 4.851 61 3 59.149 3 57.051c0-1.481.741-2.715 1.851-3.332V10.405Zm48.251-2.469H10.898a4.02 4.02 0 0 1-2.962 2.962v42.204a4.02 4.02 0 0 1 2.962 2.962h42.204a4.02 4.02 0 0 1 2.962-2.962V10.898a4.02 4.02 0 0 1-2.962-2.962Z"/>
  </g>
</svg>
