<svg xmlns="http://www.w3.org/2000/svg" xml:space="preserve" fill-rule="evenodd" stroke-linejoin="round" stroke-miterlimit="2" clip-rule="evenodd" viewBox="0 0 64 64">
  <g id="grey">
    <path fill="#8391a5" d="M53.09 7.936a4.017 4.017 0 0 0 2.974 2.974v42.18a4.017 4.017 0 0 0-2.974 2.974H10.91a4.017 4.017 0 0 0-2.974-2.974V10.91a4.017 4.017 0 0 0 2.974-2.974h42.18Z"/>
    <path fill="#778496" d="M14.131 7.936v2.431h-4.93a4.008 4.008 0 0 0 1.709-2.431h3.221Zm-5.847 2.876h2.367v3.27H7.936V10.91c.118-.028.234-.061.348-.098Zm-.348 3.689h5.8v3.271h-5.8v-3.271Zm0 3.714h8.194v3.271H7.936v-3.271Zm0 3.604h3.579v3.271H7.936v-3.271Zm0 3.715h.087v3.27h-.087v-3.27Zm0 3.689h3.184v3.271H7.936v-3.271Zm0 3.715h5.578v3.271H7.936v-3.271Zm0 3.887h6.775v3.271H7.936v-3.271Zm0 3.702h3.283v3.27H7.936v-3.27Zm0 3.69h6.368v3.27H7.936v-3.27Zm0 3.715h8.762v3.27H7.936v-3.27Zm0 3.615h4.159v3.27h-1.716a4.007 4.007 0 0 0-2.443-1.727v-1.543Zm2.68 3.69h7.698v.827H10.91a3.972 3.972 0 0 0-.294-.827Zm8.094.827v-.814h9.304v.814H18.71Zm9.971 0v-.802h9.304v.802h-9.304Zm9.699 0v-.814h9.304v.814H38.38Zm9.711 0v-.802h5.282a3.913 3.913 0 0 0-.283.802h-4.999Zm5.53-1.247h-2.05v-3.27h4.493v1.543a4.007 4.007 0 0 0-2.443 1.727Zm2.443-7.306h-2.283v-3.269h2.283v3.269Zm0-3.701h-5.369v-3.271h5.369v3.271Zm0-3.714h-1.889v-3.271h1.889v3.271Zm0-3.887h-3.073v-3.271h3.073v3.271Zm0-3.691h-5.48v-3.269h5.48v3.269Zm0-3.714h-8.553v-3.27h8.553v3.27Zm0-3.702h-5.085v-3.27h5.085v3.27Zm0-3.616h-.481v-3.271h.481v3.271Zm0-3.69h-2.863v-3.27h2.863v3.27Zm0-3.702h-5.949v-3.27l5.908.076.041.01v3.184Zm-1.237-3.709-1.232.006V9.143c.315.499.736.923 1.232 1.242ZM53.201 8.32v2.059h-9.305V7.936h9.194c.03.131.068.259.111.384Zm-9.7-.384v2.443h-9.304V7.936h9.304Zm-9.958 0v2.431h-9.305V7.936h9.305Zm-9.713 0v2.431h-9.304V7.936h9.304Zm-.222 28.273v-3.271h9.306v3.271h-9.306Zm7.318-14.39v3.271h-9.304v-3.271h9.304Zm19.671.013v3.27h-9.305v-3.27h9.305Zm4.603-3.617v3.271h-9.304v-3.271H55.2Zm-33.986 3.604v3.271H11.91v-3.271h9.304Zm2 11.119v3.271h-9.305v-3.271h9.305Zm17.671-11.106v3.27h-9.304v-3.27h9.304ZM8.43 28.792v-3.271h9.304v3.271H8.43Zm17.4-10.577v3.271h-9.305v-3.271h9.305Zm.394 3.259v-3.271h9.306v3.271h-9.306Zm13.797-10.662v3.27h-9.304v-3.27h9.304Zm.395 3.27v-3.27h9.305v3.27h-9.305Zm-6.614 3.702v-3.27h9.304v3.27h-9.304Zm9.699 0v-3.27h9.305v3.27h-9.305Zm2 .431v3.271h-9.306v-3.271h9.306Zm-14.982 11.02v3.271h-9.305v-3.271h9.305Zm2.617-14.721v3.27H23.83v-3.27h9.306Zm-21.621 17.98v-3.271h9.304v3.271h-9.304Zm-.469-18.424v-3.271h9.304v3.271h-9.304Zm16.4 11.464v3.27h-9.304v-3.27h9.304Zm2.604-14.722v3.27h-9.304v-3.27h9.304Zm-15.919 6.96v-3.271h9.304v3.271h-9.304ZM30.63 40.527v3.27h-9.304v-3.27h9.304Zm6.775-14.993v3.27h-9.304v-3.27h9.304ZM34.37 47.499V44.23h9.304v3.269H34.37Zm9.711 0V44.23h9.305v3.269h-9.305Zm-3.085-3.702v-3.27h9.305v3.27h-9.305Zm5.085 4.147v3.27h-9.306v-3.27h9.306Zm-2-11.119v3.271h-9.304v-3.271h9.304Zm-3.48 3.714v3.271h-9.304v-3.271h9.304Zm15.179 7.405v3.27h-9.304v-3.27h9.304ZM34.11 36.825v3.271h-9.304v-3.271h9.304Zm-2.924-4.319v-3.271h9.304v3.271h-9.304Zm6.614-3.702v-3.27h9.304v3.27H37.8Zm-13.39 8.021v3.271h-9.304v-3.271h9.304Zm2 11.107v3.27h-9.305v-3.27h9.305Zm.394 3.27v-3.27h9.306v3.27h-9.306Zm25.792-18.264v3.271h-9.304v-3.271h9.304Zm-11.711-.432v-3.271h9.305v3.271h-9.305Zm2 .432v3.271h-9.306v-3.271h9.306ZM11.626 43.785v-3.27h9.304v3.27h-9.304Zm22.09.445v3.269H24.41V44.23h9.306Zm20.065-7.405v3.271h-9.305v-3.271h9.305ZM14.699 47.487v-3.27h9.304v3.27h-9.304Zm36.465 4.06v3.27H41.86v-3.27h9.304Zm-29.37 0v3.27H12.49v-3.27h9.304Zm19.671 0v3.27h-9.304v-3.27h9.304Zm-9.959 0v3.27h-9.304v-3.27h9.304Z"/>
  </g>
  <g id="blue">
    <path fill="#d1f8fd" d="M4.851 10.391A4.021 4.021 0 0 1 3 7.01C3.004 4.812 4.812 3.004 7.01 3a4.02 4.02 0 0 1 3.381 1.851h43.218A4.021 4.021 0 0 1 56.99 3c2.198.004 4.006 1.812 4.01 4.01a4.021 4.021 0 0 1-1.851 3.381v43.218A4.021 4.021 0 0 1 61 56.99c-.004 2.198-1.812 4.006-4.01 4.01a4.021 4.021 0 0 1-3.381-1.851H10.391A4.021 4.021 0 0 1 7.01 61c-2.198-.004-4.006-1.812-4.01-4.01a4.02 4.02 0 0 1 1.851-3.381V10.391ZM53.09 7.936H10.91a4.017 4.017 0 0 1-2.974 2.974v42.18a4.017 4.017 0 0 1 2.974 2.974h42.18a4.017 4.017 0 0 1 2.974-2.974V10.91a4.017 4.017 0 0 1-2.974-2.974Z"/>
  </g>
</svg>
