<svg xmlns="http://www.w3.org/2000/svg" xml:space="preserve" fill-rule="evenodd" stroke-linejoin="round" stroke-miterlimit="2" clip-rule="evenodd" viewBox="0 0 64 64">
  <g id="green">
    <path fill="#408c24" d="M53.09 7.936a4.017 4.017 0 0 0 2.974 2.974v42.18a4.017 4.017 0 0 0-2.974 2.974H10.91a4.017 4.017 0 0 0-2.974-2.974V10.91a4.017 4.017 0 0 0 2.974-2.974h42.18Z"/>
    <path fill="#265b2a" fill-rule="nonzero" d="M29.829 39.022c-2.568.16-5.566-6.899-5.566-6.899 2.159 2.974 5.725 1.506 3.788.494-1.666-.876-4.036-5.541-4.665-6.812.988 1.666 4.282 2.369 2.21-.247-2.21-2.727-5.097-13.006-5.097-13.006s-2.949 10.279-5.122 13.006c-2.072 2.567 1.222 1.913 2.209.247-.604 1.259-2.974 5.887-4.664 6.787-1.963.987 1.579 2.481 3.788-.493 0 0-2.974 7.058-5.566 6.898-2.566-.16.902 3.604 3.357.988 0 0 .814 2.369 2.16-.087 0 0 .654 2.973 1.666.087 0 0 1.332 2.479 2.159-.161.766 2.64 2.16.161 2.16.161.988 2.886 1.665-.087 1.665-.087 1.333 2.393 2.161.087 2.161.087 2.431 2.59 5.923-1.124 3.381-.951"/>
    <path fill="#245226" fill-rule="nonzero" d="M53.226 36.59c-2.049.112-4.443-5.503-4.443-5.503 1.74 2.394 4.578 1.172 3.023.407-1.332-.678-3.22-4.418-3.715-5.405.766 1.333 3.432 1.875 1.74-.161-1.74-2.209-4.084-10.414-4.084-10.414s-2.32 8.205-4.084 10.414c-1.666 2.074.987 1.555 1.74.161-.494.987-2.369 4.751-3.714 5.405-1.555.814 1.258 1.987 3.023-.407 0 0-2.395 5.639-4.443 5.503-2.048-.111.741 2.864 2.703.815 0 0 .654 1.876 1.74-.024 0 0 .518 2.369 1.307.024 0 0 1.087 1.986 1.716-.111.654 2.123 1.715.111 1.715.111.766 2.32 1.308-.024 1.308-.024 1.061 1.913 1.74.024 1.74.024 1.963 2.049 4.752-.987 2.703-.815"/>
    <path fill="#2f7633" fill-rule="nonzero" d="M42.699 42.403c-2.567.16-5.565-6.899-5.565-6.899 2.16 2.975 5.725 1.506 3.788.494-1.666-.851-4.035-5.504-4.665-6.737.987 1.665 4.282 2.369 2.209-.247-2.184-2.752-5.121-13.032-5.121-13.032s-2.912 10.28-5.121 13.007c-2.074 2.566 1.222 1.913 2.209.246-.604 1.259-2.974 5.887-4.664 6.739-1.963.987 1.579 2.48 3.788-.494 0 0-2.974 7.059-5.566 6.898-2.566-.16.9 3.604 3.357.988 0 0 .814 2.369 2.159-.087 0 0 .654 2.975 1.667.087 0 0 1.332 2.48 2.159-.161.765 2.641 2.159.161 2.159.161.987 2.888 1.666-.087 1.666-.087 1.333 2.395 2.16.087 2.16.087 2.505 2.64 5.948-1.123 3.406-.95"/>
  </g>
  <g id="brown">
    <path fill="#3e3222" d="M46.919 38.084v5.355H44.55v-5.371c.365.3.842.368 1.185-.774.353 1.146.825 1.087 1.184.79Zm-11.772 5.775v5.307h-3.604v-5.263c.456.543 1.236 1.071 1.79-.698.527 1.817 1.351 1.209 1.814.654ZM21.646 41v3.698h-2.369v-3.707c.398.16.851-.024 1.209-1.167.325 1.121.763 1.319 1.16 1.176Z"/>
  </g>
  <g id="blue">
    <path fill="#d1f8fd" d="M4.851 10.391A4.021 4.021 0 0 1 3 7.01C3.004 4.812 4.812 3.004 7.01 3a4.02 4.02 0 0 1 3.381 1.851h43.218A4.021 4.021 0 0 1 56.99 3c2.198.004 4.006 1.812 4.01 4.01a4.021 4.021 0 0 1-1.851 3.381v43.218A4.021 4.021 0 0 1 61 56.99c-.004 2.198-1.812 4.006-4.01 4.01a4.021 4.021 0 0 1-3.381-1.851H10.391A4.021 4.021 0 0 1 7.01 61c-2.198-.004-4.006-1.812-4.01-4.01a4.02 4.02 0 0 1 1.851-3.381V10.391ZM53.09 7.936H10.91a4.017 4.017 0 0 1-2.974 2.974v42.18a4.017 4.017 0 0 1 2.974 2.974h42.18a4.017 4.017 0 0 1 2.974-2.974V10.91a4.017 4.017 0 0 1-2.974-2.974Z"/>
  </g>
</svg>
