<svg xmlns="http://www.w3.org/2000/svg" xml:space="preserve" fill-rule="evenodd" stroke-linejoin="round" stroke-miterlimit="2" clip-rule="evenodd" viewBox="0 0 64 64">
  <g id="green">
    <path fill="#408c24" d="M49.454 12.085a3.32 3.32 0 0 0 2.461 2.461v34.908a3.32 3.32 0 0 0-2.461 2.461H14.546a3.32 3.32 0 0 0-2.461-2.461V14.546a3.32 3.32 0 0 0 2.461-2.461h34.908Z"/>
    <path fill="#265b2a" fill-rule="nonzero" d="M30.203 37.811c-2.125.133-4.606-5.709-4.606-5.709 1.787 2.461 4.738 1.246 3.135.409-1.379-.725-3.34-4.586-3.861-5.638.818 1.379 3.544 1.961 1.829-.204-1.829-2.257-4.218-10.764-4.218-10.764s-2.441 8.507-4.239 10.764c-1.715 2.124 1.011 1.583 1.828.204-.5 1.042-2.461 4.872-3.86 5.617-1.624.817 1.307 2.053 3.135-.408 0 0-2.461 5.841-4.606 5.709-2.124-.133.746 2.982 2.778.817 0 0 .674 1.961 1.788-.072 0 0 .541 2.461 1.378.072 0 0 1.103 2.052 1.787-.133.634 2.185 1.788.133 1.788.133.817 2.389 1.378-.072 1.378-.072 1.103 1.981 1.788.072 1.788.072 2.012 2.144 4.902-.93 2.798-.787"/>
    <path fill="#245226" fill-rule="nonzero" d="M49.566 35.799c-1.695.092-3.677-4.555-3.677-4.555 1.44 1.982 3.789.97 2.502.337-1.102-.561-2.665-3.656-3.074-4.473.634 1.103 2.84 1.552 1.44-.133-1.44-1.828-3.38-8.619-3.38-8.619s-1.92 6.791-3.38 8.619c-1.379 1.716.817 1.287 1.44.133-.409.817-1.961 3.932-3.074 4.473-1.287.674 1.041 1.645 2.502-.337 0 0-1.982 4.667-3.677 4.555-1.695-.092.613 2.37 2.237.674 0 0 .541 1.553 1.44-.02 0 0 .429 1.961 1.082.02 0 0 .899 1.644 1.42-.092.541 1.757 1.419.092 1.419.092.634 1.92 1.083-.02 1.083-.02.878 1.583 1.44.02 1.44.02 1.624 1.696 3.932-.817 2.237-.674"/>
    <path fill="#2f7633" fill-rule="nonzero" d="M40.854 40.609c-2.124.133-4.605-5.709-4.605-5.709 1.787 2.462 4.738 1.246 3.135.409-1.379-.705-3.34-4.555-3.861-5.576.817 1.378 3.544 1.961 1.828-.204-1.807-2.278-4.238-10.785-4.238-10.785s-2.41 8.507-4.238 10.764c-1.716 2.124 1.011 1.583 1.828.204-.5 1.042-2.461 4.872-3.86 5.577-1.624.817 1.307 2.052 3.135-.409 0 0-2.461 5.842-4.606 5.709-2.124-.133.745 2.982 2.778.817 0 0 .674 1.961 1.787-.072 0 0 .541 2.462 1.379.072 0 0 1.103 2.053 1.787-.133.633 2.186 1.787.133 1.787.133.817 2.39 1.379-.072 1.379-.072 1.103 1.982 1.787.072 1.787.072 2.073 2.185 4.923-.929 2.819-.786"/>
  </g>
  <g id="brown">
    <path fill="#3e3222" d="M44.347 37.035v4.432h-1.961v-4.445c.302.248.697.304.981-.641.292.949.683.9.98.654Zm-9.743 4.779v4.392h-2.982v-4.355c.377.449 1.023.886 1.481-.578.436 1.504 1.118 1.001 1.501.541Zm-11.173-2.366v3.061h-1.96v-3.068c.329.132.704-.02 1-.966.269.928.632 1.092.96.973Z"/>
  </g>
  <g id="blue">
    <path fill="#d1f8fd" d="M9.532 14.117A3.326 3.326 0 0 1 8 11.319 3.325 3.325 0 0 1 11.319 8c1.175 0 2.206.613 2.798 1.532h35.766A3.326 3.326 0 0 1 52.681 8 3.325 3.325 0 0 1 56 11.319a3.326 3.326 0 0 1-1.532 2.798v35.766A3.326 3.326 0 0 1 56 52.681 3.325 3.325 0 0 1 52.681 56a3.326 3.326 0 0 1-2.798-1.532H14.117A3.326 3.326 0 0 1 11.319 56 3.325 3.325 0 0 1 8 52.681c0-1.175.613-2.206 1.532-2.798V14.117Zm39.922-2.032H14.546a3.32 3.32 0 0 1-2.461 2.461v34.908a3.32 3.32 0 0 1 2.461 2.461h34.908a3.32 3.32 0 0 1 2.461-2.461V14.546a3.32 3.32 0 0 1-2.461-2.461Z"/>
  </g>
</svg>
