<svg xmlns="http://www.w3.org/2000/svg" xml:space="preserve" fill-rule="evenodd" stroke-linejoin="round" stroke-miterlimit="2" clip-rule="evenodd" viewBox="0 0 64 64">
  <g id="green">
    <path fill="#9ad760" d="M7.936 10.976v-.066a4.012 4.012 0 0 0 2.645-2.079l25.596 47.233h-4.914L7.936 10.976Zm7.319-3.04h3.616l29.622 48.128h-3.17L15.255 7.936Zm10.685 0h3.668l26.456 40.508v4.646a3.964 3.964 0 0 0-1.21.508L25.94 7.936Zm10.352 0h3.664l16.108 26.611v4.478L36.292 7.936Zm8.28 0h2.861l8.631 12.812v4.523L44.572 7.936Zm8.487 0h.031l.012.05-.043-.05Zm2.466 2.806c.174.069.354.124.539.168v.444l-.539-.612ZM22.107 56.064H18.55l-10.614-25.3v-8.338l14.171 33.638ZM8.873 53.439a4.02 4.02 0 0 0-.937-.349v-4.268l.937 4.617Z"/>
    <path fill="#75b93e" d="m7.936 10.976 23.327 45.088h-9.156L7.936 22.426v-11.45Zm28.241 45.088L10.581 8.831c.145-.284.256-.584.329-.895h4.345l30.068 48.128h-9.146Zm12.316 0L18.871 7.936h7.069l28.914 45.662a4.005 4.005 0 0 0-1.764 2.466h-4.597Zm7.571-7.62L29.608 7.936h6.684l19.772 31.089v9.419Zm0-13.897L39.956 7.936h4.616l11.492 17.335v9.276Zm0-13.799L47.433 7.936h5.626l.043.05a4.013 4.013 0 0 0 2.423 2.756l.539.612v9.394ZM7.936 30.764l10.614 25.3h-7.64a4.014 4.014 0 0 0-2.037-2.625l-.937-4.617V30.764Z"/>
  </g>
  <g id="blue">
    <path fill="#d1f8fd" d="M4.851 10.391A4.021 4.021 0 0 1 3 7.01C3.004 4.812 4.812 3.004 7.01 3a4.02 4.02 0 0 1 3.381 1.851h43.218A4.021 4.021 0 0 1 56.99 3c2.198.004 4.006 1.812 4.01 4.01a4.021 4.021 0 0 1-1.851 3.381v43.218A4.021 4.021 0 0 1 61 56.99c-.004 2.198-1.812 4.006-4.01 4.01a4.021 4.021 0 0 1-3.381-1.851H10.391A4.021 4.021 0 0 1 7.01 61c-2.198-.004-4.006-1.812-4.01-4.01a4.02 4.02 0 0 1 1.851-3.381V10.391ZM53.09 7.936H10.91a4.017 4.017 0 0 1-2.974 2.974v42.18a4.017 4.017 0 0 1 2.974 2.974h42.18a4.017 4.017 0 0 1 2.974-2.974V10.91a4.017 4.017 0 0 1-2.974-2.974Z"/>
  </g>
</svg>
