<svg xmlns="http://www.w3.org/2000/svg" xml:space="preserve" fill-rule="evenodd" stroke-linejoin="round" stroke-miterlimit="2" clip-rule="evenodd" viewBox="0 0 64 64">
  <g id="green">
    <path fill="#9ad760" d="M12.085 14.601v-.055a3.319 3.319 0 0 0 2.189-1.72l21.183 39.089H31.39L12.085 14.601Zm6.057-2.516h2.993l24.514 39.83h-2.623l-24.884-39.83Zm8.843 0h3.035l21.895 33.524v3.845c-.36.084-.697.228-1.001.42L26.985 12.085Zm8.567 0h3.032l13.331 22.023v3.706L35.552 12.085Zm6.852 0h2.368l7.143 10.603v3.743l-9.511-14.346Zm7.024 0h.026a.611.611 0 0 0 .01.041l-.036-.041Zm2.041 2.322c.144.057.293.103.446.139v.368l-.446-.507ZM23.813 51.915h-2.944l-8.784-20.938v-6.9l11.728 27.838ZM12.86 49.743a3.294 3.294 0 0 0-.775-.289v-3.532l.775 3.821Z"/>
    <path fill="#75b93e" d="M12.085 14.601 31.39 51.915h-7.577L12.085 24.077v-9.476Zm23.372 37.314L14.274 12.826a3.27 3.27 0 0 0 .272-.741h3.596l24.884 39.83h-7.569Zm10.192 0-24.514-39.83h5.85l23.929 37.789a3.313 3.313 0 0 0-1.46 2.041h-3.805Zm6.266-6.306L30.02 12.085h5.532l16.363 25.729v7.795Zm0-11.501L38.584 12.085h3.82l9.511 14.346v7.677Zm0-11.42-7.143-10.603h4.656l.036.041a3.317 3.317 0 0 0 2.005 2.281l.446.507v7.774Zm-39.83 8.289 8.784 20.938h-6.323a3.319 3.319 0 0 0-1.686-2.172l-.775-3.821V30.977Z"/>
  </g>
  <g id="blue">
    <path fill="#d1f8fd" d="M9.532 14.117A3.326 3.326 0 0 1 8 11.319 3.325 3.325 0 0 1 11.319 8c1.175 0 2.206.613 2.798 1.532h35.766A3.326 3.326 0 0 1 52.681 8 3.325 3.325 0 0 1 56 11.319a3.326 3.326 0 0 1-1.532 2.798v35.766A3.326 3.326 0 0 1 56 52.681 3.325 3.325 0 0 1 52.681 56a3.326 3.326 0 0 1-2.798-1.532H14.117A3.326 3.326 0 0 1 11.319 56 3.325 3.325 0 0 1 8 52.681c0-1.175.613-2.206 1.532-2.798V14.117Zm39.922-2.032H14.546a3.32 3.32 0 0 1-2.461 2.461v34.908a3.32 3.32 0 0 1 2.461 2.461h34.908a3.32 3.32 0 0 1 2.461-2.461V14.546a3.32 3.32 0 0 1-2.461-2.461Z"/>
  </g>
</svg>
