<svg xmlns="http://www.w3.org/2000/svg" xml:space="preserve" fill-rule="evenodd" stroke-linejoin="round" stroke-miterlimit="2" clip-rule="evenodd" viewBox="0 0 64 64">
  <g id="green">
    <path fill="#408c24" d="M53.09 7.936a4.017 4.017 0 0 0 2.974 2.974v42.18a4.017 4.017 0 0 0-2.974 2.974H10.91a4.017 4.017 0 0 0-2.974-2.974V10.91a4.017 4.017 0 0 0 2.974-2.974h42.18Z"/>
    <path fill="#23673a" d="M49.092 39.294h-4.147s-1.234-6.899-3.122-9.355c0 0 2.954 1.94 5.027 8.214.078-1.999.441-6.248 2.105-9.633 0 0-.419 6.281.137 10.774Zm-13.254-7.183s.185-3.16 2.036-5.577c0 0-1.234 4.207-.95 5.577h-1.086Zm-16.487 4.96h-4.294c.554-4.812.135-11.427.135-11.427 1.695 3.496 2.101 7.871 2.196 10.056 2.218-6.37 5.32-8.402 5.32-8.402-2.036 2.505-3.357 9.773-3.357 9.773Zm8.108-12.043H23.93s-1.037-5.764-2.642-7.886c0 0 2.478 1.563 4.264 6.742.073-1.768.398-5.246 1.771-7.975 0 0-.382 5.293.136 9.119ZM12.983 37.071H10.91c.667-2.455-1.653-10.156-1.653-10.156 3.393 4.394 3.726 10.156 3.726 10.156Zm21.016 9.725s.383-6.898 4.393-12.229c0 0-2.739 9.255-1.986 12.229h-2.407Zm-2.517 0h-5.183s-1.555-8.688-3.962-11.761c0 0 3.672 2.39 6.349 10.057.111-2.637.594-7.831 2.611-11.944 0 0-.519 7.935.185 13.648Zm19.509-7.502s.334-5.48 3.494-9.688c0 0-2.123 7.318-1.555 9.688h-1.939ZM29.174 25.028s.234-4.578 2.975-8.12c0 0-1.839 6.146-1.321 8.12h-1.654Zm5.541 7.083h-2.369s-.753-3.961-1.79-5.381c0 0 1.68 1.071 2.898 4.566.064-1.216.305-3.566 1.212-5.466 0 0-.235 3.64.049 6.281Z"/>
    <path fill="#41ad3d" d="M29.174 25.028h-3.961s.185-4.294-1.136-7.269c0 0 1.188 1.14 3.016 6.928.181-1.316 1.032-6.167 4.068-9.531 0 0-2.74 6.614-1.987 9.872Zm4.825 21.768h-5.91s.332-6.466-1.605-10.859c0 0 1.763 1.716 4.409 10.306.273-2.036 1.525-9.242 6.031-14.231 0 0-4.11 9.922-2.925 14.784Zm1.839-14.685h-2.654s.137-2.974-.753-4.961c0 0 .81.762 2.027 4.648.144-1.008.742-4.234 2.75-6.437 0 0-1.839 4.529-1.37 6.75Zm-17.943 4.96h-5.011c1.001-4.06-2.406-12.327-2.406-12.327 3.879 4.257 4.872 10.511 5.06 12.001 2.217-7.281 3.726-8.743 3.726-8.743-1.603 3.69-1.369 9.069-1.369 9.069Zm33.146 2.223h-4.627s.235-5.097-1.32-8.639c0 0 1.471 1.387 3.519 8.394.161-1.283 1.09-7.347 4.748-11.467 0 0-3.208 7.886-2.32 11.712Z"/>
    <path fill="#2e9141" d="M7.936 29.782c1.167.995 2.706 2.589 3.588 4.723 1.898-5.684 3.15-6.787 3.15-6.787-.649 1.474-.997 3.288-1.182 4.925 1.945-4.106 4.625-6.862 4.625-6.862-2.554 5.109-4.343 11.29-4.343 11.29H10.33s.312-1.608-2.394-6.09v-1.199Zm48.128 3.223c-2.86 4.596-2.554 6.289-2.554 6.289h-2.679l-.074.012v-.012h-.518s-1.653-5.9-4.109-10.724c0 0 2.614 2.723 4.472 6.743-.17-1.602-.507-3.416-1.165-4.892 0 0 1.198 1.05 2.936 6.37.906-2.226 2.565-3.836 3.691-4.737v.951Zm-19.745-1.001-.629.107s.136-3.122-.753-5.146c0 0 .682.603 1.737 3.711.858-2.052 2.842-3.234 2.842-3.193-2.407 3.443-2.173 4.628-2.173 4.628h-1.036l.012-.107Zm.839 14.792h-4.159s-2.122-7.466-5.194-13.599c0 0 3.291 3.488 5.644 8.558-.206-2.028-.619-4.325-1.437-6.201 0 0 1.475 1.288 3.717 8.111 1.858-4.525 6.205-7.066 6.205-7.025-5.294 7.564-4.776 10.156-4.776 10.156Zm2.221-14.253s2.789 1.221 6.146 6.751h-1.987c-.333 0-1.233-4.11-4.159-6.751Zm-20.213 5.714h.012s3.542 1.604 7.836 8.551H24.46c-.383-.049-1.654-5.194-5.294-8.551Zm6.232-8.269c-3.123 2.789-4.11 7.083-4.394 7.133h-2.122c3.542-5.862 6.516-7.133 6.516-7.133Zm-6.232-10.674s2.37 1.036 5.294 5.714h-1.752c-.234-.099-1.037-3.492-3.542-5.714Zm9.872 8.873s1.605.764 3.592 3.924h-1.186c-.185 0-.753-2.369-2.406-3.924Zm2.308-3.159H28.52s-1.419-4.961-3.542-9.071c.038 0 2.168 2.226 3.747 5.491-.154-1.299-.442-2.741-.97-3.936 0 0 .992.914 2.559 5.429 1.275-3.021 4.24-4.664 4.24-4.664-3.541 4.999-3.208 6.751-3.208 6.751Z"/>
  </g>
  <g id="blue">
    <path fill="#d1f8fd" d="M4.851 10.391A4.021 4.021 0 0 1 3 7.01C3.004 4.812 4.812 3.004 7.01 3a4.02 4.02 0 0 1 3.381 1.851h43.218A4.021 4.021 0 0 1 56.99 3c2.198.004 4.006 1.812 4.01 4.01a4.021 4.021 0 0 1-1.851 3.381v43.218A4.021 4.021 0 0 1 61 56.99c-.004 2.198-1.812 4.006-4.01 4.01a4.021 4.021 0 0 1-3.381-1.851H10.391A4.021 4.021 0 0 1 7.01 61c-2.198-.004-4.006-1.812-4.01-4.01a4.02 4.02 0 0 1 1.851-3.381V10.391ZM53.09 7.936H10.91a4.017 4.017 0 0 1-2.974 2.974v42.18a4.017 4.017 0 0 1 2.974 2.974h42.18a4.017 4.017 0 0 1 2.974-2.974V10.91a4.017 4.017 0 0 1-2.974-2.974Z"/>
  </g>
</svg>
