<svg xmlns="http://www.w3.org/2000/svg" xml:space="preserve" fill-rule="evenodd" stroke-linejoin="round" stroke-miterlimit="2" clip-rule="evenodd" viewBox="0 0 64 64">
  <g id="blue">
    <path fill="#758193" d="M53.09 7.936a4.017 4.017 0 0 0 2.974 2.974v42.18a4.017 4.017 0 0 0-2.974 2.974H10.91a4.017 4.017 0 0 0-2.974-2.974V10.91a4.017 4.017 0 0 0 2.974-2.974h42.18Z"/>
    <path fill="#d1f8fd" d="M4.851 10.391A4.021 4.021 0 0 1 3 7.01C3.004 4.812 4.812 3.004 7.01 3a4.02 4.02 0 0 1 3.381 1.851h43.218A4.021 4.021 0 0 1 56.99 3c2.198.004 4.006 1.812 4.01 4.01a4.021 4.021 0 0 1-1.851 3.381v43.218A4.021 4.021 0 0 1 61 56.99c-.004 2.198-1.812 4.006-4.01 4.01a4.021 4.021 0 0 1-3.381-1.851H10.391A4.021 4.021 0 0 1 7.01 61c-2.198-.004-4.006-1.812-4.01-4.01a4.02 4.02 0 0 1 1.851-3.381V10.391ZM53.09 7.936H10.91a4.017 4.017 0 0 1-2.974 2.974v42.18a4.017 4.017 0 0 1 2.974 2.974h42.18a4.017 4.017 0 0 1 2.974-2.974V10.91a4.017 4.017 0 0 1-2.974-2.974Z"/>
  </g>
  <g id="grey">
    <path fill="#c4c3c3" d="m47.039 20.332-.002.012-3.097 31.505c-.149.803-.864 1.444-1.617 1.444l-20.497.074a1.649 1.649 0 0 1-1.617-1.443c-.1-.814-3.382-31.548-3.382-31.48l30.212-.112Z"/>
    <path fill="#e7e6e6" d="m23.689 22.96 1.653 26.792c0 .79-.542 1.37-1.295 1.37-.753 0-1.395-.58-1.468-1.297l-2.308-26.791c-.038-.789.641-1.369 1.616-1.369.974 0 1.727.58 1.802 1.295Zm6.664-.061h.012l.432 26.791c0 .79-.568 1.37-1.37 1.37-.802 0-1.443-.58-1.443-1.296l-1.013-26.791c0-.789.679-1.369 1.654-1.369.975 0 1.728.58 1.728 1.295Zm6.726 0-.753 26.791c-.075.79-.655 1.37-1.444 1.37-.79 0-1.37-.58-1.37-1.296l.185-26.791c.074-.789.79-1.369 1.727-1.369.938 0 1.655.58 1.655 1.295Zm6.688-.074h-.012l-2.086 26.791c-.025.789-.716 1.369-1.469 1.369-.753 0-1.369-.58-1.296-1.295l1.444-26.791c.074-.79.827-1.37 1.802-1.37.975 0 1.69.58 1.617 1.296Z"/>
    <path fill="#a7a5a6" d="M21.788 21.64h.012l2.197 29.457c-.728 0-1.295-.58-1.37-1.296L20.32 23.01c-.075-.729.642-1.295 1.468-1.37Zm6.8 0h.012l.753 29.457c-.728 0-1.369-.58-1.369-1.296L26.971 23.01c0-.729.716-1.295 1.617-1.37Zm6.861-.074-.469 29.457h-.074c-.79 0-1.37-.58-1.37-1.296l.186-26.791c0-.79.753-1.37 1.727-1.37Zm6.763 0-1.975 29.457c-.753 0-1.37-.58-1.295-1.296l1.468-26.791c.074-.79.827-1.37 1.802-1.37Z"/>
    <path fill="#aaa8a8" d="m47.136 19.693-.074.639-30.235.112c0-.074-.074-.58-.074-.642v-.004l30.383-.105Z"/>
    <path fill="#c4c3c3" d="m16.007 18.567-.019 1.235L48 19.691h.012l-.018-1.235a1.883 1.883 0 0 0-1.877-1.876l-28.234.112a1.883 1.883 0 0 0-1.876 1.875Z"/>
    <path fill="#c4c3c3" d="M38.647 12.479c.007.067.011.135.011.202v2.559h-.025v-2.559c.009-.069.013-.135.014-.202Zm-1.791 2.769v-1.814c0-.543-.357-.901-.901-.901l-7.91.074c-.544 0-.901.358-.901.901v1.777l-.704.004V13.36a1.67 1.67 0 0 1 1.655-1.654l7.589-.074c.9 0 1.653.753 1.653 1.653v1.96l-.481.003Z"/>
    <path fill="#dcdbdb" d="m38.633 15.24 7.484-.029c.899 0 1.652.652 1.835 1.533.023.111.037.226.042.343v1.369a1.883 1.883 0 0 0-1.877-1.876l-28.234.112a1.883 1.883 0 0 0-1.876 1.875v-1.369a1.893 1.893 0 0 1 1.876-1.877l7.397-.029v-2.519c0-1.134.933-2.066 2.067-2.066h.019l9.169-.074h.025c1.184 0 2.221.9 2.073 2.048v2.559Zm-12.193.049 10.897-.044v-1.96c0-.9-.753-1.653-1.653-1.653l-7.589.074a1.67 1.67 0 0 0-1.655 1.654v1.929Z"/>
  </g>
</svg>
