<svg xmlns="http://www.w3.org/2000/svg" xml:space="preserve" fill-rule="evenodd" stroke-linejoin="round" stroke-miterlimit="2" clip-rule="evenodd" viewBox="0 0 64 64">
  <g id="blue">
    <path fill="#758193" d="M49.454 12.085a3.32 3.32 0 0 0 2.461 2.461v34.908a3.32 3.32 0 0 0-2.461 2.461H14.546a3.32 3.32 0 0 0-2.461-2.461V14.546a3.32 3.32 0 0 0 2.461-2.461h34.908Z"/>
    <path fill="#d1f8fd" d="M9.532 14.117A3.326 3.326 0 0 1 8 11.319 3.325 3.325 0 0 1 11.319 8c1.175 0 2.206.613 2.798 1.532h35.766A3.326 3.326 0 0 1 52.681 8 3.325 3.325 0 0 1 56 11.319a3.326 3.326 0 0 1-1.532 2.798v35.766A3.326 3.326 0 0 1 56 52.681 3.325 3.325 0 0 1 52.681 56a3.326 3.326 0 0 1-2.798-1.532H14.117A3.326 3.326 0 0 1 11.319 56 3.325 3.325 0 0 1 8 52.681c0-1.175.613-2.206 1.532-2.798V14.117Zm39.922-2.032H14.546a3.32 3.32 0 0 1-2.461 2.461v34.908a3.32 3.32 0 0 1 2.461 2.461h34.908a3.32 3.32 0 0 1 2.461-2.461V14.546a3.32 3.32 0 0 1-2.461-2.461Z"/>
  </g>
  <g id="grey">
    <path fill="#c4c3c3" d="m44.446 22.344-.002.01-2.563 26.073c-.123.664-.715 1.195-1.338 1.195l-16.963.061a1.36 1.36 0 0 1-1.338-1.194s-2.799-26.109-2.799-26.053l25.003-.092Z"/>
    <path fill="#e7e6e6" d="m25.122 24.519 1.368 22.172c0 .654-.449 1.134-1.072 1.134s-1.154-.48-1.215-1.073l-1.91-22.172c-.031-.653.531-1.133 1.338-1.133.806 0 1.429.48 1.491 1.072Zm5.515-.051h.01l.357 22.172c0 .654-.47 1.134-1.133 1.134-.664 0-1.195-.48-1.195-1.073l-.838-22.172c0-.653.562-1.133 1.369-1.133.807 0 1.43.48 1.43 1.072Zm5.566 0L35.58 46.64c-.062.654-.542 1.134-1.195 1.134-.654 0-1.134-.48-1.134-1.073l.153-22.172c.062-.653.654-1.133 1.43-1.133.776 0 1.369.48 1.369 1.072Zm5.535-.061h-.01l-1.726 22.172c-.021.653-.593 1.133-1.216 1.133s-1.133-.48-1.072-1.072l1.195-22.172c.061-.654.684-1.134 1.491-1.134s1.399.48 1.338 1.073Z"/>
    <path fill="#a7a5a6" d="M23.549 23.426h.01l1.818 24.378c-.603 0-1.072-.48-1.134-1.072L22.334 24.56c-.062-.603.531-1.072 1.215-1.134Zm5.627 0h.01l.623 24.378c-.602 0-1.133-.48-1.133-1.072l-.838-22.172c0-.603.593-1.072 1.338-1.134Zm5.678-.061-.388 24.378h-.061c-.654 0-1.134-.48-1.134-1.072l.154-22.172c0-.654.623-1.134 1.429-1.134Zm5.597 0-1.634 24.378c-.623 0-1.134-.48-1.072-1.072l1.215-22.172c.061-.654.684-1.134 1.491-1.134Z"/>
    <path fill="#aaa8a8" d="m44.526 21.815-.061.529-25.022.092c0-.061-.061-.48-.061-.531v-.003l25.144-.087Z"/>
    <path fill="#c4c3c3" d="m18.764 20.883-.015 1.022 26.492-.092h.01l-.015-1.022c0-.868-.715-1.552-1.553-1.552l-23.366.092c-.868 0-1.553.715-1.553 1.552Z"/>
    <path fill="#c4c3c3" d="M37.501 15.845c.006.055.009.111.009.167v2.118h-.021v-2.118c.008-.057.011-.112.012-.167Zm-1.482 2.291v-1.501c0-.449-.296-.746-.746-.746l-6.546.062c-.45 0-.746.296-.746.745v1.471l-.582.003v-1.596c0-.746.623-1.369 1.369-1.369l6.281-.061c.745 0 1.368.623 1.368 1.368v1.622l-.398.002Z"/>
    <path fill="#dcdbdb" d="m37.489 18.13 6.194-.024c.744 0 1.367.539 1.519 1.268.019.092.03.187.034.284v1.133c0-.868-.715-1.552-1.553-1.552l-23.366.092c-.868 0-1.553.715-1.553 1.552V19.75a1.56 1.56 0 0 1 1.553-1.553l6.122-.024v-2.069a1.71 1.71 0 0 1 1.726-1.726l7.588-.061h.021c.98 0 1.838.745 1.715 1.695v2.118Zm-10.09.04 9.018-.036v-1.622c0-.745-.623-1.368-1.368-1.368l-6.281.061c-.746 0-1.369.623-1.369 1.369v1.596Z"/>
  </g>
</svg>
