<svg xmlns="http://www.w3.org/2000/svg" xml:space="preserve" fill-rule="evenodd" stroke-linejoin="round" stroke-miterlimit="2" clip-rule="evenodd" viewBox="0 0 64 64">
  <g id="orange">
    <path fill="#f1cd8b" d="M53.09 7.936a4.017 4.017 0 0 0 2.974 2.974v42.18a4.017 4.017 0 0 0-2.974 2.974H10.91a4.017 4.017 0 0 0-2.974-2.974V10.91a4.017 4.017 0 0 0 2.974-2.974h42.18Z"/>
  </g>
  <g id="blue">
    <path fill="#d1f8fd" fill-rule="nonzero" d="M4.851 10.391A4.021 4.021 0 0 1 3 7.01C3.004 4.812 4.812 3.004 7.01 3a4.02 4.02 0 0 1 3.381 1.851h43.218A4.021 4.021 0 0 1 56.99 3c2.198.004 4.006 1.812 4.01 4.01a4.021 4.021 0 0 1-1.851 3.381v43.218A4.021 4.021 0 0 1 61 56.99c-.004 2.198-1.812 4.006-4.01 4.01a4.021 4.021 0 0 1-3.381-1.851H10.391A4.021 4.021 0 0 1 7.01 61c-2.198-.004-4.006-1.812-4.01-4.01a4.02 4.02 0 0 1 1.851-3.381V10.391ZM53.09 7.936H10.91a4.017 4.017 0 0 1-2.974 2.974v42.18a4.017 4.017 0 0 1 2.974 2.974h42.18a4.017 4.017 0 0 1 2.974-2.974V10.91a4.017 4.017 0 0 1-2.974-2.974Z"/>
  </g>
  <g id="black">
    <path fill="#101317" fill-rule="nonzero" d="M46.254 39.034c.123 6.676-5.443 12.76-12.663 13.834-7.317 1.086-14.289-2.518-16.893-8.712-1.456-3.468-1.246-6.936-.099-10.416 1.518-4.59 3.912-8.799 6.602-12.883 2.258-3.419 4.763-6.688 7.38-9.886.296-.369.456-.282.704 0a101.43 101.43 0 0 1 4.072 5.172c3.245 4.392 6.244 8.921 8.477 13.833 1.099 2.419 1.975 4.9 2.296 7.528.062.506.074 1.011.111 1.506l.012.024ZM23.966 27.706c-.16.184-.209.234-.247.296-1.357 2.517-2.604 5.072-3.331 7.824-.84 3.196-.79 6.084 1.11 8.848.716 1.049 1.852 1.925 3.443 2.147 1.086.197 2.185-.321 2.727-1.086.593-.852.322-1.629-.234-2.381-.395-.531-.803-1.063-1.197-1.593-1.863-2.591-2.9-5.429-2.961-8.551-.038-1.802.283-3.58.69-5.492v-.012Z"/>
  </g>
</svg>
