<svg xmlns="http://www.w3.org/2000/svg" xml:space="preserve" fill-rule="evenodd" stroke-linejoin="round" stroke-miterlimit="2" clip-rule="evenodd" viewBox="0 0 64 64">
  <g id="orange">
    <path fill="#f1cd8b" d="M49.454 12.085a3.32 3.32 0 0 0 2.461 2.461v34.908a3.32 3.32 0 0 0-2.461 2.461H14.546a3.32 3.32 0 0 0-2.461-2.461V14.546a3.32 3.32 0 0 0 2.461-2.461h34.908Z"/>
  </g>
  <g id="blue">
    <path fill="#d1f8fd" fill-rule="nonzero" d="M9.532 14.117A3.326 3.326 0 0 1 8 11.319 3.325 3.325 0 0 1 11.319 8c1.175 0 2.206.613 2.798 1.532h35.766A3.326 3.326 0 0 1 52.681 8 3.325 3.325 0 0 1 56 11.319a3.326 3.326 0 0 1-1.532 2.798v35.766A3.326 3.326 0 0 1 56 52.681 3.325 3.325 0 0 1 52.681 56a3.326 3.326 0 0 1-2.798-1.532H14.117A3.326 3.326 0 0 1 11.319 56 3.325 3.325 0 0 1 8 52.681c0-1.175.613-2.206 1.532-2.798V14.117Zm39.922-2.032H14.546a3.32 3.32 0 0 1-2.461 2.461v34.908a3.32 3.32 0 0 1 2.461 2.461h34.908a3.32 3.32 0 0 1 2.461-2.461V14.546a3.32 3.32 0 0 1-2.461-2.461Z"/>
  </g>
  <g id="black">
    <path fill="#101317" fill-rule="nonzero" d="M43.796 37.821c.102 5.525-4.504 10.56-10.479 11.449-6.056.899-11.826-2.084-13.981-7.21-1.205-2.87-1.031-5.74-.082-8.62 1.257-3.799 3.238-7.282 5.464-10.662 1.869-2.829 3.942-5.535 6.108-8.181.245-.306.377-.234.582 0a83.5 83.5 0 0 1 3.37 4.28c2.686 3.635 5.168 7.383 7.016 11.448.909 2.002 1.634 4.055 1.9 6.23.051.419.061.837.092 1.246l.01.02Zm-18.445-9.375c-.132.153-.173.194-.204.245-1.123 2.083-2.155 4.198-2.757 6.475-.695 2.645-.654 5.035.919 7.323.592.868 1.532 1.593 2.849 1.777.899.163 1.808-.266 2.257-.899.491-.705.266-1.348-.194-1.971-.327-.439-.664-.879-.99-1.318-1.542-2.144-2.4-4.493-2.451-7.077-.031-1.491.234-2.962.571-4.545v-.01Z"/>
  </g>
</svg>
