<svg xmlns="http://www.w3.org/2000/svg" xml:space="preserve" fill-rule="evenodd" stroke-linejoin="round" stroke-miterlimit="2" clip-rule="evenodd" viewBox="0 0 64 64">
  <g id="grey">
    <path fill="#758193" d="M53.09 7.936a4.017 4.017 0 0 0 2.974 2.974v42.18a4.017 4.017 0 0 0-2.974 2.974H10.91a4.017 4.017 0 0 0-2.974-2.974V10.91a4.017 4.017 0 0 0 2.974-2.974h42.18Z"/>
    <path fill="#474b51" d="m26.508 12.971-.012-.012s8.849 1.308 9.07 1.492c.248.161 9.663 7.109 10.033 7.294.371.161 6.479 11.439 6.602 11.749.006.01.004.037-.006.079l-8.891 4.956-.025-.026s-7.034-6.046-7.195-6.231c-.061-.062-.493-.099-1.085-.099-.433 0-.963.037-1.432.037-.431.036-.876.036-1.122.036h-.186l-.127.027a.084.084 0 0 1 .041-.014l-.011-.015.035-.034c-.009 0-.023.008-.045.021-.372-.515-5.744-7.95-5.803-8.104-.026-.124.221-8.095.345-11.118-.063-.038-.161-.038-.161-.038h-.025Z"/>
    <path fill="#292c2f" fill-rule="nonzero" d="M37.997 48.808c-.691 0-9.255-4.171-9.539-4.171-.037 0-.222-.038-.53-.062 1.184-2.53 2.183-4.64 2.209-4.677l-1.593-4.171h.038c.16 0 .999-.877 1.839-1.74.061-.062.123-.161.185-.185l1.653-1.555h.186c.246 0 .691 0 1.122-.037.469 0 1-.037 1.432-.037.592 0 1.024.037 1.085.099.161.185 7.195 6.231 7.195 6.231l-.777 6.257s-4.023 3.986-4.517 4.048"/>
    <path fill="#101213" d="M17.047 43.704c.024.028.058.066.058.057-.036-.099-.099-.185-.161-.408a.47.47 0 0 0-.04-.12c2.146.25 8.956 1.121 10.95 1.342l-.017.034c.362.041.585.065.621.065.284 0 9.07 4.269 9.564 4.17.493-.086 4.517-4.047 4.517-4.047l-.013-.013.778-6.255 8.946-4.986c.161.308-6.071 13.648-6.071 13.648s-8.133 1.999-8.317 2.06c-.185.063-8.256 0-8.256 0s-10.217-2.775-10.28-3.084l-.001-.013a.176.176 0 0 1-.035-.024c-.062-.309-1.901-2-2.148-2.308l-.095-.118Zm0 0c-.025-.03-.04-.05 0 0Zm-.148-.473c-.003.007-.004.028-.016-.001l.016.001Z"/>
    <path fill="#3b3e43" fill-rule="nonzero" d="M28.52 35.727c-.123-.223-11.588-4.146-11.588-4.146s-2.122-7.171-2.122-7.294c0-.123-.371-7.601-.371-7.601.469-.531 6.541-2.247 9.935-3.184.701-.203 1.408-.38 2.122-.531h.038s.097 0 .16.038c-.124 3.023-.371 10.994-.345 11.118.061.16 5.824 8.132 5.824 8.132-.123 0-.876.752-1.617 1.555l-2.024 1.9"/>
    <path fill="#242629" fill-rule="nonzero" d="M11.539 28.828c-.036-.123-.16-1.307-.284-2.616-.123-1.283-.221-2.653-.221-3.184 0-.123 0-.185.036-.222.124-.221 2.555-5.047 3.308-6.047.037-.036.061-.061.061-.098l.038-.037s.37 7.478.37 7.602c0 .123 2.085 7.317 2.085 7.317h-.024l-3.431 2.531"/>
    <path fill="#1a1d1f" fill-rule="nonzero" d="M27.903 44.575c-1.999-.222-8.885-1.086-10.971-1.345-.616-1.531-2.147-5.676-3.43-9.132l3.43-2.529 11.625 4.108 1.554 4.171-2.208 4.702"/>
  </g>
  <g id="blue">
    <path fill="#d1f8fd" d="M4.851 10.391A4.021 4.021 0 0 1 3 7.01C3.004 4.812 4.812 3.004 7.01 3a4.02 4.02 0 0 1 3.381 1.851h43.218A4.021 4.021 0 0 1 56.99 3c2.198.004 4.006 1.812 4.01 4.01a4.021 4.021 0 0 1-1.851 3.381v43.218A4.021 4.021 0 0 1 61 56.99c-.004 2.198-1.812 4.006-4.01 4.01a4.021 4.021 0 0 1-3.381-1.851H10.391A4.021 4.021 0 0 1 7.01 61c-2.198-.004-4.006-1.812-4.01-4.01a4.02 4.02 0 0 1 1.851-3.381V10.391ZM53.09 7.936H10.91a4.017 4.017 0 0 1-2.974 2.974v42.18a4.017 4.017 0 0 1 2.974 2.974h42.18a4.017 4.017 0 0 1 2.974-2.974V10.91a4.017 4.017 0 0 1-2.974-2.974Z"/>
  </g>
</svg>
