<svg xmlns="http://www.w3.org/2000/svg" xml:space="preserve" fill-rule="evenodd" stroke-linejoin="round" stroke-miterlimit="2" clip-rule="evenodd" viewBox="0 0 64 64">
  <g id="grey">
    <path fill="#292e36" d="M49.454 12.085a3.32 3.32 0 0 0 2.461 2.461v34.908a3.32 3.32 0 0 0-2.461 2.461H14.546a3.32 3.32 0 0 0-2.461-2.461V14.546a3.32 3.32 0 0 0 2.461-2.461h34.908Z"/>
  </g>
  <g id="yellow">
    <path fill="#f5d53c" d="M29.978 51.915v-7.016h3.401v7.016h-3.401Zm3.452-39.83v8.875h-3.401v-8.875h3.401Zm-.031 11.101v9.08h-3.401v-9.08h3.401ZM33.42 34.4v8.426h-3.401V34.4h3.401Z"/>
  </g>
  <g id="blue">
    <path fill="#d1f8fd" d="M9.532 14.117A3.326 3.326 0 0 1 8 11.319 3.325 3.325 0 0 1 11.319 8c1.175 0 2.206.613 2.798 1.532h35.766A3.326 3.326 0 0 1 52.681 8 3.325 3.325 0 0 1 56 11.319a3.326 3.326 0 0 1-1.532 2.798v35.766A3.326 3.326 0 0 1 56 52.681 3.325 3.325 0 0 1 52.681 56a3.326 3.326 0 0 1-2.798-1.532H14.117A3.326 3.326 0 0 1 11.319 56 3.325 3.325 0 0 1 8 52.681c0-1.175.613-2.206 1.532-2.798V14.117Zm39.922-2.032H14.546a3.32 3.32 0 0 1-2.461 2.461v34.908a3.32 3.32 0 0 1 2.461 2.461h34.908a3.32 3.32 0 0 1 2.461-2.461V14.546a3.32 3.32 0 0 1-2.461-2.461Z"/>
  </g>
</svg>
