<svg xmlns="http://www.w3.org/2000/svg" xml:space="preserve" fill-rule="evenodd" stroke-linejoin="round" stroke-miterlimit="2" clip-rule="evenodd" viewBox="0 0 64 64">
  <g id="orange">
    <path fill="#edb856" d="M53.09 7.936a4.017 4.017 0 0 0 2.974 2.974v42.18a4.017 4.017 0 0 0-2.974 2.974H10.91a4.017 4.017 0 0 0-2.974-2.974V10.91a4.017 4.017 0 0 0 2.974-2.974h42.18Z"/>
    <path fill="#c1984c" fill-rule="nonzero" d="M40.861 16.562h-.087c-.271.136-.493.334-.728.605-.42.468-.802 1.012-1.185 1.555-.531.74-1.802 2.703-3.788 5.8h7.268v-.963c0-.136-.036-.333-.123-.605a.431.431 0 0 0-.074-.197l-.346-.543a.915.915 0 0 1-.111-.469l-.073-.876v-1.888c0-.136 0-.271-.05-.333-.037-.137-.074-.334-.161-.605-.272-.543-.469-1.073-.542-1.481Z"/>
    <path fill="#dcad52" fill-rule="nonzero" d="M36.578 18.253h-.271a3.138 3.138 0 0 0-1.272.542c-.308.137-.961.679-1.912 1.617-1.073 1.086-2.949 3.382-5.64 7.022l6.418.123 12.192-.024c-1.468-1.543-2.616-2.752-3.394-3.629-.543-.542-1.691-1.887-3.431-4.034l-.58-.606c-.308-.332-.691-.604-1.16-.876-.308-.061-.58-.135-.962-.135h.012Z"/>
    <path fill="#dcad52" fill-rule="nonzero" d="M46.931 21.597h-.036c-.419 0-.999.21-1.728.678-.345.272-.728.544-1.184.951-1.309 1.148-2.073 1.888-2.382 2.098-.383.333-.691.543-.925.604a3.123 3.123 0 0 1-2.197.407l6.231 1.272 8.38-.025-2.616-2.888c-.383-.679-.925-1.344-1.617-2.147-.42-.407-.691-.604-.851-.666-.42-.198-.765-.271-1.075-.271v-.013Z"/>
    <path fill="#f3c56c" fill-rule="nonzero" d="M46.858 21.597h-.148c-.456.074-1.036.346-1.654.74-.234.198-.617.469-1.11.877-1.272 1.147-2.074 1.888-2.382 2.098-.419.332-.691.542-.84.604-.727.407-1.456.543-2.27.407l5.96 1.198h3.111c-.111-.272-.161-.753-.124-1.42.037-.469.11-.938.222-1.555.037-.407.037-.74.037-.938a1.2 1.2 0 0 0-.037-.197c-.235-.407-.42-.802-.617-1.209a1.235 1.235 0 0 1-.16-.605h.012Z"/>
    <path fill="#f3c56c" fill-rule="nonzero" d="M36.578 18.253h-.271c-.382.074-.889.272-1.542.679-.383.271-1.075.876-2.036 1.887-1.112 1.222-2.876 3.382-5.258 6.615l6.418.123h5.502l.186-.555c.037-.468 0-.74-.037-.876-.037-.061-.074-.136-.111-.136-.728-.543-1.198-.876-1.432-1.073-.197-.136-.308-.469-.346-.876-.036-.272 0-.544.112-.876l1.036-1.889.075-.272-.075-.061-1.036-.802s-.074-.062-.16-.198c-.272-.407-.42-.937-.469-1.678h-.58"/>
    <path fill="#c1984c" fill-rule="nonzero" d="M39.046 22.289h-.235c-.542 0-1.307.209-2.27.678-.765.407-1.802 1.147-3.184 2.431-.926.679-3.677 3.986-8.243 9.996l13.352 3.467 11.649.309-.27-1.209a80.942 80.942 0 0 1-1.667-3.431c-.963-1.543-1.702-2.826-2.196-3.839-.741-1.949-1.284-3.368-1.667-4.38-.616-.876-1.036-1.678-1.16-2.357-.616-.543-1.196-.876-1.813-1.21-.148-.135-.618-.27-1.345-.469h-.963l.012.014Z"/>
    <path fill="#c1984c" fill-rule="nonzero" d="m26.694 16.587-.309.074c-1.345.74-2.727 2.023-4.11 3.986a489.07 489.07 0 0 0-12.069 18.696l31.839-.075c-.654-.407-1.196-1.209-1.579-2.356-1.037-.938-1.617-1.543-1.814-1.889-.889-2.024-1.432-3.097-1.629-3.295l-.58-1.752-.814-1.48-.926-.877c-.198-.197-.544-.678-1.124-1.542-.616-1.013-.999-1.889-1.16-2.691a63.968 63.968 0 0 1-2.628-3.023c-1.16-1.617-1.925-2.826-2.357-3.628-.346-.061-.58-.136-.765-.136l.025-.012Z"/>
    <path fill="#dcad52" d="m29.247 41.321-10.464.021-6.417-.124c2.691-3.64 4.566-5.935 5.64-7.021.95-.938 1.604-1.482 1.913-1.617a3.122 3.122 0 0 1 1.271-.543h.271c.377.002.681.074.951.136.469.272.851.542 1.16.876l.58.605c1.74 2.147 2.887 3.492 3.43 4.035l.231.258c.302-.271.651-.584 1.053-.937.456-.407.838-.678 1.184-.95.728-.469 1.308-.679 1.728-.679h.037v.013c.346 0 .691.074 1.073.271.161.062.433.26.852.667.691.802 1.234 1.468 1.617 2.147l2.616 2.887-8.379.025-.347-.07Z"/>
    <path fill="#f3c56c" d="M24.475 40.336c.002.127-.002.275-.015.45l-.185.556h-5.504l-6.417-.124c2.381-3.233 4.147-5.392 5.257-6.614.963-1.013 1.653-1.617 2.036-1.889.654-.407 1.16-.604 1.543-.678h.271l-.024.025c.197 0 .345 0 .58-.074.049.741.197 1.271.469 1.678a.87.87 0 0 0 .16.197l1.037.803.074.061-.074.272-1.037 1.888c-.111.333-.148.605-.111.876.036.407.148.74.346.876.234.198.703.531 1.43 1.074.038.074.075.074.112.135.014.076.029.163.038.267a3.522 3.522 0 0 0 1.147-.414c.147-.062.419-.272.839-.606.309-.209 1.11-.949 2.381-2.097.494-.408.876-.679 1.111-.876.617-.395 1.197-.666 1.654-.741h.135c.05.136.087.407.161.605.148.408.383.803.617 1.21 0 0 .037.135.037.197 0 .197 0 .53-.037.937a15.692 15.692 0 0 0-.222 1.556c-.037.665.012 1.148.123 1.418h-3.11l-4.822-.968Z"/>
  </g>
  <g id="brown">
    <path fill="#a57e39" d="M26.681 16.6c.244 0 .47.041.68.122-.298-.058-.51-.12-.68-.122Zm0 0-.012-.001.025-.012-.013.013Zm23.508 22.522.21.196-8.354-.05c-.654-.407-1.196-1.209-1.579-2.356-1.037-.938-1.617-1.543-1.814-1.889-.889-2.024-1.432-3.097-1.629-3.295l-.58-1.752-.814-1.48-.926-.877c-.198-.197-.544-.678-1.124-1.542-.616-1.013-.999-1.889-1.16-2.691a63.968 63.968 0 0 1-2.628-3.023c-1.15-1.603-1.911-2.805-2.345-3.607.287.125.546.325.778.583 3.282 3.629 5.824 6.38 7.602 8.132 2.662 2.65 7.418 7.191 14.257 13.552l-.238-1.062a80.942 80.942 0 0 1-1.667-3.431c-.963-1.543-1.702-2.826-2.196-3.839-.741-1.949-1.284-3.368-1.667-4.38-.599-.852-1.012-1.633-1.149-2.3.848.696 1.668 1.544 2.458 2.497.234.272.888 1.086 2.012 2.493l6.527 10.231-3.974-.11Zm-7.876-15.81a3.432 3.432 0 0 0-.095-.358.431.431 0 0 0-.074-.197l-.346-.543a.915.915 0 0 1-.111-.469l-.073-.876v-1.888c0-.136 0-.271-.05-.333-.037-.137-.074-.334-.161-.605-.264-.531-.459-1.049-.537-1.453l.056-.028h.111a.8.8 0 0 1 .543.197c1.197 1.271 2.086 2.284 2.739 2.888.493.487 1.2 1.164 2.112 2.016-.402.119-.874.357-1.371.674-.234.198-.617.469-1.11.877l-.805.728a7.557 7.557 0 0 0-.828-.63Z"/>
  </g>
  <g id="blue">
    <path fill="#d1f8fd" d="M4.851 10.391A4.021 4.021 0 0 1 3 7.01C3.004 4.812 4.812 3.004 7.01 3a4.02 4.02 0 0 1 3.381 1.851h43.218A4.021 4.021 0 0 1 56.99 3c2.198.004 4.006 1.812 4.01 4.01a4.021 4.021 0 0 1-1.851 3.381v43.218A4.021 4.021 0 0 1 61 56.99c-.004 2.198-1.812 4.006-4.01 4.01a4.021 4.021 0 0 1-3.381-1.851H10.391A4.021 4.021 0 0 1 7.01 61c-2.198-.004-4.006-1.812-4.01-4.01a4.02 4.02 0 0 1 1.851-3.381V10.391ZM53.09 7.936H10.91a4.017 4.017 0 0 1-2.974 2.974v42.18a4.017 4.017 0 0 1 2.974 2.974h42.18a4.017 4.017 0 0 1 2.974-2.974V10.91a4.017 4.017 0 0 1-2.974-2.974Z"/>
  </g>
</svg>
