<svg xmlns="http://www.w3.org/2000/svg" xml:space="preserve" fill-rule="evenodd" stroke-linejoin="round" stroke-miterlimit="2" clip-rule="evenodd" viewBox="0 0 64 64">
  <g id="orange">
    <path fill="#edb856" d="M49.454 12.085a3.32 3.32 0 0 0 2.461 2.461v34.908a3.32 3.32 0 0 0-2.461 2.461H14.546a3.32 3.32 0 0 0-2.461-2.461V14.546a3.32 3.32 0 0 0 2.461-2.461h34.908Z"/>
    <path fill="#c1984c" fill-rule="nonzero" d="M39.333 19.224h-.072c-.224.112-.408.276-.602.5-.348.388-.664.838-.981 1.287-.439.613-1.491 2.237-3.135 4.8h6.015v-.797c0-.112-.03-.275-.102-.5a.352.352 0 0 0-.061-.163l-.286-.45a.753.753 0 0 1-.092-.388l-.061-.725v-1.562c0-.113 0-.225-.041-.276-.031-.113-.061-.276-.133-.501-.225-.449-.388-.888-.449-1.225Z"/>
    <path fill="#dcad52" fill-rule="nonzero" d="M35.789 20.623h-.225a2.594 2.594 0 0 0-1.052.449c-.255.113-.796.562-1.583 1.338-.888.899-2.44 2.799-4.667 5.811l5.311.102 10.09-.02c-1.215-1.277-2.165-2.277-2.809-3.003-.449-.449-1.399-1.562-2.839-3.339l-.48-.501c-.255-.275-.572-.5-.96-.725-.255-.051-.48-.112-.796-.112h.01Z"/>
    <path fill="#dcad52" fill-rule="nonzero" d="M44.357 23.391h-.03c-.347 0-.827.173-1.43.561-.286.225-.603.45-.98.787-1.083.95-1.716 1.562-1.971 1.736-.317.276-.572.449-.766.5a2.588 2.588 0 0 1-1.818.337l5.157 1.052 6.935-.02-2.165-2.39c-.317-.562-.766-1.113-1.338-1.777-.348-.337-.572-.5-.705-.551-.347-.164-.633-.225-.889-.225v-.01Z"/>
    <path fill="#f3c56c" fill-rule="nonzero" d="M44.296 23.391h-.122c-.378.061-.858.286-1.369.612-.194.164-.511.388-.919.726-1.052.949-1.716 1.562-1.971 1.736-.347.275-.572.449-.695.5-.602.337-1.205.449-1.879.337l4.933.991h2.574c-.092-.225-.133-.623-.102-1.175.03-.388.091-.776.183-1.287.031-.337.031-.612.031-.776a.916.916 0 0 0-.031-.163c-.194-.337-.347-.664-.51-1.001a1.02 1.02 0 0 1-.133-.5h.01Z"/>
    <path fill="#f3c56c" fill-rule="nonzero" d="M35.789 20.623h-.225c-.316.061-.735.225-1.276.562-.317.224-.889.725-1.685 1.562-.92 1.011-2.38 2.799-4.351 5.474l5.311.102h4.554l.154-.459c.03-.388 0-.613-.031-.725-.031-.051-.061-.113-.092-.113-.602-.449-.991-.725-1.185-.888-.163-.112-.255-.388-.286-.725-.03-.225 0-.45.092-.725l.858-1.563.062-.225-.062-.051-.858-.663s-.061-.052-.132-.164c-.225-.337-.348-.776-.388-1.389h-.48"/>
    <path fill="#c1984c" fill-rule="nonzero" d="M37.831 23.963h-.194c-.449 0-1.082.173-1.879.561-.633.337-1.491.95-2.635 2.012-.766.562-3.043 3.299-6.822 8.273l11.05 2.869 9.641.256-.224-1.001c-.45-.889-.93-1.839-1.379-2.839-.797-1.277-1.409-2.339-1.818-3.177-.613-1.613-1.062-2.788-1.379-3.625-.51-.725-.858-1.389-.96-1.951-.51-.449-.99-.725-1.501-1.001-.122-.112-.511-.224-1.113-.388h-.797l.01.011Z"/>
    <path fill="#c1984c" fill-rule="nonzero" d="m27.609 19.244-.256.062c-1.113.612-2.257 1.674-3.401 3.298a403.891 403.891 0 0 0-9.988 15.473l26.349-.062c-.541-.337-.99-1.001-1.307-1.95-.858-.776-1.338-1.277-1.501-1.563-.736-1.675-1.185-2.563-1.348-2.727l-.48-1.45-.674-1.225-.766-.726c-.164-.163-.45-.561-.93-1.276-.51-.838-.827-1.563-.96-2.227a52.274 52.274 0 0 1-2.175-2.502c-.96-1.338-1.593-2.338-1.951-3.002-.286-.051-.48-.113-.633-.113l.021-.01Z"/>
    <path fill="#dcad52" d="m29.722 39.714-8.66.017-5.311-.102c2.227-3.013 3.779-4.912 4.668-5.811.786-.776 1.327-1.226 1.583-1.338a2.575 2.575 0 0 1 1.052-.449h.224c.312.001.564.061.787.112.388.225.704.449.96.725l.48.501c1.44 1.777 2.389 2.89 2.839 3.339l.191.214c.25-.225.539-.484.871-.776.378-.337.694-.561.98-.786.603-.388 1.083-.562 1.43-.562h.031v.011c.286 0 .572.061.888.224.133.051.358.215.705.552.572.664 1.021 1.215 1.338 1.777l2.165 2.389-6.934.021-.287-.058Z"/>
    <path fill="#f3c56c" d="M25.772 38.899c.002.105-.001.227-.012.372l-.153.46h-4.555l-5.311-.102c1.971-2.676 3.432-4.463 4.351-5.474.797-.838 1.368-1.338 1.685-1.563.541-.337.96-.5 1.277-.561h.224l-.02.02c.163 0 .286 0 .48-.061.041.613.163 1.052.388 1.389a.733.733 0 0 0 .133.163l.858.664.061.051-.061.225-.858 1.562c-.092.276-.123.501-.092.725.03.337.122.613.286.725.194.164.582.44 1.184.889.031.061.062.061.092.112.012.063.024.135.032.221.323-.054.636-.168.949-.343.122-.051.347-.225.694-.501.256-.173.919-.786 1.971-1.736.409-.337.725-.562.919-.725.511-.327.991-.551 1.369-.613h.112c.041.113.072.337.133.501.123.337.317.664.511 1.001 0 0 .03.112.03.163 0 .163 0 .439-.03.776-.092.511-.153.899-.184 1.287-.031.551.01.95.102 1.174h-2.574l-3.991-.801Z"/>
  </g>
  <g id="brown">
    <path fill="#a57e39" d="M27.598 19.255c.202 0 .389.034.563.101-.247-.048-.422-.099-.563-.101Zm0 0-.01-.001.021-.01-.011.011Zm19.455 18.639.174.162-6.914-.041c-.541-.337-.99-1.001-1.307-1.95-.858-.776-1.338-1.277-1.501-1.563-.736-1.675-1.185-2.563-1.348-2.727l-.48-1.45-.674-1.225-.766-.726c-.164-.163-.45-.561-.93-1.276-.51-.838-.827-1.563-.96-2.227a52.274 52.274 0 0 1-2.175-2.502c-.952-1.326-1.582-2.321-1.941-2.985.238.104.452.269.644.483 2.716 3.003 4.82 5.28 6.291 6.73 2.203 2.193 6.139 5.951 11.799 11.215l-.197-.879c-.45-.889-.93-1.839-1.379-2.839-.797-1.277-1.409-2.339-1.818-3.177-.613-1.613-1.062-2.788-1.379-3.625-.496-.705-.838-1.352-.951-1.904.702.576 1.38 1.278 2.034 2.067.194.225.735.899 1.665 2.063l5.402 8.467-3.289-.091ZM40.535 24.81a2.927 2.927 0 0 0-.079-.296.352.352 0 0 0-.061-.163l-.286-.45a.753.753 0 0 1-.092-.388l-.061-.725v-1.562c0-.113 0-.225-.041-.276-.031-.113-.061-.276-.133-.501-.219-.439-.38-.868-.445-1.202l.047-.023h.092a.66.66 0 0 1 .449.163c.991 1.052 1.726 1.89 2.267 2.39.408.403.993.963 1.748 1.668-.333.099-.724.296-1.135.558-.194.164-.511.388-.919.726l-.666.602a6.244 6.244 0 0 0-.685-.521Z"/>
  </g>
  <g id="blue">
    <path fill="#d1f8fd" d="M9.532 14.117A3.326 3.326 0 0 1 8 11.319 3.325 3.325 0 0 1 11.319 8c1.175 0 2.206.613 2.798 1.532h35.766A3.326 3.326 0 0 1 52.681 8 3.325 3.325 0 0 1 56 11.319a3.326 3.326 0 0 1-1.532 2.798v35.766A3.326 3.326 0 0 1 56 52.681 3.325 3.325 0 0 1 52.681 56a3.326 3.326 0 0 1-2.798-1.532H14.117A3.326 3.326 0 0 1 11.319 56 3.325 3.325 0 0 1 8 52.681c0-1.175.613-2.206 1.532-2.798V14.117Zm39.922-2.032H14.546a3.32 3.32 0 0 1-2.461 2.461v34.908a3.32 3.32 0 0 1 2.461 2.461h34.908a3.32 3.32 0 0 1 2.461-2.461V14.546a3.32 3.32 0 0 1-2.461-2.461Z"/>
  </g>
</svg>
