<svg xmlns="http://www.w3.org/2000/svg" xml:space="preserve" fill-rule="evenodd" stroke-linejoin="round" stroke-miterlimit="2" clip-rule="evenodd" viewBox="0 0 64 64">
  <g id="orange">
    <path fill="#edb856" d="M53.09 7.936a4.017 4.017 0 0 0 2.974 2.974v42.18a4.017 4.017 0 0 0-2.974 2.974H10.91a4.017 4.017 0 0 0-2.974-2.974V10.91a4.017 4.017 0 0 0 2.974-2.974h42.18Z"/>
    <path fill="#dcad52" d="m33.716 53.423.012.013h-7.491l-3.948-.062c1.665-2.21 2.837-3.64 3.492-4.282.568-.568.975-.926 1.172-1.001.284-.135.53-.282.777-.282h.16v-.014c.247 0 .408 0 .531.075.284.136.518.284.729.493.123.074.246.21.369.358 1.099 1.358 1.802 2.135 2.123 2.493.04.047.083.094.126.142l.651-.574c.284-.21.531-.419.729-.568.443-.284.814-.431 1.098-.431h.012c.211 0 .457.062.654.135.087.074.284.223.531.432.407.432.728.852.975 1.284l1.629 1.789h-4.331Z"/>
    <path fill="#f3c56c" d="M29.833 53.361h-.103a.138.138 0 0 1-.078-.011l-.034.098h-3.381l-3.948-.062c1.505-1.925 2.554-3.283 3.245-3.998.604-.58 1.012-.999 1.258-1.148.371-.284.691-.431.938-.431h.16l.026.012h.32c.038.431.123.789.284.999l.086.149.655.493.036.073-.036.149-.655 1.135a.7.7 0 0 0-.086.494c.086.21.123.419.247.493.123.148.407.359.851.643.05 0 .086.073.086.073.01.037.018.073.023.11l.011.009c.239-.044.466-.134.695-.279.086-.074.284-.148.53-.358.198-.135.679-.568 1.456-1.283.322-.223.531-.358.691-.507a3.76 3.76 0 0 1 1.013-.431h.086v-.013c.049.148.049.284.087.359.086.221.209.505.37.715 0 0 .037.074.037.147 0 .137 0 .284-.037.568-.087.358-.161.642-.161.926 0 .432 0 .716.087.864h-1.639l-.003.012h-2.552l-.015.013c-.086.074-.246.074-.407.074-.057 0-.106-.032-.143-.087Z"/>
    <path fill="#dcad52" d="m37.996 36.39-.307.065h-8.182l2.555-2.838c.407-.642.937-1.358 1.579-2.074.407-.357.691-.641.814-.641.371-.358.692-.432 1.013-.432v.012h.036c.407 0 .975.209 1.716.704.321.21.729.568 1.184.925l1.048.946.211-.23c.531-.568 1.629-1.852 3.369-3.999.198-.209.371-.431.568-.641a8.927 8.927 0 0 1 1.136-.851c.197-.075.493-.149.851-.149h.283c.371.074.779.21 1.222.494.322.136.938.716 1.913 1.629 1.061 1.061 2.9 3.344 5.553 6.899l-6.306.159-10.256.022Z"/>
    <path fill="#f4c56d" d="m37.802 36.39-.076.016h-6.109l.161-.197c.53-.359.814-.568.852-.643.246-.567.53-1.209.764-2.06.481-.432 1.222-1.432 2.148-2.999l.012-.025h.123c.198.074.532.136.901.284.284.136.692.432 1.185.777.123.074.691.568 1.715 1.494.086.073.247.284.531.715.37.284.568.494.568.494.086.074.123.074.16.148.124.075.247.075.444.075l.029.018a.48.48 0 0 0 .082-.032l.247-.147.371-.284c.181-.232.307-.502.369-.79.161-.209.322-.432.371-.568.197-.074.493-.358.815-.851.159-.358.407-.999.765-1.925l.937-1.642c.038-.074.087-.431.038-.999l.369-.074-.024.012c.777.136 1.345.358 1.752.642.321.21 1.024.852 2.074 1.913 1.505 1.702 3.22 3.837 5.182 6.467l-6.306.159-10.45.022Z"/>
    <path fill="#dcad52" d="M7.936 38.578c1.953-2.671 3.316-4.463 4.11-5.257.764-.791 1.295-1.21 1.543-1.358.357-.222.69-.358 1.011-.432h.247l.012.012c.284 0 .531.062.691.136.371.222.691.432.939.716.172.135.332.284.493.493 1.432 1.839 2.369 2.975 2.776 3.406l.136.159.864-.812c.407-.358.691-.58.975-.791.604-.419 1.049-.567 1.418-.567v.013c.284 0 .568.074.815.209.124.074.371.21.691.568.532.641.987 1.209 1.309 1.777l2.123 2.431h-5.603l-9.811.025-4.739-.125v-.603Z"/>
    <path fill="#f4c56d" d="M7.936 38.523c1.398-1.931 2.661-3.565 3.764-4.857 1.061-1.074 1.591-1.567 1.629-1.567.21-.136.654-.358 1.345-.568h.123l-.024-.025h.037l.124.148c.049.149.123.211.209.358l.456 1.358.247.567c.371 1.432.58 2.135.617 2.209.334.643.654 1.209 1.025 1.642a.663.663 0 0 0 .187.21l.146-.063c.16 0 .283 0 .408-.073a.598.598 0 0 0 .604.073c.074 0 .111-.073.197-.147l.371-.433c.123-.221.246-.431.369-.715a.387.387 0 0 0 .199-.074c.061-.04.119-.086.172-.136a4.68 4.68 0 0 0 .567-.789l.445-.358c.691-.568 1.259-.852 1.789-1h.155l.117-.197.654.925c.123.346.284.703.493 1.061.198.284.407.494.568.568l.21.284.284.777.332 1.432h-3.419l.125.135-9.811.026-4.714-.125v-.646Z"/>
    <path fill="#dcad52" d="M33.606 27.225h-5.062l-3.257-.062c1.332-1.926 2.307-3.148 2.838-3.714.481-.495.814-.779.975-.852.247-.136.457-.284.654-.284h.123v-.024c.158.059.326.084.494.073.197.074.407.284.568.432.074.148.197.21.284.357.9 1.136 1.468 1.852 1.752 2.136l.108.132c.148-.14.319-.303.508-.49.235-.21.445-.346.606-.493.357-.21.641-.359.888-.359l.012.013a.9.9 0 0 1 .445.136c.073 0 .234.148.444.357.321.42.604.778.815 1.136l1.345 1.567h-4.233l-.307-.061Z"/>
    <path fill="#f3c56c" d="m31.282 27.221-.023.077h-2.763l-3.259-.061a82.316 82.316 0 0 1 2.679-3.567c.53-.505.863-.851 1.061-1 .333-.209.58-.357.777-.357h.123l.013-.038c.074 0 .16.075.197 0 .038.433.123.717.247.926l.087.149.53.431.038.075-.038.147-.53 1c-.087.148-.087.284-.087.432.049.222.123.358.21.432.111.136.358.283.727.567l.038.074c.012.027.02.055.023.084a1.87 1.87 0 0 0 .582-.219c.074 0 .247-.136.444-.284.16-.148.568-.506 1.221-1.148a3.73 3.73 0 0 1 .568-.431c.284-.284.568-.358.815-.433h.087l.012.013c0 .136.036.209.036.209.111.211.198.433.321.642a.336.336 0 0 1 .038.149c0 .135 0 .284-.038.493a3.768 3.768 0 0 0-.123.851c0 .432 0 .642.086.791H32.99l-.015.012h-1.629a.144.144 0 0 1-.064-.016Zm.087-.503-.028-.006.002.006h.026Z"/>
    <path fill="#dcad52" d="m24.522 18.028-.074.015H17.45l2.197-2.406c.322-.568.765-1.136 1.333-1.778.37-.357.604-.493.691-.568.32-.147.604-.209.888-.209l.012-.012c.371 0 .852.136 1.506.567.284.21.617.433.975.778l.918.829c.068-.074.132-.144.193-.213.444-.431 1.419-1.567 2.887-3.355.161-.21.322-.359.481-.494.248-.284.568-.493.976-.716.16-.148.407-.21.728-.21v.012h.247c.321.075.691.21 1.061.421.284.135.814.566 1.628 1.345.902.85 2.493 2.838 4.777 5.824l-5.369.148-9.057.022Z"/>
    <path fill="#f3c56c" d="M27.697 18.018a.552.552 0 0 1 .009.099h-3.332l-.012-.049h-2.185c.124-.21.124-.568.074-1.21a9.274 9.274 0 0 0-.21-1.283c-.036-.358-.036-.641-.036-.778 0-.074.036-.147.036-.209.198-.358.371-.642.53-.999 0-.149.038-.359.087-.495v-.024h.124c.407.074.852.284 1.382.642.21.147.53.358.938.715 1.061 1 1.752 1.567 1.999 1.778.321.284.567.431.728.493.235.136.469.24.706.309.018-.013.032-.025.047-.025.026 0 .094-.037.175-.105l.01-.043.087-.148c.604-.432 1.011-.716 1.172-.852.16-.136.246-.358.32-.716a1.454 1.454 0 0 0-.086-.715l-.864-1.567-.086-.21.037-.074.851-.642s.086-.075.124-.148c.197-.358.321-.791.407-1.419.197-.075.321-.075.494-.075h.259c.321.075.728.21 1.259.568.32.21.9.715 1.714 1.567.939 1 2.407 2.839 4.443 5.48l-5.368.147h-4.64l-.005-.012h-1.188Z"/>
  </g>
  <g id="blue">
    <path fill="#d1f8fd" d="M4.851 10.391A4.021 4.021 0 0 1 3 7.01C3.004 4.812 4.812 3.004 7.01 3a4.02 4.02 0 0 1 3.381 1.851h43.218A4.021 4.021 0 0 1 56.99 3c2.198.004 4.006 1.812 4.01 4.01a4.021 4.021 0 0 1-1.851 3.381v43.218A4.021 4.021 0 0 1 61 56.99c-.004 2.198-1.812 4.006-4.01 4.01a4.021 4.021 0 0 1-3.381-1.851H10.391A4.021 4.021 0 0 1 7.01 61c-2.198-.004-4.006-1.812-4.01-4.01a4.02 4.02 0 0 1 1.851-3.381V10.391ZM53.09 7.936H10.91a4.017 4.017 0 0 1-2.974 2.974v42.18a4.017 4.017 0 0 1 2.974 2.974h42.18a4.017 4.017 0 0 1 2.974-2.974V10.91a4.017 4.017 0 0 1-2.974-2.974Z"/>
  </g>
</svg>
