<svg xmlns="http://www.w3.org/2000/svg" xml:space="preserve" fill-rule="evenodd" stroke-linejoin="round" stroke-miterlimit="2" clip-rule="evenodd" viewBox="0 0 64 64">
  <g id="red">
    <path fill="#8d6e63" d="m19.468 56.064.13-11.872 24.835-.08-.149 11.952H19.468Zm25.181-36.75-.135 12.39-24.793.086.136-12.389 24.792-.087Z"/>
  </g>
  <g id="grey">
    <path fill="#b0bec5" d="m7.936 31.838 24.187-.084-.135 12.389-24.052.06V31.838Zm36.348 24.226.13-11.921 11.65-.046v8.993a4.017 4.017 0 0 0-2.974 2.974h-8.806Zm11.78-24.418-11.55.046.147-12.366 11.403-.056v12.376Zm-23.68-23.71-.125 11.415-24.323.061V10.91a4.017 4.017 0 0 0 2.974-2.974h21.474Z"/>
  </g>
  <g id="blue">
    <path fill="#607d8b" d="m7.936 44.239 11.662-.047-.13 11.872H10.91a4.017 4.017 0 0 0-2.974-2.974v-8.851Zm48.128-.156-24.076.06.135-12.389 23.941-.061v12.39Zm0-24.826-23.817.106.125-11.427H53.09a4.017 4.017 0 0 0 2.974 2.974v8.347Zm-48.128.156H19.87l-.136 12.377-11.798.047V19.413Z"/>
    <path fill="#d1f8fd" fill-rule="nonzero" d="M4.851 10.391A4.021 4.021 0 0 1 3 7.01C3.004 4.812 4.812 3.004 7.01 3a4.02 4.02 0 0 1 3.381 1.851h43.218A4.021 4.021 0 0 1 56.99 3c2.198.004 4.006 1.812 4.01 4.01a4.021 4.021 0 0 1-1.851 3.381v43.218A4.021 4.021 0 0 1 61 56.99c-.004 2.198-1.812 4.006-4.01 4.01a4.021 4.021 0 0 1-3.381-1.851H10.391A4.021 4.021 0 0 1 7.01 61c-2.198-.004-4.006-1.812-4.01-4.01a4.02 4.02 0 0 1 1.851-3.381V10.391ZM53.09 7.936H10.91a4.017 4.017 0 0 1-2.974 2.974v42.18a4.017 4.017 0 0 1 2.974 2.974h42.18a4.017 4.017 0 0 1 2.974-2.974V10.91a4.017 4.017 0 0 1-2.974-2.974Z"/>
  </g>
</svg>
