<svg xmlns="http://www.w3.org/2000/svg" xml:space="preserve" fill-rule="evenodd" stroke-linejoin="round" stroke-miterlimit="2" clip-rule="evenodd" viewBox="0 0 64 64">
  <g id="white">
    <path fill="#eceff1" d="m32.03 12.085-.02 9.876-19.925.05v-7.465a3.32 3.32 0 0 0 2.461-2.461H32.03Zm10.143 39.83.019-9.559 9.723-.029v7.127a3.32 3.32 0 0 0-2.461 2.461h-7.281Zm9.742-19.791-9.712.029.02-10.213 9.692-.029v10.213ZM32 32.174l-.02 10.212-10.213.031.02-10.213L32 32.174Z"/>
  </g>
  <g id="red">
    <path fill="#a1887f" d="m12.085 32.223 9.702-.029-.02 10.213-9.682.029V32.223Zm9.702-.029V21.981l20.436-.051.02-9.845h7.211a3.32 3.32 0 0 0 2.461 2.461v7.365l-9.692.029-.02 10.203-20.416.051Zm-.029 19.721.019-9.508 20.415-.051v9.559H21.758Z"/>
  </g>
  <g id="blue">
    <path fill="#78909c" d="m12.085 42.426 9.672-.029.01.01-.019 9.508h-7.202a3.32 3.32 0 0 0-2.461-2.461v-7.028Zm39.83-.089-19.946.049.021-10.212 19.925-.05v10.213Zm-9.672-30.252-.02 9.855-10.213.031.02-9.886h10.213ZM12.085 22.01l9.712-.029-.02 10.213-9.692.029V22.01Z"/>
    <path fill="#d1f8fd" fill-rule="nonzero" d="M9.532 14.117A3.326 3.326 0 0 1 8 11.319 3.325 3.325 0 0 1 11.319 8c1.175 0 2.206.613 2.798 1.532h35.766A3.326 3.326 0 0 1 52.681 8 3.325 3.325 0 0 1 56 11.319a3.326 3.326 0 0 1-1.532 2.798v35.766A3.326 3.326 0 0 1 56 52.681 3.325 3.325 0 0 1 52.681 56a3.326 3.326 0 0 1-2.798-1.532H14.117A3.326 3.326 0 0 1 11.319 56 3.325 3.325 0 0 1 8 52.681c0-1.175.613-2.206 1.532-2.798V14.117Zm39.922-2.032H14.546a3.32 3.32 0 0 1-2.461 2.461v34.908a3.32 3.32 0 0 1 2.461 2.461h34.908a3.32 3.32 0 0 1 2.461-2.461V14.546a3.32 3.32 0 0 1-2.461-2.461Z"/>
  </g>
</svg>
