<svg xmlns="http://www.w3.org/2000/svg" xml:space="preserve" fill-rule="evenodd" stroke-linejoin="round" stroke-miterlimit="2" clip-rule="evenodd" viewBox="0 0 64 64">
  <g id="grey">
    <path fill="#e0e0e0" d="M12.085 19.847v-5.311a3.322 3.322 0 0 0 2.451-2.451h9.812l.197 7.762 13.481.102.204 8.068 13.501.098v.004h.184v8.17H38.23l-.102-8.17H24.443l.102 8.17h-12.46v-8.272h12.46l-.102-8.17H12.085Zm25.944-7.762h11.435a3.322 3.322 0 0 0 2.451 2.451v5.411l-.245-.002v.004H38.128l-.099-7.864ZM51.853 44.46l.001.102h.061v4.902a3.322 3.322 0 0 0-2.451 2.451H38.323l-.093-7.455h13.623Zm-27.215 7.455H14.536a3.322 3.322 0 0 0-2.451-2.451V44.46h12.46l.093 7.455Zm-.093-15.626h13.583c.101 0 .102 8.071.102 8.171H24.647l-.102-8.171Z"/>
    <path fill="#9e9e9e" d="M12.085 19.847h12.358l.102 8.17h-12.46v-8.17Zm0 16.442h12.46l.102 8.171H38.23l.093 7.455H24.638l-.093-7.455h-12.46v-8.171Zm12.46 0-.102-8.17h13.685l.102 8.17h13.685v8.171H38.23c0-.1-.001-8.171-.102-8.171H24.545Zm27.37-8.173-13.685-.099-.204-8.068-13.481-.102-.197-7.762h13.681l.099 7.864h13.787v8.167Z"/>
  </g>
  <g id="blue">
    <path fill="#d1f8fd" d="M9.532 14.128A3.396 3.396 0 0 1 8 11.268C8 9.532 9.532 8 11.268 8c1.226 0 2.247.613 2.86 1.532h35.744A3.396 3.396 0 0 1 52.732 8C54.468 8 56 9.532 56 11.268c0 1.226-.613 2.247-1.532 2.758V49.77c.919.613 1.532 1.634 1.532 2.758 0 1.838-1.532 3.268-3.268 3.268-1.226 0-2.247-.613-2.758-1.532H14.128C13.515 55.387 12.494 56 11.268 56 9.532 56 8 54.468 8 52.732c0-1.226.613-2.247 1.532-2.758V14.128Zm39.932-2.043H14.536a3.322 3.322 0 0 1-2.451 2.451v34.928a3.322 3.322 0 0 1 2.451 2.451h34.928a3.322 3.322 0 0 1 2.451-2.451V14.536a3.322 3.322 0 0 1-2.451-2.451Z"/>
  </g>
</svg>
