<svg xmlns="http://www.w3.org/2000/svg" xml:space="preserve" fill-rule="evenodd" stroke-linejoin="round" stroke-miterlimit="2" clip-rule="evenodd" viewBox="0 0 64 64">
  <g id="grey">
    <path fill="#e0e0e0" d="M7.936 17.315v-6.417a4.02 4.02 0 0 0 2.962-2.962h11.856l.238 9.379 16.289.123.247 9.749 16.314.119v.005h.222v9.872H39.528l-.123-9.872H22.869l.123 9.872H7.936v-9.996h15.056l-.123-9.872H7.936Zm31.349-9.379h13.817a4.02 4.02 0 0 0 2.962 2.962v6.538l-.296-.002v.004H39.405l-.12-9.502Zm16.704 39.12.001.123h.074v5.923a4.02 4.02 0 0 0-2.962 2.962H39.64l-.112-9.008h16.461Zm-32.885 9.008H10.898a4.02 4.02 0 0 0-2.962-2.962v-6.046h15.056l.112 9.008Zm-.112-18.881h16.413c.122 0 .123 9.752.123 9.873H23.115l-.123-9.873Z"/>
    <path fill="#9e9e9e" d="M7.936 17.315h14.933l.123 9.872H7.936v-9.872Zm0 19.868h15.056l.123 9.873h16.413l.112 9.008H23.104l-.112-9.008H7.936v-9.873Zm15.056 0-.123-9.872h16.536l.123 9.872h16.536v9.873H39.528c0-.121-.001-9.873-.123-9.873H22.992Zm33.072-9.876-16.536-.12-.247-9.749-16.289-.123-.238-9.379h16.531l.12 9.502h16.659v9.869Z"/>
  </g>
  <g id="blue">
    <path fill="#d1f8fd" d="M4.851 10.405A4.106 4.106 0 0 1 3 6.949C3 4.851 4.851 3 6.949 3c1.481 0 2.715.741 3.456 1.851h43.19A4.106 4.106 0 0 1 57.051 3C59.149 3 61 4.851 61 6.949c0 1.481-.741 2.715-1.851 3.332v43.191c1.11.741 1.851 1.975 1.851 3.333 0 2.221-1.851 3.949-3.949 3.949-1.481 0-2.715-.741-3.332-1.852H10.405C9.664 60.259 8.43 61 6.949 61 4.851 61 3 59.149 3 57.051c0-1.481.741-2.715 1.851-3.332V10.405Zm48.251-2.469H10.898a4.02 4.02 0 0 1-2.962 2.962v42.204a4.02 4.02 0 0 1 2.962 2.962h42.204a4.02 4.02 0 0 1 2.962-2.962V10.898a4.02 4.02 0 0 1-2.962-2.962Z"/>
  </g>
</svg>
