<svg xmlns="http://www.w3.org/2000/svg" xml:space="preserve" fill-rule="evenodd" stroke-linejoin="round" stroke-miterlimit="2" clip-rule="evenodd" viewBox="0 0 64 64">
  <g id="white">
    <path fill="#eceff1" d="m32.036 7.936-.024 11.934-24.076.06v-9.02a4.017 4.017 0 0 0 2.974-2.974h21.126Zm12.256 48.128.023-11.55 11.749-.036v8.612a4.017 4.017 0 0 0-2.974 2.974h-8.798ZM56.064 32.15l-11.735.035.024-12.341 11.711-.035V32.15ZM32 32.21l-.024 12.34-12.341.037.024-12.341L32 32.21Z"/>
  </g>
  <g id="red">
    <path fill="#a1887f" d="m7.936 32.269 11.723-.035-.024 12.341-11.699.035V32.269Zm11.723-.035v-12.34l24.694-.062.024-11.896h8.713a4.017 4.017 0 0 0 2.974 2.974v8.899l-11.711.035-.024 12.329-24.67.061Zm-.035 23.83.023-11.489 24.668-.061v11.55H19.624Z"/>
  </g>
  <g id="blue">
    <path fill="#78909c" d="m7.936 44.598 11.687-.035.012.012-.023 11.489H10.91a4.017 4.017 0 0 0-2.974-2.974v-8.492Zm48.128-.107-24.101.059.025-12.34 24.076-.06v12.341ZM44.377 7.936l-.024 11.908-12.341.038.024-11.946h12.341ZM7.936 19.929l11.735-.035-.024 12.34-11.711.035v-12.34Z"/>
    <path fill="#d1f8fd" fill-rule="nonzero" d="M4.851 10.391A4.021 4.021 0 0 1 3 7.01C3.004 4.812 4.812 3.004 7.01 3a4.02 4.02 0 0 1 3.381 1.851h43.218A4.021 4.021 0 0 1 56.99 3c2.198.004 4.006 1.812 4.01 4.01a4.021 4.021 0 0 1-1.851 3.381v43.218A4.021 4.021 0 0 1 61 56.99c-.004 2.198-1.812 4.006-4.01 4.01a4.021 4.021 0 0 1-3.381-1.851H10.391A4.021 4.021 0 0 1 7.01 61c-2.198-.004-4.006-1.812-4.01-4.01a4.02 4.02 0 0 1 1.851-3.381V10.391ZM53.09 7.936H10.91a4.017 4.017 0 0 1-2.974 2.974v42.18a4.017 4.017 0 0 1 2.974 2.974h42.18a4.017 4.017 0 0 1 2.974-2.974V10.91a4.017 4.017 0 0 1-2.974-2.974Z"/>
  </g>
</svg>
