<svg xmlns="http://www.w3.org/2000/svg" xml:space="preserve" fill-rule="evenodd" stroke-linejoin="round" stroke-miterlimit="2" clip-rule="evenodd" viewBox="0 0 64 64">
  <g id="red">
    <path fill="#8d6e63" d="m21.629 51.915.107-9.825 20.553-.066-.123 9.891H21.629Zm20.839-30.414-.112 10.254-20.518.071.113-10.253 20.517-.072Z"/>
  </g>
  <g id="grey">
    <path fill="#b0bec5" d="m12.085 31.866 20.017-.07-.112 10.253-19.905.05V31.866Zm30.081 20.049.108-9.866 9.641-.038v7.443a3.32 3.32 0 0 0-2.461 2.461h-7.288Zm9.749-20.208-9.559.038.122-10.234 9.437-.046v10.242ZM32.318 12.085l-.104 9.447-20.129.05v-7.036a3.32 3.32 0 0 0 2.461-2.461h17.772Z"/>
  </g>
  <g id="blue">
    <path fill="#607d8b" d="m12.085 42.129 9.651-.039-.107 9.825h-7.083a3.32 3.32 0 0 0-2.461-2.461v-7.325ZM51.915 42l-19.925.049.112-10.253 19.813-.05V42Zm0-20.546-19.711.088.104-9.457h17.146a3.32 3.32 0 0 0 2.461 2.461v6.908Zm-39.83.129h9.876l-.112 10.243-9.764.039V21.583Z"/>
    <path fill="#d1f8fd" fill-rule="nonzero" d="M9.532 14.117A3.326 3.326 0 0 1 8 11.319 3.325 3.325 0 0 1 11.319 8c1.175 0 2.206.613 2.798 1.532h35.766A3.326 3.326 0 0 1 52.681 8 3.325 3.325 0 0 1 56 11.319a3.326 3.326 0 0 1-1.532 2.798v35.766A3.326 3.326 0 0 1 56 52.681 3.325 3.325 0 0 1 52.681 56a3.326 3.326 0 0 1-2.798-1.532H14.117A3.326 3.326 0 0 1 11.319 56 3.325 3.325 0 0 1 8 52.681c0-1.175.613-2.206 1.532-2.798V14.117Zm39.922-2.032H14.546a3.32 3.32 0 0 1-2.461 2.461v34.908a3.32 3.32 0 0 1 2.461 2.461h34.908a3.32 3.32 0 0 1 2.461-2.461V14.546a3.32 3.32 0 0 1-2.461-2.461Z"/>
  </g>
</svg>
