<svg xmlns="http://www.w3.org/2000/svg" xml:space="preserve" fill-rule="evenodd" stroke-linejoin="round" stroke-miterlimit="2" clip-rule="evenodd" viewBox="0 0 64 64">
  <g id="blue">
    <g>
      <path fill="#01579b" fill-rule="nonzero" d="M10.067 25.429h43.897v13.173H10.067V25.429ZM56 40.576h-4.35c-1.604 3.702-4.226 6.848-7.557 9.131A21.368 21.368 0 0 1 32 53.44c-4.35 0-8.514-1.296-12.093-3.733-3.331-2.283-5.953-5.429-7.557-9.131H8V23.424h4.35c1.604-3.702 4.226-6.848 7.557-9.131A21.368 21.368 0 0 1 32 10.56c4.35 0 8.514 1.296 12.093 3.733 3.331 2.283 5.953 5.429 7.557 9.131H56v17.152ZM13.954 23.424h.678a18.648 18.648 0 0 1 3.671-5.09c3.671-3.671 8.514-5.707 13.697-5.707s10.026 2.005 13.697 5.676a19.146 19.146 0 0 1 3.671 5.09h.678C46.746 16.452 39.774 12.041 32 12.041c-7.774 0-14.746 4.411-18.046 11.383Zm34.642 0a19.012 19.012 0 0 0-3.393-4.627c-3.517-3.548-8.206-5.491-13.203-5.491s-9.686 1.943-13.203 5.46a19.231 19.231 0 0 0-3.393 4.627h33.192v.031Zm1.45 17.152h-.678a18.648 18.648 0 0 1-3.671 5.09c-3.671 3.671-8.514 5.676-13.697 5.676s-10.026-2.005-13.697-5.676a19.13 19.13 0 0 1-3.671-5.09h-.678A19.924 19.924 0 0 0 32 51.959c7.774 0 14.746-4.411 18.046-11.383Zm-34.642 0a19.012 19.012 0 0 0 3.393 4.627c3.517 3.517 8.206 5.46 13.203 5.46s9.686-1.943 13.203-5.46a19.859 19.859 0 0 0 3.393-4.627H15.404ZM54.55 24.874H9.45v14.252h45.069V24.874h.031Z"/>
    </g>
  </g>
  <g id="white">
    <path fill="#fff" d="M23.298 29.988v-.309h.216c.062 0 .093 0 .123-.031.031-.031.062-.061.062-.092.031-.031.031-.093.031-.155v-2.375c0-.062 0-.123-.031-.154 0-.031-.031-.062-.062-.093-.03-.03-.092-.03-.123-.03h-.185v-.278h1.666c.37 0 .678.062.956.185.278.123.463.308.617.555.154.247.216.556.216.926s-.062.678-.216.956a1.485 1.485 0 0 1-.586.648c-.247.154-.586.247-.987.247h-1.697Zm1.542-.34c.216 0 .402-.061.525-.185.154-.123.247-.308.308-.524.062-.216.124-.494.124-.802 0-.309-.031-.556-.124-.741a.92.92 0 0 0-.308-.432.962.962 0 0 0-.525-.154h-.215v2.838h.215Zm2.281.34v-.309h.216c.062 0 .092 0 .123-.031s.062-.061.062-.092c.031-.031.031-.093.031-.155v-2.375c0-.092 0-.154-.031-.185a.067.067 0 0 0-.062-.062c-.031 0-.061-.03-.123-.03h-.216v-.278h2.807l.031.925h-.37l-.031-.246a.44.44 0 0 0-.062-.216.427.427 0 0 0-.092-.124c-.062-.031-.124-.031-.185-.031h-.741v1.203h1.173v.309h-1.173v1.357h.895c.062 0 .123 0 .185-.031a.231.231 0 0 0 .123-.123c.031-.062.062-.123.062-.185l.031-.247h.37l-.031.926h-2.992Zm5.118.03c-.37 0-.709-.061-.956-.215a1.88 1.88 0 0 1-.586-.617 2.311 2.311 0 0 1-.185-.957c0-.339.062-.648.185-.925.123-.278.339-.494.586-.617.247-.154.586-.216.956-.216.247 0 .463.031.648.062.185.061.309.123.37.216a.375.375 0 0 1 .124.277.425.425 0 0 1-.185.339c-.124.093-.278.124-.494.124 0-.093-.031-.216-.062-.309a1.2 1.2 0 0 0-.154-.277.47.47 0 0 0-.308-.124.63.63 0 0 0-.463.185 1.477 1.477 0 0 0-.247.494c-.062.216-.062.463-.062.771a3 3 0 0 0 .093.802c.062.216.154.34.309.463.154.093.339.154.555.154.185 0 .308-.031.432-.061.123-.062.216-.124.308-.186.093-.061.154-.154.216-.215.031.03.031.061.062.092 0 .031.031.093.031.123a.943.943 0 0 1-.062.247.577.577 0 0 1-.185.216 2.01 2.01 0 0 1-.37.185c-.124-.061-.309-.031-.556-.031Zm1.416-.123v-.216h.031c.062 0 .123 0 .154-.031a.408.408 0 0 0 .123-.092c.031-.062.093-.124.124-.216l1.049-2.869h.802l1.018 2.9c.031.061.061.154.092.185.031.061.093.092.124.092.061.031.092.031.154.031h.062v.278H35.66v-.278h.185c.062 0 .124 0 .154-.031.031-.031.062-.061.062-.154v-.093c0-.03 0-.061-.031-.092 0-.031-.031-.031-.031-.062l-.154-.462h-1.141l-.124.37c0 .031 0 .061-.03.092 0 .031-.031.062-.031.124v.092c0 .062 0 .093.031.124.03.03.092.03.154.03h.216v.278h-1.265Zm1.172-1.388h.926l-.278-.926c-.031-.061-.031-.123-.062-.185-.031-.061-.031-.123-.061-.216-.031-.061-.031-.123-.062-.216-.031.062-.031.124-.062.216-.031.062-.031.124-.061.185-.031.062-.031.124-.062.186l-.278.956Zm2.672 1.45v-.278h.216c.031 0 .062 0 .124-.031l.092-.092c.031-.031.031-.093.031-.155v-2.375c0-.062 0-.123-.031-.154l-.092-.093c-.062 0-.093-.03-.155-.03h-.185v-.278h1.789v.278h-.215c-.062 0-.093 0-.155.03-.031.031-.061.031-.061.093-.031.031-.031.092-.031.154v2.622h.894c.062 0 .124 0 .185-.031a.237.237 0 0 0 .124-.123c.031-.062.062-.154.092-.247l.093-.37h.278l-.031 1.08h-2.962Zm-24.824 6.784v-.277h.185c.062 0 .093 0 .154-.031l.093-.093c.031-.061.031-.123.031-.185v-2.344c0-.093 0-.154-.031-.185s-.062-.062-.093-.062c-.03-.031-.092-.031-.123-.031h-.216v-.277h1.604c.494 0 .864.092 1.08.277.247.185.339.432.339.771a.992.992 0 0 1-.092.432 1.472 1.472 0 0 1-.278.371 1.628 1.628 0 0 1-.463.246 2.317 2.317 0 0 1-.709.093h-.154v.74c0 .093 0 .154.03.185.031.031.062.062.093.062s.093.031.123.031h.278v.277h-1.851Zm1.45-1.604c.123 0 .216 0 .308-.03.093-.031.155-.062.186-.155.061-.061.092-.154.123-.246.031-.093.031-.216.031-.371 0-.246-.062-.432-.154-.555-.093-.123-.247-.185-.432-.185h-.185v1.542h.123Zm1.739 1.604v-.277h.216c.031 0 .062 0 .124-.031l.092-.093c.031-.03.031-.092.031-.154V33.78c0-.062 0-.123-.031-.154l-.092-.093c-.031-.031-.093-.031-.124-.031h-.216v-.277h1.789v.277h-.216c-.061 0-.092 0-.154.031-.031.031-.061.031-.061.093-.031.031-.031.092-.031.154v2.622h.894c.062 0 .124 0 .185-.031a.24.24 0 0 0 .124-.123c.031-.062.061-.154.092-.247l.093-.37h.277l-.03 1.11h-2.962Zm3.152-.061v-.216h.03c.062 0 .124 0 .155-.031.061-.031.092-.062.123-.093.031-.061.093-.123.123-.215l1.049-2.869h.802l1.018 2.899c.031.062.062.155.093.185.031.062.092.093.123.093a.28.28 0 0 0 .155.031h.061v.277h-1.727v-.277h.185c.062 0 .123 0 .154-.031s.062-.062.062-.154v-.093c0-.031 0-.061-.031-.092 0-.031-.031-.031-.031-.062l-.154-.463h-1.142l-.123.37c0 .031 0 .062-.031.093 0 .031-.031.062-.031.123v.093c0 .062 0 .092.031.123s.093.031.154.031h.216v.278h-1.264Zm1.172-1.388h.925l-.277-.926c-.031-.062-.031-.123-.062-.185s-.031-.123-.062-.216c-.031-.062-.031-.123-.061-.216-.031.062-.031.124-.062.216-.031.062-.031.124-.062.185-.031.062-.031.124-.062.185l-.277.957Zm4.554 1.511c-.37 0-.71-.062-.957-.216a1.88 1.88 0 0 1-.586-.617 2.303 2.303 0 0 1-.185-.956c0-.339.062-.648.185-.925.124-.278.34-.494.586-.617.247-.155.587-.216.957-.216.246 0 .462.03.648.061.185.062.308.124.37.216a.38.38 0 0 1 .123.278.426.426 0 0 1-.185.339c-.123.093-.278.124-.494.124 0-.093-.03-.216-.061-.309a1.245 1.245 0 0 0-.155-.277.468.468 0 0 0-.308-.124.631.631 0 0 0-.463.185 1.496 1.496 0 0 0-.247.494c-.061.216-.061.463-.061.771s.031.586.092.802a.832.832 0 0 0 .309.463c.154.092.339.154.555.154a1.6 1.6 0 0 0 .432-.062c.123-.061.216-.123.308-.185.093-.061.155-.154.216-.216.031.031.031.062.062.093 0 .031.031.092.031.123 0 .062-.031.154-.062.247a.575.575 0 0 1-.185.216 2.042 2.042 0 0 1-.37.185c-.123-.062-.309-.031-.555-.031Zm1.508-.031v-.308h.216c.061 0 .092 0 .123-.031s.062-.062.062-.093c.031-.03.031-.092.031-.154v-2.375c0-.093 0-.154-.031-.185s-.062-.062-.093-.062-.061-.031-.123-.031h-.216v-.277h2.807l.031.925h-.37l-.031-.247c0-.092-.031-.154-.062-.216a.435.435 0 0 0-.092-.123c-.062-.031-.124-.031-.185-.031h-.741v1.203h1.173v.309h-1.173v1.357h.895c.062 0 .123 0 .185-.031a.238.238 0 0 0 .123-.123c.031-.062.062-.124.062-.185l.031-.247h.37l-.031.925H26.25Zm3.236 0v-.308h.216c.062 0 .093 0 .124-.031s.062-.062.062-.093c.03-.03.03-.092.03-.154V33.78c0-.062 0-.123-.03-.154l-.093-.093c-.031-.031-.093-.031-.123-.031h-.186v-.277h1.728v.277h-.154c-.062 0-.093 0-.124.031-.03.031-.061.031-.061.093-.031.031-.031.092-.031.154v.956h1.141v-.956c0-.062 0-.123-.031-.154s-.031-.062-.092-.093c-.031-.031-.062-.031-.124-.031h-.123v-.277h1.728v.277h-.216c-.031 0-.093 0-.124.031l-.092.093c-.031.031-.031.092-.031.154v2.406c0 .062 0 .093.031.154l.092.093c.031.031.062.031.124.031h.216v.277h-1.728v-.277h.123c.062 0 .093 0 .124-.031l.092-.093c.031-.03.031-.092.031-.154v-1.079h-1.141v1.11c0 .062 0 .093.031.154.031.031.061.062.061.093.031.031.062.031.124.031h.154v.277h-1.728Zm5.904.031c-.37 0-.709-.062-.956-.216a1.516 1.516 0 0 1-.555-.617 2.287 2.287 0 0 1-.185-.956c0-.37.061-.679.185-.925.123-.278.308-.463.586-.617.247-.155.555-.216.956-.216.37 0 .679.061.926.216.246.154.432.339.586.617.123.277.185.586.185.956s-.062.678-.185.956c-.124.278-.34.494-.586.617a2.308 2.308 0 0 1-.957.185Zm0-.339a.63.63 0 0 0 .463-.185c.124-.124.185-.278.247-.494.062-.216.062-.493.062-.771 0-.308-.031-.555-.062-.771-.062-.216-.123-.37-.247-.494a.561.561 0 0 0-.432-.185c-.277 0-.493.124-.586.37-.123.247-.185.617-.185 1.08 0 .308.031.555.062.771.061.216.123.37.247.494.092.123.246.185.431.185Zm2.084.277v-.277h.216c.031 0 .061 0 .123-.031l.093-.093c.031-.03.031-.092.031-.154V33.78c0-.062 0-.123-.031-.154l-.093-.093c-.031-.031-.092-.031-.123-.031h-.185v-.277h1.789v.277h-.216c-.062 0-.093 0-.154.031-.031.031-.062.031-.062.093-.031.031-.031.092-.031.154v2.622h.895c.061 0 .123 0 .185-.031a.242.242 0 0 0 .123-.123c.031-.062.062-.154.093-.247l.092-.37h.278l-.062 1.11h-2.961Zm3.244.031v-.308h.216c.061 0 .092 0 .123-.031s.062-.062.062-.093c.031-.03.031-.092.031-.154v-2.375c0-.062 0-.123-.031-.154l-.093-.093c-.031-.031-.092-.031-.123-.031h-.185v-.277h1.666c.37 0 .678.061.956.185.278.123.463.308.617.555.154.247.216.555.216.925 0 .371-.062.679-.216.957a1.503 1.503 0 0 1-.586.648c-.247.154-.586.246-.987.246h-1.666Zm1.542-.339c.216 0 .401-.062.525-.185.154-.123.246-.309.308-.525.062-.215.123-.493.123-.802 0-.308-.03-.555-.123-.74a.927.927 0 0 0-.308-.432.964.964 0 0 0-.525-.154h-.216v2.838h.216Zm2.281.339v-.308h.216c.061 0 .092 0 .123-.031s.062-.062.062-.093c.031-.03.031-.092.031-.154v-2.375c0-.093 0-.154-.031-.185s-.062-.062-.093-.062-.062-.031-.123-.031h-.216v-.277h2.807l.031.925h-.37v-.247a.447.447 0 0 0-.062-.216c-.031-.061-.062-.092-.093-.123-.061-.031-.123-.031-.185-.031h-.74v1.203h1.172v.309h-1.172v1.357h.895c.061 0 .123 0 .185-.031a.246.246 0 0 0 .123-.123c.031-.062.062-.124.062-.185l.031-.247h.37l-.031.925h-2.992Zm3.267-.031v-.277h.154c.062 0 .093 0 .155-.031.03 0 .092-.031.123-.062s.031-.092.031-.185v-2.344c0-.093-.031-.154-.062-.185s-.062-.062-.123-.062c-.031-.031-.093-.031-.124-.031h-.154v-.278h1.697c.339 0 .617.031.833.124.216.062.37.185.462.308a.854.854 0 0 1 .155.494c0 .185-.031.339-.093.463a.723.723 0 0 1-.247.277 1.134 1.134 0 0 1-.339.155l.586.956a1.6 1.6 0 0 0 .247.339.28.28 0 0 0 .216.093h-.062v.277h-.185c-.185 0-.37 0-.493-.031-.155-.03-.278-.061-.371-.123a.724.724 0 0 1-.246-.278l-.556-1.11h-.277v.956c0 .093 0 .154.03.185.031.031.062.062.093.062s.093.031.123.031h.124v.277h-1.697Zm1.573-1.789c.216 0 .371-.061.463-.185a.877.877 0 0 0 .154-.524c0-.154-.03-.278-.061-.37a.437.437 0 0 0-.185-.216c-.093-.062-.185-.062-.34-.062h-.247v1.357h.216Z"/>
  </g>
</svg>
