<svg xmlns="http://www.w3.org/2000/svg" xml:space="preserve" fill-rule="evenodd" stroke-linejoin="round" stroke-miterlimit="2" clip-rule="evenodd" viewBox="0 0 64 64">
  <g id="blue">
    <path fill="#01579b" fill-rule="nonzero" d="M5.498 24.06H58.54v15.917H5.498V24.06ZM61 42.363h-5.256c-1.938 4.473-5.107 8.274-9.132 11.033A25.827 25.827 0 0 1 32 57.907a25.816 25.816 0 0 1-14.612-4.511c-4.025-2.759-7.194-6.56-9.132-11.033H3V21.637h5.256c1.938-4.473 5.107-8.274 9.132-11.033A25.827 25.827 0 0 1 32 6.093a25.816 25.816 0 0 1 14.612 4.511c4.025 2.759 7.194 6.56 9.132 11.033H61v20.726ZM10.194 21.637h.82a22.529 22.529 0 0 1 4.435-6.15C19.885 11.051 25.737 8.591 32 8.591c6.263 0 12.115 2.423 16.551 6.858a23.163 23.163 0 0 1 4.435 6.151h.82C49.818 13.213 41.394 7.883 32 7.883s-17.818 5.33-21.806 13.754Zm41.86 0a23.007 23.007 0 0 0-4.1-5.591C43.704 11.759 38.038 9.411 32 9.411s-11.704 2.348-15.954 6.598a23.27 23.27 0 0 0-4.1 5.591h40.108v.037Zm1.752 20.726h-.82a22.529 22.529 0 0 1-4.435 6.15C44.115 52.949 38.263 55.372 32 55.372c-6.263 0-12.115-2.423-16.551-6.859a23.12 23.12 0 0 1-4.435-6.15h-.82A24.11 24.11 0 0 0 32 56.117c9.394 0 17.818-5.33 21.806-13.754Zm-41.859 0a22.977 22.977 0 0 0 4.099 5.591c4.25 4.249 9.916 6.597 15.954 6.597s11.704-2.348 15.954-6.597a24.025 24.025 0 0 0 4.1-5.591H11.946Zm47.301-18.974H4.752v17.222H59.21V23.389h.038Z"/>
  </g>
  <g id="white">
    <path fill="#fff" d="M21.939 29.615v-.401h.262c.076 0 .113 0 .15-.04.038-.041.075-.08.075-.12.038-.04.038-.12.038-.201v-3.082c0-.081 0-.16-.038-.2 0-.04-.037-.081-.075-.121-.037-.039-.112-.039-.15-.039h-.224v-.361h2.024c.45 0 .824.081 1.162.24.338.16.563.4.75.721.187.32.262.721.262 1.202 0 .48-.075.88-.262 1.24a1.88 1.88 0 0 1-.712.841c-.3.2-.712.321-1.2.321h-2.062Zm1.874-.441c.262 0 .488-.08.638-.24.187-.16.3-.4.374-.681.076-.28.151-.641.151-1.04 0-.401-.038-.722-.151-.962-.07-.222-.2-.417-.374-.561-.19-.131-.412-.2-.638-.2h-.261v3.684h.261Zm2.772.441v-.401h.263c.075 0 .111 0 .149-.04.038-.041.075-.08.075-.12.038-.04.038-.12.038-.201v-3.082c0-.12 0-.2-.038-.24-.003-.043-.035-.078-.075-.081-.038 0-.074-.039-.149-.039h-.263v-.361h3.411l.038 1.201h-.45l-.037-.319a.597.597 0 0 0-.076-.281.545.545 0 0 0-.111-.161c-.076-.04-.151-.04-.225-.04h-.901v1.561h1.426v.401h-1.426v1.762h1.088c.075 0 .149 0 .225-.041a.287.287 0 0 0 .149-.159c.038-.081.076-.16.076-.24l.037-.321h.45l-.038 1.202h-3.636Zm6.22.039c-.45 0-.862-.079-1.162-.279a2.38 2.38 0 0 1-.712-.801 3.167 3.167 0 0 1-.225-1.242c0-.44.075-.841.225-1.201.149-.36.412-.641.712-.8.3-.2.712-.281 1.162-.281.3 0 .563.041.787.081.225.079.376.159.45.28.095.092.15.223.151.36a.567.567 0 0 1-.225.44c-.151.12-.338.161-.6.161 0-.121-.038-.281-.076-.401a1.577 1.577 0 0 0-.187-.36.552.552 0 0 0-.374-.161.742.742 0 0 0-.563.24 1.962 1.962 0 0 0-.3.641c-.075.281-.075.601-.075 1.001-.007.351.031.701.113 1.041.075.28.187.441.375.601.187.12.412.2.675.2.224 0 .374-.041.525-.08.149-.08.262-.16.374-.241.113-.079.187-.2.262-.279.038.039.038.079.076.119 0 .041.037.121.037.16a1.26 1.26 0 0 1-.075.321.736.736 0 0 1-.225.28 2.395 2.395 0 0 1-.449.24c-.151-.079-.376-.04-.676-.04Zm1.721-.16v-.28h.037c.076 0 .15 0 .188-.04a.505.505 0 0 0 .149-.12c.038-.08.113-.161.151-.28l1.275-3.724h.974l1.237 3.764c.038.079.075.2.112.24.038.079.113.12.151.12.074.04.112.04.187.04h.075v.361h-2.1v-.361h.225c.076 0 .151 0 .187-.04.038-.041.076-.08.076-.2v-.121c0-.039 0-.079-.038-.119 0-.041-.038-.041-.038-.081l-.187-.599h-1.386l-.151.48c0 .04 0 .079-.037.119 0 .04-.037.081-.037.161v.12c0 .08 0 .12.037.16.037.039.112.039.188.039h.262v.361h-1.537Zm1.424-1.801h1.125l-.337-1.202c-.038-.079-.038-.16-.076-.24-.037-.079-.037-.16-.074-.28-.038-.08-.038-.16-.075-.281-.038.081-.038.161-.076.281-.037.08-.037.16-.074.24-.037.08-.037.161-.075.241l-.338 1.241Zm3.247 1.882v-.361h.263c.038 0 .075 0 .151-.04l.111-.12c.038-.04.038-.12.038-.201v-3.082c0-.081 0-.16-.038-.2l-.111-.121c-.076 0-.113-.039-.189-.039h-.225v-.361h2.175v.361h-.262c-.075 0-.113 0-.188.039-.038.04-.074.04-.074.121-.038.04-.038.119-.038.2v3.403h1.087c.075 0 .15 0 .224-.041a.29.29 0 0 0 .151-.159c.038-.081.075-.2.112-.321l.113-.48h.338l-.038 1.402h-3.6ZM9.029 38.379v-.359h.225c.075 0 .113 0 .187-.04l.113-.121c.038-.079.038-.16.038-.24v-3.042c0-.121 0-.2-.038-.241-.038-.04-.075-.08-.113-.08-.037-.04-.112-.04-.15-.04h-.262v-.36h1.949c.601 0 1.05.12 1.313.36.3.24.412.56.412 1 .002.194-.036.386-.112.561a1.902 1.902 0 0 1-.338.482 1.93 1.93 0 0 1-.563.319c-.279.087-.57.128-.861.121h-.187v.96c0 .121 0 .2.036.24.038.04.075.081.113.081.038 0 .113.04.15.04h.337v.359H9.029Zm1.762-2.081c.15 0 .263 0 .374-.039.113-.041.189-.081.226-.202.075-.079.112-.199.15-.319.038-.121.038-.28.038-.481 0-.32-.076-.561-.188-.721-.113-.159-.3-.24-.525-.24h-.224v2.002h.149Zm2.113 2.081v-.359h.263c.038 0 .075 0 .151-.04l.111-.121c.038-.039.038-.12.038-.2v-3.123c0-.08 0-.159-.038-.2l-.111-.12c-.038-.04-.113-.04-.151-.04h-.263v-.36h2.175v.36h-.263c-.074 0-.112 0-.187.04-.038.04-.074.04-.074.12-.038.041-.038.12-.038.2v3.403h1.087c.075 0 .15 0 .224-.04a.3.3 0 0 0 .151-.16c.038-.08.074-.199.112-.32l.113-.48h.337l-.037 1.44h-3.6Zm3.831-.079v-.28h.037c.075 0 .15 0 .188-.04a.542.542 0 0 0 .149-.121c.038-.079.113-.16.15-.279l1.275-3.724h.974l1.238 3.763c.037.08.075.201.113.24.037.08.111.121.149.121a.326.326 0 0 0 .188.04h.075v.359h-2.099v-.359h.225c.075 0 .149 0 .187-.04.037-.041.075-.081.075-.2v-.121c0-.04 0-.079-.038-.119 0-.041-.037-.041-.037-.081l-.187-.601h-1.388l-.15.48c0 .041 0 .081-.037.121 0 .04-.038.081-.038.16v.12c0 .081 0 .12.038.16.037.04.113.04.187.04h.262v.361h-1.536Zm1.424-1.801h1.125l-.337-1.202c-.038-.081-.038-.16-.075-.24-.038-.081-.038-.16-.076-.281-.037-.08-.037-.159-.074-.28-.038.081-.038.161-.075.28-.038.081-.038.161-.076.241-.037.08-.037.16-.075.24l-.337 1.242Zm5.535 1.961c-.45 0-.863-.081-1.163-.281a2.376 2.376 0 0 1-.712-.8 3.162 3.162 0 0 1-.225-1.241c0-.44.075-.841.225-1.201.15-.36.413-.641.712-.8.3-.202.713-.281 1.163-.281.299 0 .561.039.787.079.225.081.375.161.45.281a.504.504 0 0 1 .149.361.563.563 0 0 1-.224.44c-.15.12-.338.16-.601.16 0-.12-.036-.28-.074-.401a1.66 1.66 0 0 0-.188-.359.55.55 0 0 0-.375-.161.74.74 0 0 0-.562.24c-.137.192-.238.41-.3.641-.075.281-.075.601-.075 1.001 0 .4.038.76.112 1.041.057.24.19.452.376.601.187.119.412.2.674.2.178-.002.355-.029.525-.081.15-.079.263-.16.375-.24.113-.079.188-.2.262-.28.038.04.038.08.075.12 0 .041.038.12.038.16 0 .08-.038.2-.075.321a.736.736 0 0 1-.225.28 2.463 2.463 0 0 1-.45.24c-.149-.08-.375-.04-.674-.04Zm1.832-.04v-.4h.263c.074 0 .112 0 .149-.04.038-.041.076-.081.076-.121.037-.039.037-.12.037-.2v-3.082c0-.121 0-.2-.037-.241-.038-.04-.076-.08-.113-.08-.038 0-.074-.04-.15-.04h-.262v-.36H28.9l.038 1.201h-.45l-.038-.321c0-.119-.037-.2-.075-.28a.563.563 0 0 0-.112-.16c-.075-.04-.15-.04-.224-.04h-.901v1.561h1.426v.401h-1.426v1.762h1.088c.075 0 .149 0 .224-.041a.3.3 0 0 0 .15-.159.597.597 0 0 0 .075-.24l.038-.321h.45l-.038 1.201h-3.599Zm3.933 0v-.4h.263c.075 0 .113 0 .15-.04.038-.041.076-.081.076-.121.036-.039.036-.12.036-.2v-3.123c0-.08 0-.159-.036-.2l-.113-.12c-.038-.04-.113-.04-.15-.04h-.226v-.36h2.1v.36h-.187c-.075 0-.113 0-.151.04-.036.04-.074.04-.074.12-.037.041-.037.12-.037.2v1.241h1.386v-1.241c0-.08 0-.159-.037-.2-.038-.04-.038-.08-.112-.12-.038-.04-.076-.04-.151-.04h-.149v-.36h2.1v.36h-.263c-.038 0-.113 0-.151.04l-.111.12c-.038.041-.038.12-.038.2v3.123c0 .08 0 .121.038.2l.111.121c.038.04.076.04.151.04h.263v.359h-2.1v-.359h.149c.075 0 .113 0 .151-.04l.112-.121c.037-.039.037-.12.037-.2v-1.4H31.11v1.44c0 .081 0 .121.037.2.038.04.074.081.074.121.038.04.076.04.151.04h.187v.36h-2.1Zm7.175.04c-.449 0-.861-.081-1.162-.281a1.93 1.93 0 0 1-.674-.8 3.162 3.162 0 0 1-.225-1.241c0-.48.074-.881.225-1.201.149-.36.374-.601.712-.8.3-.202.675-.281 1.162-.281.45 0 .825.079 1.125.281.299.199.525.44.712.8.15.36.225.761.225 1.241 0 .48-.075.88-.225 1.241-.15.361-.413.641-.712.801a2.659 2.659 0 0 1-1.163.24Zm0-.44a.742.742 0 0 0 .563-.24c.151-.161.225-.361.3-.641.075-.281.075-.64.075-1.001 0-.4-.037-.72-.075-1.001-.075-.28-.149-.48-.3-.641a.663.663 0 0 0-.525-.24c-.337 0-.599.161-.712.48-.15.321-.225.801-.225 1.402 0 .4.038.72.075 1.001.074.28.15.48.3.641.112.159.299.24.524.24Zm2.533.359v-.359h.262c.038 0 .075 0 .15-.04l.113-.121c.038-.039.038-.12.038-.2v-3.123c0-.08 0-.159-.038-.2l-.113-.12c-.038-.04-.112-.04-.15-.04h-.224v-.36h2.174v.36h-.263c-.075 0-.113 0-.187.04-.038.04-.075.04-.075.12-.038.041-.038.12-.038.2v3.403h1.088c.074 0 .149 0 .225-.04a.3.3 0 0 0 .149-.16c.038-.08.075-.199.113-.32l.112-.48h.338l-.076 1.44h-3.598Zm3.942.041v-.4h.263c.074 0 .112 0 .149-.04.038-.041.076-.081.076-.121.037-.039.037-.12.037-.2v-3.082c0-.081 0-.16-.037-.2l-.113-.121c-.038-.04-.112-.04-.15-.04h-.225v-.36h2.025c.45 0 .824.079 1.162.24.338.16.563.4.75.721.187.32.262.72.262 1.2 0 .482-.075.881-.262 1.242-.154.35-.402.642-.712.841-.301.2-.713.32-1.2.32h-2.025Zm1.874-.44c.263 0 .488-.081.638-.241.188-.159.299-.401.375-.681a4.02 4.02 0 0 0 .149-1.041c0-.4-.036-.72-.149-.96a1.2 1.2 0 0 0-.375-.561 1.12 1.12 0 0 0-.638-.2h-.262v3.684h.262Zm2.772.44v-.4h.263c.074 0 .112 0 .149-.04.038-.041.076-.081.076-.121.037-.039.037-.12.037-.2v-3.082c0-.121 0-.2-.037-.241-.038-.04-.076-.08-.113-.08-.038 0-.076-.04-.15-.04h-.262v-.36h3.411l.038 1.201h-.45v-.321a.604.604 0 0 0-.075-.28c-.038-.079-.076-.12-.113-.16-.074-.04-.15-.04-.225-.04h-.899v1.561h1.424v.401h-1.424v1.762h1.087c.074 0 .15 0 .225-.041a.31.31 0 0 0 .15-.159c.037-.081.075-.161.075-.24l.038-.321h.449l-.037 1.201h-3.637Zm3.971-.041v-.359h.187c.075 0 .113 0 .188-.04.037 0 .112-.041.15-.081.037-.04.037-.119.037-.24v-3.042c0-.121-.037-.2-.075-.24-.038-.041-.075-.081-.149-.081-.038-.04-.113-.04-.151-.04h-.187v-.361h2.062c.412 0 .75.04 1.013.161.262.081.449.24.561.4.123.188.189.412.188.641 0 .24-.037.44-.113.601a.907.907 0 0 1-.3.359 1.35 1.35 0 0 1-.412.202l.712 1.24c.082.16.183.308.3.44a.33.33 0 0 0 .263.121h-.075v.36H55.7c-.225 0-.45 0-.599-.041-.189-.039-.338-.079-.451-.159a.916.916 0 0 1-.299-.361l-.676-1.441h-.336v1.241c0 .121 0 .2.036.24.038.04.075.081.113.081.038 0 .113.04.149.04h.151v.359h-2.062Zm1.911-2.322c.263 0 .451-.079.563-.24a1.19 1.19 0 0 0 .187-.68c0-.2-.036-.361-.074-.48a.554.554 0 0 0-.225-.28c-.113-.081-.224-.081-.413-.081h-.3v1.761h.262Z"/>
  </g>
</svg>
