<?xml version="1.0" encoding="utf-8"?>
<!-- Generator: Adobe Illustrator 27.3.1, SVG Export Plug-In . SVG Version: 6.00 Build 0)  -->
<svg version="1.1" id="Layer_1" xmlns="http://www.w3.org/2000/svg" xmlns:xlink="http://www.w3.org/1999/xlink" x="0px" y="0px"
	 viewBox="0 0 84 84" style="enable-background:new 0 0 84 84;" xml:space="preserve">
<style type="text/css">
	.st0{fill:#7A7A7A;}
	.st1{fill:#C67102;}
	.st2{fill:#FCCF92;}
	.st3{fill:#41AD3D;}
	.st4{fill:#23673A;}
	.st5{fill:#2E9141;}
</style>
<g>
	<g>
		<g>
			<g>
				<g>
					<g>
						<path class="st0" d="M72.3,47.4l-10.5-4.2l-0.7,1.3l10.7,4.3L72.3,47.4"/>
					</g>
				</g>
			</g>
		</g>
	</g>
</g>
<g>
	<g>
		<g>
			<g>
				<g>
					<g>
						<g>
							<g>
								<path class="st1" d="M73.9,24.8c0.3-0.7,1.1-1,1.8-0.8c0.7,0.3,1,1.1,0.8,1.8s-1.1,1-1.8,0.8C73.9,26.3,73.6,25.5,73.9,24.8
									z M73.4,43.8c0,0-4.5-3-0.5-8.5c0,0,4.5-5.8,4.5-5.8c2-2.6,2.6-6.4-0.6-8.4c-3.7-0.8-5.9,2.4-6.3,5.6c0,0-0.8,7.3-0.8,7.3
									c-1,6.8-6.3,5.8-6.3,5.8l-1.3,2.5l10.3,4.2L73.4,43.8"/>
							</g>
						</g>
					</g>
				</g>
			</g>
		</g>
	</g>
</g>
<g>
	<g>
		<g>
			<g>
				<g>
					<g>
						<path class="st2" d="M64.4,56.7l1.2-2L65,57l1.8,0.7l1.5-4.3l-1.1,4.5l1.6,0.6l2.6-8.3l-10.9-4.4l-3.9,7.8l6.1,2.5L64.4,56.7"
							/>
					</g>
				</g>
			</g>
		</g>
	</g>
</g>
<g>
	<g>
		<g>
			<g>
				<g>
					<g>
						<g>
							<g>
								<path class="st3" d="M16.8,50.9c5.3,1.8,9.9,4.9,14.4,8.1c5.1,3.7,11.3,6,17.6,5.6c5.6-0.4,11.1-2.8,15.3-6.5l-3.8-1.5
									c-4.1,3.4-9.3,5.4-14.6,5.3c-5.3-0.1-10.2-2.3-14.6-5.2c-4.8-3.2-10.1-5.9-15.7-7.2C11,48.5,5.3,48,1,50.3l0.1,0.2
									C5.9,48.2,12.1,49.3,16.8,50.9"/>
							</g>
						</g>
					</g>
				</g>
			</g>
		</g>
	</g>
</g>
<g>
	<g>
		<g>
			<g>
				<g>
					<g>
						<path class="st4" d="M32.8,62.6c5.9,3.8,13.2,6.1,20.2,5.1c5.8-0.9,11.1-3.7,15.3-7.8l-2.8-1.2c-4.3,4.2-10.1,7-16.2,7.5
							c-6.4,0.5-12.3-1.6-17.8-4.6l-0.1,0.2c0,0,0.5,0.3,1.3,0.8C32.1,62.1,32.7,62.5,32.8,62.6"/>
					</g>
				</g>
			</g>
		</g>
	</g>
</g>
<g>
	<g>
		<g>
			<g>
				<g>
					<g>
						<path class="st5" d="M23.5,50.6c4.2,1.8,7.6,4.5,11.6,6.7c7.5,4.2,17,4.7,23.7-1.4l-2.8-1.1c-1.3,1-3.3,2.1-4.8,2.6
							c-5.6,2-11.4,0.3-16.5-2.2c-0.6-0.3-1.2-0.6-1.7-0.9c-2.3-1.2-4.4-2.7-6.8-3.7c-4.5-2-9.3-3-14.2-3.2c0,0.1,0,0.1,0,0.2
							C15.9,48,19.8,49,23.5,50.6"/>
					</g>
				</g>
			</g>
		</g>
	</g>
</g>
<g>
	<g>
		<g>
			<g>
				<g>
					<g>
						<g>
							<g>
								<g>
									<g>
										<path class="st5" d="M23.6,43.4c1.3,3.2,0.5,6.7,0.7,6.8l1.6,0.8C25.3,45.4,23.6,43.4,23.6,43.4"/>
									</g>
								</g>
							</g>
						</g>
					</g>
				</g>
			</g>
		</g>
	</g>
</g>
<g>
	<g>
		<g>
			<g>
				<g>
					<g>
						<g>
							<g>
								<g>
									<g>
										<path class="st4" d="M25.5,50.8c0,0,1.7-5.7,1.1-8.4c0,0,1.8,3,0.7,9.3L25.5,50.8"/>
									</g>
								</g>
							</g>
						</g>
					</g>
				</g>
			</g>
		</g>
	</g>
</g>
<g>
	<g>
		<g>
			<g>
				<g>
					<g>
						<g>
							<g>
								<g>
									<g>
										<path class="st5" d="M30,53.1c0,0,2.3-4,2.4-7.3c0,0,0.7,1.6-0.4,7.9L30,53.1"/>
									</g>
								</g>
							</g>
						</g>
					</g>
				</g>
			</g>
		</g>
	</g>
</g>
<g>
	<g>
		<g>
			<g>
				<g>
					<g>
						<g>
							<g>
								<g>
									<g>
										<path class="st4" d="M26.9,51.5c0,0,2.3-4.8,5.8-7.4c0,0-2.7,4.6-4.1,8.3L26.9,51.5"/>
									</g>
								</g>
							</g>
						</g>
					</g>
				</g>
			</g>
		</g>
	</g>
</g>
<g>
	<g>
		<g>
			<g>
				<g>
					<g>
						<g>
							<g>
								<g>
									<g>
										<path class="st3" d="M28.3,52.2c0,0,3.3-5.1,8.3-7c0,0-5.6,4.7-6.3,8L28.3,52.2"/>
									</g>
								</g>
							</g>
						</g>
					</g>
				</g>
			</g>
		</g>
	</g>
</g>
<g>
	<g>
		<g>
			<g>
				<g>
					<g>
						<g>
							<g>
								<g>
									<g>
										<path class="st4" d="M30.3,53.2c0,0,2.3-4,6.5-6c0,0-4.5,4.7-5,6.7L30.3,53.2"/>
									</g>
								</g>
							</g>
						</g>
					</g>
				</g>
			</g>
		</g>
	</g>
</g>
<g>
	<g>
		<g>
			<g>
				<g>
					<g>
						<g>
							<g>
								<g>
									<g>
										<path class="st5" d="M31,53.6l-1.4-0.7c0,0,0.9-5.1,0.9-9.8C30.5,43.1,32.3,48.4,31,53.6"/>
									</g>
								</g>
							</g>
						</g>
					</g>
				</g>
			</g>
		</g>
	</g>
</g>
<g>
	<g>
		<g>
			<g>
				<g>
					<g>
						<g>
							<g>
								<g>
									<g>
										<path class="st5" d="M30.8,53.5l1.4,0.7c0,0,0.5-1.7,6.1-4.6C38.3,49.6,33.2,49.8,30.8,53.5"/>
									</g>
								</g>
							</g>
						</g>
					</g>
				</g>
			</g>
		</g>
	</g>
</g>
<g>
	<g>
		<g>
			<g>
				<g>
					<g>
						<g>
							<g>
								<g>
									<g>
										<path class="st3" d="M26.6,51.4c0,0,2.1-3.8,2.3-7.1c0,0,0.6,1.7-0.5,8L26.6,51.4"/>
									</g>
								</g>
							</g>
						</g>
					</g>
				</g>
			</g>
		</g>
	</g>
</g>
<g>
	<g>
		<path class="st5" d="M62.4,47.6c-4.9,4.3-6.4,10.9-6.9,11h-3.3C57.7,49.7,62.4,47.6,62.4,47.6"/>
	</g>
</g>
<g>
	<g>
		<path class="st4" d="M53,58.6c0,0,2-11.2,5.2-15.1c0,0-5.5,3.5-9.1,15.1H53"/>
	</g>
</g>
<g>
	<g>
		<path class="st5" d="M43.4,58.6c0,0-0.4-8.8,2.1-14.4c0,0-2.5,2.1-6,13.8L43.4,58.6"/>
	</g>
</g>
<g>
	<g>
		<path class="st4" d="M49.9,58.6c0,0,0.2-10.1-3.5-17.6c0,0,0.7,10.2-0.2,17.6H49.9"/>
	</g>
</g>
<g>
	<g>
		<path class="st3" d="M47,58.6c0,0-1.1-11.5-8-19c0,0,5.4,12.8,3.8,19H47"/>
	</g>
</g>
<g>
	<g>
		<path class="st4" d="M42.9,58.6c0,0-0.5-8.8-5.8-15.7c0,0,3.6,11.8,2.6,15.7H42.9"/>
	</g>
</g>
<g>
	<g>
		<path class="st5" d="M41.2,58.6h2.9c0,0,2.8-9.5,6.8-17.4C51,41.2,43.6,48.8,41.2,58.6"/>
	</g>
</g>
<g>
	<g>
		<path class="st5" d="M41.7,58.6h-3c0,0,0.6-3.4-6.3-13.1C32.4,45.5,40.8,50.3,41.7,58.6"/>
	</g>
</g>
<g>
	<g>
		<path class="st3" d="M50.6,58.6c0,0-0.4-8.3,2.2-13.9c0,0-2.5,2.3-6,13.9H50.6"/>
	</g>
</g>
<g>
	<g>
		<g>
			<g>
				<g>
					<g>
						<g>
							<g>
								<path class="st4" d="M64.2,56.1c-2.2,3.2-2.2,7.3-2.5,7.4L59.8,64C61.8,58,64.2,56.1,64.2,56.1"/>
							</g>
						</g>
					</g>
				</g>
			</g>
		</g>
	</g>
</g>
<g>
	<g>
		<g>
			<g>
				<g>
					<g>
						<g>
							<g>
								<path class="st4" d="M60.3,63.9c0,0-0.4-6.9,0.9-9.7c0,0-2.7,2.8-3.1,10.2L60.3,63.9"/>
							</g>
						</g>
					</g>
				</g>
			</g>
		</g>
	</g>
</g>
<g>
	<g>
		<g>
			<g>
				<g>
					<g>
						<g>
							<g>
								<path class="st4" d="M54.7,65.2c0,0-1.4-5.1-0.8-8.8c0,0-1.1,1.6-1.5,9L54.7,65.2"/>
							</g>
						</g>
					</g>
				</g>
			</g>
		</g>
	</g>
</g>
<g>
	<g>
		<g>
			<g>
				<g>
					<g>
						<g>
							<g>
								<path class="st4" d="M58.5,64.3c0,0-1.3-6-4.5-9.9c0,0,1.8,5.9,2.3,10.4L58.5,64.3"/>
							</g>
						</g>
					</g>
				</g>
			</g>
		</g>
	</g>
</g>
<g>
	<g>
		<g>
			<g>
				<g>
					<g>
						<g>
							<g>
								<path class="st4" d="M56.8,64.7c0,0-2.3-6.7-7.3-10.1c0,0,4.9,6.8,4.9,10.7L56.8,64.7"/>
							</g>
						</g>
					</g>
				</g>
			</g>
		</g>
	</g>
</g>
<g>
	<g>
		<g>
			<g>
				<g>
					<g>
						<g>
							<g>
								<path class="st4" d="M54.4,65.3c0,0-1.5-5.2-5.6-8.5c0,0,3.7,6.5,3.7,8.9L54.4,65.3"/>
							</g>
						</g>
					</g>
				</g>
			</g>
		</g>
	</g>
</g>
<g>
	<g>
		<g>
			<g>
				<g>
					<g>
						<g>
							<g>
								<path class="st4" d="M53.5,65.5l1.7-0.4c0,0,0.3-6,1.5-11.2C56.7,53.9,53.5,59.4,53.5,65.5"/>
							</g>
						</g>
					</g>
				</g>
			</g>
		</g>
	</g>
</g>
<g>
	<g>
		<g>
			<g>
				<g>
					<g>
						<g>
							<g>
								<path class="st4" d="M53.7,65.5L52,65.9c0,0-0.1-2.1-5.5-6.9C46.6,59,52.1,60.7,53.7,65.5"/>
							</g>
						</g>
					</g>
				</g>
			</g>
		</g>
	</g>
</g>
<g>
	<g>
		<g>
			<g>
				<g>
					<g>
						<g>
							<g>
								<path class="st4" d="M58.9,64.2c0,0-1.4-4.8-0.7-8.5c0,0-1.1,1.7-1.5,9.1L58.9,64.2"/>
							</g>
						</g>
					</g>
				</g>
			</g>
		</g>
	</g>
</g>
<g>
	<g>
		<g>
			<g>
				<g>
					<g>
						<g>
							<g>
								<path class="st4" d="M49.6,63.4c-2.4,1.2-3.9,3.8-4.1,3.7l-1.3-0.4C47.5,63.7,49.6,63.4,49.6,63.4"/>
							</g>
						</g>
					</g>
				</g>
			</g>
		</g>
	</g>
</g>
<g>
	<g>
		<g>
			<g>
				<g>
					<g>
						<g>
							<g>
								<path class="st4" d="M44.5,66.9c0,0,2.1-4.4,3.9-5.6c0,0-2.6,0.8-5.4,5.2L44.5,66.9"/>
							</g>
						</g>
					</g>
				</g>
			</g>
		</g>
	</g>
</g>
<g>
	<g>
		<g>
			<g>
				<g>
					<g>
						<g>
							<g>
								<path class="st4" d="M40.7,65.8c0,0,0.9-3.6,2.5-5.7c0,0-1.2,0.6-4,5L40.7,65.8"/>
							</g>
						</g>
					</g>
				</g>
			</g>
		</g>
	</g>
</g>
<g>
	<g>
		<g>
			<g>
				<g>
					<g>
						<g>
							<g>
								<path class="st4" d="M43.3,66.5c0,0,1.2-4.1,0.6-7.6c0,0-0.9,4.3-2.1,7.2L43.3,66.5"/>
							</g>
						</g>
					</g>
				</g>
			</g>
		</g>
	</g>
</g>
<g>
	<g>
		<g>
			<g>
				<g>
					<g>
						<g>
							<g>
								<path class="st4" d="M42.1,66.2c0,0,0.9-4.9-1-8.7c0,0,0.7,5.9-0.7,8.3L42.1,66.2"/>
							</g>
						</g>
					</g>
				</g>
			</g>
		</g>
	</g>
</g>
<g>
	<g>
		<g>
			<g>
				<g>
					<g>
						<g>
							<g>
								<path class="st4" d="M40.5,65.7c0,0,0.8-3.7-0.5-7.1c0,0,0.1,5.3-0.8,6.8L40.5,65.7"/>
							</g>
						</g>
					</g>
				</g>
			</g>
		</g>
	</g>
</g>
<g>
	<g>
		<g>
			<g>
				<g>
					<g>
						<g>
							<g>
								<path class="st4" d="M39.8,65.5l1.2,0.3c0,0,2.2-3.6,4.8-6.4C45.8,59.5,41.9,61.8,39.8,65.5"/>
							</g>
						</g>
					</g>
				</g>
			</g>
		</g>
	</g>
</g>
<g>
	<g>
		<g>
			<g>
				<g>
					<g>
						<g>
							<g>
								<path class="st4" d="M40,65.6l-1.2-0.3c0,0,0.7-1.3-1-6.1C37.8,59.2,40.6,62.1,40,65.6"/>
							</g>
						</g>
					</g>
				</g>
			</g>
		</g>
	</g>
</g>
<g>
	<g>
		<g>
			<g>
				<g>
					<g>
						<g>
							<g>
								<path class="st4" d="M43.6,66.6c0,0,0.8-3.5,2.5-5.5c0,0-1.3,0.7-4,5.1L43.6,66.6"/>
							</g>
						</g>
					</g>
				</g>
			</g>
		</g>
	</g>
</g>
</svg>
