<?xml version="1.0" encoding="UTF-8"?><svg id="a" xmlns="http://www.w3.org/2000/svg" viewBox="0 0 188 188"><defs><style>.c{fill:#2e9141;}.d{fill:#d1f8fd;fill-rule:evenodd;}.e{fill:#41ad3d;}.f{fill:#408c24;}.g{fill:#23673a;}</style></defs><g id="b"><rect class="f" x="14.54" y="14" width="157.7" height="159.41"/><g><path class="c" d="M116.12,94.52c9.01,8.14,11.79,20.8,12.81,20.8h6.12c-10.34-17.03-18.93-20.8-18.93-20.8"/><path class="g" d="M133.27,115.32s-3.8-21.25-9.62-28.82c0,0,10.19,6.69,16.58,28.82h-7"/><path class="c" d="M151.18,115.32s.72-16.58-4.07-27.33c0,0,4.64,4.07,11.06,26.19l-7,1.18"/><path class="g" d="M139.09,115.32s-.42-19.05,6.54-33.19c0,0-1.29,19.35,.42,33.19h-7"/><path class="e" d="M144.49,115.32s2.05-21.82,14.71-36.08c0,0-9.88,24.29-7.15,36.08h-7.57"/><path class="g" d="M151.9,115.32s1.03-16.88,10.76-29.84c0,0-6.54,22.54-4.79,29.84h-5.97"/><path class="c" d="M154.98,115.32h-5.4s-5.09-18.17-12.66-33.04c0,0,13.69,14.26,18.06,33.04"/><path class="c" d="M154.26,115.32h5.4s-1.18-6.54,11.48-24.86c0,0-15.44,9.01-16.88,24.86"/><path class="e" d="M137.8,115.32s.72-15.7-4.07-26.61c0,0,4.64,4.37,11.06,26.61h-7"/><path class="c" d="M53.85,112.12c11.22,10.34,15.13,26.19,16.31,26.35h7.87c-13.23-21.4-24.14-26.35-24.14-26.35"/><path class="g" d="M75.83,138.43s-4.79-26.76-12.2-36.23c0,0,12.96,8.44,21.25,36.23h-9.01"/><path class="c" d="M98.37,138.43s1.03-20.95-4.94-34.63c0,0,5.66,4.94,13.95,33.04l-9.01,1.6"/><path class="g" d="M83.09,138.43s-.57-24.29,8.14-42.05c0,0-1.6,24.45,.57,42.05h-8.74"/><path class="e" d="M89.78,138.43s2.47-27.49,18.78-45.55c0,0-12.66,30.57-9.01,45.55h-9.73"/><path class="g" d="M99.55,138.43s1.18-21.25,13.53-37.68c0,0-8.44,28.51-6.12,37.68h-7.41"/><path class="c" d="M103.31,138.43h-6.84s-6.54-23-16.01-41.9c0,0,17.3,18.32,22.85,41.9"/><path class="c" d="M102.44,138.43h6.84s-1.6-7.98,14.71-31.29c0-.15-19.66,11.37-21.52,31.29"/><path class="e" d="M81.34,138.43s1.03-19.92-4.94-33.46c0,0,5.66,5.51,14.1,33.46h-9.16"/><path class="c" d="M84.27,81.1c5.09,4.79,6.84,12.09,7.41,12.09h3.65c-6.12-9.73-11.06-12.09-11.06-12.09"/><path class="g" d="M94.45,93.19s-2.32-12.2-5.51-16.58c0,0,5.97,3.8,9.73,16.58h-4.22"/><path class="c" d="M104.76,93.19s.42-9.62-2.32-15.85c0,0,2.62,2.32,6.54,15.13l-4.22,.72"/><path class="g" d="M97.8,93.19s-.15-11.06,3.8-19.35c0,0-.72,11.22,.15,19.35h-3.92"/><path class="e" d="M100.84,93.19s1.18-12.66,8.59-20.8c0,0-5.66,13.95-4.22,20.8h-4.37"/><path class="g" d="M105.21,93.19s.57-9.73,6.27-17.18c0,0-3.8,12.96-2.93,17.18h-3.35"/><path class="c" d="M106.96,93.19h-3.04s-3.04-10.49-7.26-19.05c-.15-.15,7.87,8.29,10.34,19.05"/><path class="c" d="M106.66,93.19h3.19s-.72-3.65,6.69-14.26c0-.15-9.01,5.25-9.88,14.26"/><path class="e" d="M97.04,93.19s.42-9.16-2.32-15.28c0,0,2.62,2.47,6.54,15.28h-4.22"/><path class="c" d="M73.05,86.65c-9.62,8.59-12.66,21.82-13.53,21.97h-6.54c10.91-18.06,20.07-21.97,20.07-21.97"/><path class="g" d="M54.42,108.47s4.07-22.39,10.34-30.11c0,0-10.91,7.15-17.75,30.11h7.41"/><path class="c" d="M35.79,108.47s-.72-17.6,4.22-28.82c0,0-4.79,4.22-11.79,27.49l7.57,1.29"/><path class="g" d="M48.45,108.47s.42-20.23-6.84-35.2c0,0,1.29,20.38-.42,35.2h7.26"/><path class="e" d="M42.79,108.47s-2.05-23-15.7-37.98c0,0,10.49,25.47,7.41,37.98h8.29"/><path class="g" d="M34.8,108.47s-1.03-17.75-11.48-31.29c0,0,7.15,23.72,5.09,31.29h6.39"/><path class="c" d="M31.57,108.47h5.66s5.51-19.05,13.38-34.79c0,0-14.56,14.98-19.05,34.79"/><path class="c" d="M32.3,108.47h-5.66s1.29-6.69-12.2-26.19c-.3,.15,16.16,9.47,17.91,26.19"/><path class="e" d="M49.94,108.47s-.72-16.58,4.22-27.94c0,0-4.79,4.64-11.79,27.94h7.57"/><path class="c" d="M53.85,53.77c7.72,6.84,10.19,17.3,10.91,17.6h5.4c-9.01-14.41-16.31-17.6-16.31-17.6"/><path class="g" d="M68.53,71.37s-3.19-17.75-8.14-24.29c0,0,8.74,5.51,14.26,24.29h-6.12"/><path class="c" d="M83.81,71.37s.57-13.95-3.5-23.15c0,0,3.8,3.5,9.62,21.97l-6.12,1.18"/><path class="g" d="M73.47,71.37s-.42-16.31,5.51-28.1c0,0-1.18,16.31,.42,28.1h-5.97"/><path class="e" d="M78.14,71.37s1.75-18.32,12.66-30.41c0,0-8.44,20.38-6.12,30.41h-6.54"/><path class="g" d="M84.68,71.37s.72-14.1,9.16-25.02c0,0-5.66,18.93-4.07,25.02h-5.09"/><path class="c" d="M87.31,71.37h-4.64s-4.37-15.28-10.91-27.94c.15,0,11.79,12.2,15.55,27.94"/><path class="c" d="M86.58,71.37h4.79s-1.03-5.4,9.88-20.8c0,0-13.38,7.41-14.71,20.8"/><path class="e" d="M72.48,71.37s.57-13.23-3.5-22.39c0,0,3.8,3.65,9.62,22.39h-6.12"/></g><path class="d" d="M6,23.95C2.39,21.64,0,17.6,0,13,0,5.82,5.82,0,13,0c4.6,0,8.64,2.39,10.95,6H164.05c2.31-3.61,6.35-6,10.95-6,7.18,0,13,5.82,13,13,0,4.6-2.39,8.64-6,10.95V164.05c3.61,2.31,6,6.35,6,10.95,0,7.18-5.82,13-13,13-4.6,0-8.64-2.39-10.95-6H23.95c-2.31,3.61-6.35,6-10.95,6-7.18,0-13-5.82-13-13,0-4.6,2.39-8.64,6-10.95V23.95Zm156.35-7.95H25.65c-1.13,4.77-4.88,8.52-9.65,9.65V162.35c4.77,1.13,8.52,4.88,9.65,9.65H162.35c1.13-4.77,4.88-8.52,9.65-9.65V25.65c-4.77-1.13-8.52-4.88-9.65-9.65Z"/></g></svg>