<?xml version="1.0" encoding="utf-8"?>
<!-- Generator: Adobe Illustrator 26.1.0, SVG Export Plug-In . SVG Version: 6.00 Build 0)  -->
<svg version="1.1" id="Layer_1" xmlns="http://www.w3.org/2000/svg" xmlns:xlink="http://www.w3.org/1999/xlink" x="0px" y="0px"
	 viewBox="0 0 64 64" style="enable-background:new 0 0 64 64;" xml:space="preserve">
<style type="text/css">
	.st0{fill:#4C8E40;}
	.st1{display:none;fill:#DB525C;}
	.st2{fill:#E9FFFF;}
	.st3{fill:none;stroke:#E9FFFF;stroke-miterlimit:10;}
</style>
<path class="st0" d="M52.5,58.3H10.7c-2.8,0-5.1-2.3-5.1-5.1V9C5.6,6.2,7.9,4,10.7,4h41.9c2.8,0,5.1,2.3,5.1,5.1v44.1
	C57.6,56,55.3,58.3,52.5,58.3z"/>
<circle class="st1" cx="32" cy="31.6" r="27.6"/>
<g>
	<g>
		<path class="st2" d="M22.7,54.1c-0.9-0.2-1.3,0-1.5,0.2l-0.9-1c0.7-0.7,1.5-0.8,2.7-0.6L22.7,54.1z M29.8,55.2
			c0.6-0.6,0.8-1.5,0.6-2.6c-0.1-0.5-0.2-1.1-0.4-1.6l-1.3,0.5c0.2,0.4,0.3,0.9,0.4,1.4c0.1,0.8-0.1,1.2-0.3,1.4
			c-0.1,0.1-0.3,0.2-0.4,0.3l0.4,1.3C29.2,55.7,29.5,55.5,29.8,55.2z M27.8,54.5c-0.7-0.1-1.7-0.5-2.5-0.9c-0.5-0.2-0.9-0.4-1.4-0.6
			l-0.4,1.3c0.4,0.2,0.9,0.4,1.3,0.6c1,0.4,2,0.9,2.9,1L27.8,54.5z M29.7,50.1L29.6,50c-0.3-0.8-0.6-1.7-0.7-2.4
			c-0.1-0.5,0-0.9,0.1-1.2l-1.2-0.7c-0.3,0.6-0.4,1.3-0.3,2.1c0.1,0.9,0.5,1.8,0.8,2.7l0.1,0.2L29.7,50.1z M37.7,47.1
			c0.3-0.3,0.5-0.7,0.6-1.1l-1.3-0.4c0,0.2-0.1,0.3-0.3,0.5c-0.2,0.2-0.3,0.3-0.6,0.3c-0.6,0.1-1.4-0.2-2-0.4l-0.5,1.3
			c0.8,0.3,1.8,0.6,2.7,0.5C37,47.7,37.4,47.5,37.7,47.1z M33.4,45.6l-0.2-0.1c-1.3-0.6-2.6-1.1-3.7-0.9c-0.3,0-0.5,0.1-0.8,0.3
			l0.6,1.2c0.1-0.1,0.2-0.1,0.3-0.1c0.8-0.1,1.9,0.4,3,0.9l0.2,0.1L33.4,45.6z M38.4,44.5c-0.1-0.9-0.5-1.8-0.8-2.7
			c-0.2-0.5-0.4-1-0.5-1.5l-1.3,0.4c0.2,0.5,0.4,1,0.6,1.5c0.3,0.8,0.6,1.7,0.8,2.4c0,0.1,0,0.2,0,0.2l1.3-0.1
			C38.4,44.8,38.4,44.6,38.4,44.5z M45.7,39c0.6-0.6,0.8-1.5,0.6-2.6c-0.1-0.5-0.2-1-0.4-1.5l-1.3,0.5c0.2,0.4,0.3,0.9,0.4,1.3
			c0.1,0.8-0.1,1.2-0.3,1.4c-0.1,0.1-0.3,0.2-0.5,0.3l0.3,1.4C45,39.5,45.4,39.3,45.7,39z M43.6,38.3c-0.7-0.1-1.6-0.5-2.5-0.9
			c-0.5-0.2-1-0.4-1.5-0.6l-0.4,1.3c0.4,0.2,0.9,0.4,1.4,0.6c1,0.4,2,0.9,2.9,1L43.6,38.3z M36.8,39.6c0,0,0-0.1,0-0.1
			c-0.1-0.8,0.1-1.2,0.3-1.4c0.2-0.2,0.3-0.3,0.6-0.3c0.3,0,0.6,0,0.9,0.1l0.3-1.4c-0.4-0.1-0.9-0.1-1.4-0.1
			c-0.5,0.1-0.9,0.3-1.3,0.7c-0.6,0.6-0.8,1.5-0.6,2.6c0,0.1,0,0.1,0,0.2L36.8,39.6z M45.6,34l-0.1-0.2c-0.3-0.8-0.6-1.7-0.8-2.4
			c-0.1-0.5-0.1-0.9,0.1-1.1l-1.2-0.7c-0.3,0.6-0.4,1.2-0.2,2c0.1,0.9,0.5,1.8,0.8,2.7l0.1,0.2L45.6,34z M53.6,30.9
			c0.3-0.3,0.5-0.6,0.6-1l-1.3-0.4c0,0.2-0.1,0.3-0.3,0.4c-0.2,0.2-0.3,0.3-0.6,0.3c-0.6,0.1-1.4-0.2-2.1-0.5L49.6,31
			c0.9,0.3,1.9,0.7,2.8,0.5C52.8,31.5,53.3,31.3,53.6,30.9z M49.3,29.4l-0.2-0.1c-1.3-0.6-2.6-1.1-3.7-1c-0.3,0-0.6,0.1-0.8,0.3
			l0.7,1.2c0.1-0.1,0.2-0.1,0.4-0.1c0.8-0.1,1.9,0.4,3,0.9l0.2,0.1L49.3,29.4z M54.3,28.3c-0.1-0.9-0.5-1.8-0.8-2.7
			c-0.2-0.5-0.4-0.9-0.5-1.4l-1.3,0.4c0.2,0.5,0.3,1,0.5,1.5c0.3,0.8,0.6,1.7,0.7,2.4c0,0.1,0,0.2,0,0.3l1.3-0.1
			C54.3,28.6,54.3,28.5,54.3,28.3z M52.7,23.4c-0.2-1,0-1.3,0.2-1.5l-0.9-1c-0.7,0.7-0.8,1.6-0.6,2.8L52.7,23.4z"/>
	</g>
</g>
<g>
	<g>
		<g>
			<g>
				<g>
					<g>
						<g>
							<g>
								<path class="st3" d="M50.7,17.5l3.4,6.5"/>
								<path class="st3" d="M55.5,19.1l-6.3,3.4"/>
							</g>
						</g>
					</g>
				</g>
			</g>
		</g>
	</g>
</g>
<g>
	<g>
		<g>
			<g>
				<g>
					<g>
						<g>
							<g>
								<path class="st3" d="M22.4,50.6l-4.5,5.7"/>
								<path class="st3" d="M22.9,55.8l-5.5-4.7"/>
							</g>
						</g>
					</g>
				</g>
			</g>
		</g>
	</g>
</g>
<g>
	<path class="st2" d="M28,29.2h-3.9v-2.7c0-0.9,0.2-1.6,0.6-2.1s1.2-1.3,2.4-2.2c1.9-1.5,2.8-3,2.8-4.6c0-1.2-0.4-2.2-1.1-2.9
		s-1.7-1.1-2.9-1.1c-2.7,0-4.4,1.9-4.9,5.7l-4.4-0.8c0.3-2.8,1.3-5.1,3.2-6.7s4-2.4,6.6-2.4c2.5,0,4.7,0.8,6.3,2.3
		c1.7,1.5,2.5,3.4,2.5,5.7c0,1.1-0.2,2.2-0.7,3.2c-0.5,1-1,1.8-1.6,2.3s-1.8,1.5-3.7,2.9c-0.5,0.4-0.9,0.8-1,1.1
		C28.1,27.1,28,27.9,28,29.2z M28.8,32v5h-4.7v-5H28.8z"/>
</g>
</svg>
