<?xml version="1.0" encoding="utf-8"?>
<!-- Generator: Adobe Illustrator 26.1.0, SVG Export Plug-In . SVG Version: 6.00 Build 0)  -->
<svg version="1.1" id="Layer_1" xmlns="http://www.w3.org/2000/svg" xmlns:xlink="http://www.w3.org/1999/xlink" x="0px" y="0px"
	 viewBox="0 0 64 64" style="enable-background:new 0 0 64 64;" xml:space="preserve">
<style type="text/css">
	.st0{fill:#DB525C;}
	.st1{display:none;fill:#DB525C;}
	.st2{fill:#E9FFFF;}
	.st3{fill:none;stroke:#E9FFFF;stroke-miterlimit:10;}
	.st4{fill:#AFB6BB;}
	.st5{fill:#B2BED8;}
</style>
<path class="st0" d="M52.5,58.3H10.7c-2.8,0-5.1-2.3-5.1-5.1V9C5.6,6.2,7.9,4,10.7,4h41.9c2.8,0,5.1,2.3,5.1,5.1v44.1
	C57.6,56,55.3,58.3,52.5,58.3z"/>
<circle class="st1" cx="32" cy="31.6" r="27.6"/>
<g>
	<g>
		<path class="st2" d="M14.4,52.7c-1.2-0.3-1.6,0-1.9,0.3l-1.2-1.3c0.8-0.8,1.9-1.1,3.4-0.7L14.4,52.7z M23.4,54
			c0.8-0.8,1-1.9,0.8-3.3c-0.1-0.7-0.3-1.4-0.6-2L22,49.3c0.2,0.6,0.4,1.1,0.5,1.7c0.2,1.1-0.1,1.5-0.3,1.7
			c-0.1,0.2-0.3,0.3-0.5,0.3l0.5,1.7C22.6,54.7,23,54.4,23.4,54z M20.9,53.1c-0.9-0.1-2.1-0.6-3.2-1.1c-0.6-0.3-1.2-0.5-1.8-0.7
			L15.3,53c0.5,0.2,1.1,0.5,1.7,0.7c1.3,0.6,2.5,1.1,3.7,1.2L20.9,53.1z M23.2,47.6l-0.1-0.2c-0.4-1-0.8-2.1-0.9-3
			c-0.1-0.7-0.1-1.1,0.1-1.5L20.9,42c-0.4,0.7-0.5,1.6-0.4,2.7c0.2,1.1,0.6,2.2,1,3.4l0.1,0.2L23.2,47.6z M33.4,43.8
			c0.4-0.4,0.6-0.8,0.8-1.4l-1.6-0.5c-0.1,0.2-0.2,0.4-0.3,0.6c-0.2,0.2-0.4,0.3-0.7,0.4c-0.7,0.1-1.7-0.2-2.5-0.5L28.4,44
			c1.1,0.4,2.3,0.8,3.4,0.6C32.4,44.5,33,44.3,33.4,43.8z M28,41.9l-0.3-0.1c-1.6-0.7-3.3-1.4-4.7-1.2c-0.3,0-0.7,0.2-1,0.3l0.8,1.6
			c0.1-0.1,0.3-0.1,0.4-0.2c1-0.2,2.4,0.5,3.8,1.1l0.3,0.1L28,41.9z M34.2,40.5c-0.2-1.1-0.6-2.2-1-3.4c-0.2-0.6-0.5-1.2-0.7-1.8
			l-1.6,0.5c0.2,0.6,0.5,1.3,0.7,2c0.4,1,0.8,2.1,0.9,3c0,0.1,0,0.2,0,0.3l1.7-0.1C34.3,40.8,34.3,40.7,34.2,40.5z M43.5,33.5
			c0.8-0.8,1-1.9,0.8-3.3c-0.1-0.7-0.3-1.3-0.5-2l-1.6,0.6c0.2,0.5,0.3,1.1,0.5,1.6c0.2,1.1-0.1,1.5-0.3,1.7
			c-0.2,0.2-0.4,0.3-0.6,0.3l0.4,1.7C42.6,34.2,43.1,33.9,43.5,33.5z M40.9,32.6c-0.9-0.1-2-0.6-3.1-1.1c-0.6-0.3-1.2-0.5-1.9-0.8
			l-0.5,1.7c0.6,0.2,1.2,0.5,1.8,0.7c1.2,0.5,2.5,1.1,3.6,1.2L40.9,32.6z M32.3,34.3c0,0,0-0.1,0-0.2c-0.2-1.1,0.1-1.5,0.3-1.7
			c0.2-0.2,0.4-0.3,0.7-0.4c0.4,0,0.7,0,1.1,0.1l0.3-1.7c-0.6-0.1-1.1-0.2-1.7-0.1c-0.6,0.1-1.2,0.4-1.6,0.8c-0.8,0.8-1,1.9-0.8,3.3
			c0,0.1,0,0.1,0,0.2L32.3,34.3z M43.4,27.2l-0.1-0.3c-0.4-1-0.8-2.1-0.9-3c-0.1-0.6-0.1-1.1,0.1-1.4l-1.5-0.9
			c-0.4,0.7-0.5,1.6-0.3,2.6c0.2,1.1,0.6,2.2,1,3.4l0.1,0.3L43.4,27.2z M53.5,23.3c0.4-0.4,0.6-0.8,0.7-1.3l-1.6-0.5
			c-0.1,0.2-0.2,0.4-0.3,0.5c-0.2,0.2-0.4,0.3-0.7,0.4c-0.7,0.1-1.8-0.2-2.6-0.6l-0.6,1.6c1.1,0.4,2.3,0.9,3.5,0.7
			C52.5,24,53.1,23.7,53.5,23.3z M48,21.4l-0.2-0.1c-1.6-0.7-3.3-1.4-4.7-1.2c-0.4,0.1-0.7,0.2-1.1,0.4l0.9,1.5
			c0.1-0.1,0.3-0.1,0.5-0.2c1-0.2,2.4,0.5,3.8,1.1l0.2,0.1L48,21.4z M54.3,20c-0.2-1.1-0.6-2.2-1-3.4c-0.2-0.6-0.5-1.2-0.6-1.8
			L51,15.4c0.2,0.6,0.4,1.2,0.7,1.9c0.4,1,0.8,2.1,0.9,3c0,0.1,0,0.3,0.1,0.4l1.7-0.1C54.4,20.4,54.4,20.2,54.3,20z M52.4,13.9
			c-0.2-1.2,0-1.7,0.3-1.9l-1.2-1.3c-0.8,0.8-1.1,2-0.8,3.6L52.4,13.9z"/>
	</g>
</g>
<g>
	<g>
		<g>
			<g>
				<g>
					<g>
						<g>
							<g>
								<path class="st3" d="M49.8,6.4l4.3,8.2"/>
								<path class="st3" d="M55.9,8.3L48,12.7"/>
							</g>
						</g>
					</g>
				</g>
			</g>
		</g>
	</g>
</g>
<g>
	<g>
		<g>
			<g>
				<g>
					<g>
						<g>
							<g>
								<path class="st3" d="M14,48.2l-5.7,7.2"/>
								<path class="st3" d="M14.6,54.8l-7-6"/>
							</g>
						</g>
					</g>
				</g>
			</g>
		</g>
	</g>
</g>
<g>
	<g>
		<path class="st2" d="M53.6,55.2v-3.4h-1.8v-0.5h1.8v-1.9h-1v-0.5h1V47h-1.8v-0.5h1.8v-1.9h-1v-0.5h1v-1.9h-1.8v-0.5h1.8v-1.9h-1
			v-0.5h1v-1.9h-1.8v-0.5h1.8v-6.5L28.8,55.2H53.6z M50,51.7H37.3L50,38.9V51.7z"/>
	</g>
</g>
<g>
	<g>
		<path class="st4" d="M38,18.5l1.2-1.2l-4.2-6.6l-3.5-3.5l-1.9,1.9l-3.1,3.1L24.1,10l-1.5,1.5l2.3,2.3L20.7,18
			c-0.3,0.3-0.3,0.7,0,1l0.6,0.6L21,19.3L8.1,32.2c-0.3,0.3-0.3,0.8,0,1.1l2.3,2.3c0.3,0.3,0.8,0.3,1.1,0l12.9-12.9l0.3,0.3
			c0.3,0.3,0.7,0.3,1,0l4.1-4.1l5,2.7l1.5-1.5l-3.9-3.9l-1.5-1.5l1.5-1.5L38,18.5z"/>
	</g>
</g>
<path class="st5" d="M22.6,16.8c-0.1,0-0.3-0.1-0.4-0.2l-1.5-1.5c-0.2-0.2-0.2-0.6,0-0.8c0.2-0.2,0.6-0.2,0.8,0l1.5,1.5
	c0.2,0.2,0.2,0.6,0,0.8C22.8,16.7,22.7,16.8,22.6,16.8z"/>
<path class="st5" d="M20.3,16c-0.1,0-0.3-0.1-0.4-0.2c-0.2-0.2-0.2-0.6,0-0.8l1.5-1.5c0.2-0.2,0.6-0.2,0.8,0c0.2,0.2,0.2,0.6,0,0.8
	l-1.5,1.5C20.5,15.9,20.4,16,20.3,16z"/>
<path class="st5" d="M27.6,11.2l-1.2,1.2L24.1,10l-1.5,1.5l2.3,2.3L20.7,18c-0.3,0.3-0.3,0.7,0,1l0.6,0.6c0.3,0.3,0.7,0.3,1,0
	l4.1-4.1l1.9,1.9l-4.1,4.1c-0.3,0.3-0.3,0.7,0,1l0.6,0.6c0.3,0.3,0.7,0.3,1,0l4.1-4.1l5,2.7l1.5-1.5L27.6,11.2z"/>
<g>
	<g>
		<path class="st2" d="M24.2,21.5l4.1-4.1l-1.9-1.9l-4.1,4.1c-0.3,0.3-0.7,0.3-1,0L21,19.3L8.1,32.2c-0.3,0.3-0.3,0.8,0,1.1l2.3,2.3
			c0.3,0.3,0.8,0.3,1.1,0l12.9-12.9l-0.3-0.3C23.9,22.2,23.9,21.8,24.2,21.5z"/>
	</g>
</g>
<g>
	<g>
		<path class="st2" d="M29.5,9.3l-1.9,1.9l3.5,3.5l1.5-1.5l5.4,5.4l1.2-1.2l-4.2-6.6l-3.5-3.5L29.5,9.3z"/>
	</g>
</g>
<g>
	<g>
		<path class="st5" d="M28.4,5.8l2.3,2.3l-1.5,1.5l-2.3-2.3L28.4,5.8z"/>
	</g>
</g>
<rect x="12.4" y="27.8" transform="matrix(-0.7071 -0.7071 0.7071 -0.7071 2.9071 56.9915)" class="st0" width="1.8" height="0.2"/>
<rect x="12.6" y="27.1" transform="matrix(-0.7071 -0.7071 0.7071 -0.7071 3.8191 55.9636)" class="st0" width="1.8" height="0.2"/>
<rect x="13.3" y="26.9" transform="matrix(-0.7071 -0.7071 0.7071 -0.7071 5.1934 56.0993)" class="st0" width="1.8" height="0.2"/>
<rect x="13.6" y="26.2" transform="matrix(-0.7071 -0.7071 0.7071 -0.7071 6.1054 55.0714)" class="st0" width="1.8" height="0.2"/>
<rect x="14.2" y="25.9" transform="matrix(-0.7071 -0.7071 0.7071 -0.7071 7.4087 55.12)" class="st0" width="1.8" height="0.2"/>
<rect x="14.5" y="25.2" transform="matrix(-0.7071 -0.7071 0.7071 -0.7071 8.3207 54.0921)" class="st0" width="1.8" height="0.2"/>
<rect x="15.2" y="25" transform="matrix(-0.7071 -0.7071 0.7071 -0.7071 9.6421 54.2198)" class="st0" width="1.8" height="0.2"/>
<rect x="15.4" y="24.3" transform="matrix(-0.7071 -0.7071 0.7071 -0.7071 10.5541 53.1919)" class="st0" width="1.8" height="0.2"/>
<rect x="8.6" y="31.5" transform="matrix(-0.7071 -0.7071 0.7071 -0.7071 -6.1466 60.7378)" class="st0" width="1.8" height="0.2"/>
<rect x="8.9" y="30.8" transform="matrix(-0.7071 -0.7071 0.7071 -0.7071 -5.2346 59.7099)" class="st0" width="1.8" height="0.2"/>
<rect x="9.6" y="30.6" transform="matrix(-0.7071 -0.7071 0.7071 -0.7071 -3.8871 59.8345)" class="st0" width="1.8" height="0.2"/>
<rect x="9.8" y="29.9" transform="matrix(-0.7071 -0.7071 0.7071 -0.7071 -2.975 58.8066)" class="st0" width="1.8" height="0.2"/>
<rect x="10.5" y="29.7" transform="matrix(-0.7071 -0.7071 0.7071 -0.7071 -1.6361 58.8699)" class="st0" width="1.8" height="0.2"/>
<rect x="10.7" y="29" transform="matrix(-0.7071 -0.7071 0.7071 -0.7071 -0.7241 57.842)" class="st0" width="1.8" height="0.2"/>
<rect x="11.4" y="28.8" transform="matrix(-0.7071 -0.7071 0.7071 -0.7071 0.5616 57.955)" class="st0" width="1.8" height="0.2"/>
<rect x="11.6" y="28" transform="matrix(-0.7071 -0.7071 0.7071 -0.7071 1.4736 56.9271)" class="st0" width="1.8" height="0.2"/>
<rect x="16.1" y="24" transform="matrix(-0.7071 -0.7071 0.7071 -0.7071 11.8765 53.2225)" class="st0" width="1.8" height="0.2"/>
<rect x="16.3" y="23.3" transform="matrix(-0.7071 -0.7071 0.7071 -0.7071 12.7886 52.1946)" class="st0" width="1.8" height="0.2"/>
<rect x="17" y="23.1" transform="matrix(-0.7071 -0.7071 0.7071 -0.7071 14.1629 52.3303)" class="st0" width="1.8" height="0.2"/>
<rect x="17.3" y="22.4" transform="matrix(-0.7071 -0.7071 0.7071 -0.7071 15.0749 51.3024)" class="st0" width="1.8" height="0.2"/>
<rect x="18" y="22.2" transform="matrix(-0.7071 -0.7071 0.7071 -0.7071 16.404 51.3895)" class="st0" width="1.8" height="0.2"/>
<rect x="18.2" y="21.5" transform="matrix(-0.7071 -0.7071 0.7071 -0.7071 17.316 50.3616)" class="st0" width="1.8" height="0.2"/>
<rect x="18.9" y="21.3" transform="matrix(-0.7071 -0.7071 0.7071 -0.7071 18.6115 50.4508)" class="st0" width="1.8" height="0.2"/>
<rect x="19.1" y="20.6" transform="matrix(-0.7071 -0.7071 0.7071 -0.7071 19.5236 49.4229)" class="st0" width="1.8" height="0.2"/>
</svg>
