<?xml version="1.0" encoding="utf-8"?>
<!-- Generator: Adobe Illustrator 26.1.0, SVG Export Plug-In . SVG Version: 6.00 Build 0)  -->
<svg version="1.1" id="Layer_1" xmlns="http://www.w3.org/2000/svg" xmlns:xlink="http://www.w3.org/1999/xlink" x="0px" y="0px"
	 viewBox="0 0 64 64" style="enable-background:new 0 0 64 64;" xml:space="preserve">
<style type="text/css">
	.st0{fill:#8391A5;}
	.st1{display:none;fill:#DB525C;}
	.st2{fill:#E9FFFF;}
	.st3{fill:none;stroke:#E9FFFF;stroke-miterlimit:10;}
	.st4{fill:#3A3A3A;}
	.st5{fill:#FFFFFF;}
</style>
<path class="st0" d="M52.5,58.3H10.7c-2.8,0-5.1-2.3-5.1-5.1V9C5.6,6.2,7.9,4,10.7,4h41.9c2.8,0,5.1,2.3,5.1,5.1v44.1
	C57.6,56,55.3,58.3,52.5,58.3z"/>
<circle class="st1" cx="32" cy="31.6" r="27.6"/>
<g>
	<g>
		<path class="st2" d="M22.7,54.1c-0.9-0.2-1.3,0-1.5,0.2l-0.9-1c0.7-0.7,1.5-0.8,2.7-0.6L22.7,54.1z M29.8,55.2
			c0.6-0.6,0.8-1.5,0.6-2.6c-0.1-0.5-0.2-1.1-0.4-1.6l-1.3,0.5c0.2,0.4,0.3,0.9,0.4,1.4c0.1,0.8-0.1,1.2-0.3,1.4
			c-0.1,0.1-0.3,0.2-0.4,0.3l0.4,1.3C29.2,55.7,29.5,55.5,29.8,55.2z M27.8,54.5c-0.7-0.1-1.7-0.5-2.5-0.9c-0.5-0.2-0.9-0.4-1.4-0.6
			l-0.4,1.3c0.4,0.2,0.9,0.4,1.3,0.6c1,0.4,2,0.9,2.9,1L27.8,54.5z M29.7,50.1L29.6,50c-0.3-0.8-0.6-1.7-0.7-2.4
			c-0.1-0.5,0-0.9,0.1-1.2l-1.2-0.7c-0.3,0.6-0.4,1.3-0.3,2.1c0.1,0.9,0.5,1.8,0.8,2.7l0.1,0.2L29.7,50.1z M37.7,47.1
			c0.3-0.3,0.5-0.7,0.6-1.1l-1.3-0.4c0,0.2-0.1,0.3-0.3,0.5c-0.2,0.2-0.3,0.3-0.6,0.3c-0.6,0.1-1.4-0.2-2-0.4l-0.5,1.3
			c0.8,0.3,1.8,0.6,2.7,0.5C37,47.7,37.4,47.5,37.7,47.1z M33.4,45.6l-0.2-0.1c-1.3-0.6-2.6-1.1-3.7-0.9c-0.3,0-0.5,0.1-0.8,0.3
			l0.6,1.2c0.1-0.1,0.2-0.1,0.3-0.1c0.8-0.1,1.9,0.4,3,0.9l0.2,0.1L33.4,45.6z M38.4,44.5c-0.1-0.9-0.5-1.8-0.8-2.7
			c-0.2-0.5-0.4-1-0.5-1.5l-1.3,0.4c0.2,0.5,0.4,1,0.6,1.5c0.3,0.8,0.6,1.7,0.8,2.4c0,0.1,0,0.2,0,0.2l1.3-0.1
			C38.4,44.8,38.4,44.6,38.4,44.5z M45.7,39c0.6-0.6,0.8-1.5,0.6-2.6c-0.1-0.5-0.2-1-0.4-1.5l-1.3,0.5c0.2,0.4,0.3,0.9,0.4,1.3
			c0.1,0.8-0.1,1.2-0.3,1.4c-0.1,0.1-0.3,0.2-0.5,0.3l0.3,1.4C45,39.5,45.4,39.3,45.7,39z M43.6,38.3c-0.7-0.1-1.6-0.5-2.5-0.9
			c-0.5-0.2-1-0.4-1.5-0.6l-0.4,1.3c0.4,0.2,0.9,0.4,1.4,0.6c1,0.4,2,0.9,2.9,1L43.6,38.3z M36.8,39.6c0,0,0-0.1,0-0.1
			c-0.1-0.8,0.1-1.2,0.3-1.4c0.2-0.2,0.3-0.3,0.6-0.3c0.3,0,0.6,0,0.9,0.1l0.3-1.4c-0.4-0.1-0.9-0.1-1.4-0.1
			c-0.5,0.1-0.9,0.3-1.3,0.7c-0.6,0.6-0.8,1.5-0.6,2.6c0,0.1,0,0.1,0,0.2L36.8,39.6z M45.6,34l-0.1-0.2c-0.3-0.8-0.6-1.7-0.8-2.4
			c-0.1-0.5-0.1-0.9,0.1-1.1l-1.2-0.7c-0.3,0.6-0.4,1.2-0.2,2c0.1,0.9,0.5,1.8,0.8,2.7l0.1,0.2L45.6,34z M53.6,30.9
			c0.3-0.3,0.5-0.6,0.6-1l-1.3-0.4c0,0.2-0.1,0.3-0.3,0.4c-0.2,0.2-0.3,0.3-0.6,0.3c-0.6,0.1-1.4-0.2-2.1-0.5L49.6,31
			c0.9,0.3,1.9,0.7,2.8,0.5C52.8,31.5,53.3,31.3,53.6,30.9z M49.3,29.4l-0.2-0.1c-1.3-0.6-2.6-1.1-3.7-1c-0.3,0-0.6,0.1-0.8,0.3
			l0.7,1.2c0.1-0.1,0.2-0.1,0.4-0.1c0.8-0.1,1.9,0.4,3,0.9l0.2,0.1L49.3,29.4z M54.3,28.3c-0.1-0.9-0.5-1.8-0.8-2.7
			c-0.2-0.5-0.4-0.9-0.5-1.4l-1.3,0.4c0.2,0.5,0.3,1,0.5,1.5c0.3,0.8,0.6,1.7,0.7,2.4c0,0.1,0,0.2,0,0.3l1.3-0.1
			C54.3,28.6,54.3,28.5,54.3,28.3z M52.7,23.4c-0.2-1,0-1.3,0.2-1.5l-0.9-1c-0.7,0.7-0.8,1.6-0.6,2.8L52.7,23.4z"/>
	</g>
</g>
<g>
	<g>
		<g>
			<g>
				<g>
					<g>
						<g>
							<g>
								<path class="st3" d="M50.7,17.5l3.4,6.5"/>
								<path class="st3" d="M55.5,19.1l-6.3,3.4"/>
							</g>
						</g>
					</g>
				</g>
			</g>
		</g>
	</g>
</g>
<g>
	<g>
		<g>
			<g>
				<g>
					<g>
						<g>
							<g>
								<path class="st3" d="M22.4,50.6l-4.5,5.7"/>
								<path class="st3" d="M22.9,55.8l-5.5-4.7"/>
							</g>
						</g>
					</g>
				</g>
			</g>
		</g>
	</g>
</g>
<g>
	<g>
		<path class="st4" d="M40.7,21l-7.9-7.1l3.1-3.5l7.9,7.1L40.7,21"/>
	</g>
</g>
<path class="st5" d="M37.7,16.7l-0.3-0.3l1.6-1.8l0.3,0.3L37.7,16.7"/>
<g>
	<g>
		<path class="st5" d="M33.5,14.5l-0.3-0.3l3.1-3.5l0.3,0.3L33.5,14.5"/>
	</g>
</g>
<g>
	<g>
		<path class="st5" d="M40.4,20.7L40,20.4l3.1-3.5l0.3,0.3L40.4,20.7"/>
	</g>
</g>
<g>
	<g>
		<path class="st2" d="M40.7,21l-7.9-7.1l3.1-3.5l7.9,7.1L40.7,21"/>
	</g>
</g>
<path class="st0" d="M37.7,16.7l-0.3-0.3l1.6-1.8l0.3,0.3L37.7,16.7"/>
<g>
	<g>
		<path class="st4" d="M37.6,24.5l-7.9-7.1l3.1-3.5l7.9,7.1L37.6,24.5"/>
	</g>
</g>
<path class="st5" d="M34.6,20.2l-0.3-0.3l1.6-1.8l0.3,0.3L34.6,20.2"/>
<path class="st5" d="M30.4,18L30,17.7l3.1-3.5l0.3,0.3L30.4,18"/>
<g>
	<g>
		<path class="st5" d="M37.3,24.2l-0.3-0.3l3.1-3.5l0.3,0.3L37.3,24.2"/>
	</g>
</g>
<g>
	<g>
		<path class="st2" d="M37.6,24.5l-7.9-7.1l3.5-3.9l7.9,7.1L37.6,24.5"/>
	</g>
</g>
<path class="st0" d="M34.6,20.2l-0.3-0.3l1.6-1.8l0.3,0.3L34.6,20.2"/>
<g>
	<g>
		<path class="st4" d="M34.5,28l-7.9-7.1l3.1-3.5l7.9,7.1L34.5,28"/>
	</g>
</g>
<path class="st5" d="M31.5,23.7l-0.3-0.3l1.6-1.8l0.3,0.3L31.5,23.7"/>
<path class="st5" d="M27.3,21.4l-0.3-0.3l3.1-3.5l0.3,0.3L27.3,21.4"/>
<g>
	<g>
		<path class="st5" d="M34.1,27.6l-0.3-0.3l3.1-3.5l0.3,0.3L34.1,27.6"/>
	</g>
</g>
<g>
	<g>
		<path class="st2" d="M34.5,28l-7.9-7.1l3.5-3.9l7.9,7.1L34.5,28"/>
	</g>
</g>
<path class="st0" d="M31.5,23.7l-0.3-0.3l1.6-1.8l0.3,0.3L31.5,23.7"/>
<g>
	<g>
		<path class="st4" d="M31.4,31.4l-7.9-7.1l3.1-3.5l7.9,7.1L31.4,31.4"/>
	</g>
</g>
<path class="st5" d="M28.3,27.2L28,26.9l1.6-1.8l0.3,0.3L28.3,27.2"/>
<path class="st5" d="M24.1,24.9l-0.3-0.3l3.1-3.5l0.3,0.3L24.1,24.9"/>
<g>
	<g>
		<path class="st5" d="M31,31.1l-0.3-0.3l3.1-3.5l0.3,0.3L31,31.1"/>
	</g>
</g>
<g>
	<g>
		<path class="st2" d="M31.4,31.4l-7.9-7.1l3.5-3.9l7.9,7.1L31.4,31.4"/>
	</g>
</g>
<path class="st0" d="M28.3,27.2L28,26.9l1.6-1.8l0.3,0.3L28.3,27.2"/>
<g>
	<g>
		<path class="st4" d="M28.3,34.9l-7.9-7.1l3.1-3.5l7.9,7.1L28.3,34.9"/>
	</g>
</g>
<path class="st5" d="M25.2,30.6l-0.3-0.3l1.6-1.8l0.3,0.3L25.2,30.6"/>
<path class="st5" d="M21,28.4l-0.3-0.3l3.1-3.5l0.3,0.3L21,28.4"/>
<g>
	<g>
		<path class="st5" d="M27.9,34.6l-0.3-0.3l3.1-3.5l0.3,0.3L27.9,34.6"/>
	</g>
</g>
<g>
	<g>
		<path class="st2" d="M28.3,34.9l-7.9-7.1l3.5-4l7.9,7.1L28.3,34.9"/>
	</g>
</g>
<path class="st0" d="M25.2,30.6l-0.3-0.3l1.6-1.8l0.3,0.3L25.2,30.6"/>
<g>
	<g>
		<path class="st4" d="M25.2,38.4l-7.9-7.1l3.1-3.5l7.9,7.1L25.2,38.4"/>
	</g>
</g>
<path class="st5" d="M22.1,34.1l-0.3-0.3l1.6-1.8l0.3,0.3L22.1,34.1"/>
<path class="st5" d="M17.9,31.9l-0.3-0.3l3.1-3.5l0.3,0.3L17.9,31.9"/>
<g>
	<g>
		<path class="st5" d="M24.8,38l-0.3-0.3l3.1-3.5l0.3,0.3L24.8,38"/>
	</g>
</g>
<g>
	<g>
		<path class="st2" d="M25.2,38.4l-7.9-7.1l3.4-3.8l7.9,7.1L25.2,38.4"/>
	</g>
</g>
<path class="st0" d="M22.1,34.1l-0.3-0.3l1.6-1.8l0.3,0.3L22.1,34.1"/>
<g>
	<g>
		<path class="st4" d="M22.1,41.8l-7.9-7.1l3.1-3.5l7.9,7.1L22.1,41.8"/>
	</g>
</g>
<path class="st5" d="M19,37.6l-0.3-0.3l1.6-1.8l0.3,0.3L19,37.6"/>
<path class="st5" d="M14.8,35.3L14.5,35l3.1-3.5l0.3,0.3L14.8,35.3"/>
<g>
	<g>
		<path class="st5" d="M21.7,41.5l-0.3-0.3l3.1-3.5l0.3,0.3L21.7,41.5"/>
	</g>
</g>
<g>
	<g>
		<path class="st2" d="M22.1,41.8l-7.9-7.1l3.7-4.2l7.9,7.1L22.1,41.8"/>
	</g>
</g>
<path class="st0" d="M19,37.6l-0.3-0.3l1.6-1.8l0.3,0.3L19,37.6"/>
<g>
	<g>
		<path class="st4" d="M18.9,45.3L11,38.2l3.1-3.5l7.9,7.1L18.9,45.3"/>
	</g>
</g>
<path class="st5" d="M15.9,41l-0.3-0.3l1.6-1.8l0.3,0.3L15.9,41"/>
<g>
	<g>
		<path class="st5" d="M11.7,38.8l-0.3-0.3l3.1-3.5l0.3,0.3L11.7,38.8"/>
	</g>
</g>
<g>
	<g>
		<path class="st5" d="M18.6,45l-0.3-0.3l3.1-3.5l0.3,0.3L18.6,45"/>
	</g>
</g>
<g>
	<g>
		<path class="st2" d="M18.9,45.3L11,38.2l3.5-4l7.9,7.1L18.9,45.3"/>
	</g>
</g>
<path class="st0" d="M15.9,41l-0.3-0.3l1.6-1.8l0.3,0.3L15.9,41"/>
<g>
	<g>
		<path class="st0" d="M17.7,45.9l-0.3-0.3l26.5-29.5l0.3,0.3L17.7,45.9"/>
	</g>
</g>
<g>
	<g>
		<path class="st0" d="M10.8,40l-0.3-0.3L37,10.2l0.3,0.3L10.8,40"/>
	</g>
</g>
</svg>
