<svg xmlns="http://www.w3.org/2000/svg" xml:space="preserve" fill-rule="evenodd" stroke-linejoin="round" stroke-miterlimit="2" clip-rule="evenodd" viewBox="0 0 64 64">
  <g id="blue">
    <path fill="#cff3f7" d="M7.974 30.588a8.46 8.46 0 0 1-.226.003c-2.557 0-4.634-1.384-4.634-3.089 0-1.692 2.045-3.068 4.576-3.089l17.74-11.425a2.127 2.127 0 0 1-.072-.547c0-1.705 2.076-3.089 4.634-3.089 2.558 0 4.634 1.384 4.634 3.089 0 .502-.18.977-.5 1.396l21.184 17.1a6.847 6.847 0 0 1 1.251-.114c2.557 0 4.634 1.384 4.634 3.089 0 1.706-2.077 3.09-4.634 3.09-.556 0-1.09-.066-1.584-.186L36.402 48.949a2.1 2.1 0 0 1 .078.565c0 1.705-2.077 3.089-4.634 3.089-2.558 0-4.635-1.384-4.635-3.089 0-.657.309-1.267.835-1.768L7.974 30.588Zm20.197-15.305L11.613 25.797c.486.489.769 1.075.769 1.705 0 .641-.293 1.236-.795 1.73l20.104 17.194.155-.001c.687 0 1.34.1 1.927.279l18.359-11.88a2.162 2.162 0 0 1-.205-.912c0-.461.152-.9.425-1.293L30.854 15.477a6.95 6.95 0 0 1-.862.054 6.678 6.678 0 0 1-1.821-.248Z"/>
  </g>
  <g id="brown">
    <path fill="#66503a" d="M28.171 15.283a6.678 6.678 0 0 0 1.821.248c.294 0 .582-.019.862-.054l21.498 17.142a2.253 2.253 0 0 0-.425 1.293c0 .318.072.624.205.912l-18.359 11.88a6.63 6.63 0 0 0-1.927-.279l-.155.001-20.104-17.194c.502-.494.795-1.089.795-1.73 0-.63-.283-1.216-.769-1.705l16.558-10.514Z"/>
    <path fill="#d8c388" d="M20.474 11.486c.065.105.132.233.198.386.522 1.555.435 3.075-.107 4.569l7.118 8.943s3.642 5.697 3.16 6.127c-.634.421-5.4-4.271-5.4-4.271l-7.118-8.943s-2.931.596-4.678-.876a2.137 2.137 0 0 1-.4-.425c.166-.049.36-.151.595-.326l1.216-.948c.476.284 2.682 1.525 3.674.768.999-.891.274-3.202.099-3.709l1.393-1.086a2.62 2.62 0 0 0 .25-.209Z"/>
  </g>
  <g id="grey">
    <path fill="#444" d="M27.225 49.75 7.126 32.361c-2.412-.108-4.321-1.448-4.321-3.083 0-.436.136-.852.382-1.229.388 1.445 2.284 2.542 4.561 2.542.076 0 .151-.001.226-.003l20.072 17.158c-.526.501-.835 1.111-.835 1.768 0 .079.005.158.014.236ZM61 34.801c.127.281.195.579.195.888 0 1.705-2.077 3.089-4.634 3.089-.311 0-.616-.02-.91-.059L36.452 51.397c-.253 1.546-2.143 3.251-4.529 3.251-2.558 0-4.923-1.884-4.923-3.589v-1.504l.225.195s.099.567.222.738c.82 1.147 2.562 2.191 4.399 2.115 2.555-.105 4.634-1.384 4.634-3.089a2.1 2.1 0 0 0-.078-.565l18.575-12.133c.494.12 1.028.186 1.584.186 2.094 0 3.866-.929 4.439-2.201Z"/>
    <path fill="#9f9f9f" d="m27.641 25.332 2.282-1.803c2.231-1.704 2.223-1.551 3.487.35l4.133 5.114c.851 1.116 2.879 8.398-.147 10.666-3.035 2.421-10.168-.881-10.867-1.988l-4.133-5.114c-1.273-1.75-1.577-1.767.503-3.479l2.46-1.944.084.106s4.766 4.692 5.4 4.271c.482-.43-3.16-6.127-3.16-6.127l-.042-.052ZM12.274 14.751l6.382-4.975c1.115-.852 1.233-.235 1.663.247.43.481.86.963-.095 1.672l-6.382 4.975c-.955.708-1.233.235-1.663-.247-.421-.634-.86-.963.095-1.672Z"/>
  </g>
</svg>
