<svg xmlns="http://www.w3.org/2000/svg" xml:space="preserve" fill-rule="evenodd" stroke-linejoin="round" stroke-miterlimit="2" clip-rule="evenodd" viewBox="0 0 64 64">
  <g>
    <g id="grey">
      <path fill="#bdbdbd" d="M40.416 9.204c1.728-.768 3.381-.762 4.956 0 .251.939.383 2.004.383 3.088 0 3.408-1.282 6.174-2.861 6.174-1.58 0-2.862-2.766-2.862-6.174 0-1.084.132-2.149.384-3.088Zm.744 1.203a2.33 2.33 0 0 0-.277 1.102c0 1.216.928 2.205 2.07 2.205 1.143 0 2.071-.989 2.071-2.205 0-.387-.096-.767-.277-1.102-1.196-.57-2.391-.577-3.587 0Z"/>
      <path fill="#c9c9c9" d="M37.931 54.79a1.994 1.994 0 0 1-1.881-1.981v-9.14c0-1.094.89-1.983 1.985-1.983h9.72c1.094 0 1.983.889 1.983 1.983v9.14a1.986 1.986 0 0 1-1.942 1.984.744.744 0 0 0 .311-.605v-9.89a.746.746 0 0 0-.742-.743.746.746 0 0 0-.742.743v9.89c0 .25.123.471.313.605h-2.034a.742.742 0 0 0 .312-.605v-9.89a.746.746 0 0 0-.742-.743.746.746 0 0 0-.742.743v9.89c0 .25.123.471.312.605h-2.256a.74.74 0 0 0 .312-.605v-9.89a.746.746 0 0 0-.742-.699.746.746 0 0 0-.742.699v9.89c0 .25.124.471.313.605h-2.133a.74.74 0 0 0 .312-.605v-9.89a.746.746 0 0 0-.742-.699.746.746 0 0 0-.742.699v9.89a.74.74 0 0 0 .309.602Z"/>
      <path fill="#ccc" d="m19.532 49.543-2.166-6.244c-.407-.6-.007-.871.394-1.142l2.478-.811c.02.068.042.136.066.204.793 2.315 2.93 3.558 4.477 3.026 1.107-.381 1.338-2.83 1.63-5.418l2.494-.816c.535-.071.806.33 1.077.73 0 0 2.331 7.182 3.561 10.727l.073.549c-1.229-.102-3.336-2.37-4.337-1.692-.801.541-1.267 1.147-1.797 2.09-2.22-1.63-5.481-1.981-7.95-1.203Z"/>
      <path fill="#bdbdbd" d="M18.126 19.985c-.052.226-.276.346-.38.554-.304.612-1.567.735-1.922.111l-4.951-4.664a.92.92 0 0 1 .113-1.425.91.91 0 0 1 .248-.117c1.958-1.423 4.901-2.262 7.249-2.17a.918.918 0 0 1 1.158 1.081l-1.515 6.63Zm-1.102-3.298 1.152-1.514a.916.916 0 0 0-1.159-1.08c-1.154-.068-2.855.411-3.538 1.04a.92.92 0 0 0-.361 1.543l1.604.675c.311.293 1.568.131 1.922-.109a.912.912 0 0 0 .38-.555Z"/>
      <path fill="#bdbdbd" d="m19.961 39.324 5.47-1.796c.481.583.852 1.25 1.093 1.968.793 2.315.102 4.434-1.366 5.155-2.185 1.073-4.313-.572-4.854-3.101-.163-.762-.37-1.505-.343-2.226Z"/>
    </g>
    <g id="brown">
      <path fill="#d3a268" d="M41.498 41.686V17.655c.447.109.915.34 1.396.34.481 0 .948-.205 1.396-.314v24.005h-2.792Z"/>
      <path fill="#d8a155" d="m21.108 38.93-6.251-19.191.967.911c.357.54 1.466.566 1.754-.043.1-.209.328-.328.38-.553l.392-1.049 5.759 18.975-3.001.95Z"/>
      <path fill="#d8a155" d="M9.567 55.369h45.086v-1.098c-.006-2.408-1.986-4.387-4.394-4.394-1.098 0-2.196.439-2.855 1.098-.44-.219-1.099-.439-1.538-.439-.439 0-.659 0-1.099.22-.659-2.417-2.885-4.335-5.272-3.955-4.05.646-4.067 3.066-4.225 4.394-1.498-2.583-2.636-3.295-4.614-3.295-.879 0-1.538.22-2.417.659-1.098-3.076-3.734-5.053-7.029-5.053-3.735 0-6.81 2.856-7.469 6.591-2.408.007-4.387 1.986-4.394 4.393l.22.879Z"/>
    </g>
  </g>
</svg>
