<svg xmlns="http://www.w3.org/2000/svg" xml:space="preserve" fill-rule="evenodd" stroke-linejoin="round" stroke-miterlimit="2" clip-rule="evenodd" viewBox="0 0 64 64">
  <g id="grey">
    <path fill="#bdbdbd" d="M42.726 8.563c1.697-.754 3.319-.748 4.866 0 .246.922.376 1.967.376 3.031 0 3.346-1.259 6.062-2.809 6.062-1.551 0-2.81-2.716-2.81-6.062 0-1.064.13-2.109.377-3.031Zm.731 1.181a2.277 2.277 0 0 0-.272 1.082c0 1.194.911 2.164 2.032 2.164 1.122 0 2.033-.97 2.033-2.164 0-.38-.094-.753-.272-1.082-1.174-.56-2.347-.567-3.521 0Z"/>
    <path fill="#c9c9c9" d="M41.599 55.898a1.448 1.448 0 0 1-1.371-1.444v-7.761c0-.798.649-1.446 1.447-1.446h7.085c.798 0 1.446.648 1.446 1.446v7.761c0 .788-.632 1.43-1.416 1.446a.543.543 0 0 0 .227-.441v-8.308a.541.541 0 0 0-1.082 0v8.308c0 .182.09.343.228.441h-1.482a.542.542 0 0 0 .227-.441v-8.308a.541.541 0 0 0-1.082 0v8.308c0 .182.09.343.228.441h-1.645a.54.54 0 0 0 .228-.441v-8.308a.542.542 0 0 0-1.082 0v8.308c0 .182.09.343.228.441h-1.555a.54.54 0 0 0 .228-.441v-8.308a.542.542 0 0 0-1.082 0v8.308a.54.54 0 0 0 .225.439Z"/>
    <path fill="#ccc" d="m21 44.569 1.672-6.269c0-.712.474-.712.949-.712l2.461.703a4.66 4.66 0 0 0-.058.202c-.629 2.319.119 4.543 1.669 4.963 1.508.408 3.222-1.039 3.893-3.253l2.477.708c.474.237.474.712.474 1.186 0 0-1.186 4.034-2.135 7.594l-.243.486c-.943-.758-2.13-1.198-3.317-1.198-.949 0-1.661.237-2.611.712-.909-2.547-2.796-4.397-5.231-5.122Z"/>
    <path fill="#bdbdbd" d="M35.367 19.493a.9.9 0 0 1-1.491-.46l-1.462-6.516a.898.898 0 0 1 1.142-1.056c2.375-.08 4.483.591 6.342 1.957a.9.9 0 0 1 .348 1.516l-4.879 4.559Zm.918-3.289 1.769-.597a.9.9 0 0 0-.348-1.516c-.901-.69-1.802-.97-2.703-.834a.9.9 0 0 0-1.142 1.056l.933 1.431a.898.898 0 0 0 1.491.46Z"/>
    <path fill="#bdbdbd" d="m26.969 36.494 4.864 1.319a6.077 6.077 0 0 1-.193 2.202c-.629 2.319-2.397 3.861-3.947 3.441-1.55-.42-2.298-2.644-1.669-4.963.2-.738.526-1.427.945-1.999Z"/>
  </g>
  <g id="brown">
    <path fill="#d3a268" d="M44.256 45.247V17.31c.289.111.592.346.903.346.311 0 .613-.209.903-.32v27.911h-1.806Z"/>
    <path fill="#d8a155" d="M28.118 36.805 33.59 17.76l.286 1.273a.9.9 0 0 0 1.491.46l.414-.388-5.272 18.349-2.391-.649Z"/>
    <path fill="#d8a155" d="M7.952 56h48.312v-1.078a4.326 4.326 0 0 0-4.314-4.314c-1.078 0-2.156.431-2.803 1.078-.432-.215-1.079-.431-1.51-.431-.431 0-.647 0-1.079.216-.647-2.373-2.803-3.883-5.176-3.883-2.372 0-4.529 1.726-5.176 4.314-.432-.216-1.079-.431-1.51-.431-.431 0-1.078.215-1.51.431-.647-1.941-2.588-3.235-4.529-3.235-.863 0-1.51.216-2.373.647-1.078-3.02-3.666-4.961-6.901-4.961-3.667 0-6.686 2.804-7.333 6.471a4.326 4.326 0 0 0-4.314 4.313l.216.863Z"/>
  </g>
</svg>
