<!DOCTYPE svg PUBLIC "-//W3C//DTD SVG 1.1//EN" "http://www.w3.org/Graphics/SVG/1.1/DTD/svg11.dtd">
<!-- Uploaded to: SVG Repo, www.svgrepo.com, Transformed by: SVG Repo Mixer Tools -->
<svg width="800px" height="800px" viewBox="0 0 24 24" fill="none" xmlns="http://www.w3.org/2000/svg">
<g id="SVGRepo_bgCarrier" stroke-width="0"/>
<g id="SVGRepo_tracerCarrier" stroke-linecap="round" stroke-linejoin="round"/>
<g id="SVGRepo_iconCarrier"> <path d="M12 21H11M11 21H7M11 21V18C11 16.8954 10.1046 16 9 16C7.89543 16 7 16.8954 7 18V21M7 21H3V4.6C3 4.03995 3 3.75992 3.10899 3.54601C3.20487 3.35785 3.35785 3.20487 3.54601 3.10899C3.75992 3 4.03995 3 4.6 3H13.4C13.9601 3 14.2401 3 14.454 3.10899C14.6422 3.20487 14.7951 3.35785 14.891 3.54601C15 3.75992 15 4.03995 15 4.6V12M6 7H7M6 10H7M11 10H12M11 13H12M6 13H7M11 7H12M16 16L18.5 18.5M18.5 18.5L21 21M18.5 18.5L21 16M18.5 18.5L16 21" stroke="#ffffff" stroke-width="2" stroke-linecap="round" stroke-linejoin="round"/> </g>
</svg>