<svg xmlns="http://www.w3.org/2000/svg" xml:space="preserve" fill-rule="evenodd" stroke-linejoin="round" stroke-miterlimit="2" clip-rule="evenodd" viewBox="0 0 64 64">
  <g id="yellow">
    <path fill="#f4b947" fill-rule="nonzero" d="M8.127 51.05c-.349-.569.102-1.386.391-1.905.425-.774 1.063-1.36 2.602-2.279 1.855-1.106 3.249-1.658 3.249-1.658 3.394-1.344 5.307-2.101 8.259-2.764a42.852 42.852 0 0 1 8.581-1.047c1.65-.034 6.124-.034 11.635 1.353 1.786.45 4.142 1.054 6.957 2.458 3.904 1.956 6.481 4.337 6.174 4.864-.068.111-.221.094-.782.434-.578.349-.544.451-.783.553-.79.34-1.471-.689-2.857-.553-.204.017-.689.068-.842.374-.153.273.11.511.059.74-.161.715-3.487.647-5.137.613-3.351-.06-5.672-.068-5.723.246-.026.17.62.289 1.556 1.046.536.434.91.732.842.927-.153.485-3.104-.093-7.153-.552-4.626-.528-7.858-.579-7.935-.179-.059.272 1.353.612 1.302 1.046-.06.434-1.54.587-1.821.621-2.1.213-2.917-.323-5.851-.74-2.271-.323-3.41-.485-4.286-.374-.868.11-1.735.349-2.084-.06-.272-.331-.119-.961.127-1.352.417-.655 1.14-.74 1.106-.927-.051-.264-1.616-.23-3.385-.247-3.402-.034-3.98-.212-4.227-.621l.026-.017Z"/>
  </g>
  <g id="brown">
    <path fill="#814616" fill-rule="nonzero" d="M41.219 28.955c-.229.246-.323.553-.323.918 0 .383.085.842.128 1.361 0 0 .042.425 0 1.208 0 0-.017.442-.085 1.08 0 0-.119 1.191-.375 2.322-.578 2.585-2.891 5.783-2.577 6.004.018.009.018 0 .273.017.187.017.314.043.484.051.06 0 .29.026.749.102.952.162 1.327.647 1.599.468.093-.051.178-.187.068-2.534v-.102c0-.213.034-.681.391-3.777.077-.663.068-.782.179-1.641a16.66 16.66 0 0 1 .255-1.514c.068-.306.136-.57.204-.816.604-2.169 1.225-2.935.884-3.36-.323-.408-1.369-.315-1.845.187l-.009.026Z"/>
    <path fill="#966418" fill-rule="nonzero" d="M32.374 18.927c-.544.783-.17 1.803.068 2.654.451 1.59.332 3.283.519 4.924.111.987.009 3.164-.196 7.51 0 0 .043 4.176-.654 6.039-.094.255-.17.518-.273.774-.144.382-.204.578-.178.62.102.205.697.12 1.225.051.127-.017.221-.034.391-.042.17-.009.28 0 .672.042.552.052.561.06.706.069.238.017.416.017.569.017.392-.009.477-.052.723-.026.179.026.221.051.46.119.459.119.799.204.927.102.272-.221-.366-1.344-.8-2.364-.306-.732-.544-1.735-.978-3.751a64.657 64.657 0 0 1-.782-4.431c-.153-1.123-.409-2.892-.519-4.984-.281-5.111.485-7.731-.459-8.062-.46-.162-1.123.306-1.429.739h.008Z"/>
    <path fill="#834516" fill-rule="nonzero" d="M26.914 27.79c-.119.085-.17.255-.093 1.207.034.4.068.723.093.944 0 0 .145.851.196 4.125.025 1.633.059 3.776-.842 6.03-.238.596-.579 1.361-.255 1.659.255.238.697-.051 1.82-.128 1.241-.076 1.658.23 1.888-.042.331-.392-.417-1.217-.978-2.85-.4-1.156-.477-2.058-.587-3.266-.085-.986-.06-1.998 0-3.997.059-2.084.332-3.121-.323-3.572-.273-.187-.706-.281-.91-.127l-.009.017Z"/>
    <path fill="#834516" d="m32.939 31.947.18-.831c.147.032.401.057.697-.045a1.74 1.74 0 0 0 .429-.245l.511.68a2.582 2.582 0 0 1-.656.366l-.004.002c-.488.17-.913.126-1.157.073Zm.199 3.738.14-.839c.219.036.605.065 1.051-.044a2.6 2.6 0 0 0 .604-.241l.41.745a3.445 3.445 0 0 1-.807.321h-.002a3.526 3.526 0 0 1-1.396.058Zm-.512 4.163.075-.847c.462.04 1.265.09 2.198-.064a6.67 6.67 0 0 0 1.254-.319l.301.796a7.533 7.533 0 0 1-1.417.362 9.6 9.6 0 0 1-2.411.072Z"/>
    <path fill="#d5aa7f" d="m27.119 39.622-.741-.895.596-.468 6.483 7.84 4.777-.313.085.629-4.362.289L35.856 49l3.982-2.177-8.671-9.712.374-.289 9.211 10.316-.375.289-.203-.228-3.999 2.187.146.176-.596.468-2.699-3.264-6.393.423-.085-.638.225-.014.067-.037.279-6.878Zm5.406 6.538-1.255-1.518-3.331 1.818 4.586-.3Zm-1.576-1.906-3.228-3.903-.235 5.796 3.463-1.893Z"/>
  </g>
  <g id="green" fill-rule="nonzero">
    <path fill="#0bb683" d="M27.135 27.347c-.17-.11.136-.799.391-1.352.477-1.046.715-1.573 1.174-2.058a4.678 4.678 0 0 1 2.05-1.352c.374-.128 1.718-.545 3.155.059 1.565.655 2.296 2.135 2.177 2.245-.068.06-.391-.297-1.207-.586-.63-.222-1.268-.307-1.302-.213-.017.051.196.127.46.374.314.289.57.715.484.8-.102.102-.578-.417-1.462-.672 0 0-1.251-.366-2.535.212-.391.179-.689.4-.655.494.034.093.383-.026.817.153.212.085.476.263.459.374-.042.153-.612-.043-1.335.119-.536.128-1.055.468-2.075 1.14-.315.212-.494.34-.587.272l-.009-.009Z"/>
    <path fill="#4cc679" d="M27.084 27.296c.077-.204.349-.272.808-.374 1.208-.255 1.812-.374 2.245-.34.902.085 1.54.451 1.982.706 1.999 1.165 2.705 3.045 2.696 3.045 0 0-.442-.962-1.395-1.259-.289-.094-.672-.136-.714-.034-.043.093.213.229.459.553.315.416.434.91.357.952-.102.051-.51-.799-1.53-1.573-.664-.494-1.302-.757-1.37-.681-.042.06.315.298.553.834.094.221.221.595.128.646-.111.06-.434-.451-1.038-.927-.85-.663-1.897-.969-2.016-.799-.059.093.179.238.392.706.229.493.314 1.088.195 1.139-.136.051-.366-.612-1.267-1.718-.332-.408-.578-.663-.485-.893v.017Z"/>
    <path fill="#4cc679" d="M17.355 21.249c-.094-.119.459-.689.944-1.071.467-.375 1.241-.995 2.475-1.2.221-.042 1.318-.204 2.568.273 1.165.45 1.829 1.199 2.237 1.692.825.97 1.122 1.914 1.335 2.586.57 1.828.485 3.631.289 3.665-.119.017-.153-.612-.655-1.539-.263-.485-.91-1.684-2.211-2.365-.859-.45-1.675-.51-1.658-.705.017-.222 1.08-.222 1.105-.46.017-.153-.391-.348-.782-.433-1.25-.273-2.313.552-2.441.374-.085-.119.306-.596.816-.834.273-.119.451-.119.46-.187 0-.127-.808-.366-1.659-.366-.978 0-1.93.315-2.075.366-.442.153-.689.289-.748.213v-.009Z"/>
    <path fill="#179d78" d="M27.348 27.722c-.077-.553-1.233-.825-1.786-.953-.502-.119-1.795-.4-3.283.119a5.331 5.331 0 0 0-2.177 1.446c-.332.357-.579.714-.519.774.059.051.383-.255 1.012-.493.179-.069.723-.281.808-.154.025.034.034.12-.68.953-.341.4-.502.561-.485.578.034.043.57-.459 1.301-.918 1.131-.715 2.177-.961 2.211-.893.026.051-.493.255-.91.825-.042.068-.314.451-.229.527.085.077.416-.23 1.046-.527.153-.068.221-.094 1.59-.519.647-.204.978-.298 1.004-.247.034.068-.289.204-.587.553-.408.493-.553 1.157-.417 1.233.068.034.179-.076 1.004-.927 1.029-1.063 1.131-1.199 1.105-1.386l-.008.009Z"/>
    <path fill="#0bb683" d="M27.331 27.636c-.085.06-.391-.263-1.369-.893-.536-.34-.808-.518-1.047-.552-.876-.145-1.539.586-1.726.399-.119-.119.042-.544.332-.765.178-.145.365-.162.357-.213 0-.076-.366-.119-.715-.093-.136.008-.595.059-1.267.433-.536.298-.74.545-.808.494-.093-.077.153-.596.485-1.021.357-.451.672-.621.621-.706-.06-.102-.664.043-1.165.272-.289.137-1.055.494-1.659 1.293-.314.417-.391.706-.485.681-.144-.034-.212-.732.06-1.327.145-.315.315-.451.264-.519-.094-.128-.715.085-1.208.374-.17.102-.851.519-1.429 1.446-.408.655-.519 1.157-.621 1.14-.119-.026-.093-.681 0-1.233.111-.681.264-1.633 1.046-2.552.239-.281.893-1.038 2.016-1.378 1.25-.391 2.339-.034 3.479.34 2.075.681 3.24 1.872 3.478 2.127.953 1.012 1.505 2.168 1.369 2.279l-.008-.026Z"/>
    <path fill="#179d78" d="M41.585 28.751c-.119-.153.4-.715.825-1.166.8-.85 1.199-1.267 1.795-1.607a4.98 4.98 0 0 1 2.398-.672c.391 0 1.812 0 2.968.995 1.267 1.089 1.472 2.713 1.318 2.781-.085.043-.28-.399-.944-.91-.518-.399-1.105-.663-1.165-.595-.034.042.145.179.306.485.205.374.307.85.196.901-.128.068-.408-.57-1.165-1.08 0 0-1.063-.714-2.475-.553-.425.051-.783.179-.783.272 0 .103.366.094.715.383.17.145.374.391.306.485-.085.128-.57-.23-1.301-.281-.553-.042-1.157.128-2.356.46-.366.102-.578.17-.646.085l.008.017Z"/>
    <path fill="#0bb683" d="M42.087 28.3c-.196-.085 0-.817.153-1.403.289-1.106.434-1.659.799-2.212.213-.323.74-1.114 1.786-1.65.349-.178 1.608-.799 3.122-.425 1.658.408 2.636 1.752 2.543 1.88-.06.068-.443-.23-1.293-.392-.655-.127-1.301-.102-1.318-.017-.009.06.212.094.519.298.357.238.688.621.62.715-.085.119-.646-.324-1.556-.443 0 0-1.301-.161-2.466.604-.349.23-.604.493-.553.578.051.094.382-.076.833.034.221.051.519.179.51.29-.008.153-.612.051-1.292.323-.511.212-.961.621-1.863 1.446-.272.255-.434.408-.527.365l-.017.009Z"/>
    <path fill="#4cc679" d="M42.053 28.589c.144-.162.425-.153.893-.102 1.233.119 1.837.179 2.237.349.833.357 1.309.884 1.65 1.267 1.505 1.709 1.547 3.691 1.539 3.691 0 0-.094-1.038-.902-1.607-.246-.179-.586-.324-.671-.247-.068.077.127.289.246.663.153.494.102.995.017 1.012-.119.017-.221-.91-.927-1.947-.468-.672-.995-1.106-1.071-1.046-.06.042.204.374.246.952.017.238.017.63-.093.655-.128.026-.255-.553-.681-1.182-.587-.885-1.48-1.488-1.65-1.361-.085.068.085.281.136.791.051.527-.059 1.123-.195 1.131-.145.017-.145-.689-.63-2.015-.178-.494-.331-.8-.17-.995l.026-.009Z"/>
    <path fill="#4cc679" d="M34.5 19.88c-.042-.136.672-.51 1.251-.74.57-.221 1.514-.578 2.747-.4a5.007 5.007 0 0 1 2.347 1.029c.961.774 1.327 1.684 1.565 2.271.459 1.165.434 2.152.408 2.849-.068 1.905-.748 3.598-.944 3.564-.119-.017.06-.621-.102-1.659-.085-.535-.306-1.862-1.31-2.908-.663-.681-1.42-.987-1.335-1.165.094-.204 1.097.119 1.199-.111.068-.145-.255-.451-.595-.646-1.089-.638-2.381-.17-2.432-.375-.043-.136.484-.476 1.046-.544.289-.034.467.017.493-.042.06-.128-.638-.596-1.446-.842-.935-.29-1.939-.273-2.101-.273-.467.009-.757.069-.782-.017l-.009.009Z"/>
    <path fill="#0bb683" d="M42.002 28.819c.11-.553-.893-1.149-1.378-1.438-.442-.263-1.565-.91-3.164-.859a5.57 5.57 0 0 0-2.543.723c-.442.238-.791.511-.757.579.034.068.451-.128 1.123-.171.196-.008.782-.042.816.103.017.042 0 .127-.969.697-.459.272-.672.383-.655.408.025.043.697-.272 1.539-.485 1.319-.34 2.39-.263 2.399-.187 0 .051-.553.094-1.14.511-.068.051-.442.331-.391.433.051.102.468-.093 1.165-.187.17-.025.247-.025 1.684-.017.689 0 1.029 0 1.038.068.017.068-.341.111-.74.349-.553.34-.919.935-.808 1.046.051.051.195-.017 1.267-.578 1.327-.706 1.471-.8 1.505-.987l.009-.008Z"/>
    <path fill="#4cc679" d="M41.917 28.453c-.102.034-.281-.374-1.004-1.259-.391-.485-.595-.731-.799-.842-.791-.4-1.659.102-1.769-.127-.077-.153.221-.511.57-.638.221-.077.399-.043.408-.094.017-.076-.315-.229-.647-.297-.136-.034-.595-.12-1.343.034-.613.127-.885.297-.936.229-.068-.093.34-.519.8-.816.493-.323.842-.4.816-.485-.017-.128-.646-.153-1.199-.085a4.404 4.404 0 0 0-2.007.731c-.434.307-.604.553-.689.494-.128-.077.042-.757.502-1.234.238-.255.45-.331.416-.416-.051-.153-.706-.136-1.267-.009-.196.043-.978.238-1.837.944-.612.511-.876.953-.97.902-.102-.051.145-.664.417-1.165.332-.604.791-1.472 1.837-2.11.315-.195 1.191-.714 2.373-.714 1.318 0 2.228.663 3.189 1.361 1.744 1.267 2.45 2.747 2.594 3.053.57 1.242.706 2.517.536 2.568l.009-.025Z"/>
    <path fill="#4cc679" d="M33.522 19.081c-.195-.154.29-.876.689-1.463.74-1.106 1.114-1.65 1.752-2.135a5.938 5.938 0 0 1 2.722-1.208c.476-.085 2.194-.348 3.861.545 1.82.969 2.492 2.747 2.33 2.849-.093.059-.442-.392-1.386-.842-.731-.349-1.505-.536-1.565-.434-.034.051.213.162.502.485.34.374.595.884.476.969-.144.102-.646-.561-1.692-.986 0 0-1.48-.596-3.138-.145-.502.145-.902.349-.876.459.025.111.476.034.969.298.247.128.553.366.502.485-.077.161-.74-.145-1.65-.068-.68.059-1.369.357-2.73.969-.417.188-.655.298-.757.222h-.009Z"/>
    <path fill="#0bb683" d="M32.919 19.081c.119-.213.467-.256 1.054-.29 1.514-.102 2.279-.153 2.798-.042 1.097.229 1.82.731 2.331 1.097 2.27 1.607 2.849 3.819 2.84 3.827 0 0-.391-1.148-1.522-1.624-.349-.153-.791-.247-.868-.145-.068.102.222.289.468.689.315.51.391 1.089.289 1.123-.144.042-.501-.978-1.633-1.99-.74-.655-1.488-1.038-1.573-.961-.068.059.34.374.553 1.012.085.263.178.705.059.748-.153.051-.459-.57-1.131-1.191-.944-.876-2.177-1.369-2.356-1.199-.093.085.179.298.366.851.204.578.221 1.267.068 1.301-.179.042-.357-.74-1.293-2.126-.348-.519-.604-.825-.459-1.08h.009Z"/>
    <path fill="#179d78" d="M22.058 11.12c-.094-.145.672-.706 1.327-1.063.629-.357 1.675-.936 3.214-.978.281 0 1.642-.017 3.105.697 1.369.681 2.058 1.625 2.492 2.237.859 1.216 1.08 2.313 1.241 3.104.417 2.135.034 4.159-.204 4.159-.144 0-.085-.706-.561-1.828-.247-.587-.859-2.025-2.347-2.994-.978-.638-1.982-.825-1.931-1.046.068-.247 1.369-.077 1.429-.349.042-.17-.434-.451-.893-.604-1.489-.502-2.926.272-3.045.051-.085-.144.468-.629 1.123-.816.348-.094.578-.068.586-.136.035-.153-.927-.545-1.981-.664-1.208-.144-2.416.068-2.611.102-.561.102-.893.213-.953.128h.009Z"/>
    <path fill="#0bb683" d="M33.352 19.548c-.017-.638-1.386-1.105-2.049-1.343-.604-.213-2.135-.715-4.049-.358-1.539.289-2.492.995-2.9 1.293-.468.349-.816.714-.757.783.06.068.502-.23 1.31-.4.23-.051.927-.204 1.021-.051.025.042.025.144-.987.969-.476.4-.706.553-.689.579.043.051.766-.434 1.744-.842 1.496-.63 2.815-.757 2.849-.664.025.06-.647.204-1.242.791-.068.068-.451.451-.357.553.093.102.544-.187 1.352-.425.196-.06.289-.077 2.041-.349.834-.127 1.242-.187 1.276-.119.034.077-.391.187-.808.536-.578.493-.859 1.216-.706 1.318.077.043.238-.051 1.378-.884 1.429-1.038 1.582-1.174 1.573-1.387Z"/>
    <path fill="#4cc679" d="M33.318 19.531c-.119.06-.433-.357-1.539-1.207-.604-.468-.919-.706-1.191-.774-1.054-.298-1.981.425-2.177.187-.128-.153.136-.604.519-.817.246-.127.476-.127.476-.187 0-.085-.442-.187-.867-.212-.171-.009-.74-.026-1.625.289-.706.255-.995.502-1.072.433-.102-.093.281-.646.757-1.071.502-.459.919-.595.868-.706-.06-.128-.825-.043-1.48.136-.374.102-1.369.4-2.228 1.208-.451.416-.587.723-.706.68-.179-.059-.145-.85.281-1.471.229-.323.459-.451.399-.545-.102-.153-.893-.017-1.531.239-.229.085-1.122.45-1.981 1.403-.613.68-.808 1.225-.936 1.182-.136-.042 0-.765.196-1.378.238-.74.57-1.794 1.667-2.713a5.395 5.395 0 0 1 2.687-1.25c1.599-.247 2.875.315 4.21.902 2.441 1.071 3.691 2.585 3.947 2.908 1.02 1.276 1.513 2.662 1.326 2.764Z"/>
    <path fill="#0bb683" d="M33.531 18.944c.127 0 .196-.51.731-1.76.29-.68.443-1.029.647-1.225.774-.74 1.947-.536 1.998-.833.034-.196-.433-.468-.867-.477-.281 0-.476.103-.502.052-.042-.077.281-.375.646-.579.145-.085.638-.357 1.565-.485.749-.102 1.123-.017 1.157-.119.043-.136-.578-.433-1.208-.587-.68-.17-1.105-.11-1.114-.212-.017-.145.689-.425 1.361-.561.383-.077 1.403-.29 2.568.025.604.162.885.374.97.281.119-.136-.306-.817-1.004-1.165-.365-.179-.637-.188-.629-.298 0-.179.774-.425 1.463-.493.247-.026 1.216-.119 2.449.323.876.314 1.336.697 1.421.604.102-.102-.383-.681-.868-1.123-.587-.544-1.42-1.301-2.849-1.607-.434-.094-1.624-.324-2.985.136-1.531.518-2.356 1.59-3.224 2.721-1.59 2.058-1.905 3.963-1.964 4.355-.23 1.582.042 3.027.255 3.019l-.017.008Z"/>
  </g>
  <g id="black" fill-rule="nonzero">
    <path d="M27.076 29.746c.153.017.416.034.731-.034.179-.034.323-.094.425-.145"/>
    <path d="M41.041 30.605a2.06 2.06 0 0 0 1.403.042"/>
    <path d="M27.178 33.046c.119.017.331.034.578-.034.145-.043.255-.094.332-.145"/>
    <path d="M41.815 33.258a.901.901 0 0 1-.485-.034.94.94 0 0 1-.281-.153"/>
    <path d="M26.965 37.417c.162.026.442.043.766-.034.187-.042.34-.102.442-.161"/>
    <path d="M41.577 35.674c-.12.017-.315.034-.545-.026a1.148 1.148 0 0 1-.314-.127"/>
    <path d="M41.151 39.458a1.563 1.563 0 0 1-1.097-.093 2.418 2.418 0 0 1-.638-.46"/>
  </g>
  <g id="blue">
    <path fill="#9ac2e3" d="m26.596 38.556-1.425-8.121c-.034-.188.042-.29.229-.324.196-.034.306.043.332.23l1.429 8.145-.187-.227-.378.297Zm.46 2.619-.363-2.068.426.515-.063 1.553Zm.622.252.418 2.386c.034.187-.051.297-.238.323h-.042l.008.009c-.123 0-.205-.04-.252-.123l.106-2.595Z"/>
    <path fill="#93bcdb" d="m34.999 32.391-.005-.009.008.009h-.003Zm0 0a.811.811 0 0 1 .071.187c.264.723-.323 1.531-1.292 1.82-.979.289-1.974-.068-2.229-.783-.246-.68.255-1.437 1.131-1.76.026.017.043.034.068.042.222.145.46.264.715.366.264.111.544.179.833.196.237.008.474-.017.703-.068Zm-15.824 2.143c1.012-.043 1.811.544 1.777 1.31-.034.765-.876 1.429-1.888 1.471-.995.051-1.803-.544-1.803-1.293.119-.059.255-.127.374-.178.204-.102.417-.179.621-.264.204-.076.4-.179.578-.298a1.02 1.02 0 0 0 .332-.331.434.434 0 0 0-.017-.383c-.008-.017-.008-.026-.008-.034h.034Zm8.981.221a.926.926 0 0 1-.034.544c-.06.188-.153.358-.298.519a1.804 1.804 0 0 1-.527.408 2.261 2.261 0 0 1-.672.239 2.573 2.573 0 0 1-.714.034 1.904 1.904 0 0 1-.647-.179 1.525 1.525 0 0 1-.485-.357 1.098 1.098 0 0 1-.246-.485.987.987 0 0 1 .034-.544 1.39 1.39 0 0 1 .297-.519c.145-.162.315-.298.528-.408a2.25 2.25 0 0 1 .672-.238 2.52 2.52 0 0 1 .714-.035c.23.026.451.086.646.179.196.094.358.213.477.357.119.145.204.315.246.485h.009Z"/>
    <path fill="#bfdde7" d="M24.541 35.444c.026.765-.765 1.454-1.769 1.539-.995.094-1.828-.459-1.854-1.216-.017-.765.766-1.454 1.769-1.539.995-.094 1.829.459 1.846 1.216h.008Zm7.144-1.488a.993.993 0 0 1-.025.544c-.06.187-.153.357-.289.519a1.93 1.93 0 0 1-.519.408 2.457 2.457 0 0 1-.664.247 2.443 2.443 0 0 1-.705.042 2.047 2.047 0 0 1-.647-.17 1.393 1.393 0 0 1-.476-.357 1.263 1.263 0 0 1-.247-.485.993.993 0 0 1 .026-.544c.051-.187.144-.357.289-.519.145-.162.315-.298.519-.408.204-.119.425-.196.655-.247.238-.051.476-.059.706-.042.229.025.442.076.646.17.196.093.357.212.476.357.119.144.204.306.247.485h.008Z"/>
    <path fill="#9fc9eb" d="m25.043 29.099-4.133 6.762a43.451 43.451 0 0 1-3.64.153c2.594-2.305 5.179-4.61 7.773-6.915Zm0 0c3.317 1.097 6.642 2.195 9.968 3.283v.009a47.196 47.196 0 0 1-3.402 1.284l-6.566-4.576Zm3.062 5.588a46.418 46.418 0 0 1-3.572.731l.51-6.31c1.021 1.862 2.041 3.716 3.062 5.579Z"/>
  </g>
  <g id="white" fill="#fff" fill-rule="nonzero">
    <path d="M24.533 35.418a47.713 47.713 0 0 1-3.623.451l4.133-6.761-.51 6.31Z"/>
    <path d="M31.609 33.675a50.063 50.063 0 0 1-3.504 1.012c-1.021-1.863-2.041-3.717-3.062-5.579l6.566 4.575v-.008Z"/>
  </g>
  <g id="red">
    <path fill="#f14624" fill-rule="nonzero" d="m41.432 44.255-3.172 2.347s.229-.476-.358-.578c-.059-.008-.119-.017-.195-.017-.264-.008-.579 0-.927.017-.332.009-.689.034-1.055.043-.459.017-.927.025-1.344 0-.595-.034-1.105-.119-1.386-.341l-.204-.246-.51-.621-1.063-1.293-.528-.646-.876-1.055-.561-.68-.706-.851-.561-.68-.859-1.038 4.465-1.165s.255-.127.417.136c.11.187.263.417.442.681.127.204.28.425.442.654.204.298.434.621.655.945.153.212.306.433.459.646.179.255.357.502.527.74.162.229.315.434.46.629.229.315.425.57.561.74.043.06.094.119.145.179.212.238.408.408.578.536.476.331.791.297.791.297h4.116c.434-.008.264.647.264.647"/>
  </g>
  <g id="orange">
    <path fill="#f68b1d" d="M41.064 43.634a.419.419 0 0 0 .028-.017v.017h-.028Zm0 0a20.165 20.165 0 0 0-3.153 2.39c-.06-.008-.119-.017-.196-.017-.263-.008-.578 0-.927.017a20.743 20.743 0 0 1 2.866-2.39h1.41Zm-8.188-4.72a21.226 21.226 0 0 1-4.337 1.412l-.562-.681a20.646 20.646 0 0 0 4.457-1.386c.127.204.28.425.442.655Zm1.114 1.59a21.645 21.645 0 0 1-4.184 1.361l-.562-.68c1.523-.298 2.96-.74 4.287-1.327.153.213.306.434.459.646Zm.987 1.37a21.367 21.367 0 0 1-3.768 1.692l-.527-.646a21.027 21.027 0 0 0 3.835-1.676c.162.23.315.434.46.63Zm1.284 1.446a21.215 21.215 0 0 1-3.479 2.151l-.51-.621a20.441 20.441 0 0 0 3.402-2.066c.213.238.408.408.578.536h.009Zm2.152.297a20.5 20.5 0 0 1-2.679 2.441c-.46.017-.927.026-1.344 0a19.726 19.726 0 0 0 2.943-2.441h1.08Z"/>
  </g>
</svg>
