<svg xmlns="http://www.w3.org/2000/svg" xml:space="preserve" fill-rule="evenodd" stroke-linejoin="round" stroke-miterlimit="2" clip-rule="evenodd" viewBox="0 0 64 64">
  <g id="blue">
    <path fill="#d1f8fd" d="M9.532 14.115a3.32 3.32 0 1 1 4.583-4.583h35.77a3.32 3.32 0 1 1 4.583 4.583v35.77a3.32 3.32 0 1 1-4.583 4.583h-35.77a3.32 3.32 0 1 1-4.583-4.583v-35.77Zm39.919-2.03H14.549a3.327 3.327 0 0 1-2.464 2.464v34.902a3.327 3.327 0 0 1 2.464 2.464h34.902a3.327 3.327 0 0 1 2.464-2.464V14.549a3.327 3.327 0 0 1-2.464-2.464Z"/>
  </g>
  <g id="orange">
    <path fill="#edb666" d="M49.451 12.085a3.327 3.327 0 0 0 2.464 2.464v34.902a3.327 3.327 0 0 0-2.464 2.464H14.549a3.327 3.327 0 0 0-2.464-2.464V14.549a3.327 3.327 0 0 0 2.464-2.464h34.902Z"/>
    <path fill="#f46f2a" d="m14.439 12.454.124-.001.053 2.936-2.531.007v-.847a3.329 3.329 0 0 0 2.354-2.095Zm-2.354 6.408 2.642-.007.053 2.935-2.695.008v-2.936Zm0 10.344.049 2.685h-.049v-2.685Zm0 2.99 3.03-.008.053 2.936-3.083.008v-2.936Zm0 3.282h.308l.053 2.936-.361.001v-2.937Zm0 3.385 3.223-.008.054 2.935-3.277.009v-2.936Zm0 3.283.502-.002.053 2.937-.555.001v-2.936Zm0 6.667.696-.002.016.897a3.358 3.358 0 0 0-.712-.257v-.638Zm.833.959-.02-1.104 5.226-.015.2 3.058-3.854-.077a3.334 3.334 0 0 0-1.552-1.862Zm38.997-8.043-2.802.008-.054-2.936 2.856-.008v2.936Zm0-3.284-.081.001-.053-2.936h.134v2.935Zm0-3.261-2.849.007-.054-2.935 2.903-.008v2.936Zm0-3.283-.127.001-.053-2.936h.18v2.935Zm0-6.607-.567.001-.053-2.935.62-.002v2.936Zm0-3.301-3.355.009-.053-2.935 3.408-.011v2.937Zm0-3.426-.515.001-.053-2.935.568-.002v2.936Zm0-3.241-3.549.01-.053-2.936 1.227-.003a3.331 3.331 0 0 0 2.375 2.152v.777Zm-20.561-.066-5.491.036-.054-2.936 5.225-.014.32 2.914Zm-8.479 3.347-5.225.015-.053-2.936 5.225-.014.053 2.935Zm14.163 3.283-5.225.016-.053-2.936 5.225-.015.053 2.935Zm-13.969 3.384-5.225.015-.054-2.936 5.226-.015.053 2.936Zm-5.49.036-5.225.015-.054-2.936 5.224-.015.055 2.936Zm.164 6.401-5.225.015-.053-2.936 5.225-.014.053 2.935Zm5.831 6.753-5.224.015-.053-2.936 5.224-.014.053 2.935Zm-3.155-16.588-5.225.015-.053-2.936 5.225-.014.053 2.935Zm5.296-6.702-5.225.015-.053-2.936 5.225-.015.053 2.936Zm14.092 9.971-5.225.014-.054-2.935 5.225-.015.054 2.936Zm-8.213 3.326-5.225.015-.053-2.935 5.224-.016.054 2.936Zm5.25-13.246-5.225.014-.053-2.936 5.225-.015.053 2.937Zm-5.056 19.912-5.225.016-.054-2.936 5.225-.015.054 2.935Zm-5.685-6.63-5.225.015-.053-2.936 5.225-.015.053 2.936Zm8.212-3.326-5.225.014-.053-2.935 5.225-.015.053 2.936Zm-8.406-3.341-5.225.016-.053-2.937 5.225-.014.053 2.935Zm-4.938 19.771-5.225.015-.054-2.936 5.225-.015.054 2.936Zm13.585-3.219-5.225.014-.054-2.935 5.225-.015.054 2.936ZM40 31.811l-5.225.015-.053-2.936 5.225-.014.053 2.935Zm-5.491.037-5.225.014-.053-2.936 5.225-.014.053 2.936Zm-8.212 3.326-5.225.014-.054-2.936 5.225-.014.054 2.936Zm7.707-16.517-5.225.015-.053-2.936 5.225-.014.053 2.935Zm3.539 16.423-5.224.015-.053-2.936 5.224-.014.053 2.935Zm.047 6.546-5.224.014-.055-2.935 5.225-.016.054 2.937Zm2.962 9.92-5.225.015-.053-2.936 5.225-.015.053 2.936ZM18.13 45.045l-5.225.014-.053-2.935 5.225-.015.053 2.936ZM42.463 15.27l-5.225.016-.054-2.936 5.225-.015.054 2.935Zm3.421 16.567-5.225.015-.053-2.936 5.225-.015.053 2.936Zm-2.721 3.29-5.225.014-.054-2.935 5.224-.015.055 2.936Zm2.915 3.376-5.225.015-.053-2.935 5.225-.016.053 2.936Zm-3.228-9.9-5.225.016-.053-2.937 5.225-.014.053 2.935Zm-7.788 22.979-5.225.015-.053-2.936 5.225-.015.053 2.936Zm-11.441-6.573-5.224.014-.055-2.936 5.225-.014.054 2.936Zm16.885-.007-5.225.014-.054-2.936 5.226-.014.053 2.936Zm-5.638-.087-5.225.015-.053-2.936 5.225-.014.053 2.935ZM51.135 18.59l-5.225.015-.053-2.936 5.225-.015.053 2.936Zm-8.479 3.347-5.225.015-.053-2.935 5.225-.016.053 2.936Zm9.031 16.388-5.225.014-.053-2.936 5.225-.014.053 2.936ZM32.293 48.328l-5.225.014-.053-2.936 5.225-.014.053 2.936Zm16.554-6.571-5.225.016-.054-2.937 5.225-.014.054 2.935Zm-5.491.037-5.225.014-.053-2.936 5.224-.014.054 2.936Zm.066 6.487-5.225.014-.053-2.935 5.225-.015.053 2.936Zm-16.813-6.584-5.491.036-.053-2.935 5.225-.016.319 2.915Zm21.85-13.272-5.225.015-.053-2.936 5.225-.015.053 2.936Zm.876 19.999-5.372-.106-.054-2.936 5.225-.016.201 3.058ZM46.291 51.6l-5.225.016-.054-2.937 5.226-.015.053 2.936Zm-.794-33.096-5.225.014-.054-2.935 5.225-.015.054 2.936Zm-18.694 29.86-5.225.014-.053-2.935 5.225-.015.053 2.936Zm21.364-26.462-5.225.015-.054-2.936 5.225-.015.054 2.936Z"/>
    <path fill="#c64d23" d="m49.552 51.571-2.996.008-.053-2.935 5.225-.016.015.867a3.335 3.335 0 0 0-2.191 2.076ZM20.659 35.087l-5.225.016-.053-2.937 5.225-.014.053 2.935Zm30.716-3.286-5.225.015-.053-2.936 5.225-.015.053 2.936Zm-19.276 9.86-5.225.015-.053-2.936 5.225-.015.053 2.936Zm-.551-19.735-5.225.015-.054-2.936 5.224-.014.055 2.935Zm-11.442-6.573-5.225.014-.053-2.935 5.225-.015.053 2.936Z"/>
    <path fill="#dd5825" d="m17.937 38.378-5.225.015-.054-2.936 5.225-.015.054 2.936ZM48.1 15.356l-5.224.016-.054-2.937 5.225-.014.053 2.935ZM21.164 48.278l-5.225.014-.053-2.936 5.225-.014.053 2.936Zm19.03-9.8-5.225.015-.053-2.936 5.225-.015.053 2.936Zm11.687 6.513-5.225.015-.054-2.936 5.225-.015.054 2.936ZM28.678 25.095l-5.344.157-.053-2.935 5.225-.015.172 2.793Zm-8.065 3.448-5.225.015-.054-2.936 5.225-.015.054 2.936Zm8.646 16.552-5.372-.107-.053-2.937 5.225-.014.2 3.058Zm19.394-10.004-5.225.015-.053-2.935 5.225-.016.053 2.936Zm2.43-9.774-5.225.015-.054-2.936 5.225-.015.054 2.936Zm-11.47-6.839-5.225.016-.053-2.937 5.224-.015.054 2.936Zm-22.228.166-5.225.014-.053-2.936 5.224-.014.054 2.936Z"/>
    <path fill="#ec5c24" d="m51.915 48.255-2.196.006-.053-2.936 2.249-.007v2.937Zm0-19.739-3.042.01-.055-2.937 3.097-.008v2.935Zm-39.83-2.987 2.836-.008.053 2.936-2.889.008v-2.936Zm0 19.859 3.536-.01.053 2.936-3.589.01v-2.936Zm16.428-26.694-5.224.014-.055-2.936 5.225-.014.054 2.936Zm8.719 9.863-5.225.015-.054-2.936 5.225-.015.054 2.936ZM23.933 51.532l-5.225.015-.053-2.936 5.225-.015.053 2.936Zm5.638.086-5.224.015-.055-2.936 5.225-.014.054 2.935Zm-6.191-19.82-5.224.014-.054-2.936 5.225-.014.053 2.936Zm22.064-6.567-5.225.014-.053-2.935 5.225-.015.053 2.936Zm.946 19.795-5.225.016-.053-2.936 5.225-.015.053 2.935ZM28.872 31.761l-5.225.015-.054-2.936 5.225-.014.054 2.935Zm8.911 16.53-5.224.016-.053-2.936 5.224-.015.053 2.935Zm-8.718-9.863-5.225.015-.053-2.936 5.225-.015.053 2.936Z"/>
  </g>
</svg>
