<svg xmlns="http://www.w3.org/2000/svg" xml:space="preserve" fill-rule="evenodd" stroke-linejoin="round" stroke-miterlimit="2" clip-rule="evenodd" viewBox="0 0 64 64">
  <g id="blue">
    <path fill="#a3b7c8" d="M49.451 12.085a3.327 3.327 0 0 0 2.464 2.464v34.902a3.327 3.327 0 0 0-2.464 2.464H14.549a3.327 3.327 0 0 0-2.464-2.464V14.549a3.327 3.327 0 0 0 2.464-2.464h34.902Z"/>
    <path fill="#d1f8fd" d="M9.532 14.115a3.32 3.32 0 1 1 4.583-4.583h35.77a3.32 3.32 0 1 1 4.583 4.583v35.77a3.32 3.32 0 1 1-4.583 4.583h-35.77a3.32 3.32 0 1 1-4.583-4.583v-35.77Zm39.919-2.03H14.549a3.327 3.327 0 0 1-2.464 2.464v34.902a3.327 3.327 0 0 1 2.464 2.464h34.902a3.327 3.327 0 0 1 2.464-2.464V14.549a3.327 3.327 0 0 1-2.464-2.464Z"/>
  </g>
  <g id="black">
    <path fill="#1e1e1e" d="m43.594 46.947.361.477.281.819-.905-1.19.139-.762-.39-.268.003-.283-.511-1.208-.26-.179-1.42-2.115-1.561-1.07-.785-.25-2.101.276c.129.088.127.372-.272.955-1.711.544-2.238.754-2.502.86l-.206.083a.545.545 0 0 1-.055-.261s-.079-.054-.05-.173c.051-.04.119-.067.184-.022l1.054-.422.479-.897.187-.075a.936.936 0 0 0 .397-.3l.002-.284s.134-.195.004-.284c-.13-.089.01-.85.014-1.134a.824.824 0 0 0 .107-.262l.025-.006v.074c.13.089.264-.107.395-.018l.114-.222c.773-.415 1.23-.598 1.469-.694 0 0 .397-.299.527-.21l.399-.583c.127-.186.256-.628.845-1.752l.45-.179a1.14 1.14 0 0 1-.095.178l-.667.974c-.133.194-.136.479-.136.479l-.003.282.13.089c.117.081.125.32.313.912l-.063.119c.128.373.124.656-.011 1.133l.133-.221-.007.595.648.728 1.33-1.66 2.097.008 1.448-.437.129.089-1.446.437-2.099-.008-1.328 1.661-.271.673.911.625.518.665 1.031 1.539.261.179.483 1.14-.105.262.133-.195-.003.285.39.267-.047.253-.222.42-.003.282.133-.194Zm-2.81-10.952-.237-1.068-.092-.705.533-.779.848-.44-.056.123.526-.211 1.178.236 1.844-.738.53-.494.208-.059 1.103.099-1.185.332-.53.495-1.843.738-1.308-.324-1.187.616-.533.778.375 1.686-.017 1.419.488.693-.029.053-.588-.835.019-1.703-.047.088Zm-7.637 9.177a.566.566 0 0 0-.014.044l-.01-.01.024-.034ZM19.734 25.984l.245-1.788-.745-3.939.19.341c.212.933.334 1.802.564 2.748 0 0-.133.194-.003.283l.393-.016.13.089s.264-.105.657-.121c.264-.107.527-.211.661-.406l-.131-.09-.263.106c-.264.105-.264.105-.393.016-.131-.089-.265.106-.265.106l-.13-.089s.134-.195.264-.106c.131.089.131.089.393-.015l.527-.212.133-.194.004-.284c.002-.284.136-.479.273-.957.075.108.151.204.226.294-.124.397-.237.582-.239.842l-.133.195.648.729.23-.127.033.022.923-.512-.133.194-.007.71-.133.053-.133.194c-.132.194-.002.283-.002.283l.074-.049a.153.153 0 0 0 .056.138c-.003.285.13.09.13.09l.26.179c-.653-.162-.784-.252-.914-.34l-.26-.179-.267.389s-.003.283-.273.957c-.522-.074-.787.033-.917-.056 0 0 .13.089.264-.106.131.088.263-.106.393-.016.271-.674.273-.957.273-.957.13.089.13.089.264-.106l.133-.194c-.264.105-.397.3-.527.211l-.133.195c-.134.195-.264.105-.264.105l-.133.194s-.003.285-.27.674c-.13-.09-.263.104-.393.015-.131-.089-.394.017-.394.017l-.886.49Zm4.192-3.085c-.13-.088-.13-.088-.263.106l.267-.39s.137-.477.411-1.717L24.494 19l-.003.284 1.32-.811.149-1.613-.816.451.026-.135.923-.51.533-.779-.003.285-.532.776-.15 1.614-1.321.811-.148 1.614a35.598 35.598 0 0 1-.412 1.717l-.134.195Zm2.472 6.47c-.229-.046-.436-.126-.705-.114l-.52-.358-.026-.093.288-.012.694-.383.097.067c.044.03.193-.063.372-.199l.314.563-.563.292a.434.434 0 0 0 .049.237Zm.596-.382.012.024c.016-.025.032-.046.045-.065l.072.13c-.108.1-.224.203-.384.324-.071.004-.14 0-.205-.007a.322.322 0 0 0 .076-.082c.159-.121.275-.224.384-.324Zm3.708 3.841.141-.087-.079.274-.113-.111.051-.076Zm-3.49-19.42.363-.302-.943 2.213.003-.282-.543.333.042-.307.504-.311.574-1.344Zm10.132 23.501c.355-.178.858-.514.858-.514l.397-.301c.134-.195.264-.106.397-.3l.334-.252a6.63 6.63 0 0 0-.07.147c-.134.195-.264.105-.397.299l-.396.3s-.857.572-1.123.621Zm2.783-2.827.471-.905c-.144.309-.305.609-.471.905Zm-6.781 8.588-.125.226a.3.3 0 0 1 .06-.154s.026-.038.065-.072Zm-2.711-.532.03-.045-.024.045h-.006Zm2.727-6.773c-.072-.05-.468-.499-.803-.886.276.283.564.548.803.886Zm-3.634-3.348.39.268.062-.057-.021.203-.431-.414Zm18.36 6.534.846-.236-2.504 1.143-.13-.089 1.788-.818Zm-8.692-3.341c.133-.194.003-.283.003-.283.13.089.13.089-.003.283Zm-8.746-3.667.001-.036s.276-1.24.699-4.094l-.18 2.075a45.526 45.526 0 0 1-.389 2.108c-.065-.044-.097-.067-.131-.053Zm-3.328-2.65-.114.104a.371.371 0 0 1 .114-.104Z"/>
  </g>
</svg>
