<svg xmlns="http://www.w3.org/2000/svg" xml:space="preserve" fill-rule="evenodd" stroke-linejoin="round" stroke-miterlimit="2" clip-rule="evenodd" viewBox="0 0 64 64">
  <g id="brown">
    <path fill="#6d4c41" fill-rule="nonzero" d="M48.885 56 10.844 38.935l2.133-4.8 38.219 16.888L48.885 56"/>
    <path fill="#5d4037" d="m33.064 43.201-2.133-.889-5.866-2.844c3.555 1.6 6.577-2.844 6.577-2.844l3.022-6.755-.533-4.799c-2.489-3.022-3.022-7.111-1.422-10.844 2.488-5.333 8.71-7.644 14.043-5.333l.147.07L31.998 42.49l1.066.711Zm5.866 2.489a3.869 3.869 0 0 1-.573-.243l.573.243Z"/>
    <path fill="#4e342e" fill-rule="nonzero" d="m33.064 43.201 5.866 2.489c-3.555-1.6-2.31-6.755-2.31-6.755l3.021-6.755 4.089-3.022c3.555-.355 6.933-2.666 8.532-6.222A10.752 10.752 0 0 0 46.93 8.893L31.998 42.49l1.066.711"/>
  </g>
  <g id="red">
    <path fill="#d32f2f" fill-rule="nonzero" d="M46.041 55.644 12.977 40.89l.356-.888 33.063 14.754-.355.888"/>
  </g>
</svg>
