<svg xmlns="http://www.w3.org/2000/svg" xml:space="preserve" fill-rule="evenodd" stroke-linejoin="round" stroke-miterlimit="2" clip-rule="evenodd" viewBox="0 0 64 64">
  <g id="red">
    <path fill="#e5097f" fill-rule="nonzero" d="M54.349 36.116c-1.145.027-2.698.636-1.301 2.675 1.873 2.735 3.365-2.727 1.301-2.675Zm-23.448 7.893 1.284-.776.087-1.838c-1.787.68-3.722.07-5.205-1.794l.139 3.284 2.576-.906L30.892 44l.009.009Zm1.692-23.642s-.026 0-.044.017c.018.018.035.027.044.044v-.061Zm-.096 20.932 6.42 1.124-4.225-1.89-.373-.61c-.564.636-1.18 1.089-1.822 1.376Zm12.388 8.99c-1.796-.165-1.648-3.066-.026-3.232 1.552-.095 2.064 3.433.026 3.232Zm6.905-21.638c.173.871.598.958 1.188.357 2.724-2.735 4.233 4.147 1.796 5.662-1.787 1.107-4.494-.13-2.082 5.009.737 1.568.538 4.138-.659 5.044-.885.671-1.891-.096-2.316.322-.877.871-.686 2.108-1.501 2.614-.495.304-1.067.261-1.744-.541a4.42 4.42 0 0 0-1.015-.888c-.086-.044-.173-.105-.277-.148l-1.076-2.744-3.982-.697.451-3.554 5.101 2.186.39-1.82c.452.749 1.067 1.28 1.814 1.411.407.07.815.017 1.205-.166 1.232-.592 2.056-2.273 2.212-4.12.113-1.333-.138-2.683-.676-3.702l1.188-4.207-.017-.018ZM20.066 46.613c-.728-.627-1.197-2.029-1.752-2.456l2.429-1.316.564 2.1-.798.27-.443 1.393v.009Zm-3.851-2.204c-1.171-.104-1.631-1.393-1.874-1.977-.208-.497-.841-.81-2.394-.444-1.241.287-2.594-.122-2.707-2.396-.173-3.423 4.173-4.791 1.857-7.186-.885-.924-1.18-2.683-.902-4.26l5.118 15.148.902 1.115Zm.555-21.446c.174-.81.286-1.917.304-3.406.078-6.246 3.435-2.57 4.701-3.075.59-.227 1.033-1.603 1.805-2.613.711 2.125 2.316 4.033 4.094 5.252a5.074 5.074 0 0 0-1.44.871l-.043-1.167-1.405-1.733-5.795 3.902.416 3.354-.251-.314-2.065.61-.312-1.681v-.018l-.009.018Zm5.812-9.129c.044.984-.321 1.751-.772 2.064-.807.558-1.631-.601-1.067-1.82.495-1.089 1.77-1.812 1.839-.236v-.008ZM12.19 42.589c-.59.27-1.536 1.629-.564 2.744 2.255 2.613 3.739-4.208.564-2.744Zm28.782-29.304c1.128-1.716 2.707.043 1.918 1.646-.738 1.516-3.097.148-1.918-1.646Zm3.609 6.037c.156-1.272-.269-2.431-1.362-2.927-1.015-.453-2.463.749-2.993-1.577-.815-4.512-4.736-3.145-5.577.026.112.331.199.68.251 1.019 0 .018 0 .035.009.044l3.956-2.195 1.413 1.725-.26 6.411 1.77-.096.225-1.472-.156-.261.347-2.866 2.386 2.169h-.009Z"/>
  </g>
  <g id="blue" fill-rule="nonzero">
    <path fill="#003c8a" d="m30.901 44.009 1.284-.776.087-1.838c-1.787.68-3.722.07-5.205-1.794l.139 3.284 2.576-.906L30.892 44l.009.009Zm-3.227-24.888c-1.926-1.315-3.626-3.432-4.242-5.74-.937-3.537 1.709-7.021 6.272-4.547 1.787.967 4.676 3.92 5.179 7.021 0 .017 0 .035.009.043l3.955-2.195 1.414 1.725-.26 6.411 1.77-.096.225-1.472-.156-.261.347-2.866 3.756 3.415.2-3.136 7.477-1.986 1.414 1.724-4.441 15.698c.538 1.019.789 2.369.676 3.702-.156 1.855-.98 3.536-2.212 4.12-.39.183-.798.235-1.206.166-.746-.131-1.361-.663-1.813-1.412l-.39 1.821-5.101-2.187-.451 3.555 3.982.696 1.093 2.805-12.457 8.494-.798-2.222-7.252 2.361-1.171-2.126.833-2.369-3.86.793-1.172-2.126 1.189-3.737.798-.27-.564-2.099-4.025 2.186-1.405-1.733L8 21.674l7.373-.427 1.406 1.733.312 1.681 2.065-.609.251.313-.416-3.353 5.795-3.903 1.405 1.734.043 1.167a4.944 4.944 0 0 1 1.44-.871v-.018Zm4.823 22.178 6.42 1.124-4.225-1.89-.373-.61c-.564.636-1.18 1.089-1.822 1.376Z"/>
    <path fill="#59c8ff" d="m20.969 46.03-.556 1.75 5.986-1.237-1.666 4.757 7.669-2.492-.104 2.222L43.315 44l-10.419-1.673-.078 1.568-4.927 2.962.885-3.528-7.807 2.709v-.008Zm31.827-18.895c.035-.13.139-.2.234-.139.087.052.13.2.096.331l-1.085 3.85c-.034.131-.138.192-.234.14-.087-.053-.13-.201-.095-.34l1.084-3.842Zm-1.423 5.767c-.095-.043-.147-.2-.112-.331.034-.139.138-.209.234-.165.095.043.147.2.113.331-.035.139-.139.209-.235.165Zm.226-.81c-.095-.044-.148-.2-.113-.34.035-.139.139-.209.234-.157.096.044.139.201.113.34-.035.14-.139.209-.234.157ZM34.892 11.456c.069.095.078.261.008.357-.069.104-.182.113-.251.017a27.936 27.936 0 0 0-.781-.958 18.269 18.269 0 0 0-.876-.932.318.318 0 0 1-.044-.349c.052-.113.165-.148.243-.069.321.313.625.627.902.949.278.323.547.645.807.976l-.008.009Zm-1.215-.209c.069.095.078.261.009.357-.07.104-.174.113-.252.017-.347-.453-.72-.906-1.128-1.341-.407-.436-.85-.863-1.344-1.272-.087-.07-.113-.227-.061-.349.044-.122.156-.165.243-.095.503.418.954.853 1.371 1.298.416.444.798.905 1.162 1.367v.018ZM13.352 41.239c.044.121 0 .278-.078.339-.087.061-.199 0-.243-.113l-1.084-3.206c-.043-.13 0-.278.087-.348.086-.061.191 0 .234.122l1.084 3.206Zm.182-1.656c.044.131.009.279-.078.34-.086.061-.199.018-.234-.113l-1.266-3.737c-.044-.131-.009-.288.078-.349.086-.061.199 0 .234.122l1.266 3.737Zm-1.761-4.608c.087-.078.2-.017.252.105.043.139.017.287-.078.366-.087.069-.2.017-.252-.114-.043-.122-.017-.287.07-.348l.008-.009Zm17.09 18.999c.104 0 .182.105.19.261 0 .148-.078.262-.173.27-.104 0-.191-.104-.2-.261 0-.148.079-.261.183-.27Zm.529-.192c.104 0 .191.105.191.262 0 .139-.078.261-.183.27-.104 0-.182-.114-.182-.262 0-.148.078-.27.174-.27Zm.555.323c-.095.034-.2-.044-.217-.183-.017-.14.035-.27.13-.314l1.683-.627c.078-.026.165.026.208.139l.833 2.283 2.186-1.551c.087-.061.2 0 .243.122.043.122 0 .279-.078.34l-2.342 1.655c-.087.069-.2.017-.243-.105l-.842-2.326-1.544.567h-.017ZM14.775 22.44l-5.535.322 6.454 19.095 3.696-2.004-.668-7.613 3.27 12.134 3.036-2.726-.321-7.544c1.761 5.68 6.558 6.246 8.875 1.411.572-1.332 1.197-3.197 1.492-5.157-.104 3.093-.521 5.07-1.059 6.786l.026.793 3.999 1.795 1.466-11.525.165 8.162 4.051 1.734.885-4.208v.026c-.165 2.03.703 3.851 1.935 4.06 1.231.217 2.368-1.255 2.541-3.284.174-2.03-.694-3.842-1.934-4.06-.92-.165-1.796.627-2.238 1.882l1.5-7.065-.303 4.547 2.42.479 3.826-13.528-5.474 1.455-.295 4.669-3.843-2.439-1.232 8.432-.182-6.15-2.611.148-1.258 5.401.538-13.058-4.693 2.605.182 5.166c-1.249-2.283-3.14-3.563-5.092-3.11-1.83.418-3.305 2.247-4.068 4.73l-.252-5.967-4.181 2.822 1.102 8.955-2.212-5.287-2.542.749.529 7.082-1.986-10.732-.009.017Zm14.226 5.061c1.067-.305 2.091.793 2.291 2.448.208 1.664-.495 3.258-1.562 3.563-1.067.305-2.091-.784-2.29-2.448-.2-1.664.494-3.258 1.561-3.563Zm.495-17.831c5.821 3.171 4.84 9.835-1.119 7.639-7.139-2.613-5.058-10.993 1.119-7.639Zm-2.177 3.084c.138-.601 1.162-.532 2.272.139 1.111.671 1.891 1.699 1.744 2.3-.139.601-1.163.531-2.273-.14-1.11-.67-1.891-1.698-1.743-2.299Z"/>
  </g>
  <g id="white">
    <path fill="#fefefe" fill-rule="nonzero" d="M46.758 32.615c.261.601.686.993.929 1.585.511 1.211.98.314.876-.662-.13-1.159-.842-2.134-1.397-2.178-.546-.035-.685.619-.408 1.246v.009ZM30.519 46.064c.417.262.833-.304.694-.662-.164-.409-1.127.262-.694.662Zm1.605-1.559c1.119-.444.876 1.324-.217 1.333-.824.017-.399-1.098.217-1.333Zm-.885-32.483c-.147-.61-1.014-.697-.702.348.225.749.989.392.702-.348Zm.391 1.794c.225 1.133 1.301 1.891 1.223.262-.078-1.638-1.709-2.649-1.223-.262Zm-8.501 7.178c.269.044.511-.026.659-.235.217-.322.182-1.089-.252-1.054-.208 0-.459.192-.607.375-.295.357-.13.871.208.923l-.008-.009Zm-5.066 5.932c.364 0 .746-.278.676-.653-.121-.566-.763-.54-1.041-.27-.321.314-.234.915.365.923Zm.72.532c.616.226.563-1.098.017-.593-.165.157-.2.471-.017.593Zm-4.78-1.159c.321-.026.52-1.063-.087-1.62-.494-.436-.919-.27-1.015.131-.139.566.26 1.568 1.102 1.489Zm-3.132-3.145 3.071-.113c.425-.017.547.148.685.715.165.662.347 1.759.512 2.526.122.575-.017.784-.234.043-.13-.444-.252-.801-.373-1.089-.711-1.663-1.145-1.271-1.787-1.054-.572.201-.911-.583-1.475-.644-.373-.035-1.11-.366-.399-.384Zm20.221-1.559c1.397.575 2.186 2.727 2.672 5.14.026.122.225 1.15.199 1.167-.017 0-.078-.166-.182-.47a14.101 14.101 0 0 0-.538-1.333c-.217-.444-.616-.549-.78-.906-.347-.758-.642-1.133-1.38-1.194-1.041-.078-1.943-3.223 0-2.412l.009.008Zm.286 2.927c-1.006-.148-.086 2.526.833 2.178.338-.131.217-2.021-.833-2.178Zm-3.999 7.849c.712 1.794 1.813 1.968 2.551 1.672.251-.104.347.044-.009.401-1.284 1.28-2.707-.017-2.776-1.908-.017-.488.087-.54.234-.165Zm23.188-11.325c.026-.139.286-1.184-.304-1.271-.217-.027-.451 0-.546-.331-.209-.732-1.371-.488-1.761-.488-.495 0-.616-.201-.148-.323l3.531-.879c.355-.087.329.069.199.531l-.772 2.866c-.26.967-.329.758-.199-.105Zm-13.463-2.282c-.191-1.594-2.134-.409-3.045-.139-.304.087-.313-.131-.061-.27l3.114-1.725c.33-.148.373-.078.365.331l-.079 1.908c-.034.784-.216.531-.294-.105Zm8.301 4.817c-.087.479.712 1.56 1.041.61.174-.854-.841-1.324-1.041-.61Zm-31.194 3.075c-.217.331.208 1.351.564.898.113-.14.113-.48 0-.706-.139-.288-.408-.418-.564-.192Zm21.661-8.11c.017.453.815.732.841.044.018-.444-.859-.619-.841-.044Zm4.858 4.861c.216-.017.338.288.347.688l.164 3.964c.018.566-.13.784-.225-.079-.191-1.82-.295-3.475-1.935-4.242-.312-.139-.164-.244.061-.261.538-.044 1.058-.026 1.596-.079l-.008.009Zm8.692-3.632c.251-.636-.746-.758-.946-.427-.225.383.711.984.946.427Zm-9.274 5.366c-.546-1.15-1.596.034-.772.914.616.662 1.284.166.772-.914Zm6.246 7.177c-.165-.287-.373-.156-.46-.043-.251.322-.052.967.252.932.208-.017.442-.453.208-.88v-.009Zm-.061 1.952c.209 1.515 1.362.74.842-.445-.495-1.132-.937-.261-.842.445Z"/>
  </g>
  <g id="green">
    <path fill="#8aff4f" fill-rule="nonzero" d="m37.112 23.154.13-2.587-3.322 1.481.121 2.248 3.071-1.15v.008ZM17.759 38.791c.616-.575.885-1.716.607-2.744-.321-1.202-1.266-1.812-2.099-1.359-.833.453-1.267 1.794-.937 2.988.078.287.2.548.33.766a3.188 3.188 0 0 0-.824.314c-.061.026-.113.061-.165.096l1.023 3.014 3.358-1.821c-.373-.531-.816-.967-1.293-1.246v-.008Zm-3.565-9.565c.512.026.919.653.893 1.385-.026.741-.46 1.315-.971 1.281-.512-.027-.911-.645-.894-1.385.018-.732.451-1.307.963-1.281h.009Zm-1.648-1.228c.216.017.381.279.373.583 0 .305-.183.549-.399.532-.217-.018-.382-.279-.374-.584.009-.305.183-.549.4-.531Zm2.576 4.469c.295-.157.616.052.729.47.112.409-.035.871-.321 1.028-.287.157-.616-.052-.729-.471-.113-.418.035-.871.321-1.027Zm2.195-4.748 1.058-.209 4.233 10.305-1.44-13.903 1.605-.758 1.032 17.065-1.049.976-4.745-12.465-.313 5.357-.39-6.377.009.009Zm3.721-5.305.035.314 1.683-.993-.018-.593-1.691 1.272h-.009Zm.382.488v.331l1.691-.793-.043-.522-1.64.984h-.008Zm6.185 13.519c-1.406-3.049-2.802-8.214-.035-12.753-2.585.776-4.103 8.677.035 12.753Zm10.158-1.855c.312-.018.624.026.919.131l-.633 5.026-.937-.41-2.541-1.141c.39-2.012 1.656-3.528 3.192-3.606Zm-1.405-3.606c.633-.018 1.162.688 1.188 1.602.026.906-.468 1.655-1.102 1.682-.633.017-1.162-.697-1.188-1.603-.026-.906.468-1.673 1.102-1.69v.009Zm4.831 4.625-.832-7.3 1.318 6.046 2.273-11.15 1.136 1.132-2.949 11.725-.946-.462v.009Zm6.394-6.533.78-7.814 1.275-.679-2.055 8.493ZM27.11 45.82l-3.869.593 4.477-1.673-.825 3.702 6.628-2.726.069-1.977 6.636.601-6.965 4.791.095-1.194-7.399 1.978 1.153-4.077v-.018Zm19.067-24.207-.095.601-3.687-2.596.156-1.298 3.626 3.293Zm-12.396 9.948c-.416.322-.945.113-1.18-.48-.234-.592-.086-1.341.33-1.672.416-.331.946-.122 1.18.47.234.593.087 1.342-.33 1.673v.009Zm1.562-2.779c-.209.165-.478.061-.599-.244-.121-.296-.043-.68.174-.845.208-.166.485-.061.598.244.122.296.043.688-.173.845Zm1.726-4.06.069-1.054-3.053 1.176.06.828 2.924-.958v.008Z"/>
  </g>
</svg>
