<svg xmlns="http://www.w3.org/2000/svg" xml:space="preserve" fill-rule="evenodd" stroke-linejoin="round" stroke-miterlimit="2" clip-rule="evenodd" viewBox="0 0 64 64">
  <g id="green">
    <path fill="#408c24" d="M49.454 12.085a3.32 3.32 0 0 0 2.461 2.461v34.908a3.32 3.32 0 0 0-2.461 2.461H14.546a3.32 3.32 0 0 0-2.461-2.461V14.546a3.32 3.32 0 0 0 2.461-2.461h34.908Z"/>
    <path fill="#23673a" d="M46.145 38.036h-3.432s-1.021-5.709-2.584-7.742c0 0 2.445 1.606 4.161 6.798.064-1.654.365-5.171 1.742-7.972 0 0-.347 5.198.113 8.916Zm-10.969-5.944s.153-2.615 1.685-4.616c0 0-1.021 3.482-.786 4.616h-.899Zm-13.644 4.105h-3.554c.459-3.983.112-9.457.112-9.457 1.403 2.893 1.739 6.514 1.817 8.322 1.836-5.272 4.403-6.953 4.403-6.953-1.685 2.073-2.778 8.088-2.778 8.088Zm6.71-9.967h-2.921s-.858-4.77-2.186-6.526c0 0 2.051 1.293 3.529 5.579.06-1.463.329-4.341 1.465-6.6 0 0-.316 4.381.113 7.547Zm-11.98 9.967h-1.716c.552-2.032-1.368-8.405-1.368-8.405 2.808 3.636 3.084 8.405 3.084 8.405Zm17.392 8.048s.317-5.709 3.636-10.121c0 0-2.267 7.66-1.644 10.121h-1.992Zm-2.083 0h-4.289s-1.287-7.19-3.279-9.733c0 0 3.039 1.978 5.254 8.323.092-2.183.492-6.481 2.161-9.885 0 0-.429 6.567.153 11.295Zm16.146-6.209s.276-4.535 2.891-8.017c0 0-1.757 6.056-1.287 8.017h-1.604ZM29.661 26.23s.194-3.789 2.462-6.72c0 0-1.522 5.086-1.093 6.72h-1.369Zm4.586 5.862h-1.961s-.623-3.278-1.481-4.453c0 0 1.39.886 2.398 3.778.053-1.006.253-2.951 1.003-4.523 0 0-.194 3.012.041 5.198Z"/>
    <path fill="#41ad3d" d="M29.661 26.23h-3.278s.153-3.554-.94-6.016c0 0 .983.944 2.496 5.734.15-1.089.854-5.104 3.367-7.888 0 0-2.268 5.474-1.645 8.17Zm3.993 18.015h-4.891s.275-5.351-1.328-8.987c0 0 1.459 1.42 3.649 8.529.226-1.685 1.262-7.648 4.991-11.777 0 0-3.401 8.211-2.421 12.235Zm1.522-12.153H32.98s.113-2.461-.623-4.106c0 0 .67.631 1.677 3.847.119-.834.614-3.504 2.276-5.327 0 0-1.522 3.748-1.134 5.586Zm-14.849 4.105H16.18c.828-3.36-1.991-10.202-1.991-10.202 3.21 3.523 4.032 8.699 4.187 9.932 1.835-6.026 3.084-7.236 3.084-7.236-1.327 3.054-1.133 7.506-1.133 7.506Zm27.431 1.839h-3.829s.194-4.218-1.093-7.149c0 0 1.218 1.148 2.913 6.947.133-1.062.902-6.081 3.929-9.49 0 0-2.655 6.526-1.92 9.692Z"/>
    <path fill="#2e9141" d="M12.085 30.164c.966.824 2.239 2.143 2.969 3.909 1.571-4.704 2.607-5.617 2.607-5.617-.537 1.22-.825 2.721-.978 4.076 1.61-3.398 3.828-5.679 3.828-5.679-2.114 4.228-3.595 9.344-3.595 9.344h-2.85s.258-1.331-1.981-5.04v-.993Zm39.83 2.668c-2.367 3.803-2.114 5.204-2.114 5.204h-2.217l-.061.01v-.01h-.429s-1.368-4.882-3.4-8.875c0 0 2.163 2.254 3.701 5.581-.141-1.326-.42-2.827-.964-4.049 0 0 .991.869 2.429 5.272.75-1.842 2.123-3.175 3.055-3.92v.787Zm-16.341-.829-.52.089s.112-2.584-.623-4.259c0 0 .564.499 1.437 3.071.71-1.698 2.352-2.676 2.352-2.642-1.992 2.849-1.798 3.83-1.798 3.83h-.858l.01-.089Zm.695 12.242h-3.442s-1.756-6.179-4.299-11.254c0 0 2.724 2.886 4.671 7.082-.17-1.678-.512-3.579-1.189-5.132 0 0 1.221 1.066 3.076 6.713 1.538-3.745 5.135-5.848 5.135-5.814-4.381 6.26-3.952 8.405-3.952 8.405Zm1.838-11.796s2.308 1.011 5.086 5.587h-1.644c-.276 0-1.021-3.401-3.442-5.587Zm-16.728 4.729h.01s2.931 1.328 6.485 7.077H25.76c-.317-.041-1.369-4.299-4.381-7.077Zm5.157-6.843c-2.584 2.308-3.401 5.862-3.636 5.903h-1.756c2.931-4.851 5.392-5.903 5.392-5.903Zm-5.157-8.834s1.961.858 4.381 4.729h-1.45c-.194-.082-.858-2.89-2.931-4.729Zm8.17 7.343s1.328.633 2.972 3.248h-.981c-.153 0-.623-1.961-1.991-3.248Zm1.91-2.614H29.12s-1.174-4.106-2.931-7.507c.031 0 1.794 1.842 3.101 4.544-.128-1.075-.366-2.268-.803-3.257 0 0 .821.756 2.118 4.493 1.055-2.5 3.509-3.86 3.509-3.86-2.931 4.137-2.655 5.587-2.655 5.587Z"/>
  </g>
  <g id="blue">
    <path fill="#d1f8fd" d="M9.532 14.117A3.326 3.326 0 0 1 8 11.319 3.325 3.325 0 0 1 11.319 8c1.175 0 2.206.613 2.798 1.532h35.766A3.326 3.326 0 0 1 52.681 8 3.325 3.325 0 0 1 56 11.319a3.326 3.326 0 0 1-1.532 2.798v35.766A3.326 3.326 0 0 1 56 52.681 3.325 3.325 0 0 1 52.681 56a3.326 3.326 0 0 1-2.798-1.532H14.117A3.326 3.326 0 0 1 11.319 56 3.325 3.325 0 0 1 8 52.681c0-1.175.613-2.206 1.532-2.798V14.117Zm39.922-2.032H14.546a3.32 3.32 0 0 1-2.461 2.461v34.908a3.32 3.32 0 0 1 2.461 2.461h34.908a3.32 3.32 0 0 1 2.461-2.461V14.546a3.32 3.32 0 0 1-2.461-2.461Z"/>
  </g>
</svg>
