<svg xmlns="http://www.w3.org/2000/svg" xml:space="preserve" fill-rule="evenodd" stroke-linejoin="round" stroke-miterlimit="2" clip-rule="evenodd" viewBox="0 0 64 64">
  <g id="grey">
    <path fill="#ccc" d="M26.396 50.353s0-.086 0 0c0-.171-.086-.342-.171-.342l-1.113-.343c-.171-.085-.342 0-.342.172l-.684 2.31c-.086.171 0 .256.171.342.684.257 1.112.856 1.283 1.626 0 .085.086.171.171.256.086 0 .171 0 .257-.085.171-.171.513-.342.77-.342.171 0 .342.085.513.085.171.086.257 0 .343-.085.085-.172.171-.257.171-.428.342-1.198.684-2.482.684-2.482.086-.171 0-.342-.171-.342l-1.112-.342-.342.171v.086c0 .171-.172.256-.343.171-.085-.086-.171-.257-.085-.428Z"/>
    <path fill="#b3b3b3" d="m28.364 43.251-.77-1.882c0-.086.085-.171.171-.257.085-.085.256-.171.342-.171l2.139.685c.086 0 .171.256.171.342 0 .171.086.257 0 .342l-1.454 1.112c-.086.086-.257 0-.343 0-.085 0-.256-.085-.256-.171Zm.513-.513.684-.513-1.026-.343.342.856Zm-1.283 7.273s-.086.342-.086.599a.76.76 0 0 1-1.027.599.76.76 0 0 1-.599-1.027l.171-.685c0-.171.172-.256.343-.171l1.026.342c.172 0 .257.172.172.343Z"/>
  </g>
  <g id="brown">
    <path fill="#7e5236" d="M34.295 38.573c-.131.697-.23 1.4-.284 2.111-.171 1.968-.171 3.851-.086 5.733.086 1.968.428 4.022.856 5.904.085.513.256 1.027.428 1.54l.256.77c0 .171.257.342.086.513-.086.086-.342.172-.514.172-1.54.171-3.08.171-4.62 0-.171-.086-.599-.086-.684-.343-.086-.256.085-.513.171-.77.085-.342.171-.77.256-1.112.428-1.797.685-3.679.856-5.562.171-2.652.257-5.304 0-7.957 0-.27-.024-.564-.071-.869a5.047 5.047 0 0 0 1.44-1.099c.563.45 1.199.79 1.91.969Z"/>
    <path fill="#d8a155" d="M27.166 49.84c0 .171-.257.256-.428.171-.086-.086-.342-.257-.257-.428l1.968-6.674c0-.171.342-.257.428-.171.086.086.342.257.257.428l-1.968 6.674ZM19.209 56v-.342c0-.856.684-1.54 1.54-1.54h.085a2.68 2.68 0 0 1 2.653-2.311c1.112 0 2.139.771 2.481 1.797.257-.085.599-.171.856-.171.684 0 1.369.514 1.625 1.198.171-.086.428-.171.599-.171.257 0 .428.085.599.171.171-.941.941-1.54 1.882-1.54.856 0 1.626.599 1.883 1.454.085-.085.256-.085.342-.085.171 0 .342 0 .513.085a1.42 1.42 0 0 1 1.027-.427c.856 0 1.54.684 1.54 1.54V56H19.209Z"/>
  </g>
  <g id="green">
    <path fill="#55b948" d="M47.299 26.241c.678-.818 1.086-1.901 1.086-3.097 0-.649-.128-1.271-.358-1.837a4.753 4.753 0 0 1 2.412 4.148c0 1.882-1.198 3.593-2.824 4.363.342.599.513 1.369.513 2.139 0 2.653-2.224 4.792-4.877 4.792-1.283 0-2.395-.428-3.251-1.198a4.817 4.817 0 0 1-4.535 3.166c-1.198 0-2.224-.428-3.08-1.113a4.918 4.918 0 0 1-3.679 1.626c-2.139 0-4.022-1.369-4.62-3.251-.77.513-1.626.77-2.653.77-2.738 0-4.877-2.139-4.877-4.792 0-1.112.342-2.139.941-2.909-2.139-.257-3.85-2.139-3.85-4.364 0-.333.037-.657.107-.968.568 2.043 2.326 3.535 4.428 3.535h.085a4.978 4.978 0 0 0 2.011 2.121 2.894 2.894 0 0 0-.898 2.072c0 1.54 1.283 2.823 2.823 2.823.428 0 .77-.085 1.113-.256.513.684 1.283 1.026 2.224 1.026.941 0 1.711-.427 2.225-1.112a3.197 3.197 0 0 0 1.54.428c1.54 0 2.823-1.283 2.823-2.824.003-.039.004-.079.005-.118.047-.036.093-.073.139-.111a3.963 3.963 0 0 0 1.739.401c.46 0 .92-.069 1.38-.207.095.038.191.071.288.102a3.959 3.959 0 0 0 2.952 1.302c1.283 0 2.396-.599 3.166-1.54a3.743 3.743 0 0 0 2.139.685c2.139 0 3.936-1.711 3.936-3.85a4.19 4.19 0 0 0-.573-1.952Z"/>
    <path fill="#41a03a" d="M20.278 29.372a4.978 4.978 0 0 1-2.011-2.121h-.085c-2.567 0-4.621-2.224-4.621-4.962 0-2.054 1.113-3.85 2.738-4.706-.342-.599-.513-1.369-.513-2.225 0-2.738 2.054-4.962 4.62-4.962 1.198 0 2.311.513 3.081 1.283.599-1.882 2.31-3.251 4.278-3.251 1.112 0 2.139.428 2.823 1.283C31.444 8.684 32.727 8 34.096 8c2.054 0 3.765 1.455 4.364 3.422.77-.513 1.626-.855 2.567-.855 2.567 0 4.62 2.224 4.62 4.962a5.186 5.186 0 0 1-.941 2.995c2.053.342 3.679 2.31 3.679 4.62 0 1.196-.408 2.279-1.086 3.097-.628-1.069-1.709-1.817-2.935-1.984V24c0-2.139-1.712-3.85-3.936-3.85-.856 0-1.626.256-2.31.77-.514-.342-1.198-.514-1.883-.514-2.139 0-3.936 1.712-3.936 3.851v.085c-1.369.599-2.224 1.968-2.224 3.508 0 .363.052.714.148 1.046a2.987 2.987 0 0 0-.49-.105v-.171c0-1.54-1.284-2.823-2.824-2.823-.599 0-1.198.171-1.711.513-.428-.257-.856-.342-1.369-.342-1.54 0-2.824 1.283-2.824 2.823v.086a2.66 2.66 0 0 0-.727.495Zm15.401 2.224a4.284 4.284 0 0 1-.288-.102c.053-.016.107-.032.16-.05.041.051.084.102.128.152Zm-3.407-.296a4.823 4.823 0 0 1-.139.111 2.809 2.809 0 0 0-.004-.184c.047.026.095.05.143.073Z"/>
    <path fill="#66c64d" d="M32.129 31.227c.005.099.005.2-.001.302 0 1.541-1.283 2.824-2.823 2.824a3.197 3.197 0 0 1-1.54-.428 2.716 2.716 0 0 1-2.225 1.112c-.941 0-1.711-.342-2.224-1.026a2.374 2.374 0 0 1-1.113.256c-1.54 0-2.823-1.283-2.823-2.823 0-1.112.684-2.139 1.625-2.567v-.086c0-1.54 1.284-2.823 2.824-2.823.513 0 .941.085 1.369.342a3.085 3.085 0 0 1 1.711-.513c1.54 0 2.824 1.283 2.824 2.823v.171c.167.021.331.057.49.105a3.76 3.76 0 0 1-.148-1.046c0-1.54.855-2.909 2.224-3.508v-.085c0-2.139 1.797-3.851 3.936-3.851.685 0 1.369.172 1.883.514a3.748 3.748 0 0 1 2.31-.77c2.224 0 3.936 1.711 3.936 3.85v.257c1.882.256 3.422 1.882 3.508 3.936 0 2.139-1.797 3.85-3.936 3.85-.77 0-1.54-.257-2.139-.685-.77.941-1.883 1.54-3.166 1.54a3.946 3.946 0 0 1-3.08-1.454 4.853 4.853 0 0 1-1.54.257c-.677 0-1.32-.172-1.882-.474Z"/>
  </g>
</svg>
