<svg xmlns="http://www.w3.org/2000/svg" xml:space="preserve" fill-rule="evenodd" stroke-linejoin="round" stroke-miterlimit="2" clip-rule="evenodd" viewBox="0 0 64 64">
  <g id="green">
    <path fill="#476464" d="M22.23 37.592h-.017c-.301-.323-.28-.314.017 0Zm34.248-20.177a7.074 7.074 0 0 1-.708 1.502 3.496 3.496 0 0 0-.129-.703c-.366-1.15-1.378-1.995-2.486-2.178l.008.027c-1.108-.175-2.268.287-3.062 1.141-.872.949-3.217 2.372-4.456 2.415-.671.027-1.151-.453-1.814-.4a3.233 3.233 0 0 0-.654.095c-.463.131-.864.462-1.178.854-.559.715-.829 1.795-1.579 2.3-.82.566-1.85-.052-2.687-.305-2.487-.732-4.912 1.202-5.209 3.903-.104.915.07 1.812.306 2.701-.026.017-.044.043-.07.061.026-.018.052-.026.078-.044a.217.217 0 0 1 .007.024c-.023.014-.045.022-.068.037-.017.018-.035.026-.052.044-.584.374-.864 1.115-1.082 1.803-.327 1.042-.638 2.118-.772 3.211-.007-.01-.013-.021-.013-.031-.34-.758-.096-1.873.044-2.64.209-1.185.261-2.395.384-3.598.113-1.106.287-2.23.689-3.249a6.11 6.11 0 0 1 .654-1.255c1.064-1.55 2.303-2.265 4.083-2.169.968.052 2.024.131 2.809-.479.75-.575 1.047-1.777 1.858-2.213.873-.47 1.955.122 2.775.444.636.253 1.5.27 1.849-.357.314-.584-.017-1.324.044-2.004.157-1.603 3.976-1.962 5.162-2.084 1.527-.157 3.368.209 4.45 1.472.4.467.681 1.053.819 1.675ZM34.226 31.224c.069-1.133.069-1.116 0 .017h1.16l-.003.009h-2.49l-.002-.009h.637l-.004-.017h.702Zm-3.548 6.35-.003.018h-.681c-.061-.558-.017-.575.035-.018h.649Zm-4.234.009h.855l-.002.009h-.874c-.495-1.2-.468-1.304-.005-.137a.904.904 0 0 0 .026.128ZM8.882 44.074l4.729-4.661v-1.926h-.637l1.963-2.038 2.015 1.995h-.637v-.035l-2.696.044v1.934l1.134-1.124 1.562 1.516v.017l-1.553-1.507-1.134 1.124-4.746 4.661Zm11.359-.471h.846l.001-.026h2.032l-.304-4.931h.007l.306 4.948h2.093l.001-.017h2.102l-.313-4.931h.008l.314 4.94h2.041v-.009h2.129l-.313-4.931h.007l.314 4.948h.977l.002-.017h2.938l.001.017h.244l.698.941H19.185V44.5H10.74v-.348h9.318l.357.34.332-.401-.506-.488Zm1.098-4.957v.009h-.069l-.253-1.054h.011l.251 1.045h.06Zm10.147-1.054h.009l-.253 1.054h-.009l.253-1.054Zm-12.301 8.764H36.11v.009h1.038l.759 1.254H19.185v-1.263Zm-3.786 8.346h22.84V56H9.336v-1.298h4.676v-2.065c0-.505 1.387-.435 1.387 0v2.065Zm14.259-16.073h-.004l-.01-.04.001-.013.013.053Zm-4.187 0h-.004l-.001.017v.006l-.252-1.051h.01l.247 1.028ZM14.483 51.13v-4.443c0-.984.846-.845.846 0v4.443h-.846Zm-1.631-4.443v4.443h-.847v-4.443c0-.984.847-.845.847 0Zm.226-3.52v-1.001h3.254v1.001h-3.254Zm3.883 7.963v-4.443c0-.984.846-.845.846 0v4.443h-.846Zm17.858-5.157h-3.254v-1.002h3.254v1.002Zm-5.453 0h-3.254v-1.002h3.254v1.002Zm-5.452 0H20.66v-1.002h3.254v1.002Zm.733 7.413h-.419v-1.35h.419v1.35Zm2.591-3.031h-.419v-1.351h.419v1.351Zm5.173 0h-.419v-1.351h.419v1.351Zm-10.347 0h-.419v-1.351h.419v1.351Zm7.756 0h-.419v-1.351h.419v1.351Zm-2.582 3.031h-.419v-1.35h.419v1.35Zm5.173 0h-.419v-1.35h.419v1.35Zm-2.591 0h-.419v-1.35h.419v1.35Zm-5.173-3.031h-.419v-1.351h.419v1.351Zm10.346 0h-.418v-1.351h.418v1.351Zm-12.929 3.031h-.419v-1.35h.419v1.35Zm12.929 0h-.418v-1.35h.418v1.35Z"/>
    <path fill="#68a68e" fill-rule="nonzero" d="M22.849 38.646h-1.57l-.253-1.054h2.076l-.253 1.054Zm2.618 0h1.579l.253-1.054h-2.077l.253 1.054h-.008Zm4.178-.07.018.07h1.57l.253-1.054H29.41l.235.976v.008Zm3.228-7.326.306 1.054h1.91l.306-1.054h-2.522ZM14.012 54.702h-3.289v-10.55H9.545l5.217-5.149 5.296 5.149H10.74v.348h8.445v10.202h-3.786v-2.065c0-.435-1.387-.505-1.387 0v2.065Zm2.949-3.572h.846v-4.443c0-.845-.846-.984-.846 0v4.443Zm-2.478 0h.846v-4.443c0-.845-.846-.984-.846 0v4.443Zm-1.405-7.963h3.254v-1.001h-3.254v1.001Zm-.226 3.52c0-.845-.847-.984-.847 0v4.443h.847v-4.443Z"/>
    <path fill="#c6e792" fill-rule="nonzero" d="m20.058 44.152.357.34.332-.401-.515-.497-3.908-3.789-1.562-1.516-1.134 1.124-4.746 4.661.34.392.323-.314 5.217-5.149 5.296 5.149Z"/>
  </g>
  <g id="orange">
    <path fill="#e66634" fill-rule="nonzero" d="M19.185 47.611v7.091h18.364v-7.083H19.185v-.008Zm2.879 5.775h-.419v-1.35h.419v1.35Zm0-3.031h-.419v-1.351h.419v1.351Zm2.583 3.031h-.419v-1.35h.419v1.35Zm0-3.031h-.419v-1.351h.419v1.351Zm2.591 3.031h-.419v-1.35h.419v1.35Zm0-3.031h-.419v-1.351h.419v1.351Zm2.582 3.031h-.419v-1.35h.419v1.35Zm0-3.031h-.419v-1.351h.419v1.351Zm2.591 3.031h-.419v-1.35h.419v1.35Zm0-3.031h-.419v-1.351h.419v1.351Zm2.582 3.031h-.418v-1.35h.418v1.35Zm0-3.031h-.418v-1.351h.418v1.351Zm-15.816-5.828v1.829H36.11v-1.821H19.185l-.008-.008Zm4.737 1.446H20.66v-1.002h3.254v1.002Zm5.452 0h-3.254v-1.002h3.254v1.002Zm5.453 0h-3.254v-1.002h3.254v1.002ZM23.12 43.577h-2.033l.253-4.948h1.474l.306 4.948Zm3.891-4.948.314 4.948h-2.12l.262-4.948h1.544Zm4.179 0 .314 4.948h-2.138l.271-5.018.017.07h1.536Zm2.041-6.351h1.823l.384 11.299h-2.957l.75-11.299Zm-18.478 5.985-1.134 1.124v-1.934l2.696-.044v2.37l-1.562-1.516Z"/>
  </g>
  <g id="grey">
    <path fill="#a7afaf" fill-rule="nonzero" d="M22.317 37.592h-.087c-.297-.314-.506-.845-.611-1.281a16.137 16.137 0 0 1-.314-1.681c-.375-2.448-.192-4.138.942-6.325.637-1.22 1.204-2.718.655-3.99-.245-.566-.681-1.002-.934-1.551-.366-.766-.375-1.69-.218-2.535.358-1.977 1.562-3.746 3.184-4.756a6.606 6.606 0 0 1 5.409-.68c.838.261 1.728.688 2.548.366 1.413-.54 1.457-2.666 2.198-4.077.785-1.499 2.417-2.187 3.952-2.657 1.257-.384 2.652-.68 3.839-.096.768.374 1.352 1.08 2.059 1.568.183.131.392.244.602.331.602.244 2.964.337 3.461-.072.27-.227.445-.566.689-.828.846-.932 2.277-.862 3.394-.366 3.228 1.438 4.51 5.315 3.411 8.538a3.898 3.898 0 0 0-.837-1.76c-1.082-1.263-2.923-1.629-4.45-1.472-1.186.122-5.005.481-5.162 2.084-.061.68.27 1.42-.044 2.004-.349.627-1.213.61-1.849.357-.82-.322-1.902-.914-2.775-.444-.811.436-1.108 1.638-1.858 2.213-.785.61-1.841.531-2.809.479-1.78-.096-3.019.619-4.083 2.169-.27.392-.48.81-.654 1.255-.402 1.019-.576 2.143-.689 3.249-.123 1.203-.175 2.413-.384 3.598-.14.767-.384 1.882-.044 2.64 0 .017.018.035.026.052a9.04 9.04 0 0 0-.043 1.464c.043.732 0 1.472-.149 2.186h-.663c-.052-.557-.104-1.115-.157-1.663-.131-1.351-.244-2.745.114-4.051.087-.34.209-.671.235-1.02.026-.348-.096-.74-.375-.915-.881-.566-2.251 2.074-2.512 2.719-.332.81-.506 1.672-.629 2.543-.069.532-.392 1.83-.235 2.396a10.204 10.204 0 0 1-.759-3.816c0-.801.75-2.953.035-3.493-.314-.235-.785-.07-1.038.253-.253.322-.341.749-.419 1.158-.079.41-.183.837-.454 1.142-.235.278-.584.426-.802.714-.376.479-.297 1.185-.28 1.812.009.662-.017 1.69-.392 2.221l-.044.018Zm30.846-21.529c-1.108-.175-2.268.287-3.062 1.141-.872.949-3.217 2.372-4.456 2.415-.671.027-1.151-.453-1.814-.4a3.233 3.233 0 0 0-.654.095c-.463.131-.864.462-1.178.854-.559.715-.829 1.795-1.579 2.3-.82.566-1.85-.052-2.687-.305-2.487-.732-4.912 1.202-5.209 3.903-.104.915.07 1.812.306 2.701-.026.017-.044.043-.07.061.026-.018.052-.026.078-.044.219.81.498 1.621.672 2.44h.716c.069-1.133-.061-2.37.698-3.076 1.343-1.246 3.742.68 5.086-.566.366-.34.558-.836.881-1.211.689-.793 1.858-.871 2.844-.61.986.262 3.592.86 4.578 1.096.994.235 2.155.104 2.8-.741.681-.889.567-2.283 1.265-3.154.602-.749 1.623-.897 2.364-1.489.716-.575 1.082-1.569 1.03-2.527a3.514 3.514 0 0 0-.131-.732c-.366-1.15-1.378-1.995-2.486-2.178l.008.027Z"/>
  </g>
</svg>
