<svg xmlns="http://www.w3.org/2000/svg" xml:space="preserve" fill-rule="evenodd" stroke-linejoin="round" stroke-miterlimit="2" clip-rule="evenodd" viewBox="0 0 64 64">
  <g id="green" fill-rule="nonzero">
    <path fill="#92c730" d="M48.967 48.091c-4.901 8.119-10.907 9.197-16.596 6.76a40.07 40.07 0 0 1 .289-3.77c1.113-8.714 12.046-23.189 12.177-23.355-.131.114-11.213 9.486-14.947 21.198-.474 1.491-.789 2.815-.982 4.007-5.936-4.05-8.741-10.371-3.288-19.402 5.681-9.406 24.627-14.167 24.627-14.167s4.401 19.322-1.28 28.729Z"/>
    <path fill="#78a831" d="M36.947 22.58c-4.173 2.007-8.451 4.681-11.134 8.004-3.998-6.348-7.391-13.159-7.47-13.352.036.201 1.78 7.776 6.006 15.526-2.183 3.814-2.884 7.136-2.49 9.994-2.797-.982-5.427-3.34-7.654-7.557C9.349 26.007 14.53 8 14.53 8s17.429 5.479 22.408 14.58h.009Z"/>
  </g>
</svg>
