<svg xmlns="http://www.w3.org/2000/svg" xml:space="preserve" fill-rule="evenodd" stroke-linejoin="round" stroke-miterlimit="2" clip-rule="evenodd" viewBox="0 0 64 64">
  <g id="green">
    <path fill="#4c8e40" fill-rule="nonzero" d="M51.209 56h-38.51C10.119 56 8 53.967 8 51.492V12.42C8 9.945 10.119 8 12.699 8h38.602C53.881 8 56 10.033 56 12.508v38.984C55.908 53.967 53.789 56 51.209 56Z"/>
  </g>
  <g id="white" fill="#f4f4f4">
    <path fill-rule="nonzero" d="M24.779 28.637h-3.447V26.25c0-.796.176-1.415.53-1.857.353-.442 1.061-1.149 2.121-1.944 1.68-1.326 2.476-2.652 2.476-4.067 0-1.06-.354-1.944-.973-2.563-.619-.619-1.503-.973-2.563-.973-2.387 0-3.89 1.68-4.332 5.039l-3.889-.707c.265-2.475 1.149-4.508 2.828-5.923 1.68-1.414 3.536-2.121 5.835-2.121 2.21 0 4.154.707 5.569 2.033 1.502 1.326 2.21 3.005 2.21 5.039 0 .972-.177 1.944-.619 2.828-.442.884-.884 1.591-1.414 2.033-.531.442-1.592 1.326-3.271 2.564-.442.354-.796.707-.884.972-.089.177-.177.884-.177 2.034Zm.707 2.475v4.42h-4.154v-4.42h4.154Z"/>
    <path d="m34.767 41.046.085-.007c-.043.043-.069.037-.085.007Zm0 0-1.362.105v-.223a37.808 37.808 0 0 0-.891-2.672l-.668-1.67 1.447-.445c.112.556.334 1.113.557 1.67.334 1.002.779 2.004.891 3.006 0 .069 0 .18.026.229Zm-18.69 10.416 1.769 1.512-.723.846-2.622-2.24-2.146 2.718-.874-.69 2.173-2.752L11 48.587l.723-.846 2.622 2.24 2.146-2.718.874.69-1.553 1.966c.504-.115 1.083-.09 1.784.027l-.334 1.558c-.538-.12-.916-.111-1.185-.042Zm33.159-35.839-2.208 1.191-.528-.979 3.089-1.668-1.648-3.151.986-.516 1.642 3.138 2.944-1.589.529.98-2.957 1.596 1.627 3.111-.986.516-1.113-2.128c-.064.252-.069.621.047 1.202l-1.447.334c-.131-.787-.146-1.459.023-2.037Zm-24.07 37.106c-.334.334-.668.556-1.113.779l-.445-1.447c.111-.112.334-.223.445-.334.223-.223.445-.668.334-1.559-.111-.556-.223-1.113-.445-1.558l1.447-.557c.223.557.334 1.225.445 1.781.223 1.225 0 2.227-.668 2.895Zm-2.226-.78-.112 1.559c-1.002-.111-2.115-.668-3.228-1.113-.445-.223-1.002-.446-1.447-.668l.445-1.448c.557.223 1.002.446 1.559.668.89.446 2.003.891 2.783 1.002Zm2.115-4.898-1.447.668-.112-.223c-.334-1.002-.779-2.004-.89-3.006-.112-.89 0-1.669.334-2.337l1.336.779c-.112.334-.223.779-.112 1.336.112.779.446 1.781.78 2.672l.111.111Zm8.906-3.34c-.334.445-.779.668-1.558.779-1.002.112-2.116-.222-3.006-.556l.556-1.447c.668.222 1.559.556 2.227.445.334 0 .445-.111.668-.334.223-.223.334-.334.334-.557l1.447.446a2.65 2.65 0 0 1-.668 1.224Zm-4.787-1.67-.668 1.559-.222-.112c-1.225-.556-2.45-1.113-3.34-1.001-.112 0-.223 0-.334.111l-.668-1.336c.334-.223.556-.334.89-.334 1.225-.223 2.672.334 4.119 1.002l.223.111Zm13.693-7.347c-.333.334-.779.556-1.335.89l-.334-1.558c.222-.112.445-.223.556-.334.223-.223.446-.668.334-1.559-.111-.445-.222-1.002-.445-1.447l1.447-.557c.223.557.334 1.113.445 1.67.223 1.225 0 2.227-.668 2.895Zm-2.337-.78-.112 1.559c-1.002-.111-2.115-.668-3.228-1.113-.557-.223-1.114-.446-1.559-.668l.445-1.448 1.67.668c1.002.446 2.004.891 2.784 1.002Zm-7.571 1.448-1.336.334v-.223c-.222-1.225 0-2.227.668-2.895a2.662 2.662 0 0 1 1.448-.779c.556 0 1.113 0 1.558.111l-.334 1.559c-.334-.111-.668-.111-1.002-.111-.334 0-.445.111-.668.334-.222.222-.445.668-.334 1.558v.112Zm9.797-6.235-1.447.557-.111-.223c-.334-1.002-.78-2.004-.891-3.006-.223-.89-.111-1.558.223-2.226l1.336.779c-.223.223-.223.668-.112 1.225.223.779.557 1.781.891 2.671l.111.223Zm8.906-3.451a1.74 1.74 0 0 1-1.336.668c-1.001.223-2.115-.223-3.117-.557l.334-1.447c.78.334 1.67.668 2.338.557.334 0 .445-.112.668-.334.223-.112.334-.223.334-.446l1.447.446c-.111.445-.334.779-.668 1.113Zm-4.787-1.67-.445 1.447-.223-.111c-1.224-.557-2.449-1.113-3.34-1.002-.222 0-.333 0-.445.111l-.779-1.336c.223-.222.557-.334.891-.334 1.224-.111 2.671.446 4.119 1.114l.222.111Zm5.567-1.225c0 .223 0 .334-.112.446l-1.447.111v-.334c-.111-.779-.445-1.781-.779-2.672-.223-.556-.334-1.113-.557-1.67l1.447-.445c.112.557.334 1.002.557 1.559.334 1.002.779 2.003.891 3.005Z"/>
  </g>
</svg>
