<svg xmlns="http://www.w3.org/2000/svg" xml:space="preserve" fill-rule="evenodd" stroke-linejoin="round" stroke-miterlimit="2" clip-rule="evenodd" viewBox="0 0 64 64">
  <g id="grey">
    <path fill="#c2bdbd" d="M49.451 12.085a3.327 3.327 0 0 0 2.464 2.464v34.902a3.327 3.327 0 0 0-2.464 2.464H14.549a3.327 3.327 0 0 0-2.464-2.464V14.549a3.327 3.327 0 0 0 2.464-2.464h34.902Z"/>
  </g>
  <g id="blue">
    <path fill="#d1f8fd" d="M9.532 14.115a3.32 3.32 0 1 1 4.583-4.583h35.77a3.32 3.32 0 1 1 4.583 4.583v35.77a3.32 3.32 0 1 1-4.583 4.583h-35.77a3.32 3.32 0 1 1-4.583-4.583v-35.77Zm39.919-2.03H14.549a3.327 3.327 0 0 1-2.464 2.464v34.902a3.327 3.327 0 0 1 2.464 2.464h34.902a3.327 3.327 0 0 1 2.464-2.464V14.549a3.327 3.327 0 0 1-2.464-2.464Z"/>
  </g>
  <g id="red">
    <path fill="#f00" fill-rule="nonzero" d="M29.15 40.028h5.864v-1.354c0-6.825 8.378-6.523 8.378-14.803 0-5.668-3.758-10.028-10.784-10.028-6.874 0-11.684 4.36-11.684 11.934h5.863c0-4.014 2.112-6.372 5.821-6.372 3.162 0 4.921 1.907 4.921 4.466 0 5.72-8.379 5.368-8.379 14.752v1.405Zm2.958 10.129c2.255 0 4.009-1.704 4.009-3.91 0-2.155-1.754-3.911-4.009-3.911-2.307 0-4.01 1.756-4.01 3.911 0 2.206 1.703 3.91 4.01 3.91Z"/>
  </g>
</svg>
