<svg xmlns="http://www.w3.org/2000/svg" xml:space="preserve" fill-rule="evenodd" stroke-linejoin="round" stroke-miterlimit="2" clip-rule="evenodd" viewBox="0 0 64 64">
  <g id="red">
    <path fill="#ff5757" fill-rule="nonzero" d="M56 32c0 .787-.034 1.573-.12 2.352a23.475 23.475 0 0 1-.917 4.608 22.706 22.706 0 0 1-.797 2.222c-.3.726-.634 1.435-1.002 2.126a22.89 22.89 0 0 1-1.208 2.015c-.437.648-.9 1.288-1.405 1.893a25.322 25.322 0 0 1-1.586 1.747 22.07 22.07 0 0 1-1.748 1.582c-.608.501-1.233.968-1.885 1.409-.659.432-1.328.839-2.022 1.21-.694.372-1.405.709-2.125 1.003a24.96 24.96 0 0 1-2.21.796c-.754.233-1.517.423-2.288.57-.771.156-1.551.277-2.331.346a26.73 26.73 0 0 1-2.347.121c-.78 0-1.577-.043-2.357-.121a23.627 23.627 0 0 1-2.33-.346 22.895 22.895 0 0 1-2.288-.57 22.553 22.553 0 0 1-2.219-.796 26.268 26.268 0 0 1-2.125-1.003 24.735 24.735 0 0 1-2.014-1.21 25.164 25.164 0 0 1-1.893-1.409 23.575 23.575 0 0 1-1.748-1.582 27.85 27.85 0 0 1-1.586-1.747 30.675 30.675 0 0 1-1.405-1.893 25.676 25.676 0 0 1-1.208-2.015c-.368-.7-.702-1.409-1.002-2.126a22.706 22.706 0 0 1-.797-2.222 26.007 26.007 0 0 1-.574-2.283 26.475 26.475 0 0 1-.343-2.325A23.929 23.929 0 0 1 8 32c0-.787.034-1.565.12-2.352a23.35 23.35 0 0 1 .917-4.616c.231-.752.488-1.496.797-2.214.3-.726.634-1.443 1.002-2.126a23.792 23.792 0 0 1 2.613-3.917 23.56 23.56 0 0 1 1.586-1.746 23.14 23.14 0 0 1 1.748-1.582 22.603 22.603 0 0 1 1.893-1.401 26.289 26.289 0 0 1 2.014-1.219c.694-.372 1.405-.7 2.125-1.003a25.134 25.134 0 0 1 2.219-.795 22.042 22.042 0 0 1 2.288-.571A23.527 23.527 0 0 1 32.009 8a23.81 23.81 0 0 1 4.678.458c.771.156 1.534.346 2.288.571.745.233 1.491.493 2.21.795.729.303 1.431.64 2.125 1.003a24.463 24.463 0 0 1 5.655 4.202 21.726 21.726 0 0 1 1.586 1.746c.496.605.959 1.237 1.405 1.894a24.26 24.26 0 0 1 1.208 2.023c.377.691.702 1.4 1.002 2.126.309.727.566 1.47.797 2.214.223.752.42 1.513.574 2.282.146.77.266 1.548.343 2.334.077.779.12 1.565.12 2.352Z"/>
  </g>
  <g id="white">
    <path fill="#fff" fill-rule="nonzero" d="M29.601 18.231c-.54.651-.814 1.559-.814 2.733 0 .857.051 2.279.171 4.25l.609 10.136c.111 1.311.299 2.297.565 2.939.72 1.32 2.999 1.26 3.59-.043.292-.659.48-1.611.566-2.853l.814-10.436a31.94 31.94 0 0 0 .128-2.836c0-1.585-.18-2.785-.548-3.616-1.003-1.662-3.899-1.654-5.09-.274h.009Zm0 23.323c-.694.642-.814 1.431-.814 2.219 0 .788.163 1.868.848 2.348 1.294.899 3.453.882 4.747-.017.677-.472.857-1.5.848-2.322 0-.797-.188-1.774-.848-2.22-1.311-.899-3.65-1.122-4.781 0v-.008Z"/>
  </g>
</svg>
