<svg xmlns="http://www.w3.org/2000/svg" xml:space="preserve" fill-rule="evenodd" stroke-linejoin="round" stroke-miterlimit="2" clip-rule="evenodd" viewBox="0 0 64 64">
  <g id="blue">
    <path fill="#5271ff" fill-rule="nonzero" d="M55.402 12.637a7.54 7.54 0 0 0-1.637-2.414 7.483 7.483 0 0 0-2.413-1.63A7.432 7.432 0 0 0 48.397 8H15.593c-1.019 0-2.02.2-2.955.593a7.662 7.662 0 0 0-4.04 4.044A7.484 7.484 0 0 0 8 15.601v32.79c0 1.028.206 2.022.598 2.963a7.666 7.666 0 0 0 1.628 2.415 7.51 7.51 0 0 0 2.412 1.63 7.475 7.475 0 0 0 2.955.601h32.804c1.029 0 2.02-.2 2.955-.601a7.515 7.515 0 0 0 2.413-1.63 7.544 7.544 0 0 0 1.637-2.415A7.662 7.662 0 0 0 56 48.391v-32.79a7.663 7.663 0 0 0-.598-2.964Z"/>
  </g>
  <g id="white" fill="#f6f6f6" fill-rule="nonzero">
    <path d="M54.13 15.601c-.312-3.606-2.357-5.387-5.733-5.771H15.593c-3.399.407-5.281 2.104-5.695 5.073v33.488c.391 3.568 2.316 5.488 5.77 5.761h32.729c3.264-.319 5.218-1.963 5.733-5.064V15.601Zm-.879 32.79c0 2.519-2.06 4.824-4.854 4.855-10.934.12-21.87.12-32.804 0-1.334-.015-2.523-.518-3.429-1.424-.943-.944-1.41-2.15-1.424-3.431-.121-10.93-.121-21.861 0-32.79.014-1.281.48-2.485 1.424-3.427.907-.905 2.096-1.405 3.429-1.42 10.934-.12 21.87-.12 32.804 0 1.333.015 2.523.515 3.43 1.42.944.942 1.41 2.146 1.424 3.427.12 10.929.06 21.86 0 32.79Z"/>
    <path d="M26.796 36.349v10.373h-6.069V17.278H32.21c2.217 0 4.162.401 5.836 1.212 1.683.811 2.973 1.961 3.871 3.452.907 1.49 1.356 3.181 1.356 5.081 0 2.885-.982 5.16-2.964 6.825-1.974 1.665-4.704 2.493-8.201 2.493h-5.321l.009.008Zm-.009-4.916h5.423c1.609 0 2.824-.374 3.666-1.133.842-.758 1.263-1.83 1.263-3.233 0-1.404-.421-2.606-1.272-3.496-.842-.889-2.02-1.351-3.516-1.377h-5.564v9.239Z"/>
  </g>
</svg>
