<?xml version="1.0" encoding="utf-8"?>
<!-- Generator: Adobe Illustrator 26.1.0, SVG Export Plug-In . SVG Version: 6.00 Build 0)  -->
<svg version="1.1" id="Layer_1" xmlns:serif="http://www.serif.com/"
	 xmlns="http://www.w3.org/2000/svg" xmlns:xlink="http://www.w3.org/1999/xlink" x="0px" y="0px" viewBox="0 0 256 256"
	 style="enable-background:new 0 0 256 256;" xml:space="preserve">
<style type="text/css">
	.st0{display:none;}
	.st1{display:inline;fill-rule:evenodd;clip-rule:evenodd;fill:#C2BDBD;}
	.st2{fill:#292E36;}
	.st3{fill:#F5D53C;}
	.st4{fill-rule:evenodd;clip-rule:evenodd;fill:#D1F8FD;}
	.st5{display:inline;fill:#292E36;}
	.st6{display:inline;fill:#F5D53C;}
</style>
<g id="grey" class="st0">
	<path class="st1" d="M196.3,50c1.1,4.8,4.9,8.5,9.7,9.7v136.7c-4.8,1.1-8.5,4.9-9.7,9.7H59.7c-1.1-4.8-4.9-8.5-9.7-9.7V59.7
		c4.8-1.1,8.5-4.9,9.7-9.7H196.3z"/>
</g>
<g id="blue">
	<g>
		<rect x="36.4" y="44.3" class="st2" width="165.3" height="164.5"/>
		<rect x="112.3" y="48.2" class="st3" width="13.2" height="35.2"/>
		<rect x="112.2" y="92" class="st3" width="13.2" height="35.2"/>
		<rect x="112.3" y="135.4" class="st3" width="13.2" height="32.6"/>
		<rect x="112.1" y="176.1" class="st3" width="13.2" height="32.6"/>
	</g>
	<path class="st4" d="M32,54.4c-3.6-2.3-6-6.4-6-11c0-7.2,5.8-13,13-13c4.6,0,8.6,2.4,11,6H190c2.3-3.6,6.4-6,11-6
		c7.2,0,13,5.8,13,13c0,4.6-2.4,8.6-6,11v140.1c3.6,2.3,6,6.4,6,11c0,7.2-5.8,13-13,13c-4.6,0-8.6-2.4-11-6H50c-2.3,3.6-6.4,6-11,6
		c-7.2,0-13-5.8-13-13c0-4.6,2.4-8.6,6-11V54.4z M188.3,46.4H51.7c-1.1,4.8-4.9,8.5-9.7,9.7v136.7c4.8,1.1,8.5,4.9,9.7,9.7h136.7
		c1.1-4.8,4.9-8.5,9.7-9.7V56.1C193.2,55,189.5,51.2,188.3,46.4z"/>
</g>
<g class="st0">
	<rect x="38.2" y="42.1" class="st5" width="166.7" height="165.8"/>
	<rect x="114.7" y="46" class="st6" width="13.3" height="35.5"/>
	<rect x="114.6" y="90.1" class="st6" width="13.3" height="35.5"/>
	<rect x="114.7" y="133.9" class="st6" width="13.3" height="32.9"/>
	<rect x="114.5" y="174.9" class="st6" width="13.3" height="32.9"/>
</g>
</svg>
