<svg xmlns="http://www.w3.org/2000/svg" xml:space="preserve" fill-rule="evenodd" stroke-linejoin="round" stroke-miterlimit="2" clip-rule="evenodd" viewBox="0 0 64 64">
  <g id="blue">
    <path fill="#52c9dd" d="M35.684 23.094c-.653-1.152.423-4.162.841-5.228.36-.893.837-1.795 1.498-2.285.661-.481 1.565-.402 2.101.333.661.901.418 2.451-.184 3.431-.603.902-1.507 1.392-2.344 1.961-.723.487-1.314 1.06-1.912 1.788Zm0 0 .004.007-.017.009.013-.016ZM14.863 35.922a27.955 27.955 0 0 0-1.799-1.853h.016c-1.205-1.146-2.527-2.206-3.548-3.597a7.586 7.586 0 0 1-1.323-2.951c-.184-.735-.36-1.715 0-2.451.419-.892 1.323-.892 1.984-.647.72.245 1.381.901 1.983 1.549.72.814 1.44 1.803 2.344 2.206.904.49 2.042.411 2.704-.569.602-.902.602-2.206.418-3.353-.184-1.146-.485-2.372-.36-3.519.059-1.147.72-2.451 1.557-2.451.904 0 1.498 1.147 1.925 2.206.963 2.127 1.858 4.255 2.821 6.382.602 1.313 1.439 2.862 2.578 2.53 1.021-.246 1.439-1.795 1.749-3.187.301-1.313.778-2.862 1.8-3.107.904-.167 1.623.814 2.167 1.882.545 1.068.896 2.206 1.741 2.783.72.491 1.624.324 2.344-.254.72-.49 1.322-1.313 1.925-2.048a26.9 26.9 0 0 1 7.148-6.206c1.021-.657 2.16-1.147 3.298-1.068 1.138.078 2.285 1.068 2.586 2.529.477 2.206-1.08 4.334-2.586 5.402-1.507 1.068-3.365 1.882-4.143 3.93-.243.569-.36 1.471 0 1.961.36.569 1.079.333 1.557 0 .485-.333.962-.902 1.565-.814.778.079 1.322 1.392 1.197 2.451-.126 1.059-.72 1.961-1.264 2.775a22.527 22.527 0 0 1-1.677 1.941c-.471.203-.944.403-1.42.598.661-1.471 0-3.432-1.08-4.255-1.021-.814-2.343-.814-3.549-.814.536-.814.184-2.285-.544-2.862-.728-.578-1.565-.499-2.402-.246a10.652 10.652 0 0 0-4.269 2.285c-1.138.981-2.402 2.285-3.724 1.716-.846-.411-1.448-1.392-2.285-1.637-1.984-.578-3.482 3.353-5.525 3.108-1.029-.079-1.807-1.392-2.644-2.206-.837-.814-2.285-1.226-2.821 0-.247.53-.252 1.29-.444 1.861Zm7.475-27.449-.009-.009c1.323.981 2.402 3.187 2.821 4.745.427 1.794.427 3.764.301 5.637-.058.902-.778 2.872-1.197.99-.477-2.206-2.226-3.598-3.423-4.99-.661-.902-1.314-1.882-1.557-3.108-.242-1.225.059-2.696.837-3.353.728-.569 1.507-.481 2.227.088Zm28.65 19.871v-.008c.67-.823 1.39-1.392 2.168-1.716.243-.088.477-.166.661-.166 1.206-.246 2.528 1.225 2.101 3.028-.418 1.725-1.984 1.725-3.005 1.471-.661-.158-1.322-.324-1.983-.245-.235 0-.536.166-.779 0-.845-.403.536-1.952.837-2.364Z"/>
    <path fill="#5dcee8" d="M14.55 42.583c-1.237-1.155-2.534-2.344-3.805-3.533h-.008c-.36-.324-.779-.814-.837-1.47-.067-.823.661-1.471 1.255-1.471.595 0 1.206.411 1.808.648.603.245 1.323.245 1.741-.49.36-.569.302-1.559.603-2.206.536-1.226 1.984-.814 2.821 0 .837.814 1.615 2.127 2.644 2.206 2.043.245 3.541-3.686 5.525-3.108.837.245 1.439 1.226 2.285 1.637 1.322.569 2.586-.735 3.724-1.716a10.652 10.652 0 0 1 4.269-2.285c.837-.253 1.674-.332 2.402.246.728.577 1.08 2.048.544 2.862 1.206 0 2.528 0 3.549.814 1.08.823 1.741 2.784 1.08 4.255 1.799-.736 3.549-1.55 5.348-2.285.662-.254 1.381-.569 2.043-.412.661.158 1.322 1.06 1.197 1.961-.118.902-.779 1.392-1.382 1.716a370.83 370.83 0 0 0-2.914 1.72c-1.877-.054-3.743.356-5.506 1.073-.477.166-1.013.411-1.498.323-.536-.078-1.021-.656-1.021-1.304 0-.989 1.08-1.803.778-2.784-.125-.49-.602-.656-1.021-.735-1.682-.166-3.423.403-4.804 1.716-.72.656-1.323 1.47-2.043 1.961-.728.49-1.682.656-2.343-.079-.419-.499-.661-1.313-.963-2.049-.301-.735-.837-1.391-1.439-1.225-.662.166-.904 1.147-.963 2.048-.058.814-.058 1.795-.485 2.443-.486.823-1.323.823-2.043.735-1.079-.079-2.285-.158-3.122-1.147-.485-.569-.845-1.304-1.381-1.794-.544-.499-1.439-.333-1.565.569-.058.411.126.901.126 1.313 0 1.059-.963 1.637-1.741 1.392-.779-.167-1.381-.902-2.101-1.313a1.78 1.78 0 0 0-.757-.232Z"/>
    <path fill="#64d4f2" fill-rule="nonzero" d="M15.006 46.657c-.486-.332-1.022-.656-1.382-1.146-.359-.49-.602-1.392-.359-2.04.301-.989 1.322-1.068 2.042-.656.72.411 1.322 1.146 2.101 1.313.778.245 1.741-.333 1.741-1.392 0-.412-.184-.902-.126-1.313.126-.902 1.021-1.068 1.565-.569.536.49.896 1.225 1.381 1.794.837.989 2.043 1.068 3.122 1.147.72.088 1.557.088 2.043-.735.427-.648.427-1.629.485-2.443.059-.901.301-1.882.963-2.048.602-.166 1.138.49 1.439 1.225.302.736.544 1.55.963 2.049.661.735 1.615.569 2.343.079.72-.491 1.323-1.305 2.043-1.961 1.381-1.313 3.122-1.882 4.804-1.716.419.079.896.245 1.021.735.302.981-.778 1.795-.778 2.784 0 .648.485 1.226 1.021 1.304.485.088 1.021-.157 1.498-.323 1.808-.736 3.725-1.147 5.65-1.068.36 0 .845.087 1.021.49.176.402.059 1.059-.243 1.392-.301.332-.661.49-1.021.656-2.946 1.471-5.465 4.412-6.972 8.176-.661 1.716-.963 1.882-2.344 2.285-1.205.333-2.402.648-3.607.814a36.168 36.168 0 0 1-7.265.49c-2.042-.087-4.143-.245-6.127-.814-1.615-.49-1.867-2.617-2.879-4.175-1.139-1.629-2.587-3.187-4.143-4.325v-.009Z"/>
    <path fill="#5dcee8" fill-rule="nonzero" d="M32.608 53.853c-.36.49-1.08.569-1.557.569-.544.079-1.138.079-1.683.079-1.138 0-2.343-.079-3.481-.166-1.022-.079-2.043-.245-3.005-.569-.846-.333-1.565-1.06-1.984-2.128-.36-.901-.603-2.127-1.138-2.862-.117-.166 0-.49.184-.411.485.078.72.245 1.021.726.301.412.477.902.778 1.392.662 1.225 1.683 1.392 2.704 1.471 2.285.157 4.562.078 6.914.157.477 0 1.138 0 1.439.657.126.245.067.735-.184 1.068l-.008.017Zm3.063-1.803c-.125-.245-.301-.412-.485-.412h-.837c-.126.079-.185.079-.302.079-.058 0-.117.088-.184.167-.117.087-.184.245-.243.411v.411c0 .079.059.158.126.246.059.078.117.166.184.245.117.087.243.166.36.166h.126c.058 0 .184 0 .242.079.067 0 .184 0 .243-.079h.117c.126-.079.302-.166.419-.333.067-.078.184-.245.242-.411.059 0 .059-.333 0-.569h-.008Z"/>
  </g>
  <g id="white">
    <path fill="#fff" fill-rule="nonzero" d="M23.953 12.885c0 .569-.603.814-.837.333-.059-.167-.125-.412-.184-.569 0 0 0-.088-.059-.088 0-.079-.067-.166-.067-.245-.058-.166-.117-.245-.184-.411l-.058-.088c-.059-.079-.059-.166-.118-.166-.066-.079-.184-.245-.242-.324l-.059-.088c-.058-.079-.125-.079-.125-.166-.059 0-.059-.079-.118-.079-.067-.079-.125-.166-.184-.245-.125-.166-.184-.333-.242-.49-.059-.166 0-.333.125-.412.301-.245.661-.087.963.167.242.166.485.411.661.735.184.245.36.569.544.98.059.333.176.736.176 1.147l.008.009Zm.301 1.882c0-.087-.058-.166-.058-.166l-.067-.079c-.059 0-.117-.088-.184-.088h-.117c-.059 0-.059.088-.126.088-.059 0-.059.079-.059.158v.253c0 .079.059.167.059.167l.067.079c.059 0 .117.078.176.078h.125c.059 0 .059-.078.126-.078.058 0 .058-.079.058-.167v-.245Zm15.502 2.617c0 .167 0 .324-.059.412-.059.079-.059.245-.117.333-.067.078-.126.078-.126.157-.058.088-.125.088-.184 0h-.058c-.185 0-.243-.245-.185-.411 0-.079.059-.167.059-.167-.059.088 0 0 0 0v-.569s0-.078-.059-.078c-.125-.079-.125-.333 0-.491.059-.166.243-.166.302-.078.242.245.418.569.418.901l.009-.009Zm10.152 3.677c0-.166-.184-.245-.301-.245-.117 0-.243.166-.243.333v.245a.276.276 0 0 1-.067.166v.079c-.058.087-.058.166-.117.333 0 .078-.067.078-.067.166 0 0 0 .079-.058.079-.059.087-.126.166-.184.245 0 0-.059.087-.126.087h-.059c-.184.167-.359.245-.485.412l-.059.087c-.184.158-.058.569.126.648h.059c.058 0 .125.079.184.079.058 0 .125 0 .242-.079.126-.079.185-.166.302-.245.184-.166.36-.411.485-.657.36-.49.419-1.146.36-1.715l.008-.018Zm-2.159 2.95v-.087c0-.079-.059-.079-.126-.167h-.242c-.059 0-.126.088-.184.088 0 0-.059 0-.059.079l-.067.087a.277.277 0 0 0-.059.167v.157c0 .088.059.088.059.166.045.059.087.088.126.088h.301c.058 0 .117 0 .184-.088.039 0 .078-.026.117-.078.067 0 .067-.088.067-.088 0-.079.059-.079.059-.157-.184-.088-.184-.167-.184-.167h.008Zm7.332 5.314a.145.145 0 0 0-.243 0h.059c-.039 0-.081.026-.126.079h-.418c-.059 0-.126-.079-.126 0-.058 0-.117 0-.117.087-.067.079-.067.245-.067.324.067.166.126.254.243.333.117.087.243.087.36.087.117 0 .243-.087.36-.087.058 0 .117-.079.117-.167.067-.078.067-.245.126-.324 0-.166-.059-.253-.185-.332h.017Zm-45.482-1.97c0-.157-.059-.324-.059-.411v-.412c.059-.245.184-.411.125-.647v.078c0-.078-.066-.166-.125-.166s-.126-.079-.184 0c-.059 0-.126 0-.126.088-.058.078-.117.166-.184.245-.058.166-.117.245-.117.411a2.049 2.049 0 0 0 0 .902c0 .078.059.166.059.245.058.087.125.166.184.245.125.087.242.087.301 0 .059-.079.117-.158.117-.245v-.333h.009Zm0-.893s-.059.079 0 0Zm-.059-.823s.059 0 0 0c.039 0 .039 0 0 0Zm.477 2.95c-.243 0-.243.491 0 .491s.243-.491 0-.491Z"/>
  </g>
</svg>
