<svg xmlns="http://www.w3.org/2000/svg" xml:space="preserve" fill-rule="evenodd" stroke-linejoin="round" stroke-miterlimit="2" clip-rule="evenodd" viewBox="0 0 64 64">
  <g id="grey">
    <path fill="#50505b" d="M17.408 56h-2.292V8h2.292v48Zm.974-48h13.153v2.88h.93V8h13.144v48H32.465v-2.81h-.93V56H18.382V8Zm28.21 0h2.283v48h-2.283V8Zm-14.127 6.98h-.93v5.461h.93V14.98Zm0 9.553h-.93v5.461h.93v-5.461Zm0 19.105h-.93v5.461h.93v-5.461Zm0-9.553h-.93v5.461h.93v-5.461Z"/>
  </g>
  <g id="white">
    <path fill="#fff" d="M18.382 56h-.974V8h.974v48ZM45.609 8h.983v48h-.983V8ZM32.465 8v2.88h-.93V8h.93Zm0 6.98v5.461h-.93V14.98h.93Zm0 9.553v5.461h-.93v-5.461h.93Zm0 9.552v5.461h-.93v-5.461h.93Zm0 9.553v5.461h-.93v-5.461h.93Zm0 9.552V56h-.93v-2.81h.93Z"/>
  </g>
  <g id="black">
    <path d="m23.17 17.21 5.575 1.449 9.403-1.624-9.1 2.317-.415.097-5.766-1.308-2.589 1.528-.563.333-4.208-.685-.095-1.123 3.515.64 3.031-1.641.363-.194.849.22v-.009Zm25.653 30.423v.008l.061 1.774-2.243-1.317-3.142-.632.632-1.115-1.576.658.242 2.415-7.523-.106 1.16 3.723-2.217-4.126 7.914.228v-2.476l2.19-.913-2.753-.211-1.896 1.87-8.979-3.916-1.584 1.352 1.394-1.799 8.978 3.836 1.94-1.694 3.376.228-5.679-1.923.961-2.976-3.992.43-.294.518-.216-.456-3.247-.65 3.247.281 5.021-.422-.528 2.889 5.61 2.195-1.29 1.659 4.433.668ZM30.919 30.354l.017.017.199-.562-1.29.387-.589-.676-6.857-2.064 6.632 1.704 1.931.219-.355-1.51-.926-4.214 1.264 3.968.995 1.396.849-1.721-.39 1.835 1.628-.843 7.307-5.32-6.805 5.601-.857.536 2.415-.088 4.2-.808-3.715.87s5.256.597 5.126.597l-5.533-.413-2.251.176.468.202 5.705 5.566-6.164-5.259-.987.211-3.619 3.037 3.056-2.914-.84.175-7.42 2.994 6.806-3.099Z"/>
  </g>
</svg>
