<svg xmlns="http://www.w3.org/2000/svg" xml:space="preserve" fill-rule="evenodd" stroke-linejoin="round" stroke-miterlimit="2" clip-rule="evenodd" viewBox="0 0 64 64">
  <g id="grey">
    <path fill="#758193" d="M49.454 12.085a3.32 3.32 0 0 0 2.461 2.461v34.908a3.32 3.32 0 0 0-2.461 2.461H14.546a3.32 3.32 0 0 0-2.461-2.461V14.546a3.32 3.32 0 0 0 2.461-2.461h34.908Z"/>
    <path fill="#474b51" d="m27.455 16.252-.01-.01s7.323 1.082 7.506 1.235c.205.133 7.997 5.883 8.303 6.036.307.133 5.362 9.467 5.464 9.723.005.009.003.031-.005.066l-7.358 4.101-.021-.021s-5.821-5.004-5.954-5.157c-.051-.051-.408-.082-.898-.082-.358 0-.797.031-1.185.031-.357.03-.725.03-.929.03h-.154l-.105.022a.077.077 0 0 1 .034-.012l-.009-.012.029-.028c-.007 0-.019.006-.037.017-.308-.426-4.754-6.579-4.803-6.707-.021-.102.183-6.699.286-9.201-.052-.031-.133-.031-.133-.031h-.021Z"/>
    <path fill="#292c2f" fill-rule="nonzero" d="M36.963 45.91c-.572 0-7.659-3.452-7.894-3.452-.031 0-.184-.031-.439-.051.98-2.094 1.807-3.84 1.828-3.871l-1.318-3.452h.031c.133 0 .827-.725 1.522-1.44.051-.051.102-.133.153-.153l1.368-1.287h.154c.204 0 .572 0 .929-.03.388 0 .827-.031 1.185-.031.49 0 .847.031.898.082.133.153 5.954 5.157 5.954 5.157l-.643 5.178s-3.329 3.299-3.738 3.35"/>
    <path fill="#101213" d="M19.625 41.686c.02.023.048.055.048.047-.03-.082-.082-.153-.133-.337a.388.388 0 0 0-.033-.1c1.776.207 7.412.928 9.062 1.111l-.014.028c.299.034.484.054.514.054.235 0 7.506 3.533 7.915 3.451.408-.071 3.738-3.349 3.738-3.349l-.011-.011.644-5.177 7.404-4.126c.133.255-5.025 11.295-5.025 11.295s-6.73 1.654-6.883 1.705c-.153.052-6.832 0-6.832 0s-8.456-2.297-8.508-2.553l-.001-.01c-.012-.007-.021-.014-.029-.02-.051-.256-1.573-1.655-1.777-1.91l-.079-.098Zm0 0c-.021-.025-.033-.041 0 0Zm-.122-.391c-.003.005-.004.023-.014-.001l.014.001Z"/>
    <path fill="#3b3e43" fill-rule="nonzero" d="M29.12 35.084c-.102-.184-9.59-3.431-9.59-3.431s-1.756-5.934-1.756-6.036c0-.102-.307-6.291-.307-6.291.388-.439 5.413-1.859 8.222-2.635a24.341 24.341 0 0 1 1.756-.439h.031s.081 0 .133.031c-.103 2.502-.307 9.099-.286 9.201.051.133 4.82 6.73 4.82 6.73-.102 0-.725.623-1.338 1.287l-1.675 1.573"/>
    <path fill="#242629" fill-rule="nonzero" d="M15.067 29.375c-.03-.102-.133-1.082-.235-2.165-.102-1.062-.183-2.196-.183-2.635 0-.102 0-.153.03-.184.102-.183 2.114-4.177 2.737-5.004.031-.03.051-.051.051-.081l.031-.031s.306 6.189.306 6.291c0 .102 1.726 6.056 1.726 6.056h-.02l-2.839 2.094"/>
    <path fill="#1a1d1f" fill-rule="nonzero" d="M28.609 42.407c-1.654-.184-7.353-.899-9.079-1.113-.51-1.267-1.777-4.698-2.839-7.558l2.839-2.093 9.621 3.4 1.286 3.452-1.828 3.891"/>
  </g>
  <g id="blue">
    <path fill="#d1f8fd" d="M9.532 14.117A3.326 3.326 0 0 1 8 11.319 3.325 3.325 0 0 1 11.319 8c1.175 0 2.206.613 2.798 1.532h35.766A3.326 3.326 0 0 1 52.681 8 3.325 3.325 0 0 1 56 11.319a3.326 3.326 0 0 1-1.532 2.798v35.766A3.326 3.326 0 0 1 56 52.681 3.325 3.325 0 0 1 52.681 56a3.326 3.326 0 0 1-2.798-1.532H14.117A3.326 3.326 0 0 1 11.319 56 3.325 3.325 0 0 1 8 52.681c0-1.175.613-2.206 1.532-2.798V14.117Zm39.922-2.032H14.546a3.32 3.32 0 0 1-2.461 2.461v34.908a3.32 3.32 0 0 1 2.461 2.461h34.908a3.32 3.32 0 0 1 2.461-2.461V14.546a3.32 3.32 0 0 1-2.461-2.461Z"/>
  </g>
</svg>
