<?xml version="1.0" encoding="utf-8"?>
<!-- Generator: Adobe Illustrator 26.1.0, SVG Export Plug-In . SVG Version: 6.00 Build 0)  -->
<svg version="1.1" id="Layer_1" xmlns:serif="http://www.serif.com/"
	 xmlns="http://www.w3.org/2000/svg" xmlns:xlink="http://www.w3.org/1999/xlink" x="0px" y="0px" viewBox="0 0 256 256"
	 style="enable-background:new 0 0 256 256;" xml:space="preserve">
<style type="text/css">
	.st0{display:none;}
	.st1{display:inline;fill-rule:evenodd;clip-rule:evenodd;fill:#C2BDBD;}
	.st2{display:none;fill-rule:evenodd;clip-rule:evenodd;fill:#1177AA;}
	.st3{fill:#EDB856;}
	.st4{fill:#DCAD52;}
	.st5{fill:#F3C56C;}
	.st6{fill:#F4C56D;}
	.st7{fill-rule:evenodd;clip-rule:evenodd;fill:#D1F8FD;}
</style>
<g id="grey" class="st0">
	<path class="st1" d="M196.3,50c1.1,4.8,4.9,8.5,9.7,9.7v136.7c-4.8,1.1-8.5,4.9-9.7,9.7H59.7c-1.1-4.8-4.9-8.5-9.7-9.7V59.7
		c4.8-1.1,8.5-4.9,9.7-9.7H196.3z"/>
</g>
<g id="blue">
	<path class="st2" d="M91,57.8v29.4c0,4.6-3.7,8.3-8.3,8.3H53.3c-4.6,0-8.3-3.7-8.3-8.3V57.8c0-4.6,3.7-8.3,8.3-8.3h29.4
		C87.3,49.4,91,53.2,91,57.8z M91,109.8v29.4c0,4.6-3.7,8.3-8.3,8.3H53.3c-4.6,0-8.3-3.7-8.3-8.3v-29.4c0-4.6,3.7-8.3,8.3-8.3h29.4
		C87.3,101.4,91,105.2,91,109.8z M91,161.8v29.4c0,4.6-3.7,8.3-8.3,8.3H53.3c-4.6,0-8.3-3.7-8.3-8.3v-29.4c0-4.6,3.7-8.3,8.3-8.3
		h29.4C87.3,153.4,91,157.2,91,161.8z M143,57.8v29.4c0,4.6-3.7,8.3-8.3,8.3h-29.4c-4.6,0-8.3-3.7-8.3-8.3V57.8
		c0-4.6,3.7-8.3,8.3-8.3h29.4C139.3,49.4,143,53.2,143,57.8z M143,109.8v29.4c0,4.6-3.7,8.3-8.3,8.3h-29.4c-4.6,0-8.3-3.7-8.3-8.3
		v-29.4c0-4.6,3.7-8.3,8.3-8.3h29.4C139.3,101.4,143,105.2,143,109.8z M143,161.8v29.4c0,4.6-3.7,8.3-8.3,8.3h-29.4
		c-4.6,0-8.3-3.7-8.3-8.3v-29.4c0-4.6,3.7-8.3,8.3-8.3h29.4C139.3,153.4,143,157.2,143,161.8z M195,57.8v29.4c0,4.6-3.7,8.3-8.3,8.3
		h-29.4c-4.6,0-8.3-3.7-8.3-8.3V57.8c0-4.6,3.7-8.3,8.3-8.3h29.4C191.3,49.4,195,53.2,195,57.8z M195,109.8v29.4
		c0,4.6-3.7,8.3-8.3,8.3h-29.4c-4.6,0-8.3-3.7-8.3-8.3v-29.4c0-4.6,3.7-8.3,8.3-8.3h29.4C191.3,101.4,195,105.2,195,109.8z
		 M195,161.8v29.4c0,4.6-3.7,8.3-8.3,8.3h-29.4c-4.6,0-8.3-3.7-8.3-8.3v-29.4c0-4.6,3.7-8.3,8.3-8.3h29.4
		C191.3,153.4,195,157.2,195,161.8z"/>
	<path class="st3" d="M37.5,206.7l0.2-164.4l164.4-1.4l-0.2,164.4L37.5,206.7"/>
	<g>
		<path class="st4" d="M107.9,176.5h-0.5c-0.8,0-1.6,0.5-2.5,0.9c-0.6,0.2-2,1.4-3.8,3.3c-2.1,2.1-6,6.8-11.4,14l12.9,0.2H127
			c-3-3.1-5.2-5.4-6.8-7.3c-1.1-1.2-3.4-3.7-7-8.2c-0.4-0.5-0.8-0.9-1.2-1.2c-0.7-0.7-1.5-1.2-2.4-1.6
			C109.2,176.5,108.7,176.5,107.9,176.5L107.9,176.5z"/>
		<path class="st4" d="M128.7,183L128.7,183c-0.9,0-2.1,0.5-3.6,1.4c-0.6,0.5-1.5,1.2-2.4,1.9l-4.8,4.2c-0.8,0.7-1.5,0.9-1.9,1.2
			c-1.3,0.7-2.8,0.9-4.4,0.7l12.5,2.5h16.9l-5.3-5.9c-0.8-1.4-1.9-2.8-3.2-4.2c-0.8-0.7-1.5-1.2-1.7-1.4
			C130.3,183.2,129.4,183,128.7,183L128.7,183z"/>
		<path class="st5" d="M128.6,183h-0.3c-0.9,0.2-2.1,0.7-3.3,1.4c-0.5,0.5-1.2,0.9-2.3,1.7c-2.5,2.3-4.1,3.8-4.8,4.2
			c-0.8,0.7-1.5,0.9-1.7,1.2c-1.5,0.9-2.9,1.2-4.6,0.9l12,2.3h6.3c-0.3-0.5-0.3-1.4-0.3-2.8c0-0.9,0.2-1.9,0.5-3
			c0.1-0.9,0.1-1.4,0.1-1.9c0-0.2-0.1-0.5-0.1-0.5c-0.5-0.7-0.9-1.6-1.2-2.3C128.8,183.9,128.8,183.4,128.6,183L128.6,183L128.6,183
			z"/>
		<path class="st6" d="M119.8,190h-0.5c0,0-0.1,0-0.1,0.2c-0.1,0-0.4,0.2-1.1,0.5H118c-0.4,0.2-0.9,0.7-1.5,1.2
			c-0.4,0.2-0.6,0.5-0.8,0.5l0,0c-0.3,0-0.5,0.2-1.1,0.2c-0.4,0-0.6,0.5-0.6,1.2s0.3,1.2,0.7,1.2c0.5,0,1.1,0,1.3-0.2l0,0
			c0,0,0.4-0.2,0.9-0.7l0,0c0.5-0.5,0.9-0.7,1.3-1.2c0.6-0.2,1.1-0.5,1.2-0.5h0.1c0.4,0,0.6-0.5,0.6-1.2
			C120.6,190.5,120.3,190.1,119.8,190L119.8,190z"/>
		<path class="st6" d="M121.4,192.8C121.4,192.8,121.3,192.8,121.4,192.8C121.5,192.8,121.5,192.8,121.4,192.8z"/>
		<path class="st6" d="M114.9,194.7L114.9,194.7v0.2l0,0V194.7L114.9,194.7z"/>
		<path class="st6" d="M115.5,193.3h-0.3l-0.1,0.2l-0.1,0.2l0,0v-0.5L115.5,193.3 M123.5,191.9h-0.3l-0.5,0.2l-0.4,0.2
			c0,0-0.3,0-0.4,0.2h-0.3c0,0-0.5,0.2-1.2,0.2H114c-0.3,0-0.4,0.2-0.5,0.5c-0.1,0.2-0.1,0.5-0.1,0.5c0,0.2,0,0.5,0.1,0.5h9.2
			l0.6-0.2l0.4-0.2h0.8c0,0,0.3-0.2,0.4-0.5c0.3-0.5,0.1-0.9,0-1.4c-0.1-0.2-0.3-0.2-0.4-0.2h-1.1L123.5,191.9L123.5,191.9z"/>
		<path class="st6" d="M115.9,193h0.4c0,0,0.1,0.2,0.3,0.5l0,0l-0.1-0.2l0,0L115.9,193L115.9,193 M119.5,192.6h-1.6
			c0,0-0.8,0.2-1.9,0.2h-2.5c0,0-0.3,0.2-0.4,0.5c-0.1,0-0.1,0.2-0.1,0.5c0,0.5,0,0.7,0.1,0.9h3.5c0.1-0.5,0.3-0.7,0.1-1.2
			c0,0.2,0.1,0.5,0,0.7c0,0.2-0.1,0.5-0.1,0.5h2.8c0,0,0.3,0,0.4-0.2c0.1-0.2,0.2-0.2,0.3-0.2c0.1-0.2,0.3-0.5,0.3-0.7
			s0-0.5-0.1-0.9L119.5,192.6L119.5,192.6z"/>
		<path class="st6" d="M120.4,192.6c-0.3,0-0.5,0.2-0.6,0.7v0.2C119.7,192.8,120,192.6,120.4,192.6z"/>
		<path class="st6" d="M118.6,192.8c-0.3,0-0.5,0.5-0.5,0.9v0.2C118.1,193.3,118.4,192.8,118.6,192.8z"/>
		<path class="st6" d="M119.7,193.7L119.7,193.7v0.2c0,0,0,0.2,0.1,0.2h-0.3v-0.7L119.7,193.7L119.7,193.7"/>
		<path class="st6" d="M113.4,192.1L113.4,192.1c-0.3,0-0.5,0.2-0.5,0.5c-0.1,0.5-0.1,0.7,0,0.9c0.1,0.2,0.1,0.5,0.1,0.5l0.1,0.2
			c0.3,0.2,0.5,0.5,0.8,0.4h6.5c0,0,0.3-0.2,0.4-0.2c0.1-0.5,0.1-0.7,0.1-1.2c0-0.2-0.3-0.5-0.4-0.7h-1.1l-0.6,0.2h-0.8l-0.9,0.2
			h-1.7l-0.6-0.2c0,0-0.3,0-0.4-0.2c-0.1,0-0.4-0.2-0.7-0.5C113.7,192.1,113.4,192.1,113.4,192.1z M118,194L118,194v0.2l0,0l0.1,0.2
			h0.1L118,194"/>
		<path class="st6" d="M123.9,193.2L123.9,193.2C123.9,193.2,123.8,193.2,123.9,193.2c-0.6,0.2-1.1,0.5-1.6,0.5h-3.9
			c-0.3,0-0.6,0-1.3-0.2H117c0,0-0.3,0.2-0.4,0.5c-0.1,0.2-0.1,0.5-0.1,0.7h8c0.1-0.5,0.1-0.7,0-1.2
			C124.4,193.5,124.2,193.3,123.9,193.2L123.9,193.2z"/>
		<path class="st5" d="M107.9,176.5h-0.5c-0.8,0-1.9,0.5-3.1,1.4c-0.8,0.5-2.1,1.9-4.1,3.8c-2.3,2.3-5.7,6.8-10.6,13.1l12.9,0.2
			h11.1l0.4-1.2c0-0.9,0-1.4-0.1-1.9c0,0-0.1-0.2-0.3-0.2c-1.5-0.9-2.4-1.6-2.8-2.1c-0.4-0.2-0.5-0.9-0.8-1.6
			c-0.1-0.5,0-1.2,0.3-1.6l2.1-3.7l0.1-0.5l-0.1-0.2l-2.1-1.6l-0.3-0.5c-0.5-0.7-0.8-1.9-0.9-3.3L107.9,176.5"/>
		<path class="st4" d="M165.9,109h0.9c1.2,0.2,2.5,0.7,4,1.6c1.1,0.4,3.1,2.3,6.3,5.3c3.5,3.5,9.5,11,18.2,22.6l-20.7,0.5l-39,0.1
			c4.6-4.9,8.4-8.9,10.9-11.7c1.7-1.9,5.3-6.1,11-13.1c0.6-0.7,1.2-1.4,1.9-2.1c1.1-0.9,2.3-1.9,3.7-2.8
			C163.7,109.2,164.7,109,165.9,109z"/>
		<path class="st4" d="M132.7,119.8h0.1c1.3,0,3.2,0.7,5.6,2.3c1.1,0.7,2.4,1.9,3.9,3c4.1,3.7,6.7,6.1,7.6,6.7
			c1.2,0.9,2.3,1.6,3,2.1c2.1,1.2,4.5,1.6,7.1,1.1l-20,4.2h-26.8l8.4-9.3c1.3-2.1,3.1-4.4,5.2-6.8c1.3-1.2,2.3-2.1,2.7-2.1
			C130.6,120,131.7,119.7,132.7,119.8L132.7,119.8z"/>
		<path class="st6" d="M165.7,109L165.7,109c2.5,0.4,4.4,1.2,5.7,2.1c1.1,0.7,3.4,2.8,6.8,6.3c4.9,5.6,10.5,12.6,17,21.2l-20.7,0.5
			l-39,0.1c4.2-4.4,7.6-8,10.2-11l1.7,2.5l1.9,1.6c0.3,0.2,0.4,0.2,0.7,0.5c0.6,0.2,1.2,0.2,1.7,0l0.8-0.5l1.2-0.9
			c0.5-0.7,0.9-1.4,1.2-2.6c0.5-0.7,1.1-1.4,1.2-1.9c0.6-0.2,1.6-1.2,2.7-2.8c0.5-1.2,1.3-3.3,2.5-6.3l3.1-5.4
			c0.1-0.2,0.3-1.4,0.1-3.3L165.7,109L165.7,109z"/>
		<path class="st6" d="M125.8,129.8l-0.1,0.2l-0.1,0.2l-0.1,0.2l-0.1,0.2l-0.1,0.2h-0.3c0,0,0.3-0.2,0.4-0.2c0.1,0,0.1,0,0.3-0.2
			h0.1C125.6,130.1,125.7,130.1,125.8,129.8"/>
		<path class="st6" d="M133,119.8h0.4c0.6,0.2,1.7,0.4,3,0.9c0.9,0.4,2.3,1.4,3.9,2.5c0.4,0.2,2.3,1.9,5.6,4.9
			c0.3,0.2,0.8,0.9,1.7,2.3c1.2,0.9,1.9,1.6,1.9,1.6c0.3,0.2,0.4,0.2,0.5,0.5c0.4,0.2,0.8,0.2,1.5,0.2c1.7,1.2,3.1,1.9,3.9,2.1
			c1.7,0.4,3.3,0.4,4.6,0.2l-19.8,4h-20l0.5-0.6c1.7-1.2,2.7-1.9,2.8-2.1c0.8-1.9,1.7-4,2.5-6.7C127.5,128.3,129.9,125,133,119.8
			L133,119.8z"/>
		<path class="st6" d="M119,132.4L119,132.4c0,0.7,0,1.2,0.1,1.6c0.1,0.4,0.1,0.7,0.3,0.9c0.2,0.2,0.1,0.5,0.3,0.7
			c0.4,0.7,0.9,1.4,1.5,1.6l-0.5-0.2l-0.4-0.2l-0.4-0.5l-0.3-0.5l-0.3-0.5l-0.1-0.7L119,134V132.4"/>
		<path class="st4" d="M65.2,123.2h-0.8c-1.1,0.2-2.1,0.7-3.3,1.4c-0.8,0.5-2.5,1.9-5.1,4.4c-2.8,2.8-7.7,9.3-14.9,19.2l16.9,0.4
			l32.1-0.1c-3.9-4.2-7-7.4-8.9-9.8c-1.3-1.4-4.4-5.1-9.1-11.2c-0.5-0.7-1.1-1.2-1.6-1.6c-0.8-0.9-1.9-1.6-3.1-2.3
			C67,123.5,66.2,123.3,65.2,123.2L65.2,123.2z"/>
		<path class="st4" d="M92.4,132.2L92.4,132.2c-1.2,0-2.7,0.5-4.6,1.9c-0.9,0.7-1.9,1.4-3.2,2.6c-3.5,3.3-5.5,5.1-6.3,5.9
			c-1.1,0.9-1.9,1.4-2.4,1.7c-1.7,0.9-3.7,1.4-5.9,0.9l16.4,3.5h22.1l-7-8c-1.1-1.9-2.5-3.7-4.3-5.8c-1.1-1.2-1.9-1.6-2.3-1.9
			C94.2,132.5,93.3,132.3,92.4,132.2L92.4,132.2z"/>
		<path class="st6" d="M65,123.2h-0.4c-2.3,0.7-3.7,1.4-4.4,1.9c-0.1,0-1.9,1.6-5.3,5.1c-4,4.7-8.6,10.8-13.8,18l16.9,0.4l32.1-0.1
			l-8.2-8.9l-0.6,0.5c-0.4,1.2-1.1,2.1-1.9,3.3c-0.3,0.5-0.6,0.7-1.2,1.2c-0.6,0.2-1.3,0.2-1.9-0.2c-0.8,0.2-1.2,0.2-1.2,0.2
			c-0.4,0-0.9-0.2-1.3-0.9c-1.2-1.4-2.3-3.3-3.4-5.4c-0.1-0.2-0.8-2.5-2-7.2l-0.8-1.9l-1.5-4.4c-0.3-0.5-0.5-0.7-0.7-1.2L65,123.2
			L65,123.2L65,123.2z"/>
		<path class="st6" d="M92.2,132.2h-0.5c-1.7,0.5-3.6,1.4-5.9,3.3l-1.5,1.2c-0.5,0.9-1.2,1.9-1.9,2.6c-0.5,0.5-0.9,0.7-1.2,0.7
			c-0.4,0.9-0.8,1.6-1.2,2.3l-1.2,1.4c-0.3,0.2-0.4,0.5-0.6,0.5c-0.6,0.2-1.3,0.2-2-0.2c-0.4,0.2-0.8,0.2-1.3,0.2l-1.6,0.7h-0.5
			c-0.8,0.2-1.6,0.2-2.5,0l16,3.2h14.7l-1.1-4.7l-0.9-2.5l-0.7-0.9c-0.5-0.2-1.2-0.9-1.9-1.9c-0.7-1.2-1.2-2.3-1.6-3.5l-2.1-3
			L92.2,132.2L92.2,132.2z"/>
		<path class="st4" d="M114.4,93H114c-0.6,0-1.3,0.5-2.1,0.9c-0.5,0.2-1.6,1.2-3.2,2.8c-1.7,1.9-4.9,5.9-9.3,12.2l10.7,0.2h20.1
			c-2.4-2.6-4.3-4.7-5.6-6.3c-0.9-0.9-2.8-3.3-5.7-7c-0.3-0.5-0.7-0.7-0.9-1.2c-0.5-0.5-1.2-1.2-1.9-1.4
			C115.5,93.2,115,93.2,114.4,93L114.4,93z"/>
		<path class="st4" d="M131.5,98.8L131.5,98.8c-0.8,0-1.7,0.5-2.9,1.2c-0.5,0.5-1.2,0.9-2,1.6c-2.1,2.1-3.5,3.3-4,3.8
			c-0.6,0.5-1.2,0.9-1.6,1.2c-1.1,0.7-2.3,0.9-3.6,0.7l10.3,2.1h13.9l-4.4-5.1c-0.7-1.2-1.6-2.3-2.7-3.7c-0.7-0.7-1.2-1.2-1.5-1.2
			C132.6,99,132,98.8,131.5,98.8L131.5,98.8z"/>
		<path class="st5" d="M131.3,98.8h-0.3c-0.8,0.2-1.7,0.5-2.7,1.4c-0.4,0.2-1.1,0.7-1.9,1.4c-2.1,2.1-3.5,3.3-4,3.8
			c-0.6,0.5-1.2,0.9-1.5,0.9c-1.2,0.7-2.4,0.9-3.7,0.7l9.9,2.1h5.2c-0.3-0.5-0.3-1.2-0.3-2.6c0-0.7,0.1-1.6,0.4-2.8
			c0.1-0.7,0.1-1.2,0.1-1.6c0-0.2,0-0.3-0.1-0.5c-0.4-0.7-0.7-1.4-1.1-2.1C131.5,99.5,131.4,99.3,131.3,98.8L131.3,98.8L131.3,98.8z
			"/>
		<path class="st6" d="M124.1,104.9h-0.5c0,0-0.4,0.2-0.8,0.5h-0.1c-0.4,0.2-0.8,0.7-1.2,0.9c-0.4,0.5-0.6,0.7-0.6,0.7l0,0
			c-0.3,0-0.5,0.2-0.8,0.2s-0.5,0.5-0.5,0.9c0,0.4,0.3,0.9,0.5,0.9c0.4,0,0.8,0,1.1-0.2l0,0c0,0,0.4-0.2,0.8-0.7l0,0
			c0.4-0.5,0.8-0.7,1.1-0.9c0.5-0.2,0.8-0.5,0.9-0.5h0.1c0.3,0,0.5-0.5,0.5-0.9S124.4,104.9,124.1,104.9L124.1,104.9z"/>
		<path class="st6" d="M120,108.9L120,108.9v0.2l0,0V108.9L120,108.9z"/>
		<path class="st6" d="M120.6,107.9h-0.1v-0.7h0.3L120.6,107.9L120.6,107.9 M127.1,106.8h-0.3l-0.4,0.2l-0.3,0.2h-0.6
			c0,0-0.4,0.2-0.9,0.2h-5.3c0,0-0.3,0.2-0.4,0.5c0,0.2-0.1,0.2-0.1,0.5v0.5h7.6l0.5-0.2l0.3-0.2h0.6c0,0,0.3-0.2,0.3-0.5
			c0.1-0.5,0.1-0.7,0-1.4c0,0.2-0.1,0.2-0.3,0.2L127.1,106.8L127.1,106.8z"/>
		<path class="st6" d="M121,107.5h0.1c0,0,0.1,0.2,0.3,0.5h-0.1L121,107.5L121,107.5 M123.7,107.2h-1.3c0,0-0.6,0-1.6,0.2h-2.1
			c0,0-0.3,0.2-0.4,0.2c0,0-0.1,0.2-0.1,0.5c0,0.2,0,0.7,0.1,0.7h2.8c0.1-0.2,0.1-0.7,0.1-0.9c0,0.2,0.1,0.5,0,0.7
			c0,0.2-0.1,0.5-0.1,0.5h2.5c0,0,0.1,0,0.1-0.2c0.1-0.2,0.3-0.5,0.3-0.7c0-0.2,0-0.5-0.1-0.7C124.1,107.2,123.9,107.2,123.7,107.2
			L123.7,107.2z"/>
		<path class="st6" d="M124.6,107.2c-0.3,0-0.4,0.2-0.5,0.7v0.2C124,107.5,124.1,107.2,124.6,107.2z"/>
		<g>
			<path class="st6" d="M123.2,107.5c-0.3,0-0.4,0.5-0.4,0.7v0.2C122.7,107.7,122.8,107.5,123.2,107.5z"/>
			<path class="st6" d="M124,108.1L124,108.1v0.2c0,0,0,0.2,0.1,0.2l0.1,0.2h-0.1v-0.2L124,108.1L124,108.1"/>
		</g>
		<path class="st6" d="M118.8,106.8L118.8,106.8c-0.3,0-0.4,0.2-0.5,0.5c-0.1,0.2-0.1,0.7,0,0.9c0,0.2,0.1,0.2,0.1,0.2l0.1,0.2
			c0.3,0.2,0.4,0.5,0.7,0.5h5.3l0.3-0.2c0.1-0.2,0.1-0.7,0.1-1.2c0-0.2-0.1-0.5-0.4-0.5h-0.9l-0.5,0.2h-0.6l-0.8,0.2h-2
			c0,0-0.3,0-0.4-0.2c-0.1,0-0.3-0.2-0.5-0.5C119,107,119,106.8,118.8,106.8L118.8,106.8z M122.7,108.4L122.7,108.4v0.2l0,0v0.5h0.1
			L122.7,108.4L122.7,108.4"/>
		<path class="st6" d="M127.5,107.7L127.5,107.7C127.5,107.7,127.4,107.7,127.5,107.7c-0.5,0.2-0.9,0.2-1.3,0.5h-3.1
			c-0.3,0-0.5,0-1.1-0.2h-0.1c0,0-0.3,0.2-0.4,0.5s-0.1,0.5-0.1,0.7h6.5c0.1-0.2,0.1-0.7,0-0.9C127.9,107.9,127.8,107.7,127.5,107.7
			L127.5,107.7z"/>
		<path class="st5" d="M114.4,93H114c-0.6,0-1.5,0.5-2.5,1.2c-0.6,0.5-1.7,1.6-3.5,3.3c-1.9,2.3-4.8,6.1-8.8,11.7l10.7,0.2h9.1
			l0.3-1c0-0.7,0-1.4-0.1-1.6l-0.1-0.2c-1.2-0.9-2-1.4-2.4-1.9c-0.3-0.2-0.5-0.7-0.7-1.4c0-0.5,0-0.9,0.3-1.4l1.7-3.3l0.1-0.5
			l-0.1-0.2l-1.7-1.4l-0.3-0.5c-0.4-0.7-0.7-1.6-0.8-3c-0.1,0.2-0.4,0-0.6,0"/>
		<path class="st4" d="M118.9,53.6h0.8c1.1,0.2,2.3,0.7,3.5,1.4c0.9,0.4,2.7,1.9,5.3,4.4c3,2.8,8.2,9.3,15.6,19.1l-17.6,0.5L92.9,79
			c4-4.2,7.2-7.5,9.3-9.8c1.5-1.4,4.6-5.1,9.5-11c0.5-0.7,1.1-1.2,1.6-1.6c0.8-0.9,1.9-1.6,3.2-2.3C117,53.7,117.8,53.5,118.9,53.6
			L118.9,53.6z"/>
		<path class="st4" d="M90.5,62.8L90.5,62.8c1.2,0,2.8,0.4,4.9,1.9c0.9,0.7,2,1.4,3.2,2.5c3.6,3.3,5.7,5.1,6.5,5.8
			c1.1,0.9,2,1.4,2.5,1.6c1.9,0.9,3.9,1.4,6,0.9L96.6,79H73.7l7.2-7.9c1.1-1.9,2.5-3.7,4.4-5.8c1.2-1.2,2-1.6,2.3-1.9
			C88.6,63,89.5,62.8,90.5,62.8L90.5,62.8z"/>
		<path class="st5" d="M90.8,62.8h0.4c1.3,0.2,2.8,0.9,4.5,2.1c0.7,0.5,1.7,1.2,3.1,2.3c3.5,3.3,5.7,5.1,6.5,5.8
			c1.1,0.9,1.9,1.4,2.4,1.6c2,1.2,4,1.6,6.3,1.2l-16.2,3.3h-8.5c0.4-0.7,0.4-1.9,0.2-4c-0.1-1.2-0.3-2.5-0.7-4.2
			c-0.1-1.2-0.1-2.1-0.1-2.5c0-0.2,0.1-0.5,0.1-0.7c0.6-1.2,1.2-2.1,1.7-3.3C90.5,64,90.6,63.3,90.8,62.8L90.8,62.8L90.8,62.8z"/>
		<path class="st6" d="M102.6,72.3c0.3,0,0.4,0,0.6,0.2c0.2,0.2,0.3,0.2,0.3,0.2c0.1,0.2,0.6,0.2,1.5,0.7h0.1c0.5,0.5,1.2,0.9,2,1.6
			c0.5,0.5,0.9,0.7,1.1,0.7l0,0c0.3,0.2,0.8,0.2,1.3,0.2c0.5,0,0.9,0.7,0.9,1.6c0,0.9-0.4,1.6-0.9,1.6c-0.8,0-1.3-0.2-1.9-0.2h-0.1
			c0,0-0.7-0.4-1.3-0.9l0,0c-0.7-0.7-1.3-1.2-1.9-1.4c-0.8-0.2-1.3-0.7-1.6-0.7h-0.1c-0.5,0-0.9-0.7-0.9-1.6
			C101.8,72.9,102.2,72.3,102.6,72.3L102.6,72.3z"/>
		<path class="st6" d="M109.4,78.6L109.4,78.6v0.2l0,0V78.6L109.4,78.6z"/>
		<path class="st6" d="M108.6,76.9h0.8l0.1,0.2v0.5l-0.1-0.2l-0.1-0.2l-0.1-0.2L108.6,76.9 M97.8,75.1h0.4l0.7,0.4l0.6,0.2
			c0,0,0.4,0,0.6,0.2h0.4c0,0,0.6,0.2,1.6,0.4h0.6l0.6,0.2h7.5c0.3,0,0.5,0.2,0.7,0.7c0.1,0.2,0.1,0.5,0.1,0.7c0,0.5,0,0.7-0.1,0.7
			H99l-0.8-0.2l-0.5-0.5h-1.1c-0.3,0-0.4-0.2-0.5-0.4c-0.3-0.5-0.3-1.2,0-2.1c0.1-0.2,0.4-0.5,0.5-0.5L97.8,75.1L97.8,75.1z"/>
		<path class="st6" d="M108,76.5h-0.5l-0.4,0.7l0,0v-0.2l0.1-0.2h0.6L108,76.5C107.9,76.4,108.1,76.4,108,76.5L108,76.5 M103.3,75.7
			L103.3,75.7c0.4,0,0.5,0.2,0.5,0.2h1.6c0.3,0,1.1,0.2,2.5,0.4h3.5c0.3,0,0.4,0.2,0.5,0.4c0.1,0.2,0.1,0.5,0.3,0.7
			c0,0.5,0,0.9-0.3,1.4h-4.6c-0.3-0.4-0.3-0.9-0.1-1.6c-0.1,0.2-0.1,0.7-0.1,0.9c0.1,0.3,0.2,0.6,0.3,0.7h-3.7c0,0-0.4,0-0.5-0.2
			c-0.1,0-0.3-0.2-0.3-0.2c-0.3-0.2-0.4-0.7-0.4-1.2c0-0.2,0-0.7,0.3-1.2C102.9,75.9,103.1,75.6,103.3,75.7L103.3,75.7z"/>
		<path class="st6" d="M102,75.8c0.4,0,0.8,0.4,0.8,1.2v0.2C102.9,76.3,102.5,75.8,102,75.8z"/>
		<path class="st6" d="M104.2,76c0.4,0,0.7,0.5,0.8,1.2v0.2C105,76.7,104.8,76.3,104.2,76z"/>
		<path class="st6" d="M102.9,77.4L102.9,77.4v0.5c0,0.2-0.1,0.2-0.1,0.5h-0.4l0.1-0.2l0.1-0.2l0.1-0.2v-0.5L102.9,77.4L102.9,77.4"
			/>
		<path class="st6" d="M111.4,75.3L111.4,75.3c0.4,0.2,0.7,0.5,0.8,0.7c0.1,0.5,0.1,0.9,0,1.4c-0.1,0.2-0.1,0.5-0.3,0.5
			s-0.1,0.2-0.3,0.2c-0.4,0.2-0.8,0.5-1.1,0.7h-8.9c-0.3,0-0.4-0.2-0.4-0.4c-0.3-0.5-0.3-1.2-0.1-1.9c0.1-0.5,0.3-0.7,0.6-0.9h1.5
			l0.8,0.2h1.1l1.3,0.2h2.4l0.8-0.2c0.3,0,0.4-0.2,0.5-0.2s0.5-0.2,0.9-0.7C111.1,75.4,111.2,75.4,111.4,75.3L111.4,75.3z M105,77.9
			L105,77.9v0.5l0,0l-0.1,0.2l0,0l-0.1,0.2h0.1v-1.2L105,77.9L105,77.9"/>
		<path class="st6" d="M97.2,76.7h0.1l2,0.7c0,0,0.4,0,0.6,0.2l0.6,0.2h3.9c0.4,0,0.9-0.2,1.7-0.2h0.3c0.3,0,0.4,0.2,0.5,0.4
			c0.1,0.5,0.3,0.7,0.3,1.2H96.4c-0.1-0.4-0.1-0.9,0-1.6C96.5,77,96.8,76.7,97.2,76.7z"/>
		<path class="st5" d="M118.9,53.6h0.8c1.1,0.2,2.4,0.7,4.1,1.9c1.1,0.7,3,2.3,5.6,5.1c3.1,3.3,7.9,9.3,14.5,17.9L126.4,79h-15.2
			l-0.5-1.4c0-1.2,0-2.1,0.1-2.5l0.3-0.5c2-1.4,3.3-2.3,3.8-2.8s0.8-1.2,1.1-2.3c0.1-0.7,0-1.6-0.3-2.3l-2.8-5.1l-0.3-0.7l0.1-0.2
			l2.8-2.1c0,0,0.3-0.2,0.4-0.5c0.6-1.2,1.1-2.6,1.3-4.6C117.8,53.6,118.2,53.6,118.9,53.6"/>
	</g>
	<path class="st7" d="M32,54.4c-3.6-2.3-6-6.4-6-11c0-7.2,5.8-13,13-13c4.6,0,8.6,2.4,11,6H190c2.3-3.6,6.4-6,11-6
		c7.2,0,13,5.8,13,13c0,4.6-2.4,8.6-6,11v140.1c3.6,2.3,6,6.4,6,11c0,7.2-5.8,13-13,13c-4.6,0-8.6-2.4-11-6H50c-2.3,3.6-6.4,6-11,6
		c-7.2,0-13-5.8-13-13c0-4.6,2.4-8.6,6-11V54.4z M188.3,46.4H51.7c-1.1,4.8-4.9,8.5-9.7,9.7v136.7c4.8,1.1,8.5,4.9,9.7,9.7h136.7
		c1.1-4.8,4.9-8.5,9.7-9.7V56.1C193.2,55,189.5,51.2,188.3,46.4z"/>
</g>
</svg>
