<svg xmlns="http://www.w3.org/2000/svg" xml:space="preserve" fill-rule="evenodd" stroke-linejoin="round" stroke-miterlimit="2" clip-rule="evenodd" viewBox="0 0 64 64">
  <g id="orange">
    <path fill="#edb856" d="M49.454 12.085a3.32 3.32 0 0 0 2.461 2.461v34.908a3.32 3.32 0 0 0-2.461 2.461H14.546a3.32 3.32 0 0 0-2.461-2.461V14.546a3.32 3.32 0 0 0 2.461-2.461h34.908Z"/>
    <path fill="#dcad52" d="m33.42 49.729.01.011h-6.199l-3.268-.051c1.378-1.829 2.348-3.013 2.89-3.544.47-.47.807-.766.97-.828.235-.112.439-.234.643-.234h.133v-.011c.204 0 .337 0 .439.062.235.112.429.235.603.408.102.061.204.174.306.296.909 1.124 1.491 1.767 1.757 2.063.033.039.068.078.104.118l.539-.475c.235-.174.439-.347.603-.47.367-.235.674-.357.909-.357h.01c.174 0 .378.051.541.112.072.061.235.184.439.357.337.358.603.705.807 1.063l1.348 1.48H33.42Z"/>
    <path fill="#f3c56c" d="M30.207 49.678h-.086a.117.117 0 0 1-.064-.009l-.028.081h-2.798l-3.268-.051c1.246-1.593 2.114-2.717 2.686-3.309.5-.48.837-.827 1.041-.95.307-.235.572-.357.776-.357h.133l.021.01h.265c.031.357.102.653.235.827l.071.123.542.408.03.061-.03.123-.542.939a.581.581 0 0 0-.071.409c.071.174.102.347.204.408.102.123.337.297.705.532.041 0 .071.061.071.061a.812.812 0 0 1 .019.091l.009.007c.198-.036.386-.111.575-.231.071-.061.235-.122.439-.296.164-.112.562-.47 1.205-1.062.266-.184.439-.296.572-.419.296-.184.603-.296.838-.357h.071v-.011c.041.123.041.235.072.297.071.183.173.418.306.592 0 0 .031.061.031.122 0 .113 0 .235-.031.47-.072.296-.133.531-.133.766 0 .358 0 .593.072.715h-1.356l-.003.01h-2.112l-.012.011c-.071.061-.204.061-.337.061-.047 0-.088-.026-.118-.072Z"/>
    <path fill="#dcad52" d="m36.962 35.633-.254.054h-6.771l2.114-2.349c.337-.531.776-1.124 1.307-1.716.337-.296.572-.531.674-.531.307-.296.572-.357.838-.357v.01h.03c.337 0 .807.173 1.42.582.266.174.603.47.98.766l.867.783.175-.191c.439-.47 1.348-1.532 2.788-3.309.164-.173.307-.357.47-.531.266-.235.572-.47.94-.704.163-.062.408-.123.704-.123h.235c.307.061.644.174 1.011.409.266.112.776.592 1.583 1.348.878.878 2.4 2.767 4.596 5.709l-5.219.132-8.488.018Z"/>
    <path fill="#f4c56d" d="m36.802 35.633-.063.013h-5.056l.133-.163c.439-.297.674-.47.705-.532.204-.469.439-1 .633-1.705.398-.357 1.011-1.185 1.777-2.482l.01-.02h.102c.164.061.44.112.746.235.235.112.572.357.98.643.102.061.572.47 1.42 1.236.071.061.204.235.439.592.306.235.47.409.47.409.071.061.102.061.133.122.102.062.204.062.367.062l.024.015a.432.432 0 0 0 .068-.026l.204-.122.307-.235a1.62 1.62 0 0 0 .306-.654c.133-.173.266-.357.307-.47.163-.061.408-.296.674-.704.132-.296.337-.827.633-1.593l.776-1.359c.031-.061.072-.357.031-.827l.306-.061-.02.01c.643.112 1.113.296 1.45.531.265.174.847.705 1.716 1.583 1.246 1.409 2.665 3.176 4.289 5.352l-5.219.132-8.648.018Z"/>
    <path fill="#dcad52" d="M12.085 37.444c1.616-2.211 2.744-3.694 3.401-4.351.633-.654 1.072-1.001 1.277-1.124.296-.183.571-.296.837-.357h.204l.01.01c.235 0 .44.051.572.112.307.184.572.358.777.593.143.112.275.235.408.408 1.185 1.522 1.961 2.462 2.298 2.819l.112.131.715-.672c.337-.296.572-.48.807-.654.5-.347.868-.47 1.174-.47v.011c.235 0 .47.061.674.173.103.061.307.174.572.47.44.531.817 1.001 1.083 1.471l1.757 2.012h-4.637l-8.119.02-3.922-.103v-.499Z"/>
    <path fill="#f4c56d" d="M12.085 37.398c1.157-1.598 2.202-2.95 3.115-4.019.878-.889 1.317-1.297 1.348-1.297.174-.113.541-.296 1.113-.47h.102l-.02-.021h.031l.102.123c.041.123.102.174.173.296l.378 1.124.204.469c.307 1.185.48 1.767.511 1.828.276.532.541 1.001.848 1.359.047.08.101.136.155.174l.121-.052c.132 0 .234 0 .337-.061a.495.495 0 0 0 .5.061c.061 0 .092-.061.163-.122l.307-.358c.102-.183.204-.357.306-.592a.324.324 0 0 0 .164-.061.995.995 0 0 0 .143-.113 3.89 3.89 0 0 0 .469-.653l.368-.296c.572-.47 1.042-.705 1.481-.828h.128l.097-.163.541.766c.102.286.235.582.408.878.164.235.337.409.47.47l.174.235.235.643.275 1.185h-2.83l.104.112-8.12.021-3.901-.103v-.535Z"/>
    <path fill="#dcad52" d="M33.329 28.048H29.14l-2.696-.051c1.103-1.594 1.91-2.605 2.349-3.074.398-.409.674-.644.807-.705.204-.112.378-.235.541-.235h.102v-.02a.978.978 0 0 0 .409.061c.163.061.337.235.47.357.061.123.163.174.235.296.745.94 1.215 1.532 1.45 1.767l.089.11c.123-.116.264-.251.421-.406.194-.174.368-.286.501-.408.296-.174.531-.297.735-.297l.01.011c.133 0 .266.051.368.112.061 0 .194.123.368.296.265.347.5.644.674.94l1.113 1.297h-3.503l-.254-.051Z"/>
    <path fill="#f3c56c" d="m31.406 28.045-.019.064H29.1l-2.697-.051a68.107 68.107 0 0 1 2.217-2.952c.439-.418.714-.704.878-.827.276-.173.48-.296.643-.296h.102l.011-.031c.061 0 .132.062.163 0 .031.358.102.593.204.766l.072.123.439.357.031.062-.031.122-.439.827c-.072.123-.072.235-.072.358.041.184.102.296.174.357.092.113.296.235.602.47l.031.061a.226.226 0 0 1 .019.069c.163-.03.321-.09.482-.181.061 0 .204-.112.367-.235.133-.122.47-.419 1.011-.95.204-.184.368-.296.47-.357.235-.235.47-.296.674-.358h.072l.01.011c0 .112.03.173.03.173.092.174.164.358.266.531a.28.28 0 0 1 .031.123c0 .112 0 .235-.031.408a3.102 3.102 0 0 0-.102.705c0 .357 0 .531.071.654h-1.979l-.012.01h-1.348a.115.115 0 0 1-.053-.013Zm.072-.416-.023-.005.001.005h.022Z"/>
    <path fill="#dcad52" d="m25.811 20.437-.061.012h-5.791l1.818-1.991c.266-.47.633-.94 1.103-1.471.306-.296.5-.408.572-.47.265-.122.5-.173.735-.173l.01-.01c.307 0 .705.112 1.246.469.235.174.511.358.807.644l.76.686c.056-.061.109-.119.159-.176.368-.357 1.175-1.297 2.39-2.777.133-.174.266-.297.398-.409.205-.235.47-.408.807-.592.133-.123.337-.174.603-.174v.01h.204c.266.062.572.174.878.348.235.112.674.469 1.348 1.113.746.704 2.063 2.349 3.953 4.82l-4.443.123-7.496.018Z"/>
    <path fill="#f3c56c" d="M28.439 20.429a.492.492 0 0 1 .007.082h-2.757l-.01-.041h-1.808c.102-.174.102-.47.061-1.001a7.637 7.637 0 0 0-.174-1.062c-.03-.296-.03-.531-.03-.644 0-.061.03-.122.03-.173.164-.296.307-.531.439-.827 0-.123.031-.297.072-.409v-.02h.102c.337.061.705.235 1.144.531.174.122.439.296.776.592.878.827 1.45 1.297 1.655 1.471.265.235.469.357.602.408.195.113.388.199.584.256.015-.011.027-.021.039-.021.022 0 .078-.03.145-.087l.008-.035.072-.123c.5-.357.837-.592.97-.705.133-.112.204-.296.265-.592a1.2 1.2 0 0 0-.071-.592l-.715-1.297-.071-.174.03-.061.705-.531s.071-.062.102-.123c.163-.296.266-.654.337-1.174.163-.062.266-.062.409-.062h.214c.266.062.603.174 1.042.47.265.174.745.592 1.419 1.297.777.827 1.992 2.349 3.677 4.535l-4.443.122h-3.84l-.004-.01h-.983Z"/>
  </g>
  <g id="blue">
    <path fill="#d1f8fd" d="M9.532 14.117A3.326 3.326 0 0 1 8 11.319 3.325 3.325 0 0 1 11.319 8c1.175 0 2.206.613 2.798 1.532h35.766A3.326 3.326 0 0 1 52.681 8 3.325 3.325 0 0 1 56 11.319a3.326 3.326 0 0 1-1.532 2.798v35.766A3.326 3.326 0 0 1 56 52.681 3.325 3.325 0 0 1 52.681 56a3.326 3.326 0 0 1-2.798-1.532H14.117A3.326 3.326 0 0 1 11.319 56 3.325 3.325 0 0 1 8 52.681c0-1.175.613-2.206 1.532-2.798V14.117Zm39.922-2.032H14.546a3.32 3.32 0 0 1-2.461 2.461v34.908a3.32 3.32 0 0 1 2.461 2.461h34.908a3.32 3.32 0 0 1 2.461-2.461V14.546a3.32 3.32 0 0 1-2.461-2.461Z"/>
  </g>
</svg>
