<svg xmlns="http://www.w3.org/2000/svg" xml:space="preserve" fill-rule="evenodd" stroke-linejoin="round" stroke-miterlimit="2" clip-rule="evenodd" viewBox="0 0 64 64">
  <g id="brown">
    <path fill="#865b4e" d="M22.366 14.041c-.651 0-.952-.637-.849-1.437.057-.491.462-.603.839-.603.33 0 .641.086.641.086.283.061.462.525.66.921.197.396-.114.758-.98.99a1.427 1.427 0 0 1-.311.043ZM11.642 33.058c-.651 0-.952-.645-.848-1.445.056-.491.461-.603.838-.603.33 0 .641.086.641.086.283.069.452.525.66.921.198.396-.113.757-.98.99a1.06 1.06 0 0 1-.311.043v.008ZM42.72 22.104c-.65 0-.952-.645-.848-1.446.057-.49.462-.602.839-.602.33 0 .641.086.641.086.282.069.452.525.659.921.198.396-.113.757-.98.989a1.027 1.027 0 0 1-.311.043v.009Zm6.493 23.888c-.65 0-.952-.645-.848-1.446.056-.49.462-.602.838-.602.33 0 .641.095.641.095.283.06.462.516.66.92.198.405-.113.758-.98.99a1.027 1.027 0 0 1-.311.043Zm-6.351 4.638c-.651 0-.952-.636-.849-1.437.057-.49.462-.602.839-.602.33 0 .641.086.641.086.283.06.452.525.66.921.197.396-.114.757-.981.989a1.411 1.411 0 0 1-.31.043Zm-26.678.62c-.65 0-.952-.637-.848-1.437.056-.491.461-.603.838-.603.34 0 .641.095.641.095.283.06.462.516.66.921.198.404-.113.757-.98.989a1.425 1.425 0 0 1-.311.044v-.009Zm6.917-35.342c-.293 0-.679-.284-.717-.516-.047-.344.613-.344.613-.344h.038c.198 0 .49.163.358.636a.283.283 0 0 1-.292.216v.008Zm-8.029 15.756c-.292 0-.679-.284-.716-.516-.047-.344.622-.344.622-.344h.028c.198 0 .49.163.358.637-.047.163-.16.223-.292.223Zm.744 16.316c-.292 0-.678-.284-.707-.516-.056-.345.613-.345.613-.345h.028c.198 0 .49.164.358.637-.047.155-.16.215-.292.215v.009Zm23.936 3.468c-.283 0-.669-.284-.707-.516-.047-.345.613-.345.613-.345h.028c.198 0 .499.164.358.637-.047.155-.16.215-.292.215v.009Zm7.35-7.392c-.292 0-.678-.284-.716-.516-.047-.345.612-.345.612-.345h.038c.198 0 .49.164.358.646-.047.155-.16.215-.292.215Zm-2.544-18.553c-.292 0-.669-.284-.707-.516-.047-.344.613-.344.613-.344h.028c.198 0 .49.163.358.636-.047.164-.16.224-.292.224ZM30.234 14.058c-.283 0-.669-.284-.707-.516-.056-.344.613-.344.613-.344h.028c.198 0 .49.163.358.636-.047.164-.16.224-.292.224Zm17.123 10.524h-.048c-.311-.094-.141-.447-.056-.55.019-.026.038-.035.066-.035.085 0 .207.121.207.121.292.318-.009.464-.169.464Zm-4.298-6.419h-.047c-.32-.095-.15-.448-.066-.551a.083.083 0 0 1 .066-.034c.095 0 .208.12.208.12.282.327-.019.473-.17.473l.009-.008Zm-14.681-7.487h-.047c-.321-.094-.151-.447-.066-.551a.084.084 0 0 1 .066-.034c.094 0 .207.121.207.121.283.327-.019.473-.17.473l.01-.009Zm-8.858 4.217s-.038 0-.047-.009c-.321-.086-.142-.439-.057-.551.019-.025.038-.034.066-.034.085 0 .207.121.207.121.292.327-.009.473-.169.473Zm-7.859 13.252h-.048c-.32-.095-.15-.448-.056-.551a.072.072 0 0 1 .066-.034c.094 0 .207.12.207.12.283.319-.019.465-.169.465Zm-1.857 5.447h-.047c-.32-.095-.141-.448-.057-.551a.072.072 0 0 1 .066-.034c.085 0 .208.12.208.12.282.327-.01.465-.17.465Zm1.677 13.639h-.047c-.32-.094-.141-.447-.056-.55.019-.026.038-.035.066-.035.094 0 .207.121.207.121.283.327-.019.473-.17.473v-.009ZM18.888 56h-.037c-.321-.095-.151-.447-.066-.551a.082.082 0 0 1 .066-.034c.094 0 .207.12.207.12.277.312-.007.459-.16.465h-.01Zm-4.702-4.113h-.047c-.321-.095-.141-.448-.057-.551a.072.072 0 0 1 .066-.034c.085 0 .208.12.208.12.292.318-.01.465-.17.465Zm22.965 1.635s-.028 0-.047-.009c-.321-.086-.151-.439-.057-.551.019-.025.038-.034.066-.034.094 0 .208.12.208.12.282.327-.019.474-.17.474Zm3.948.266h-.037c-.321-.086-.151-.438-.066-.55a.084.084 0 0 1 .066-.035c.084 0 .207.121.207.121.286.32.002.459-.16.464h-.01Zm4.382-2.237h-.047c-.32-.086-.141-.439-.056-.551a.084.084 0 0 1 .066-.034c.084 0 .207.12.207.12.292.327-.01.465-.17.465Zm8.227-5.103s-.038 0-.047-.008c-.321-.086-.142-.439-.057-.551a.084.084 0 0 1 .066-.035c.085 0 .208.121.208.121.292.327-.01.473-.17.473Zm-7.605-25.979c-.012-.001-.031-.003-.038-.009-.32-.086-.15-.438-.065-.55a.083.083 0 0 1 .065-.035c.095 0 .208.121.208.121.277.32-.007.467-.16.473h-.01Zm-20.26 34.714c-.047 0-.104 0-.17-.018-1.63-.284 1.065-4.044-.848-4.242h-.104c-.838 0-1.517 1.041-2.186 2.082-.669 1.042-1.338 2.083-2.158 2.083-.16 0-.33-.035-.499-.129-1.979-1.007 1.47-5.146.311-6.704-1.159-1.557-2.13-1.118-2.658-1.772-.527-.654.057-1.308-.575-2.728-.631-1.429-4.41-.413-5.239-2.702-1.008-2.788.245-3.176 3.374-4.165 2.224-.706 2.045-1.558 1.291-1.627a8.352 8.352 0 0 0-.754-.043c-.471 0-.858.043-1.159.104-.302.043-.537.094-.716.094-.217 0-.359-.077-.425-.335-.216-.758 1.197-1.274 3.506-1.489 2.309-.215 3.637-3.115.462-3.941a2.286 2.286 0 0 0-.528-.069c-.443 0-.867.129-1.244.249-.386.13-.716.25-.98.25-.283 0-.499-.146-.603-.594-.254-1.11 1.819-1.411 3.845-1.411a22.7 22.7 0 0 1 2.657.155c.189.026.377.034.547.034 1.677 0 2.308-1.024 2.337-1.686.037-.973-2.055-1.171-3.148-1.231-1.093-.06-3.072-1.6-1.639-2.134.179-.069.377-.095.574-.095.509 0 1.075.173 1.602.353.528.172 1.018.353 1.395.353.283 0 .49-.103.594-.37.443-1.136-.443-1.076-1.574-3.812-.848-2.031.189-2.659 1.206-2.659.358 0 .707.077.98.198.726.318 1.489.817 2.827.817.603 0 1.31-.103 2.177-.353 2.808-.834 3.327-2.77 4.693-2.848h.047c1.338 0 1.753 2.96 3.044 3.675.33.18.65.258.952.258.876 0 1.555-.663 1.705-1.196.179-.637.839-1.756 1.81-1.756.122 0 .245.017.367.052 1.169.327.801 1.738-.452 2.358-1.254.619-2.13 1.996-1.367 3.597.764 1.6 2.196.757 2.281 2.177.085 1.42-1.828 3.674-2.507 4.483-.546.654.132 1.592 1.244 1.592.104 0 .207-.009.33-.026.104-.017.198-.026.292-.026 1.206 0 1.008 1.429-.066 1.524-1.159.103-1.131 1.437-.744 2.056.207.344.782.448 1.46.448.679 0 1.433-.104 2.083-.172.075 0 .141-.009.207-.009 1.15 0 1.47 1.127.123 1.988-1.197.757-2.441.55-2.318 1.618.254 2.099 6.53 2.624 7.953 2.624h.179c.141 0 .273-.009.396-.009 2.016 0 2.855.938 2.554 2.169-.227.895-.867 1.239-1.621 1.239-.867 0-1.904-.447-2.639-.989-1.395-1.024-1.913-1.713-4.41-2.591-.368-.129-.679-.189-.961-.189-1.612 0-1.8 1.979-1.225 3.425 1.291 3.253.725 4.285-1.913 5.129-2.629.843-5.692 1.841-7.153 3.098-1.055.903-1.856 1.178-2.572 1.178-.895 0-1.64-.438-2.554-.602a1.376 1.376 0 0 0-.17-.017c-.659 0-.716.826-.772 1.644-.057.817-.123 1.643-.782 1.643l.028-.008ZM49.138 50.2c-.302-.005-.768-.273-1.216-.852-1.159-1.549-1.734-2.754-2.62-3.648-.81-.827-2.488-2.875-1.771-2.875.066 0 .141.018.226.043.593.19 1.291 1.093 2.271 2.72.98 1.626 1.932 2.228 2.497 2.771 1.18 1.137 1.113 1.832.622 1.841h-.009ZM6.572 38.11a.542.542 0 0 1-.415-.172c-.499-.491.292-1.128.961-1.128.057 0 .114 0 .17.018.207.034.452.06.707.06.565 0 1.225-.129 1.894-.568.546-.37 1.366-.577 2.026-.577.499 0 .905.121 1.046.37.594 1.05-.697 1.093-1.602 1.093h-.556a38.84 38.84 0 0 0-2.507.258c-.546.069-1.196.637-1.715.637l-.009.009Zm20.345-23.019c-.49 0-.744-1.085-1.206-2.091-.509-1.128-2.139-.913-3.421-2.918C21.451 8.766 21.876 8 22.469 8c.311 0 .669.207.924.645.754 1.283.801 1.283 2.082 2.332 1.282 1.05 2.629 3.597 1.602 4.079a.447.447 0 0 1-.179.043l.019-.008Z"/>
  </g>
</svg>
