<svg xmlns="http://www.w3.org/2000/svg" xml:space="preserve" fill-rule="evenodd" stroke-linejoin="round" stroke-miterlimit="2" clip-rule="evenodd" viewBox="0 0 64 64">
  <g id="brown">
    <path fill="#66503a" d="M49.451 12.085a3.327 3.327 0 0 0 2.464 2.464v34.902a3.327 3.327 0 0 0-2.464 2.464H14.549a3.327 3.327 0 0 0-2.464-2.464V14.549a3.327 3.327 0 0 0 2.464-2.464h34.902Z"/>
    <path fill="#bda45c" d="m37.876 21.826-5.979 13.663s-3.002 5.448-3.709 5.163c-.708-.285.881-6.301.881-6.301l5.982-13.662c-1.019-1.545-1.258-2.963-1.03-4.299l1.634.657s-.208 2.63 1.223 3.206c1.432.576 3.144-1.45 3.144-1.45l1.642.662s-2.281 2.154-3.788 2.361Z"/>
  </g>
  <g id="blue">
    <path fill="#d1f8fd" d="M9.532 14.115a3.32 3.32 0 1 1 4.583-4.583h35.77a3.32 3.32 0 1 1 4.583 4.583v35.77a3.32 3.32 0 1 1-4.583 4.583h-35.77a3.32 3.32 0 1 1-4.583-4.583v-35.77Zm39.919-2.03H14.549a3.327 3.327 0 0 1-2.464 2.464v34.902a3.327 3.327 0 0 1 2.464 2.464h34.902a3.327 3.327 0 0 1 2.464-2.464V14.549a3.327 3.327 0 0 1-2.464-2.464Z"/>
  </g>
  <g id="grey">
    <path fill="#ababab" d="M34.021 16.39c-1.161-.512-.897-.924-.655-1.528.244-.605.341-1.151 1.53-.649l7.644 3.074c1.317.563.895.929.653 1.529-.241.601-.316 1.093-1.529.649l-1.642-.662-4.367-1.756-1.634-.657Zm-2.096 19.032 2.755 1.108c2.623 1.093 2.444 1.17 1.596 3.049l-2.259 5.617c-.461 1.144-5.617 5.989-9.256 4.51-3.638-1.481-4.567-8.743-4.106-9.886l2.26-5.616c.832-1.846.631-2.116 3.261-1.094l2.922 1.175-.029.066s-1.589 6.016-.881 6.301c.707.285 3.709-5.163 3.709-5.163l.028-.067Z"/>
  </g>
</svg>
