<svg xmlns="http://www.w3.org/2000/svg" xml:space="preserve" fill-rule="evenodd" stroke-linejoin="round" stroke-miterlimit="2" clip-rule="evenodd" viewBox="0 0 64 64">
  <g id="grey">
    <path fill="#c2bdbd" d="M49.451 12.085a3.327 3.327 0 0 0 2.464 2.464v34.902a3.327 3.327 0 0 0-2.464 2.464H14.549a3.327 3.327 0 0 0-2.464-2.464V14.549a3.327 3.327 0 0 0 2.464-2.464h34.902Z"/>
  </g>
  <g id="blue">
    <path fill="#17a" d="M24.596 14.972v7.503c0 1.17-.951 2.121-2.121 2.121h-7.503a2.123 2.123 0 0 1-2.121-2.121v-7.503c0-1.17.951-2.121 2.121-2.121h7.503c1.17 0 2.121.951 2.121 2.121Zm0 13.277v7.502a2.122 2.122 0 0 1-2.121 2.121h-7.503c-1.17 0-2.121-.95-2.121-2.121v-7.502c0-1.171.951-2.121 2.121-2.121h7.503c1.17 0 2.121.95 2.121 2.121Zm0 13.276v7.503c0 1.17-.951 2.121-2.121 2.121h-7.503a2.123 2.123 0 0 1-2.121-2.121v-7.503c0-1.17.951-2.121 2.121-2.121h7.503c1.17 0 2.121.951 2.121 2.121Zm13.276-26.553v7.503c0 1.17-.95 2.121-2.121 2.121h-7.502a2.122 2.122 0 0 1-2.121-2.121v-7.503c0-1.17.95-2.121 2.121-2.121h7.502c1.171 0 2.121.951 2.121 2.121Zm0 13.277v7.502c0 1.171-.95 2.121-2.121 2.121h-7.502a2.122 2.122 0 0 1-2.121-2.121v-7.502c0-1.171.95-2.121 2.121-2.121h7.502c1.171 0 2.121.95 2.121 2.121Zm0 13.276v7.503c0 1.17-.95 2.121-2.121 2.121h-7.502a2.122 2.122 0 0 1-2.121-2.121v-7.503c0-1.17.95-2.121 2.121-2.121h7.502c1.171 0 2.121.951 2.121 2.121Zm13.277-26.553v7.503c0 1.17-.951 2.121-2.121 2.121h-7.503a2.123 2.123 0 0 1-2.121-2.121v-7.503c0-1.17.951-2.121 2.121-2.121h7.503c1.17 0 2.121.951 2.121 2.121Zm0 13.277v7.502a2.122 2.122 0 0 1-2.121 2.121h-7.503c-1.17 0-2.121-.95-2.121-2.121v-7.502c0-1.171.951-2.121 2.121-2.121h7.503c1.17 0 2.121.95 2.121 2.121Zm0 13.276v7.503c0 1.17-.951 2.121-2.121 2.121h-7.503a2.123 2.123 0 0 1-2.121-2.121v-7.503c0-1.17.951-2.121 2.121-2.121h7.503c1.17 0 2.121.951 2.121 2.121Z"/>
    <path fill="#d1f8fd" d="M9.532 14.115a3.32 3.32 0 1 1 4.583-4.583h35.77a3.32 3.32 0 1 1 4.583 4.583v35.77a3.32 3.32 0 1 1-4.583 4.583h-35.77a3.32 3.32 0 1 1-4.583-4.583v-35.77Zm39.919-2.03H14.549a3.327 3.327 0 0 1-2.464 2.464v34.902a3.327 3.327 0 0 1 2.464 2.464h34.902a3.327 3.327 0 0 1 2.464-2.464V14.549a3.327 3.327 0 0 1-2.464-2.464Z"/>
  </g>
</svg>
