<svg xmlns="http://www.w3.org/2000/svg" xml:space="preserve" fill-rule="evenodd" stroke-linejoin="round" stroke-miterlimit="2" clip-rule="evenodd" viewBox="0 0 64 64">
  <g id="grey">
    <path fill="#c4c3c3" d="m48.892 18.895-.003.013-3.478 35.387c-.167.902-.971 1.622-1.816 1.622L20.572 56a1.853 1.853 0 0 1-1.816-1.621c-.112-.915-3.799-35.436-3.799-35.36l33.935-.124Z"/>
    <path fill="#e7e6e6" d="m22.665 21.847 1.857 30.092c0 .888-.61 1.539-1.455 1.539-.846 0-1.567-.651-1.649-1.456l-2.593-30.093c-.042-.886.721-1.537 1.816-1.537 1.094 0 1.94.651 2.024 1.455Zm7.485-.07h.014l.484 30.093c0 .888-.638 1.539-1.538 1.539-.901 0-1.621-.651-1.621-1.456L26.351 21.86c0-.886.763-1.538 1.858-1.538 1.096 0 1.941.652 1.941 1.455Zm7.554 0-.845 30.093c-.084.888-.736 1.539-1.622 1.539-.888 0-1.539-.651-1.539-1.456l.208-30.093c.084-.886.887-1.538 1.94-1.538 1.054 0 1.858.652 1.858 1.455Zm7.513-.082h-.014l-2.342 30.092c-.029.886-.805 1.538-1.651 1.538-.845 0-1.538-.652-1.455-1.455l1.622-30.093c.083-.887.928-1.539 2.024-1.539 1.095 0 1.899.652 1.816 1.457Z"/>
    <path fill="#a7a5a6" d="M20.53 20.363h.014l2.467 33.087c-.818 0-1.455-.652-1.539-1.455l-2.591-30.093c-.084-.818.721-1.455 1.649-1.539Zm7.637 0h.014l.845 33.087c-.817 0-1.537-.652-1.537-1.455l-1.138-30.093c0-.818.805-1.455 1.816-1.539Zm7.707-.083-.527 33.087h-.083c-.887 0-1.539-.652-1.539-1.455l.209-30.093c0-.887.846-1.539 1.94-1.539Zm7.596 0-2.218 33.087c-.845 0-1.539-.652-1.455-1.455l1.649-30.093c.083-.887.929-1.539 2.024-1.539Z"/>
    <path fill="#aaa8a8" d="m49.001 18.177-.083.718-33.961.124c0-.082-.083-.651-.083-.72v-.004l34.127-.118Z"/>
    <path fill="#c4c3c3" d="m14.036 16.912-.021 1.387 35.956-.125h.014l-.021-1.387c0-1.178-.97-2.107-2.107-2.107l-31.714.125a2.116 2.116 0 0 0-2.107 2.107Z"/>
    <path fill="#c4c3c3" d="M39.466 10.074c.008.075.012.151.012.227v2.874h-.028v-2.874a1.77 1.77 0 0 0 .016-.227Zm-2.011 3.109v-2.037c0-.609-.402-1.012-1.013-1.012l-8.884.084c-.611 0-1.013.401-1.013 1.011v1.996l-.79.004v-2.166c0-1.012.846-1.858 1.858-1.858l8.525-.083c1.011 0 1.857.846 1.857 1.857v2.202l-.54.002Z"/>
    <path fill="#dcdbdb" d="m39.45 13.175 8.407-.032c1.009 0 1.855.731 2.061 1.721.026.124.041.253.046.385v1.538c0-1.178-.97-2.107-2.107-2.107l-31.714.125a2.116 2.116 0 0 0-2.107 2.107v-1.538a2.127 2.127 0 0 1 2.107-2.108l8.309-.032v-2.83a2.332 2.332 0 0 1 2.321-2.321h.022L37.094 8h.028c1.33 0 2.495 1.011 2.328 2.301v2.874Zm-13.695.054 12.24-.048v-2.202a1.876 1.876 0 0 0-1.857-1.857l-8.525.083a1.876 1.876 0 0 0-1.858 1.858v2.166Z"/>
  </g>
</svg>
