<svg xmlns="http://www.w3.org/2000/svg" xml:space="preserve" fill-rule="evenodd" stroke-linejoin="round" stroke-miterlimit="2" clip-rule="evenodd" viewBox="0 0 64 64">
  <g>
    <g id="orange">
      <path fill="#f5bb86" d="M30.066 11.112 13.783 27.467H11.85L30.608 8.633C31.02 8.217 31.501 8 32 8c.499 0 .98.226 1.392.642l18.491 18.825h-1.901L33.933 11.136l.001-.091c0-1.579-.866-2.845-1.934-2.845s-1.934 1.266-1.934 2.845v.067Z"/>
    </g>
    <g id="grey">
      <path fill="#e3e4e1" fill-rule="nonzero" d="M33.934 11.045c0 1.57-.866 2.845-1.934 2.845s-1.934-1.266-1.934-2.845c0-1.579.866-2.845 1.934-2.845s1.934 1.266 1.934 2.845"/>
    </g>
    <g id="red">
      <path fill="#ef3949" fill-rule="nonzero" d="M53.637 56H10.363C9.059 56 8 54.447 8 52.53V30.937c0-1.917 1.059-3.47 2.363-3.47h43.274c1.304 0 2.363 1.562 2.363 3.47V52.53c0 1.917-1.059 3.47-2.363 3.47"/>
    </g>
  </g>
</svg>
