<svg xmlns="http://www.w3.org/2000/svg" xml:space="preserve" fill-rule="evenodd" stroke-linejoin="round" stroke-miterlimit="2" clip-rule="evenodd" viewBox="0 0 64 64">
  <g id="brown">
    <path fill="#ab7448" d="m23.968 12.085.488 39.83h-8.635l-.488-39.83h8.635Zm16.988 0 .487 39.83h-8.635l-.486-39.83h8.634Zm8.673 39.288-.318-39.288h.14a3.327 3.327 0 0 0 2.464 2.464v34.902a3.332 3.332 0 0 0-2.286 1.922Z"/>
    <path fill="#bc814f" d="m15.522 12.085.488 39.83h-1.461a3.327 3.327 0 0 0-2.464-2.464V14.549a3.327 3.327 0 0 0 2.464-2.464h.973Zm17.084 0 .487 39.83h-8.637l-.488-39.83h8.638Zm16.992.465.465 38.091c-.289.37-.501.802-.612 1.274h-8.008l-.487-39.83h8.495c.037.159.086.315.147.465Z"/>
    <path fill="url(#_Linear1)" d="m15.333 12.085.488 39.83h-1.272a3.295 3.295 0 0 0-.451-1.049l-.454-37.179c.439-.43.759-.983.905-1.602h.784Z"/>
    <path fill="url(#_Linear2)" d="m32.322 12.085.486 39.83h-1.709l-.488-39.83h1.711Z"/>
    <path fill="url(#_Linear3)" d="m40.482 12.085.487 39.83h-1.708l-.487-39.83h1.708Z"/>
    <path fill="url(#_Linear4)" d="m23.684 12.085.487 39.83h-1.708l-.487-39.83h1.708Z"/>
    <path fill="url(#_Linear5)" d="m49.118 12.085.482 39.361a3.01 3.01 0 0 0-.149.469h-1.555l-.487-39.83h1.709Z"/>
    <path fill="#74352a" d="M14.351 12.671c.005.185.018.357.048.494.096.429.015 1.2-.162 1.542-.095-.427-.19-.854-.11-1.617.083-.133.159-.273.224-.419Zm-2.155 1.85c.003.349.015.68-.032 1.125-.058-.266-.05-.665-.016-1.112a.672.672 0 0 0 .048-.013Zm-.111 20.5c.085.499.205 1.005.426 1.453a1.9 1.9 0 0 1-.426-.439v-1.014Zm0 4.109.003.001c.274.084-.081.771.015 1.2.098.427-.081.771.016 1.199.095.428-.082.771.014 1.2.191.857.014 1.2.014 1.2l-.062-.28v-4.52Zm8.751 12.785c.008-.134.034-.288.108-.429.034.159.032.306.015.429h-.123Zm.108-.429c-.275-.086-.098-.428-.098-.428.274.086.098.428.098.428Zm-.098-.428c-.272-.087-.095-.429-.095-.429.272.085.095.429.095.429Zm-.095-.429c-.274-.086-.096-.429-.192-.857.272.086.367.515.192.857Zm-.192-.857c-.274-.088-.097-.43-.192-.859.274.087.095.429.192.859Zm-.192-.859-.095-.429c.271.087.095.429.095.429Zm-.095-.429c-.274-.084-.097-.426-.097-.426.273.085.097.426.097.426Zm-.097-.426c-.369-.517-.192-.859-.192-.859l.192.859Zm2.205 3.857c.018-.251.07-.492.008-.768-.096-.43.081-.773.163-1.544.177-.342-.097-.428.081-.771.177-.342.177-.342.082-.771.081-.771.258-1.114.258-1.114s.095.429.013 1.2c0 0-.176.343.097.427-.177.344.096.43-.081.774.097.427-.082.771-.163 1.543.083.367-.038.674-.011 1.024h-.447Zm8.822 0c.017-.253.043-.504.07-.755a4.859 4.859 0 0 0-.012.755h-.058Zm6.034 0a.356.356 0 0 1 .028-.06s.005.022.01.06h-.038Zm2.102 0a1.058 1.058 0 0 1 .095-.569c.043.192.086.384.104.569h-.199Zm.095-.569-.097-.43s.274.088.097.43Zm3.296.569c.002-.232.012-.469.019-.705.021.25.043.483.057.705h-.076Zm.019-.705a15.942 15.942 0 0 1-.069-1.231c.083.376.081.801.069 1.231Zm-.069-1.231c-.084-.375-.081-.8-.07-1.231.033.371.064.776.07 1.231Zm-.07-1.231c-.051-.607-.106-1.118-.055-1.597.107.481.072 1.044.055 1.597Zm3.773-36.663.004.017c-.082.771.014 1.199.014 1.199l-.273-1.216h.255Zm-3.323 0c-.036.075-.056.145.065.183-.107-.034-.145-.106-.151-.183h.086Zm-14.721 0c.071.623.021 1.102.021 1.102s-.067-.3-.097-1.102h.076Zm-2.401 0c.065.133-.035.327-.035.327l-.073-.327h.108Zm-8.13 0c.024.615.131 1.313.141 2.199.192.858-.065 1.971-.147 2.742.082-.771-.111-1.628-.125-2.828-.143-.644-.034-1.434.064-2.113h.067Zm-3.57 2.622c.048.21.028.399.009.586a2.122 2.122 0 0 1-.009-.586Zm.009.586c.044.274.124.388.006.614-.049-.219-.026-.415-.006-.614Zm.006.614.096.428s-.272-.086-.096-.428Zm.545 29.656c-.096-.43.08-.773.08-.773s.096.43-.08.773Zm.191.857s.097.427-.082.771c.179-.344-.095-.428.082-.771Zm-.095-.429c.272.086.095.429.095.429-.272-.086-.095-.429-.095-.429Zm-.068 1.972c.274.085.097.427.097.427-.273-.085-.097-.427-.097-.427Zm.068-1.972c-.272-.086-.096-.428-.096-.428.272.086.096.428.096.428Zm.029 2.399c.273.087.096.429.096.429.095.429-.081.771-.081.771l-.192-.855.177-.345Zm-.016-1.199c-.177.343.097.427-.081.772 0 0-.096-.429.081-.772Zm10.958-.925s-.274-.085-.095-.429l.095.429Zm-.095-.429s-.098-.428.08-.772c-.178.344.096.43-.08.772Zm.095.429c.273.086.095.429.095.429l-.095-.429Zm21.251-11.622s.095.429-.083.772c.178-.343-.096-.429.083-.772Zm-.097-.428c.274.086.097.428.097.428-.274-.086-.097-.428-.097-.428Zm-.095-.429a1.23 1.23 0 0 1 .08-.772s.097.43-.08.772Zm.095.429c-.272-.087-.095-.429-.095-.429.273.086-.177.342.095.429Zm-.068 1.971c.275.087.099.428.099.428-.275-.086-.099-.428-.099-.428Zm.099.428c.271.087.094.429.094.429.095.429-.081.771-.081.771s.176-.342-.192-.856l.179-.344Zm-.017-1.199c-.177.342.096.428-.082.771 0 0-.095-.429.082-.771ZM12.274 17.275c.192.857.111 1.628.111 1.628s-.096-.429-.111-1.628Zm0 0c.179-.343-.096-.43.081-.772.098.429.098.429-.081.772Zm5.769 26.921c.177-.343.081-.77.081-.77s.273.086-.081.77Zm7.792-.33c-.273-.086-.096-.428-.096-.428s.272.086.096.428Zm0 0c.272.086.272.086.096.428-.274-.085-.096-.428-.096-.428Zm4.198-19.791c-.081.772.111 1.628.03 2.399-.192-.856-.111-1.627-.03-2.399Zm0 0c-.109-1.629-.029-2.4-.029-2.4s.191.858.029 2.4Zm-17.037 7.771c-.19-.858-.109-1.629-.479-2.144.37.515.561 1.373.479 2.144Zm0 0c.193.858.112 1.628-.243 2.314l.243-2.314Zm14.153-13.861c-.273-.087-.096-.429-.096-.429.274.086.096.429.096.429Zm.584 3.266c.106.314.006.507.006.507s-.054-.241-.006-.507Zm-.68-3.695c-.095-.429.082-.771.082-.771s.097.428-.082.771Zm.384 1.716c.274.085.369.514.192.856.272.086.095.429.095.429.275.085.097.43.097.43a.902.902 0 0 0-.088.264 1.286 1.286 0 0 0-.186-.352c-.272-.086-.096-.428-.096-.428-.272-.087-.096-.429-.096-.429s.179-.343.082-.77Zm-.288-1.287c.273.086.096.428.096.428-.273-.086.177-.342-.096-.428Zm.096.428c.272.087.096.429.192.859-.273-.088-.096-.43-.192-.859Zm-4.155 8.651c.097.427-.081.77-.081.77s-.095-.428.081-.77Zm-.095-.429c-.273-.088-.097-.43-.097-.43.274.088.097.43.097.43Zm0 0c.273.085.095.429.095.429-.271-.087-.095-.429-.095-.429Zm13.295 4.991-.192-.856c.177-.342.082-.771-.015-1.201-.095-.429.082-.771-.013-1.2-.097-.427.081-.771-.017-1.199-.096-.429.081-.771-.014-1.2.082-.771-.013-1.2-.013-1.2l.19.858c-.177.342-.082.771.015 1.198.096.43-.08.772.015 1.201.095.429-.081.771.014 1.2.097.43-.08.772.015 1.201-.081.763.013 1.19.015 1.198Zm0 0ZM22.775 14.562c-.028-.523-.09-1.058-.037-1.556.11.495.072 1.072.037 1.556Zm0 0c.015.287.02.572-.007.844-.042-.183-.019-.487.007-.844Zm-.082 9.587c-.274-.087-.097-.43-.097-.43.274.088.097.43.097.43Zm0 0c.273.085.095.428.095.428-.272-.086-.095-.428-.095-.428Zm8.203 18.526c.274.085.096.428.096.428.095.429-.082.771-.082.771s.177-.342-.191-.857l.177-.342Zm-.029-2.401c.272.087.095.429.095.429-.272-.085-.095-.429-.095-.429Zm.095.429s.096.429-.08.771c.176-.342-.097-.428.08-.771Zm-.08.771c-.179.344.095.429-.082.771 0 0-.097-.427.082-.771Zm-.112-1.628a1.234 1.234 0 0 1 .081-.771s.098.428-.081.771Zm.097.428c-.273-.085-.097-.428-.097-.428.274.086.097.428.097.428Zm-.067 1.971c.273.088.096.43.096.43-.274-.086-.096-.43-.096-.43Zm-8.75-3.956c-.193-.857-.207-2.057-.126-2.828.192.856-.067 1.971.126 2.828Zm-.119 5.143c.08-.772-.11-1.63-.028-2.4.19.857.108 1.628.028 2.4Zm0 0c.287 1.285.03 2.398.03 2.398s-.192-.856-.03-2.398Zm-.028-2.4c.08-.771.066-1.972.147-2.743.191.858-.067 1.972-.147 2.743Zm-.961-4.287Zm0 0 .193.857c-.177.342-.081.771.014 1.2.096.43-.081.772.015 1.201.096.427-.081.771.014 1.2.097.427-.081.77.016 1.199-.081.771.014 1.2.014 1.2l-.192-.857c.178-.343.081-.772-.015-1.2-.095-.429.082-.771-.013-1.2-.096-.429.08-.771-.016-1.201-.097-.428.082-.771-.014-1.2.081-.759-.013-1.186-.016-1.199Zm15.282-1.673c-.06.426-.104.848-.147 1.268-.006-.37.05-.798.147-1.268Zm0 0c.157-1.129.42-2.285 1.063-3.53-.423 1.243-.846 2.484-1.063 3.53Zm2.841-13.726c.095.429-.082.771-.082.771s-.096-.427.082-.771Zm-.193-.857c.275.087.098.429.098.429-.275-.087-.098-.429-.098-.429Zm0 0c.178-.343-.095-.429-.19-.858l-.192-.856s.178-.344-.097-.429c0 0 .177-.343-.095-.429.45-.257.354-.684.354-.685 0 0 .096.428-.082.771 0 0-.177.343.098.428 0 0-.178.344.095.429l.191.858c.096.428.096.428-.082.771Zm.098.429c.272.086.095.428.095.428-.272-.085-.095-.428-.095-.428Zm2.772 19.204.096.429s-.273-.087-.096-.429Zm0 0s-.096-.43.081-.772c-.177.342.096.43-.081.772Zm4.266-21.764c-.081.772.11 1.629.028 2.4-.19-.858-.109-1.628-.028-2.4Zm0 0c-.11-1.628-.03-2.398-.03-2.398s.192.856.03 2.398Zm-2.596-4.804c.271.087.368.514.191.858.272.085.095.429.095.429.274.086.098.428.098.428a.917.917 0 0 0-.089.266 1.315 1.315 0 0 0-.186-.352c-.272-.087-.095-.429-.095-.429-.274-.085-.095-.429-.095-.429s.177-.342.081-.771Zm0 0c-.274-.086-.098-.428-.193-.857.273.086.095.429.193.857Zm.295 1.981c.107.312.007.506.007.506s-.054-.242-.007-.506ZM41.808 38.15c-.272-.086-.095-.429-.095-.429s.272.087.095.429Zm0 0c.274.085.274.085.096.429-.272-.087-.096-.429-.096-.429Zm-5.563 4.619c-.272-.086-.096-.429-.096-.429.273.087.096.429.096.429Zm.671 3.001c.096.429-.08.771-.08.771s-.095-.429.08-.771Zm-.193-.857c.274.086.097.427.097.427-.273-.085-.097-.427-.097-.427Zm-.19-.858c.272.087.369.515.19.858-.271-.087-.095-.429-.19-.858Zm.287 1.285c.273.088.096.43.096.43-.273-.086-.096-.43-.096-.43Zm-.48-2.142c.275.086.096.427.193.857-.274-.086-.097-.43-.193-.857Zm-.095-.429c.273.085.095.429.095.429l-.095-.429Zm9.151-22.612c.191.858-.162 1.542-.244 2.313l.244-2.313Zm0 0c-.193-.857-.111-1.628-.481-2.143.37.515.562 1.371.481 2.143Zm-7.313 17.216c.11 1.627.03 2.399.03 2.399s-.193-.857-.03-2.399Zm.118-5.143c-.191-.856-.206-2.057-.125-2.828.191.858-.066 1.972.125 2.828Zm-.118 5.143c.08-.772-.111-1.63-.029-2.401.19.858.109 1.629.029 2.401Zm-.029-2.401c.081-.77.067-1.971.147-2.742.191.858-.066 1.972-.147 2.742ZM17.616 24.139c-.273-.086-.097-.428-.097-.428l.097.428Zm1.121 2.745c.4 2.915.347 6.086.022 9.17-.125-2.827-.073-6-.022-9.17Zm11.577 5.249c.192.856.11 1.627.029 2.398.081-.771-.111-1.627-.029-2.398ZM13.202 48.645c-.096-.429.081-.771.081-.771s.096.429-.081.771Zm.917-28.797.095.429c.097.43.192.859.016 1.201l.479 2.143c-.082.772.015 1.199.015 1.199l-.671-3c-.098-.428-.193-.857-.015-1.201.176-.342-.096-.427.081-.771Zm-.51 10.199c-.081.771.112 1.628.029 2.401-.191-.858-.11-1.63-.029-2.401Zm6.56-4.703c.096.429-.081.771-.081.771s-.095-.429.081-.771Zm-6.147-5.923c-.369-.515-.014-1.201-.014-1.201s.096.43.014 1.201Zm3.696 27.861a1.24 1.24 0 0 1-.081.771s-.095-.428.081-.771Zm11.31-1.61-.082.771s-.095-.429.082-.771Zm-.907-7.458-.191-.858c-.096-.429.081-.771-.192-.856-.096-.429.081-.771-.014-1.2-.096-.43.081-.772-.015-1.201-.095-.429.081-.771-.014-1.2-.097-.43-.015-1.201-.015-1.201l.192.859c.095.429-.082.771.192.855.095.429-.082.771.014 1.201.096.429-.08.772.015 1.2.095.429-.082.772.013 1.2.194.857.015 1.201.015 1.201Zm15.392-1.517c-.398-2.917-.524-5.745-.295-9.258-.051 3.17.347 6.086.295 9.258Zm.451-15c.192.857.207 2.057.672 3.002-.643-.601-.93-1.888-.672-3.002ZM27.362 42.754c-.4-2.914-.347-6.086-.295-9.258-.052 3.172.346 6.088.295 9.258Zm-6.506-27.951.096.429s-.273-.087-.096-.429Zm23.608 32.95-.095-.429s.271.087.095.429Zm-1.941-3.001-.028-2.401s.192.856.028 2.401Zm-14.71-16.995c.191.856.206 2.057.671 3.001-.465-.944-.93-1.888-.671-3.001Zm8.329-8.129c.097.428-.08.771-.08.771s-.096-.429.08-.771ZM33.87 41.223c.095.429-.082.771-.082.771s-.095-.429.082-.771Zm17.309 7.056.095.429s-.272-.087-.095-.429ZM29.983 12.503s.096.43.015 1.201l.19.858c.098.428.193.857.016 1.201.097.427.192.856.015 1.198l.192.859c-.082.771.013 1.2.013 1.2l-.67-3.004c-.097-.427-.192-.856-.015-1.198.178-.343-.096-.429.081-.771l-.095-.429c.354-.685.258-1.115.258-1.115Zm-.629 30.083c-.097-.427.082-.772.082-.772s.095.429-.082.772Zm5.534-21.761c.223 3.258.17 6.43.023 9.172-.126-2.83-.075-6-.023-9.172Zm9.209 11.672-.194-.858c-.095-.428.082-.771-.19-.857-.095-.429.082-.77-.014-1.199-.097-.429.08-.772-.017-1.2-.095-.429.082-.771-.013-1.2-.097-.429-.015-1.2-.015-1.2l.193.856c.095.429-.083.773.19.858.096.429-.081.771.015 1.201.097.427-.081.771.014 1.2.096.427-.081.77.016 1.198.191.859.015 1.201.015 1.201Zm-6.753 18.588.163-1.544s.096.43-.163 1.544Zm1.063-2.056s-.097-.428-.015-1.198l-.097-.43s-.095-.429.082-.771c-.095-.429.082-.771-.013-1.2-.097-.43.079-.772.161-1.543.177-.342-.096-.429.081-.771.176-.343.176-.343.081-.771.082-.772.259-1.113.259-1.113s.096.427.015 1.198c0 0-.179.343.095.429-.177.342.096.43-.081.772.096.429-.08.771-.162 1.541.095.429-.082.771.014 1.2-.176.343.096.43-.08.773l.095.428a4.662 4.662 0 0 0-.435 1.456Zm8.839-3.584c-.082.771.111 1.628.03 2.399-.193-.858-.112-1.628-.03-2.399Zm-9.998-9.531c.082-.772.163-1.542-.206-2.056.369.514.562 1.371.206 2.056Zm-.899.513-.095-.429c.272.086.272.086.095.429Zm9.253.529c-.098-.428.08-.772.08-.772s.097.43-.08.772Zm.687-10.541c.191.858.109 1.629.028 2.4.081-.771-.109-1.629-.028-2.4Zm-19.74 24.053-.028-2.401s.191.858.028 2.401Zm24.588-35.272c.125 2.828.073 6 .02 9.171-.123-2.829-.072-5.999-.02-9.171Zm-.342 31.367c-.273-.084-.095-.429-.095-.429l.095.429Zm-.951-11.056c.097.427-.082.771-.082.771s-.095-.429.082-.771Zm.326-3.086c.176-.342.081-.771.081-.771s.272.087-.081.771Z"/>
  </g>
  <g id="blue">
    <path fill="#d1f8fd" d="M9.532 14.115a3.32 3.32 0 1 1 4.583-4.583h35.77a3.32 3.32 0 1 1 4.583 4.583v35.77a3.32 3.32 0 1 1-4.583 4.583h-35.77a3.32 3.32 0 1 1-4.583-4.583v-35.77Zm39.919-2.03H14.549a3.327 3.327 0 0 1-2.464 2.464v34.902a3.327 3.327 0 0 1 2.464 2.464h34.902a3.327 3.327 0 0 1 2.464-2.464V14.549a3.327 3.327 0 0 1-2.464-2.464Z"/>
  </g>
  <defs>
    <linearGradient id="_Linear1" x1="0" x2="1" y1="0" y2="0" gradientTransform="matrix(1.79625,-0.0228427,0.0228427,1.79625,13.6188,37.1383)" gradientUnits="userSpaceOnUse">
      <stop offset="0" stop-color="#bd814f"/>
      <stop offset="0.44" stop-color="#bc804f"/>
      <stop offset="0.45" stop-color="#bc7f4e"/>
      <stop offset="0.47" stop-color="#b97d4c"/>
      <stop offset="0.48" stop-color="#b97c4b"/>
      <stop offset="0.48" stop-color="#b97c4b"/>
      <stop offset="0.55" stop-color="#b67947"/>
      <stop offset="0.56" stop-color="#b47747"/>
      <stop offset="0.57" stop-color="#b37746"/>
      <stop offset="0.58" stop-color="#b37646"/>
      <stop offset="0.59" stop-color="#b37646"/>
      <stop offset="0.61" stop-color="#b17444"/>
      <stop offset="0.61" stop-color="#b17444"/>
      <stop offset="0.63" stop-color="#b17344"/>
      <stop offset="0.63" stop-color="#b17343"/>
      <stop offset="0.64" stop-color="#af7142"/>
      <stop offset="0.66" stop-color="#af7141"/>
      <stop offset="0.66" stop-color="#ae7041"/>
      <stop offset="0.67" stop-color="#ae7040"/>
      <stop offset="0.68" stop-color="#ad6f40"/>
      <stop offset="0.69" stop-color="#ad6f3f"/>
      <stop offset="0.7" stop-color="#ac6e3f"/>
      <stop offset="0.73" stop-color="#ab6c3e"/>
      <stop offset="0.73" stop-color="#ab6c3d"/>
      <stop offset="0.75" stop-color="#a96b3c"/>
      <stop offset="0.77" stop-color="#a96a3b"/>
      <stop offset="0.78" stop-color="#a7693b"/>
      <stop offset="0.79" stop-color="#a7683a"/>
      <stop offset="0.8" stop-color="#a6673a"/>
      <stop offset="0.8" stop-color="#a66739"/>
      <stop offset="0.81" stop-color="#a56739"/>
      <stop offset="0.82" stop-color="#a56639"/>
      <stop offset="0.82" stop-color="#a56639"/>
      <stop offset="0.83" stop-color="#a46639"/>
      <stop offset="0.84" stop-color="#a46538"/>
      <stop offset="0.84" stop-color="#a36538"/>
      <stop offset="0.86" stop-color="#a36437"/>
      <stop offset="0.88" stop-color="#a26337"/>
      <stop offset="0.9" stop-color="#a16235"/>
      <stop offset="0.92" stop-color="#9f6034"/>
      <stop offset="0.94" stop-color="#9f5f33"/>
      <stop offset="0.95" stop-color="#9e5f32"/>
      <stop offset="0.96" stop-color="#9d5e32"/>
      <stop offset="0.97" stop-color="#9d5e31"/>
      <stop offset="0.98" stop-color="#9b5c31"/>
      <stop offset="0.98" stop-color="#9b5c31"/>
      <stop offset="1" stop-color="#9a5b30"/>
    </linearGradient>
    <linearGradient id="_Linear2" x1="0" x2="1" y1="0" y2="0" gradientTransform="matrix(1.74666,-0.0222057,0.0222057,1.74666,30.8173,30.7739)" gradientUnits="userSpaceOnUse">
      <stop offset="0" stop-color="#bd814f"/>
      <stop offset="0.45" stop-color="#bc804f"/>
      <stop offset="0.46" stop-color="#bc7f4e"/>
      <stop offset="0.48" stop-color="#b97d4c"/>
      <stop offset="0.5" stop-color="#b97c4b"/>
      <stop offset="0.51" stop-color="#b87c4b"/>
      <stop offset="0.53" stop-color="#b87a49"/>
      <stop offset="0.56" stop-color="#b67948"/>
      <stop offset="0.58" stop-color="#b57847"/>
      <stop offset="0.58" stop-color="#b47747"/>
      <stop offset="0.61" stop-color="#b37545"/>
      <stop offset="0.62" stop-color="#b27545"/>
      <stop offset="0.63" stop-color="#b27444"/>
      <stop offset="0.64" stop-color="#b17444"/>
      <stop offset="0.66" stop-color="#b17343"/>
      <stop offset="0.67" stop-color="#af7142"/>
      <stop offset="0.67" stop-color="#af7142"/>
      <stop offset="0.68" stop-color="#af7141"/>
      <stop offset="0.69" stop-color="#ae7041"/>
      <stop offset="0.7" stop-color="#ae7040"/>
      <stop offset="0.7" stop-color="#ad6f40"/>
      <stop offset="0.72" stop-color="#ad6f3f"/>
      <stop offset="0.73" stop-color="#ac6e3f"/>
      <stop offset="0.73" stop-color="#ac6d3e"/>
      <stop offset="0.76" stop-color="#aa6c3d"/>
      <stop offset="0.77" stop-color="#a96c3d"/>
      <stop offset="0.79" stop-color="#a96a3b"/>
      <stop offset="0.79" stop-color="#a86a3b"/>
      <stop offset="0.8" stop-color="#a8693b"/>
      <stop offset="0.81" stop-color="#a8693a"/>
      <stop offset="0.83" stop-color="#a6673a"/>
      <stop offset="0.84" stop-color="#a66739"/>
      <stop offset="0.84" stop-color="#a56739"/>
      <stop offset="0.85" stop-color="#a56639"/>
      <stop offset="0.86" stop-color="#a46638"/>
      <stop offset="0.87" stop-color="#a46538"/>
      <stop offset="0.88" stop-color="#a46538"/>
      <stop offset="0.92" stop-color="#a26335"/>
      <stop offset="0.93" stop-color="#a06135"/>
      <stop offset="0.94" stop-color="#a06134"/>
      <stop offset="0.95" stop-color="#9f6034"/>
      <stop offset="0.97" stop-color="#9f5f33"/>
      <stop offset="0.98" stop-color="#9e5f33"/>
      <stop offset="0.98" stop-color="#9e5e32"/>
      <stop offset="1" stop-color="#9c5d31"/>
    </linearGradient>
    <linearGradient id="_Linear3" x1="0" x2="1" y1="0" y2="0" gradientTransform="matrix(1.79849,-0.0228702,0.0228702,1.79849,38.6638,27.7558)" gradientUnits="userSpaceOnUse">
      <stop offset="0" stop-color="#ab7447"/>
      <stop offset="0.44" stop-color="#aa7447"/>
      <stop offset="0.44" stop-color="#aa7347"/>
      <stop offset="0.45" stop-color="#aa7346"/>
      <stop offset="0.45" stop-color="#aa7246"/>
      <stop offset="0.46" stop-color="#a97246"/>
      <stop offset="0.47" stop-color="#a87145"/>
      <stop offset="0.47" stop-color="#a87045"/>
      <stop offset="0.48" stop-color="#a77043"/>
      <stop offset="0.5" stop-color="#a76f43"/>
      <stop offset="0.52" stop-color="#a66f42"/>
      <stop offset="0.55" stop-color="#a46c40"/>
      <stop offset="0.56" stop-color="#a36c40"/>
      <stop offset="0.57" stop-color="#a36c3f"/>
      <stop offset="0.57" stop-color="#a36b3f"/>
      <stop offset="0.58" stop-color="#a26b3f"/>
      <stop offset="0.58" stop-color="#a26b3e"/>
      <stop offset="0.6" stop-color="#a2693e"/>
      <stop offset="0.61" stop-color="#a1693d"/>
      <stop offset="0.62" stop-color="#a1683d"/>
      <stop offset="0.63" stop-color="#a0683c"/>
      <stop offset="0.64" stop-color="#9f673c"/>
      <stop offset="0.64" stop-color="#9f673b"/>
      <stop offset="0.66" stop-color="#9e663b"/>
      <stop offset="0.67" stop-color="#9e653a"/>
      <stop offset="0.69" stop-color="#9d6439"/>
      <stop offset="0.7" stop-color="#9d6339"/>
      <stop offset="0.71" stop-color="#9c6338"/>
      <stop offset="0.72" stop-color="#9c6238"/>
      <stop offset="0.73" stop-color="#9b6237"/>
      <stop offset="0.73" stop-color="#9b6137"/>
      <stop offset="0.75" stop-color="#996037"/>
      <stop offset="0.76" stop-color="#996036"/>
      <stop offset="0.77" stop-color="#996036"/>
      <stop offset="0.81" stop-color="#965d33"/>
      <stop offset="0.83" stop-color="#955d33"/>
      <stop offset="0.84" stop-color="#955c32"/>
      <stop offset="0.84" stop-color="#945c32"/>
      <stop offset="0.85" stop-color="#945b32"/>
      <stop offset="0.86" stop-color="#945b31"/>
      <stop offset="0.88" stop-color="#935a31"/>
      <stop offset="0.89" stop-color="#935930"/>
      <stop offset="0.9" stop-color="#925830"/>
      <stop offset="0.91" stop-color="#92582f"/>
      <stop offset="0.94" stop-color="#90562e"/>
      <stop offset="0.95" stop-color="#90562d"/>
      <stop offset="0.97" stop-color="#8e542c"/>
      <stop offset="0.98" stop-color="#8d542c"/>
      <stop offset="0.98" stop-color="#8d532c"/>
      <stop offset="1" stop-color="#8c522c"/>
    </linearGradient>
    <linearGradient id="_Linear4" x1="0" x2="1" y1="0" y2="0" gradientTransform="matrix(1.79836,-0.0228621,0.0228621,1.79836,21.983,34.158)" gradientUnits="userSpaceOnUse">
      <stop offset="0" stop-color="#ab7447"/>
      <stop offset="0.44" stop-color="#aa7447"/>
      <stop offset="0.44" stop-color="#aa7347"/>
      <stop offset="0.45" stop-color="#aa7346"/>
      <stop offset="0.45" stop-color="#aa7246"/>
      <stop offset="0.46" stop-color="#a97246"/>
      <stop offset="0.47" stop-color="#a87145"/>
      <stop offset="0.48" stop-color="#a87045"/>
      <stop offset="0.48" stop-color="#a77044"/>
      <stop offset="0.48" stop-color="#a77043"/>
      <stop offset="0.5" stop-color="#a76f43"/>
      <stop offset="0.52" stop-color="#a66f42"/>
      <stop offset="0.55" stop-color="#a56d41"/>
      <stop offset="0.55" stop-color="#a46c41"/>
      <stop offset="0.57" stop-color="#a36c3f"/>
      <stop offset="0.57" stop-color="#a36b3f"/>
      <stop offset="0.58" stop-color="#a26b3f"/>
      <stop offset="0.59" stop-color="#a26b3e"/>
      <stop offset="0.6" stop-color="#a2693e"/>
      <stop offset="0.61" stop-color="#a1693d"/>
      <stop offset="0.64" stop-color="#9f683c"/>
      <stop offset="0.64" stop-color="#9f673b"/>
      <stop offset="0.66" stop-color="#9e663b"/>
      <stop offset="0.67" stop-color="#9e653a"/>
      <stop offset="0.69" stop-color="#9d6439"/>
      <stop offset="0.7" stop-color="#9d6339"/>
      <stop offset="0.71" stop-color="#9c6338"/>
      <stop offset="0.72" stop-color="#9c6238"/>
      <stop offset="0.73" stop-color="#9b6237"/>
      <stop offset="0.73" stop-color="#9b6137"/>
      <stop offset="0.75" stop-color="#996037"/>
      <stop offset="0.76" stop-color="#996036"/>
      <stop offset="0.8" stop-color="#975e34"/>
      <stop offset="0.81" stop-color="#965d34"/>
      <stop offset="0.82" stop-color="#965d33"/>
      <stop offset="0.83" stop-color="#955d33"/>
      <stop offset="0.84" stop-color="#955c32"/>
      <stop offset="0.84" stop-color="#945c32"/>
      <stop offset="0.85" stop-color="#945b32"/>
      <stop offset="0.86" stop-color="#945b31"/>
      <stop offset="0.86" stop-color="#945a31"/>
      <stop offset="0.88" stop-color="#935a31"/>
      <stop offset="0.89" stop-color="#935930"/>
      <stop offset="0.9" stop-color="#925830"/>
      <stop offset="0.91" stop-color="#92582f"/>
      <stop offset="0.94" stop-color="#90562e"/>
      <stop offset="0.94" stop-color="#90562d"/>
      <stop offset="0.95" stop-color="#8f562d"/>
      <stop offset="0.96" stop-color="#8f552d"/>
      <stop offset="0.98" stop-color="#8d532c"/>
      <stop offset="0.98" stop-color="#8d532c"/>
      <stop offset="1" stop-color="#8c522c"/>
    </linearGradient>
    <linearGradient id="_Linear5" x1="0" x2="1" y1="0" y2="0" gradientTransform="matrix(1.79411,-0.0228166,0.0228166,1.79411,47.5591,24.5454)" gradientUnits="userSpaceOnUse">
      <stop offset="0" stop-color="#bd814f"/>
      <stop offset="0.44" stop-color="#bc804f"/>
      <stop offset="0.45" stop-color="#bc7f4e"/>
      <stop offset="0.46" stop-color="#ba7e4e"/>
      <stop offset="0.47" stop-color="#b97d4d"/>
      <stop offset="0.48" stop-color="#b97c4b"/>
      <stop offset="0.48" stop-color="#b97c4b"/>
      <stop offset="0.52" stop-color="#b77a49"/>
      <stop offset="0.53" stop-color="#b67949"/>
      <stop offset="0.55" stop-color="#b67948"/>
      <stop offset="0.55" stop-color="#b67947"/>
      <stop offset="0.57" stop-color="#b47747"/>
      <stop offset="0.61" stop-color="#b17444"/>
      <stop offset="0.63" stop-color="#b17343"/>
      <stop offset="0.64" stop-color="#af7143"/>
      <stop offset="0.66" stop-color="#af7141"/>
      <stop offset="0.66" stop-color="#ae7041"/>
      <stop offset="0.67" stop-color="#ae7040"/>
      <stop offset="0.68" stop-color="#ad6f40"/>
      <stop offset="0.7" stop-color="#ad6f3f"/>
      <stop offset="0.7" stop-color="#ac6e3f"/>
      <stop offset="0.7" stop-color="#ac6e3f"/>
      <stop offset="0.73" stop-color="#ab6d3e"/>
      <stop offset="0.73" stop-color="#ab6c3d"/>
      <stop offset="0.75" stop-color="#a96b3c"/>
      <stop offset="0.77" stop-color="#a96a3b"/>
      <stop offset="0.77" stop-color="#a86a3b"/>
      <stop offset="0.77" stop-color="#a8693b"/>
      <stop offset="0.78" stop-color="#a7693b"/>
      <stop offset="0.79" stop-color="#a7683a"/>
      <stop offset="0.79" stop-color="#a7683a"/>
      <stop offset="0.8" stop-color="#a6673a"/>
      <stop offset="0.8" stop-color="#a66739"/>
      <stop offset="0.81" stop-color="#a56739"/>
      <stop offset="0.82" stop-color="#a56639"/>
      <stop offset="0.83" stop-color="#a46639"/>
      <stop offset="0.84" stop-color="#a46538"/>
      <stop offset="0.84" stop-color="#a36538"/>
      <stop offset="0.85" stop-color="#a36437"/>
      <stop offset="0.89" stop-color="#a16235"/>
      <stop offset="0.9" stop-color="#a16235"/>
      <stop offset="0.92" stop-color="#9f6034"/>
      <stop offset="0.94" stop-color="#9f5f33"/>
      <stop offset="0.95" stop-color="#9e5f33"/>
      <stop offset="0.95" stop-color="#9e5f32"/>
      <stop offset="0.96" stop-color="#9e5e32"/>
      <stop offset="0.97" stop-color="#9d5e31"/>
      <stop offset="0.98" stop-color="#9b5c31"/>
      <stop offset="0.98" stop-color="#9b5c31"/>
      <stop offset="1" stop-color="#9a5b30"/>
    </linearGradient>
  </defs>
</svg>
